<?xml version="1.0" standalone="no"?><!DOCTYPE svg PUBLIC "-//W3C//DTD SVG 1.1//EN" "http://www.w3.org/Graphics/SVG/1.1/DTD/svg11.dtd" ><svg xmlns="http://www.w3.org/2000/svg"><metadata></metadata><defs><font id="Linotype GmbH:Avenir Next Cyr Demi:2012" horiz-adv-x="1230"><font-face font-family="Avenir Next Cyr" font-weight="700" font-stretch="normal" units-per-em="1000" panose-1="2 11 7 3 2 2 2 2 2 4" ascent="971" descent="-254" x-height="4" bbox="-214 -250 1192 957" underline-thickness="50" underline-position="-175" unicode-range="U+0000-fb04" /><missing-glyph horiz-adv-x="512" d="M278 117 l-56 0 l0 67 l56 0 l0 -67 ZM271 234 l-46 0 l-2 17 q0 56 13 81 q15 28 46 59 q31 29 40.5 46 q9.5 17 9.5 37 q0 36 -22.5 60.5 q-22.5 24.5 -53.5 24.5 q-71 0 -82 -95 l-50 8 q7 69 43 103 q36 34 92 34 q54 0 89 -36 q35 -36 35 -95 q0 -34 -13 -60 q-13 -26 -50 -60 q-37 -33 -43 -52 q-6 -20 -6 -72 ZM50 50 l412 0 l0 617 l-412 0 l0 -617 ZM0 718 l512 0 l0 -718 l-512 0 l0 718 Z" /><glyph glyph-name=".null" unicode="" d="" /><glyph glyph-name="nonmarkingreturn" unicode="" d="" /><glyph glyph-name="space" unicode=" " d="" /><glyph glyph-name="exclam" unicode="!" d="M230 708 l0 -486 l-120 0 l0 486 l120 0 ZM114 16 q-24 22 -24 54 q0 32 23.5 55 q23.5 23 56.5 23 q33 0 56.5 -22 q23.5 -22 23.5 -54 q0 -32 -23.5 -55 q-23.5 -23 -56.5 -23 q-32 0 -56 22 Z" /><glyph glyph-name="quotedbl" unicode="&quot;" d="M90 444 l0 264 l102 0 l0 -264 l-102 0 ZM267 444 l0 264 l102 0 l0 -264 l-102 0 Z" /><glyph glyph-name="numbersign" unicode="#" d="M107 0 l30 209 l-90 0 l0 84 l101 0 l18 122 l-90 0 l0 84 l101 0 l30 209 l88 0 l-30 -209 l103 0 l30 209 l87 0 l-30 -209 l90 0 l0 -84 l-102 0 l-17 -122 l90 0 l0 -84 l-100 0 l-31 -209 l-87 0 l30 209 l-104 0 l-30 -209 l-87 0 ZM356 415 l-103 0 l-17 -122 l103 0 l17 122 Z" /><glyph glyph-name="dollar" unicode="$" d="M330 786 l0 -66 q128 -2 208 -71 l-81 -84 q-48 53 -127 53 l0 -202 q46 -14 77.5 -28.5 q31.5 -14.5 66 -39 q34.5 -24.5 52 -61.5 q17.5 -37 17.5 -85 q0 -99 -62 -155 q-62 -56 -151 -58 l0 -72 l-54 0 l0 72 q-144 5 -235 93 l88 84 q27 -32 68 -52.5 q41 -20.5 79 -21.5 l0 222 q-102 28 -155.5 73 q-53.5 45 -53.5 133 q0 85 62 138.5 q62 53.5 147 59.5 l0 68 l54 0 ZM276 430 l0 188 q-38 -4 -63.5 -27.5 q-25.5 -23.5 -25.5 -64.5 q0 -70 89 -96 ZM330 298 l0 -206 q42 2 67.5 30.5 q25.5 28.5 25.5 72.5 q0 41 -24 64.5 q-24 23.5 -69 38.5 Z" /><glyph glyph-name="percent" unicode="%" d="M572.5 42.5 q-54.5 54.5 -54.5 131.5 q0 77 54.5 131.5 q54.5 54.5 131.5 54.5 q77 0 131.5 -54.5 q54.5 -54.5 54.5 -131.5 q0 -77 -54.5 -131.5 q-54.5 -54.5 -131.5 -54.5 q-77 0 -131.5 54.5 ZM768 110 q26 26 26 64 q0 38 -26 64 q-26 26 -64 26 q-38 0 -64 -26 q-26 -26 -26 -64 q0 -38 26 -64 q26 -26 64 -26 q38 0 64 26 ZM94.5 402.5 q-54.5 54.5 -54.5 131.5 q0 77 54.5 131.5 q54.5 54.5 131.5 54.5 q77 0 131.5 -54.5 q54.5 -54.5 54.5 -131.5 q0 -77 -54.5 -131.5 q-54.5 -54.5 -131.5 -54.5 q-77 0 -131.5 54.5 ZM290 470 q26 26 26 64 q0 38 -26 64 q-26 26 -64 26 q-38 0 -64 -26 q-26 -26 -26 -64 q0 -38 26 -64 q26 -26 64 -26 q38 0 64 26 ZM215 6 l416 734 l83 -38 l-416 -734 l-83 38 Z" /><glyph glyph-name="ampersand" unicode="&amp;" d="M712 374 l-142 -205 l165 -169 l-160 0 l-78 81 q-81 -95 -212 -95 q-99 0 -168 54.5 q-69 54.5 -69 151.5 q0 135 154 201 q-76 78 -76 159 q0 85 59.5 129.5 q59.5 44.5 140.5 44.5 q82 0 139 -44.5 q57 -44.5 57 -127.5 q0 -121 -145 -188 l116 -121 l82 129 l137 0 ZM386.5 606 q-23.5 23 -58.5 23 q-35 0 -59 -22.5 q-24 -22.5 -24 -56.5 q0 -56 63 -113 q102 43 102 113 q0 33 -23.5 56 ZM421 159 l-151 157 q-98 -36 -98 -119 q0 -49 36.5 -80 q36.5 -31 80.5 -31 q79 0 132 73 Z" /><glyph glyph-name="quotesingle" unicode="&#39;" d="M90 444 l0 264 l102 0 l0 -264 l-102 0 Z" /><glyph glyph-name="parenleft" unicode="(" d="M182 -156 q-146 202 -146 444 q0 242 146 444 l84 -55 q-127 -176 -127 -389 q0 -213 127 -389 l-84 -55 Z" /><glyph glyph-name="parenright" unicode=")" d="M148 732 q146 -202 146 -444 q0 -242 -146 -444 l-84 55 q127 176 127 389 q0 213 -127 389 l84 55 Z" /><glyph glyph-name="asterisk" unicode="*" d="M274 708 l0 -142 l135 44 l26 -80 l-136 -44 l86 -117 l-69 -50 l-86 118 l-84 -115 l-67 51 l86 113 l-137 47 l26 80 l136 -47 l0 142 l84 0 Z" /><glyph glyph-name="plus" unicode="+" d="M62 354 l220 0 l0 220 l102 0 l0 -220 l220 0 l0 -102 l-220 0 l0 -220 l-102 0 l0 220 l-220 0 l0 102 Z" /><glyph glyph-name="comma" unicode="," d="M24 -126 l70 264 l116 0 l-85 -264 l-101 0 Z" /><glyph glyph-name="hyphen" unicode="-" d="M280 297 l0 -102 l-240 0 l0 102 l240 0 Z" /><glyph glyph-name="period" unicode="." d="M74 16 q-24 22 -24 54 q0 32 23.5 55 q23.5 23 56.5 23 q33 0 56.5 -22 q23.5 -22 23.5 -54 q0 -32 -23.5 -55 q-23.5 -23 -56.5 -23 q-32 0 -56 22 Z" /><glyph glyph-name="slash" unicode="/" d="M386 726 l-312 -774 l-83 30 l312 776 l83 -32 Z" /><glyph glyph-name="zero" unicode="0" d="M490 627 q65 -99 65 -273 q0 -174 -65 -273 q-65 -99 -184 -99 q-120 0 -185.5 99 q-65.5 99 -65.5 273 q0 174 65.5 273 q65.5 99 185.5 99 q119 0 184 -99 ZM427 269 q5 41 5 85 q0 44 -5 85.5 q-5 41.5 -17.5 86.5 q-12.5 45 -39 72.5 q-26.5 27.5 -64.5 27.5 q-38 0 -65 -27.5 q-27 -27.5 -40 -72.5 q-13 -45 -18 -86.5 q-5 -41.5 -5 -85.5 q0 -43 5 -85 q5 -42 18 -86.5 q13 -44.5 40 -71.5 q27 -27 65 -27 q38 0 64.5 27 q26.5 27 39 72 q12.5 45 17.5 86 Z" /><glyph glyph-name="one" unicode="1" d="M279 0 l0 562 l-140 -115 l-70 83 l221 178 l109 0 l0 -708 l-120 0 Z" /><glyph glyph-name="two" unicode="2" d="M69 0 l0 110 l273 268 q72 70 72 139 q0 49 -32 79 q-32 30 -81 30 q-50 0 -81.5 -33.5 q-31.5 -33.5 -38.5 -87.5 l-117 18 q11 89 77 146 q66 57 162 57 q98 0 167 -55 q69 -55 69 -152 q0 -63 -29.5 -112.5 q-29.5 -49.5 -84.5 -101.5 l-204 -195 l319 0 l0 -110 l-471 0 Z" /><glyph glyph-name="three" unicode="3" d="M212 321 l0 96 l32 0 q151 0 151 107 q0 46 -32.5 74 q-32.5 28 -79.5 28 q-43 0 -72.5 -25 q-29.5 -25 -40.5 -66 l-113 29 q19 72 83 117 q64 45 148 45 q98 0 163 -51 q65 -51 65 -143 q0 -57 -35 -101.5 q-35 -44.5 -92 -58.5 l0 -2 q65 -13 105.5 -59 q40.5 -46 40.5 -111 q0 -103 -74 -160.5 q-74 -57.5 -173 -57.5 q-94 0 -162 41 q-68 41 -95 126 l112 35 q13 -44 50 -72 q37 -28 91 -28 q53 0 91.5 29 q38.5 29 38.5 88 q0 43 -28.5 71.5 q-28.5 28.5 -65 38.5 q-36.5 10 -78.5 10 l-30 0 Z" /><glyph glyph-name="four" unicode="4" d="M348 0 l0 147 l-327 0 l0 106 l301 455 l144 0 l0 -458 l99 0 l0 -103 l-99 0 l0 -147 l-118 0 ZM348 250 l0 317 l-2 0 l-201 -317 l203 0 Z" /><glyph glyph-name="five" unicode="5" d="M505 708 l0 -108 l-289 0 l-7 -153 q33 9 83 9 q107 0 175.5 -59.5 q68.5 -59.5 68.5 -164.5 q0 -114 -74 -182 q-74 -68 -184 -68 q-87 0 -149 41 q-62 41 -90 114 l109 40 q15 -42 50.5 -67.5 q35.5 -25.5 82.5 -25.5 q56 0 94 36.5 q38 36.5 38 98.5 q0 75 -45.5 108 q-45.5 33 -112.5 33 q-89 0 -165 -39 l12 387 l403 0 Z" /><glyph glyph-name="six" unicode="6" d="M295 708 l146 0 l-181 -262 l1 -1 q29 12 75 12 q94 0 160 -65.5 q66 -65.5 66 -161.5 q0 -111 -73.5 -179.5 q-73.5 -68.5 -184.5 -68.5 q-111 0 -185 70 q-74 70 -74 173 q0 57 17.5 102.5 q17.5 45.5 55.5 106.5 l177 274 ZM167 222 q0 -57 37.5 -97.5 q37.5 -40.5 98.5 -40.5 q61 0 98.5 38.5 q37.5 38.5 37.5 101.5 q0 60 -37 99 q-37 39 -97 39 q-61 0 -99.5 -39 q-38.5 -39 -38.5 -101 Z" /><glyph glyph-name="seven" unicode="7" d="M51 600 l0 108 l481 0 l0 -110 l-283 -598 l-141 0 l298 600 l-355 0 Z" /><glyph glyph-name="eight" unicode="8" d="M305 726 q96 0 160 -52 q64 -52 64 -140 q0 -60 -30 -102 q-30 -42 -80 -58 l0 -2 q57 -14 95 -61 q38 -47 38 -111 q0 -102 -70.5 -160 q-70.5 -58 -176.5 -58 q-106 0 -176.5 58 q-70.5 58 -70.5 160 q0 65 38.5 111.5 q38.5 46.5 94.5 60.5 l0 2 q-110 40 -110 155 q0 88 64.5 142.5 q64.5 54.5 159.5 54.5 ZM305 627 q-45 0 -73.5 -27.5 q-28.5 -27.5 -28.5 -72.5 q0 -44 28 -73.5 q28 -29.5 74 -29.5 q43 0 73 30 q30 30 30 73 q0 44 -30.5 72 q-30.5 28 -72.5 28 ZM305 322 q-52 0 -87.5 -34 q-35.5 -34 -35.5 -87 q0 -54 34.5 -86 q34.5 -32 88.5 -32 q53 0 87.5 32 q34.5 32 34.5 86 q0 52 -35.5 86.5 q-35.5 34.5 -86.5 34.5 Z" /><glyph glyph-name="nine" unicode="9" d="M314 0 l-146 0 l182 263 l-1 1 q-29 -13 -76 -13 q-94 0 -160 65.5 q-66 65.5 -66 161.5 q0 111 73.5 179.5 q73.5 68.5 184.5 68.5 q111 0 185 -70 q74 -70 74 -173 q0 -57 -17.5 -102.5 q-17.5 -45.5 -55.5 -106.5 l-177 -274 ZM442 486 q0 58 -38 99 q-38 41 -98 41 q-61 0 -98.5 -39.5 q-37.5 -39.5 -37.5 -102.5 q0 -60 37 -99 q37 -39 97 -39 q61 0 99.5 39 q38.5 39 38.5 101 Z" /><glyph glyph-name="colon" unicode=":" d="M94 16 q-24 22 -24 54 q0 32 23.5 55 q23.5 23 56.5 23 q33 0 56.5 -22 q23.5 -22 23.5 -54 q0 -32 -23.5 -55 q-23.5 -23 -56.5 -23 q-32 0 -56 22 ZM94 354 q-24 22 -24 54 q0 32 23.5 55 q23.5 23 56.5 23 q33 0 56.5 -22 q23.5 -22 23.5 -54 q0 -32 -23.5 -55 q-23.5 -23 -56.5 -23 q-32 0 -56 22 Z" /><glyph glyph-name="semicolon" unicode=";" d="M40 -126 l70 264 l122 0 l-85 -264 l-107 0 ZM94 355 q-24 22 -24 54 q0 32 23.5 55 q23.5 23 56.5 23 q33 0 56.5 -22 q23.5 -22 23.5 -54 q0 -32 -23.5 -55 q-23.5 -23 -56.5 -23 q-32 0 -56 22 Z" /><glyph glyph-name="less" unicode="&lt;" d="M586 42 l-506 225 l0 72 l506 225 l0 -110 l-338 -151 l338 -151 l0 -110 Z" /><glyph glyph-name="equal" unicode="=" d="M80 444 l506 0 l0 -102 l-506 0 l0 102 ZM80 264 l506 0 l0 -102 l-506 0 l0 102 Z" /><glyph glyph-name="greater" unicode="&gt;" d="M80 564 l506 -225 l0 -72 l-506 -225 l0 110 l338 151 l-338 151 l0 110 Z" /><glyph glyph-name="question" unicode="?" d="M328 209 l-118 0 l0 38 q0 48 14 79 q14 31 52 67 l45 43 q46 42 46 89 q0 40 -25.5 66 q-25.5 26 -68.5 26 q-45 0 -72.5 -30.5 q-27.5 -30.5 -29.5 -73.5 l-123 11 q11 94 75 148 q64 54 158 54 q91 0 152 -51 q61 -51 61 -142 q0 -58 -23 -94 q-23 -36 -77 -83 q-41 -36 -53.5 -57.5 q-12.5 -21.5 -12.5 -63.5 l0 -26 ZM214 16 q-24 22 -24 54 q0 32 23.5 55 q23.5 23 56.5 23 q33 0 56.5 -22 q23.5 -22 23.5 -54 q0 -32 -23.5 -55 q-23.5 -23 -56.5 -23 q-32 0 -56 22 Z" /><glyph glyph-name="at" unicode="@" d="M412 467 q-44 0 -71 -46.5 q-27 -46.5 -27 -100.5 q0 -30 14.5 -53.5 q14.5 -23.5 49.5 -23.5 q50 0 75 43.5 q25 43.5 25 92.5 q0 88 -66 88 ZM670 163 l55 -60 q-114 -121 -311 -121 q-171 0 -276.5 103.5 q-105.5 103.5 -105.5 267.5 q0 159 111.5 266 q111.5 107 270.5 107 q70 0 132.5 -20.5 q62.5 -20.5 112.5 -59 q50 -38.5 79.5 -101 q29.5 -62.5 29.5 -140.5 q0 -115 -58 -180 q-58 -65 -140 -65 q-39 0 -63.5 19 q-24.5 19 -24.5 48 l-5 0 q-17 -28 -49 -47.5 q-32 -19.5 -73 -19.5 q-66 0 -104 44.5 q-38 44.5 -38 117.5 q0 89 55.5 158 q55.5 69 140.5 69 q37 0 63.5 -15.5 q26.5 -15.5 34.5 -39.5 l1 0 l8 40 l89 0 l-39 -189 q-9 -54 -9 -63 q0 -40 32 -40 q39 0 64.5 42.5 q25.5 42.5 25.5 112.5 q0 118 -73.5 183 q-73.5 65 -193.5 65 q-125 0 -204 -83.5 q-79 -83.5 -79 -209.5 q0 -131 82 -209 q82 -78 212 -78 q143 0 247 98 Z" /><glyph glyph-name="A" unicode="a" d="M-8 0 l308 708 l109 0 l305 -708 l-144 0 l-66 162 l-307 0 l-64 -162 l-141 0 ZM240 270 l220 0 l-109 288 l-111 -288 Z" /><glyph glyph-name="B" unicode="b" d="M78 0 l0 708 l276 0 q90 0 153.5 -44 q63.5 -44 63.5 -134 q0 -58 -33 -98 q-33 -40 -90 -57 l0 -2 q69 -9 111 -53 q42 -44 42 -114 q0 -55 -22.5 -96.5 q-22.5 -41.5 -61.5 -64.5 q-39 -23 -85 -34 q-46 -11 -99 -11 l-255 0 ZM204 604 l0 -184 l112 0 q63 0 96 25 q33 25 33 71 q0 47 -34 67.5 q-34 20.5 -106 20.5 l-101 0 ZM204 312 l0 -206 l113 0 q158 0 158 106 q0 54 -37 77 q-37 23 -116 23 l-118 0 Z" /><glyph glyph-name="C" unicode="c" d="M685 618 l-96 -76 q-26 36 -70.5 54.5 q-44.5 18.5 -90.5 18.5 q-108 0 -176.5 -74 q-68.5 -74 -68.5 -185 q0 -116 65.5 -188.5 q65.5 -72.5 174.5 -72.5 q112 0 172 82 l101 -71 q-99 -124 -274 -124 q-166 0 -272 104.5 q-106 104.5 -106 269.5 q0 167 108.5 268.5 q108.5 101.5 275.5 101.5 q74 0 145.5 -27.5 q71.5 -27.5 111.5 -80.5 Z" /><glyph glyph-name="D" unicode="d" d="M78 0 l0 708 l251 0 q74 0 140 -18.5 q66 -18.5 124 -58 q58 -39.5 92.5 -111 q34.5 -71.5 34.5 -166.5 q0 -89 -34.5 -159 q-34.5 -70 -92 -111.5 q-57.5 -41.5 -125 -62.5 q-67.5 -21 -139.5 -21 l-251 0 ZM204 110 l105 0 q41 0 78.5 7 q37.5 7 74.5 24.5 q37 17.5 63.5 44 q26.5 26.5 43 70 q16.5 43.5 16.5 98.5 q0 246 -276 246 l-105 0 l0 -490 Z" /><glyph glyph-name="E" unicode="e" d="M78 0 l0 708 l469 0 l0 -110 l-343 0 l0 -180 l325 0 l0 -106 l-325 0 l0 -200 l361 0 l0 -112 l-487 0 Z" /><glyph glyph-name="F" unicode="f" d="M78 0 l0 708 l457 0 l0 -110 l-331 0 l0 -194 l312 0 l0 -106 l-312 0 l0 -298 l-126 0 Z" /><glyph glyph-name="G" unicode="g" d="M698 404 l0 -367 q-115 -55 -267 -55 q-171 0 -279 104 q-108 104 -108 270 q0 167 108.5 268.5 q108.5 101.5 275.5 101.5 q82 0 153.5 -24 q71.5 -24 115.5 -65 l-87 -94 q-28 31 -77 51.5 q-49 20.5 -104 20.5 q-110 0 -178 -74 q-68 -74 -68 -185 q0 -115 68.5 -188 q68.5 -73 183.5 -73 q81 0 141 25 l0 180 l-149 0 l0 104 l271 0 Z" /><glyph glyph-name="H" unicode="h" d="M78 0 l0 708 l126 0 l0 -286 l331 0 l0 286 l126 0 l0 -708 l-126 0 l0 314 l-331 0 l0 -314 l-126 0 Z" /><glyph glyph-name="I" unicode="i" d="M78 0 l0 708 l126 0 l0 -708 l-126 0 Z" /><glyph glyph-name="J" unicode="j" d="M426 708 l0 -479 q0 -34 -5 -65.5 q-5 -31.5 -19.5 -65.5 q-14.5 -34 -37 -59 q-22.5 -25 -61.5 -41 q-39 -16 -90 -16 q-83 0 -136 42 q-53 42 -72 114 l116 33 q9 -35 33 -55.5 q24 -20.5 57 -20.5 q51 0 70 35.5 q19 35.5 19 102.5 l0 475 l126 0 Z" /><glyph glyph-name="K" unicode="k" d="M78 0 l0 708 l126 0 l0 -306 l3 0 l296 306 l170 0 l-331 -327 l353 -381 l-177 0 l-311 355 l-3 0 l0 -355 l-126 0 Z" /><glyph glyph-name="L" unicode="l" d="M78 0 l0 708 l126 0 l0 -596 l301 0 l0 -112 l-427 0 Z" /><glyph glyph-name="M" unicode="m" d="M78 0 l0 708 l197 0 l184 -503 l3 0 l182 503 l198 0 l0 -708 l-125 0 l0 569 l-2 0 l-215 -569 l-88 0 l-212 569 l-2 0 l0 -569 l-120 0 Z" /><glyph glyph-name="N" unicode="n" d="M78 0 l0 708 l167 0 l329 -530 l2 0 l0 530 l126 0 l0 -708 l-160 0 l-336 547 l-2 0 l0 -547 l-126 0 Z" /><glyph glyph-name="O" unicode="o" d="M44 356 q0 168 106.5 269 q106.5 101 272.5 101 q168 0 275 -101 q107 -101 107 -269 q0 -165 -107.5 -269.5 q-107.5 -104.5 -274.5 -104.5 q-165 0 -272 104.5 q-107 104.5 -107 269.5 ZM181 356 q0 -114 68 -187.5 q68 -73.5 175 -73.5 q108 0 176 73.5 q68 73.5 68 187.5 q0 111 -67.5 185 q-67.5 74 -176.5 74 q-108 0 -175.5 -74 q-67.5 -74 -67.5 -185 Z" /><glyph glyph-name="P" unicode="p" d="M78 0 l0 708 l231 0 q267 0 267 -205 q0 -110 -76 -160 q-76 -50 -199 -50 l-97 0 l0 -293 l-126 0 ZM204 399 l88 0 q157 0 157 104 q0 57 -41.5 78 q-41.5 21 -111.5 21 l-92 0 l0 -203 Z" /><glyph glyph-name="Q" unicode="q" d="M841 102 l0 -102 l-427 0 q-172 0 -274.5 96.5 q-102.5 96.5 -102.5 266.5 q0 160 107.5 261.5 q107.5 101.5 271.5 101.5 q164 0 270 -101.5 q106 -101.5 106 -261.5 q0 -88 -36 -154.5 q-36 -66.5 -90 -104.5 l0 -2 l175 0 ZM416 613 q-103 0 -172 -71 q-69 -71 -69 -179 q0 -113 66 -183 q66 -70 173 -70 q106 0 173.5 70 q67.5 70 67.5 183 q0 109 -66.5 179.5 q-66.5 70.5 -172.5 70.5 Z" /><glyph glyph-name="R" unicode="r" d="M78 0 l0 708 l246 0 q71 0 127.5 -18.5 q56.5 -18.5 95 -66 q38.5 -47.5 38.5 -118.5 q0 -75 -43 -124.5 q-43 -49.5 -119 -66.5 l189 -314 l-152 0 l-164 300 l-92 0 l0 -300 l-126 0 ZM204 403 l103 0 q152 0 152 103 q0 52 -41 74 q-41 22 -100 22 l-114 0 l0 -199 Z" /><glyph glyph-name="S" unicode="s" d="M521 650 l-82 -90 q-20 27 -56.5 44 q-36.5 17 -73.5 17 q-49 0 -87 -24.5 q-38 -24.5 -38 -72.5 q0 -24 8.5 -40.5 q8.5 -16.5 30 -29.5 q21.5 -13 40.5 -20 q19 -7 56 -19 q35 -11 57.5 -19 q22.5 -8 54 -25.5 q31.5 -17.5 50 -37.5 q18.5 -20 32 -52.5 q13.5 -32.5 13.5 -72.5 q0 -109 -73.5 -167.5 q-73.5 -58.5 -184.5 -58.5 q-71 0 -136.5 26.5 q-65.5 26.5 -106.5 74.5 l90 84 q26 -35 69 -56.5 q43 -21.5 86 -21.5 q51 0 89.5 26 q38.5 26 38.5 79 q0 18 -5 32.5 q-5 14.5 -18.5 26.5 q-13.5 12 -23.5 19.5 q-10 7.5 -35.5 17 q-25.5 9.5 -36.5 13.5 q-11 4 -44 14 q-38 12 -65 25 q-27 13 -55.5 35.5 q-28.5 22.5 -43.5 58 q-15 35.5 -15 82.5 q0 101 76.5 154.5 q76.5 53.5 182.5 53.5 q56 0 111.5 -19.5 q55.5 -19.5 94.5 -56.5 Z" /><glyph glyph-name="T" unicode="t" d="M221 0 l0 598 l-217 0 l0 110 l560 0 l0 -110 l-217 0 l0 -598 l-126 0 Z" /><glyph glyph-name="U" unicode="u" d="M642 708 l0 -448 q0 -126 -80.5 -202 q-80.5 -76 -204.5 -76 q-124 0 -204.5 76 q-80.5 76 -80.5 202 l0 448 l126 0 l0 -443 q0 -71 38 -120.5 q38 -49.5 121 -49.5 q83 0 121 49.5 q38 49.5 38 120.5 l0 443 l126 0 Z" /><glyph glyph-name="V" unicode="v" d="M270 0 l-280 708 l141 0 l195 -545 l4 0 l197 545 l136 0 l-284 -708 l-109 0 Z" /><glyph glyph-name="W" unicode="w" d="M213 0 l-207 708 l138 0 l137 -520 l2 0 l156 520 l130 0 l153 -520 l2 0 l140 520 l134 0 l-207 -708 l-122 0 l-166 531 l-2 0 l-166 -531 l-122 0 Z" /><glyph glyph-name="X" unicode="x" d="M4 0 l245 378 l-220 330 l152 0 l146 -242 l144 242 l145 0 l-216 -333 l254 -375 l-159 0 l-173 278 l-166 -278 l-152 0 Z" /><glyph glyph-name="Y" unicode="y" d="M249 0 l0 307 l-266 401 l154 0 l178 -298 l180 298 l146 0 l-266 -401 l0 -307 l-126 0 Z" /><glyph glyph-name="Z" unicode="z" d="M35 0 l0 114 l385 484 l-379 0 l0 110 l529 0 l0 -114 l-387 -482 l393 0 l0 -112 l-541 0 Z" /><glyph glyph-name="bracketleft" unicode="[" d="M252 732 l0 -78 l-90 0 l0 -732 l90 0 l0 -78 l-192 0 l0 888 l192 0 Z" /><glyph glyph-name="backslash" unicode="\" d="M3 726 l83 32 l312 -776 l-83 -30 l-312 774 Z" /><glyph glyph-name="bracketright" unicode="]" d="M78 -156 l0 78 l90 0 l0 732 l-90 0 l0 78 l192 0 l0 -888 l-192 0 Z" /><glyph glyph-name="asciicircum" unicode="^" d="M187 343 l-118 0 l223 365 l82 0 l223 -365 l-118 0 l-147 239 l-145 -239 Z" /><glyph glyph-name="underscore" unicode="_" d="M500 -75 l0 -75 l-500 0 l0 75 l500 0 Z" /><glyph glyph-name="grave" unicode="`" d="M78 708 l99 -144 l-94 0 l-141 144 l136 0 Z" /><glyph glyph-name="a" unicode="a" d="M370 0 l0 61 l-3 0 q-18 -32 -58.5 -52.5 q-40.5 -20.5 -90.5 -20.5 q-69 0 -124.5 36.5 q-55.5 36.5 -55.5 112.5 q0 41 20.5 71.5 q20.5 30.5 51.5 47.5 q31 17 77.5 27.5 q46.5 10.5 88 13.5 q41.5 3 92.5 3 l0 12 q0 42 -31 65 q-31 23 -79 23 q-76 0 -131 -55 l-62 73 q82 76 203 76 q62 0 105.5 -17.5 q43.5 -17.5 66.5 -48 q23 -30.5 32.5 -64 q9.5 -33.5 9.5 -72.5 l0 -292 l-112 0 ZM368 202 l0 17 l-27 0 q-183 0 -183 -80 q0 -32 24.5 -46 q24.5 -14 59.5 -14 q61 0 93.5 32.5 q32.5 32.5 32.5 90.5 Z" /><glyph glyph-name="b" unicode="b" d="M74 756 l120 0 l0 -337 l3 0 q60 75 161 75 q102 0 167.5 -72 q65.5 -72 65.5 -180 q0 -108 -64.5 -182 q-64.5 -74 -171.5 -74 q-51 0 -96 22.5 q-45 22.5 -69 63.5 l-2 0 l0 -72 l-114 0 l0 756 ZM432.5 133 q36.5 47 36.5 109 q0 62 -36.5 108 q-36.5 46 -101.5 46 q-63 0 -102 -48 q-39 -48 -39 -108 q0 -60 39 -107 q39 -47 102 -47 q65 0 101.5 47 Z" /><glyph glyph-name="c" unicode="c" d="M482 419 l-82 -72 q-14 20 -42 33.5 q-28 13.5 -57 13.5 q-62 0 -97 -46.5 q-35 -46.5 -35 -107.5 q0 -62 36 -108 q36 -46 100 -46 q66 0 101 43 l75 -76 q-62 -67 -177 -67 q-110 0 -185 69 q-75 69 -75 185 q0 114 74 184 q74 70 183 70 q53 0 103 -20 q50 -20 78 -55 Z" /><glyph glyph-name="d" unicode="d" d="M560 756 l0 -756 l-114 0 l0 72 l-2 0 q-24 -41 -69 -63.5 q-45 -22.5 -96 -22.5 q-107 0 -171.5 74 q-64.5 74 -64.5 182 q0 108 65.5 180 q65.5 72 167.5 72 q101 0 161 -75 l3 0 l0 337 l120 0 ZM201.5 350 q-36.5 -46 -36.5 -108 q0 -62 36.5 -109 q36.5 -47 101.5 -47 q63 0 102 47 q39 47 39 107 q0 60 -39 108 q-39 48 -102 48 q-65 0 -101.5 -46 Z" /><glyph glyph-name="e" unicode="e" d="M164 288 l246 0 q0 50 -29 83 q-29 33 -84 33 q-53 0 -91 -33 q-38 -33 -42 -83 ZM530 234 q0 -21 -1 -32 l-365 0 q4 -50 44 -84 q40 -34 93 -34 q83 0 127 62 l80 -64 q-71 -96 -206 -96 q-113 0 -185.5 68 q-72.5 68 -72.5 183 q0 115 72 186 q72 71 182 71 q104 0 168 -67 q64 -67 64 -193 Z" /><glyph glyph-name="f" unicode="f" d="M91 0 l0 384 l-91 0 l0 96 l91 0 l0 71 q0 97 45 157 q45 60 149 60 q36 0 61 -7 l-8 -102 q-23 7 -46 7 q-81 0 -81 -108 l0 -78 l111 0 l0 -96 l-111 0 l0 -384 l-120 0 Z" /><glyph glyph-name="g" unicode="g" d="M446 480 l114 0 l0 -437 q0 -134 -67.5 -208.5 q-67.5 -74.5 -203.5 -74.5 q-61 0 -127 21 q-66 21 -111 58 l69 93 q71 -68 168 -68 q152 0 152 165 l0 35 l-2 0 q-54 -72 -157 -72 q-105 0 -171 72.5 q-66 72.5 -66 177.5 q0 107 64.5 179.5 q64.5 72.5 170.5 72.5 q113 0 165 -86 l2 0 l0 72 ZM304 396 q-63 0 -100.5 -43.5 q-37.5 -43.5 -37.5 -109.5 q0 -61 37.5 -106.5 q37.5 -45.5 99.5 -45.5 q64 0 103.5 44.5 q39.5 44.5 39.5 107.5 q0 64 -39 108.5 q-39 44.5 -103 44.5 Z" /><glyph glyph-name="h" unicode="h" d="M339 494 q88 0 132.5 -56.5 q44.5 -56.5 44.5 -137.5 l0 -300 l-120 0 l0 264 q0 127 -89 127 q-54 0 -83.5 -38.5 q-29.5 -38.5 -29.5 -90.5 l0 -262 l-120 0 l0 756 l120 0 l0 -343 l2 0 q16 33 54.5 57 q38.5 24 88.5 24 Z" /><glyph glyph-name="i" unicode="i" d="M74 0 l0 480 l120 0 l0 -480 l-120 0 ZM79 592.5 q-22 21.5 -22 50.5 q0 29 22 50.5 q22 21.5 54 21.5 q33 0 55.5 -20.5 q22.5 -20.5 22.5 -51.5 q0 -31 -22.5 -51.5 q-22.5 -20.5 -55.5 -20.5 q-32 0 -54 21.5 Z" /><glyph glyph-name="j" unicode="j" d="M74 480 l120 0 l0 -509 q0 -47 -7.5 -82 q-7.5 -35 -25.5 -66 q-18 -31 -53.5 -47 q-35.5 -16 -87.5 -16 q-30 0 -54 6 l10 102 q15 -4 33 -4 q39 0 52 26.5 q13 26.5 13 75.5 l0 514 ZM79 592.5 q-22 21.5 -22 50.5 q0 29 22 50.5 q22 21.5 54 21.5 q33 0 55.5 -20.5 q22.5 -20.5 22.5 -51.5 q0 -31 -22.5 -51.5 q-22.5 -20.5 -55.5 -20.5 q-32 0 -54 21.5 Z" /><glyph glyph-name="k" unicode="k" d="M74 0 l0 756 l120 0 l0 -478 l3 0 l182 202 l154 0 l-208 -217 l221 -263 l-159 0 l-190 246 l-3 0 l0 -246 l-120 0 Z" /><glyph glyph-name="l" unicode="l" d="M74 0 l0 756 l120 0 l0 -756 l-120 0 Z" /><glyph glyph-name="m" unicode="m" d="M645 494 q88 0 132.5 -56.5 q44.5 -56.5 44.5 -137.5 l0 -300 l-120 0 l0 266 q0 128 -90 128 q-52 0 -79 -39.5 q-27 -39.5 -27 -92.5 l0 -262 l-120 0 l0 290 q0 47 -22.5 75.5 q-22.5 28.5 -66.5 28.5 q-51 0 -78 -38.5 q-27 -38.5 -27 -91.5 l0 -264 l-120 0 l0 480 l114 0 l0 -77 l2 0 q17 39 56 65 q39 26 93 26 q105 0 150 -91 q50 91 158 91 Z" /><glyph glyph-name="n" unicode="n" d="M72 0 l0 480 l114 0 l0 -77 l2 0 q17 38 57.5 64.5 q40.5 26.5 91.5 26.5 q88 0 132.5 -56.5 q44.5 -56.5 44.5 -137.5 l0 -300 l-120 0 l0 266 q0 128 -90 128 q-54 0 -83 -38.5 q-29 -38.5 -29 -91.5 l0 -264 l-120 0 Z" /><glyph glyph-name="o" unicode="o" d="M44 242 q0 111 75 181.5 q75 70.5 186 70.5 q111 0 186 -70.5 q75 -70.5 75 -181.5 q0 -112 -75.5 -184 q-75.5 -72 -185.5 -72 q-110 0 -185.5 72 q-75.5 72 -75.5 184 ZM202 350 q-36 -46 -36 -108 q0 -62 36 -109 q36 -47 103 -47 q67 0 103 47 q36 47 36 109 q0 62 -36 108 q-36 46 -103 46 q-67 0 -103 -46 Z" /><glyph glyph-name="p" unicode="p" d="M72 480 l115 0 l0 -67 l3 0 q21 33 63.5 57 q42.5 24 102.5 24 q102 0 167.5 -72 q65.5 -72 65.5 -180 q0 -108 -64.5 -182 q-64.5 -74 -171.5 -74 q-50 0 -93 21 q-43 21 -66 57 l-2 0 l0 -304 l-120 0 l0 720 ZM430.5 133 q36.5 47 36.5 109 q0 62 -36.5 108 q-36.5 46 -101.5 46 q-63 0 -102 -48 q-39 -48 -39 -108 q0 -60 39 -107 q39 -47 102 -47 q65 0 101.5 47 Z" /><glyph glyph-name="q" unicode="q" d="M560 480 l0 -720 l-120 0 l0 304 l-2 0 q-23 -36 -66 -57 q-43 -21 -93 -21 q-107 0 -171.5 74 q-64.5 74 -64.5 182 q0 108 65.5 180 q65.5 72 167.5 72 q60 0 102.5 -24 q42.5 -24 63.5 -57 l3 0 l0 67 l115 0 ZM201.5 350 q-36.5 -46 -36.5 -108 q0 -62 36.5 -109 q36.5 -47 101.5 -47 q63 0 102 47 q39 47 39 107 q0 60 -39 108 q-39 48 -102 48 q-65 0 -101.5 -46 Z" /><glyph glyph-name="r" unicode="r" d="M72 0 l0 480 l115 0 l0 -80 l2 0 q20 43 57 68.5 q37 25.5 83 25.5 q17 0 29 -3 l0 -110 q-20 5 -37 5 q-31 0 -55 -10 q-24 -10 -37.5 -25 q-13.5 -15 -22 -33.5 q-8.5 -18.5 -11.5 -33.5 q-3 -15 -3 -27 l0 -257 l-120 0 Z" /><glyph glyph-name="s" unicode="s" d="M413 421 l-78 -69 q-17 22 -45 37 q-28 15 -60 15 q-32 0 -54.5 -13 q-22.5 -13 -22.5 -39 q0 -25 23 -37 q23 -12 81 -26 q31 -7 55 -16.5 q24 -9.5 48.5 -25.5 q24.5 -16 38 -42 q13.5 -26 13.5 -59 q0 -82 -56.5 -121 q-56.5 -39 -143.5 -39 q-57 0 -110 21 q-53 21 -87 58 l79 74 q46 -60 123 -60 q31 0 54 14 q23 14 23 43 q0 28 -24.5 41.5 q-24.5 13.5 -85.5 27.5 q-65 16 -103.5 45.5 q-38.5 29.5 -38.5 90.5 q0 75 56 114 q56 39 135 39 q54 0 103 -19 q49 -19 77 -54 Z" /><glyph glyph-name="t" unicode="t" d="M87 384 l-84 0 l0 96 l84 0 l0 139 l118 0 l0 -139 l120 0 l0 -96 l-120 0 l0 -223 q0 -36 13 -55 q13 -19 50 -19 q31 0 51 10 l4 -94 q-34 -13 -80 -13 q-88 0 -122 45.5 q-34 45.5 -34 124.5 l0 224 Z" /><glyph glyph-name="u" unicode="u" d="M510 480 l0 -480 l-114 0 l0 77 l-2 0 q-17 -38 -57.5 -64.5 q-40.5 -26.5 -91.5 -26.5 q-88 0 -132.5 56.5 q-44.5 56.5 -44.5 137.5 l0 300 l120 0 l0 -266 q0 -128 90 -128 q54 0 83 38.5 q29 38.5 29 91.5 l0 264 l120 0 Z" /><glyph glyph-name="v" unicode="v" d="M194 0 l-194 480 l131 0 l126 -350 l2 0 l127 350 l127 0 l-191 -480 l-128 0 Z" /><glyph glyph-name="w" unicode="w" d="M171 0 l-167 480 l130 0 l100 -344 l2 0 l103 344 l128 0 l104 -344 l2 0 l102 344 l125 0 l-166 -480 l-122 0 l-109 336 l-2 0 l-108 -336 l-122 0 Z" /><glyph glyph-name="x" unicode="x" d="M-1 0 l195 255 l-173 225 l144 0 l104 -149 l107 149 l138 0 l-172 -225 l196 -255 l-146 0 l-125 175 l-126 -175 l-142 0 Z" /><glyph glyph-name="y" unicode="y" d="M206 0 l-206 480 l133 0 l134 -349 l2 0 l119 349 l125 0 l-227 -583 q-28 -71 -67.5 -104 q-39.5 -33 -114.5 -33 q-33 0 -62 7 l10 104 q22 -7 45 -7 q36 0 52 16.5 q16 16.5 33 58.5 l24 61 Z" /><glyph glyph-name="z" unicode="z" d="M34 0 l0 106 l259 278 l-247 0 l0 96 l390 0 l0 -106 l-260 -276 l272 0 l0 -98 l-414 0 Z" /><glyph glyph-name="braceleft" unicode="{" d="M10 244 l0 88 q27 0 48 16 q21 16 21 54 l0 198 q0 64 37 98 q37 34 91 34 l73 0 l0 -84 l-55 0 q-44 0 -44 -60 l0 -188 q0 -52 -32.5 -79.5 q-32.5 -27.5 -65.5 -31.5 l0 -2 q15 -1 29.5 -6.5 q14.5 -5.5 31 -17.5 q16.5 -12 27 -36 q10.5 -24 10.5 -57 l0 -182 q0 -60 44 -60 l55 0 l0 -84 l-73 0 q-54 0 -91 34 q-37 34 -37 98 l0 191 q0 42 -21 59.5 q-21 17.5 -48 17.5 Z" /><glyph glyph-name="bar" unicode="|" d="M60 750 l102 0 l0 -1000 l-102 0 l0 1000 Z" /><glyph glyph-name="braceright" unicode="}" d="M320 332 l0 -88 q-27 0 -48 -17.5 q-21 -17.5 -21 -59.5 l0 -191 q0 -64 -37 -98 q-37 -34 -91 -34 l-73 0 l0 84 l55 0 q44 0 44 60 l0 182 q0 33 10.5 57 q10.5 24 27 36 q16.5 12 31 17.5 q14.5 5.5 29.5 6.5 l0 2 q-33 4 -65.5 31.5 q-32.5 27.5 -32.5 79.5 l0 188 q0 60 -44 60 l-55 0 l0 84 l73 0 q54 0 91 -34 q37 -34 37 -98 l0 -198 q0 -38 21 -54 q21 -16 48 -16 Z" /><glyph glyph-name="asciitilde" unicode="~" d="M345 354 q40 -25 55.5 -31 q15.5 -6 38.5 -6 q45 0 78 63 l77 -65 q-62 -102 -153 -102 q-58 0 -121 40 q-58 36 -93 36 q-44 0 -78 -63 l-77 65 q62 103 153 103 q59 0 120 -40 Z" /><glyph glyph-name="nonbreakingspace" unicode=" " d="" /><glyph glyph-name="exclamdown" unicode="¡" d="M230 -214 l-120 0 l0 486 l120 0 l0 -486 ZM113.5 369 q-23.5 23 -23.5 55 q0 32 24 54 q24 22 56 22 q33 0 56.5 -23 q23.5 -23 23.5 -55 q0 -32 -23.5 -54 q-23.5 -22 -56.5 -22 q-33 0 -56.5 23 Z" /><glyph glyph-name="cent" unicode="¢" d="M354 559 l0 -67 q115 -4 170 -69 l-77 -78 q-40 42 -93 45 l0 -300 q56 0 97 46 l73 -79 q-60 -65 -170 -69 l0 -72 l-54 0 l0 72 q-101 9 -161.5 79.5 q-60.5 70.5 -60.5 173.5 q0 104 59.5 170.5 q59.5 66.5 162.5 80.5 l0 67 l54 0 ZM300 90 l0 299 q-53 -11 -80.5 -51.5 q-27.5 -40.5 -27.5 -97.5 q0 -54 28 -95.5 q28 -41.5 80 -54.5 Z" /><glyph glyph-name="sterling" unicode="£" d="M66 0 l0 107 l98 0 l0 208 l-98 0 l0 84 l98 0 l0 83 q0 32 7.5 64 q7.5 32 25.5 65 q18 33 45 58 q27 25 70 41 q43 16 96 16 q107 0 176 -60 l-71 -83 q-40 43 -105 43 q-65 0 -93.5 -45.5 q-28.5 -45.5 -28.5 -103.5 l0 -78 l164 0 l0 -84 l-164 0 l0 -208 l265 0 l0 -107 l-485 0 Z" /><glyph glyph-name="currency" unicode="¤" d="M687 462 q45 -66 45 -153 q0 -93 -48 -158 l93 -93 q-8 -8 -22 -22 q-14 -14 -25.5 -26 q-11.5 -12 -22.5 -22 l-96 95 q-65 -43 -150 -43 q-81 0 -151 45 q-32 -33 -98 -97 q-8 8 -22 22 q-14 14 -25.5 26 q-11.5 12 -22.5 22 l95 96 q-45 62 -45 155 q0 87 43 150 l-93 93 l71 70 l94 -93 q68 46 154 46 q88 0 153 -45 l92 92 l71 -70 l-90 -90 ZM565.5 415 q-40.5 44 -104.5 44 q-64 0 -104.5 -44 q-40.5 -44 -40.5 -106 q0 -64 40.5 -108 q40.5 -44 104.5 -44 q65 0 105 44 q40 44 40 108 q0 62 -40.5 106 Z" /><glyph glyph-name="yen" unicode="¥" d="M245 0 l0 155 l-176 0 l0 78 l176 0 l0 77 l-176 0 l0 78 l145 0 l-198 320 l140 0 l155 -288 l149 288 l134 0 l-193 -320 l140 0 l0 -78 l-176 0 l0 -77 l176 0 l0 -78 l-176 0 l0 -155 l-120 0 Z" /><glyph glyph-name="brokenbar" unicode="¦" d="M60 675 l102 0 l0 -350 l-102 0 l0 350 ZM60 175 l102 0 l0 -350 l-102 0 l0 350 Z" /><glyph glyph-name="section" unicode="§" d="M529 640 l-82 -73 q-20 29 -51.5 46 q-31.5 17 -63.5 17 q-34 0 -62 -17 q-28 -17 -28 -49 q0 -34 31 -56 q31 -22 99 -50 q37 -15 62 -29 q25 -14 52.5 -35 q27.5 -21 41.5 -50 q14 -29 14 -64 q0 -40 -23 -75 q-23 -35 -58 -53 q52 -39 52 -116 q0 -85 -65.5 -132.5 q-65.5 -47.5 -152.5 -47.5 q-67 0 -129.5 29 q-62.5 29 -97.5 84 l99 59 q17 -34 52.5 -52 q35.5 -18 74.5 -18 q35 0 65 18.5 q30 18.5 30 52.5 q0 44 -49 71 q-23 13 -101 43 q-34 13 -56 24.5 q-22 11.5 -47 30.5 q-25 19 -37.5 45 q-12.5 26 -12.5 59 q0 95 96 145 q-61 39 -61 114 q0 78 63 121.5 q63 43.5 145 43.5 q60 0 113.5 -22 q53.5 -22 86.5 -64 ZM281 239 l104 -43 q43 21 43 68 q0 33 -21.5 52.5 q-21.5 19.5 -59.5 37.5 l-89 40 q-58 -24 -58 -70 q0 -23 14 -40.5 q14 -17.5 27.5 -25 q13.5 -7.5 39.5 -19.5 Z" /><glyph glyph-name="dieresis" unicode="¨" d="M-19.5 595 q-20.5 21 -20.5 49 q0 28 20.5 49 q20.5 21 50.5 21 q31 0 52 -20 q21 -20 21 -50 q0 -30 -21 -50 q-21 -20 -52 -20 q-30 0 -50.5 21 ZM176.5 595 q-20.5 21 -20.5 49 q0 28 20.5 49 q20.5 21 50.5 21 q31 0 52 -20 q21 -20 21 -50 q0 -30 -21 -50 q-21 -20 -52 -20 q-30 0 -50.5 21 Z" /><glyph glyph-name="copyright" unicode="©" d="M577 506 l-63 -63 q-15 18 -41 30 q-26 12 -55 12 q-58 0 -91 -39 q-33 -39 -33 -93 q0 -55 35 -95 q35 -40 96 -40 q60 0 93 38 l58 -68 q-54 -60 -158 -60 q-99 0 -164.5 59.5 q-65.5 59.5 -65.5 163.5 q0 102 66 163 q66 61 164 61 q48 0 91 -18.5 q43 -18.5 68 -50.5 ZM20 353 q0 157 111.5 267 q111.5 110 269.5 110 q157 0 268 -110 q111 -110 111 -267 q0 -156 -111 -265.5 q-111 -109.5 -268 -109.5 q-158 0 -269.5 109.5 q-111.5 109.5 -111.5 265.5 ZM80 353 q0 -132 94 -225.5 q94 -93.5 227 -93.5 q132 0 225.5 93.5 q93.5 93.5 93.5 225.5 q0 133 -93.5 227 q-93.5 94 -225.5 94 q-133 0 -227 -94 q-94 -94 -94 -227 Z" /><glyph glyph-name="ordfeminine" unicode="ª" d="M244 431 l0 30 l-1 0 q-22 -37 -89 -37 q-43 0 -74 23 q-31 23 -31 63 q0 33 16.5 54.5 q16.5 21.5 48 30.5 q31.5 9 59 12 q27.5 3 65.5 3 l0 6 q0 42 -60 42 q-41 0 -69 -31 l-44 52 q44 44 120 44 q132 0 132 -118 l0 -174 l-73 0 ZM238 544 l0 13 l-14 0 q-92 0 -92 -39 q0 -16 12.5 -24 q12.5 -8 30.5 -8 q30 0 46.5 16 q16.5 16 16.5 42 Z" /><glyph glyph-name="guillemotleft" unicode="«" d="M257 421 l-115 -173 l116 -175 l-76 -51 l-152 226 l152 224 l75 -51 ZM480 421 l-115 -173 l116 -175 l-76 -51 l-152 226 l152 224 l75 -51 Z" /><glyph glyph-name="logicalnot" unicode="¬" d="M502 147 l0 195 l-440 0 l0 102 l542 0 l0 -297 l-102 0 Z" /><glyph glyph-name="uni00AD" unicode="­" d="M280 297 l0 -102 l-240 0 l0 102 l240 0 Z" /><glyph glyph-name="registered" unicode="®" d="M528 493 q0 -93 -66.5 -158.5 q-66.5 -65.5 -160.5 -65.5 q-95 0 -162 65.5 q-67 65.5 -67 158.5 q0 94 67 160.5 q67 66.5 162 66.5 q94 0 160.5 -66.5 q66.5 -66.5 66.5 -160.5 ZM492 493 q0 80 -56 136.5 q-56 56.5 -135 56.5 q-80 0 -136.5 -56.5 q-56.5 -56.5 -56.5 -136.5 q0 -79 56.5 -135 q56.5 -56 136.5 -56 q79 0 135 56 q56 56 56 135 ZM432 368 l-83 0 l-50 96 l-29 0 l0 -96 l-71 0 l0 260 l112 0 q44 0 75.5 -19.5 q31.5 -19.5 31.5 -62.5 q0 -26 -14.5 -44.5 q-14.5 -18.5 -37.5 -26.5 l66 -107 ZM332.5 524.5 q10.5 8.5 10.5 20.5 q0 12 -11 18.5 q-11 6.5 -24 6.5 l-38 0 l0 -54 l38 0 q14 0 24.5 8.5 Z" /><glyph glyph-name="macron" unicode="¯" d="M290 673 l0 -78 l-320 0 l0 78 l320 0 Z" /><glyph glyph-name="degree" unicode="°" d="M87 447 q-47 47 -47 113 q0 66 47 113 q47 47 113 47 q66 0 113 -47 q47 -47 47 -113 q0 -66 -47 -113 q-47 -47 -113 -47 q-66 0 -113 47 ZM142 618 q-24 -24 -24 -58 q0 -34 24 -58 q24 -24 58 -24 q34 0 58 24 q24 24 24 58 q0 34 -24 58 q-24 24 -58 24 q-34 0 -58 -24 Z" /><glyph glyph-name="plusminus" unicode="±" d="M286 431 l0 143 l96 0 l0 -143 l204 0 l0 -102 l-204 0 l0 -143 l-96 0 l0 143 l-206 0 l0 102 l206 0 ZM80 32 l0 102 l506 0 l0 -102 l-506 0 Z" /><glyph glyph-name="twosuperior" unicode="²" d="M347 448 l-291 0 l0 76 l162 161 q36 36 36 70 q0 22 -15 35.5 q-15 13.5 -38 13.5 q-25 0 -42 -18.5 q-17 -18.5 -19 -48.5 l-88 12 q7 59 48 97 q41 38 101 38 q61 0 103.5 -33.5 q42.5 -33.5 42.5 -94.5 q0 -62 -69 -129 l-100 -97 l169 0 l0 -82 Z" /><glyph glyph-name="threesuperior" unicode="³" d="M354 573 q0 -64 -45.5 -98 q-45.5 -34 -107.5 -34 q-125 0 -161 112 l85 25 q19 -58 73 -58 q27 0 46 14 q19 14 19 43 q0 56 -88 56 l-27 0 l0 71 l28 0 q32 0 53.5 13.5 q21.5 13.5 21.5 43.5 q0 21 -14 33 q-14 12 -36 12 q-47 0 -59 -53 l-86 21 q14 48 54 79 q40 31 91 31 q63 0 102.5 -30 q39.5 -30 39.5 -88 q0 -62 -55 -93 q66 -25 66 -100 Z" /><glyph glyph-name="acute" unicode="´" d="M83 564 l99 144 l136 0 l-141 -144 l-94 0 Z" /><glyph glyph-name="mu" unicode="µ" d="M577 95 l4 -93 q-30 -10 -69 -10 q-90 0 -102 79 l-2 0 q-43 -85 -125 -85 q-67 0 -89 35 l-2 0 l0 -261 l-120 0 l0 720 l120 0 l0 -264 q0 -130 92 -130 q49 0 79.5 37.5 q30.5 37.5 30.5 92.5 l0 264 l120 0 l0 -354 q0 -37 35 -37 q13 0 28 6 Z" /><glyph glyph-name="paragraph" unicode="¶" d="M246 -126 l0 464 q-96 0 -155.5 51 q-59.5 51 -59.5 131 q0 97 61.5 142.5 q61.5 45.5 171.5 45.5 l269 0 l0 -834 l-90 0 l0 762 l-107 0 l0 -762 l-90 0 Z" /><glyph glyph-name="periodcentered" unicode="·" d="M74 237 q-24 22 -24 54 q0 32 23.5 55 q23.5 23 56.5 23 q33 0 56.5 -22 q23.5 -22 23.5 -54 q0 -32 -23.5 -55 q-23.5 -23 -56.5 -23 q-32 0 -56 22 Z" /><glyph glyph-name="cedilla" unicode="¸" d="M178 0 l-45 -64 q8 1 19 1 q105 0 105 -83 q0 -50 -41 -72 q-41 -22 -95 -22 q-61 0 -110 26 l23 48 q38 -20 82 -20 q57 0 57 41 q0 36 -53 36 q-21 0 -39 -6 l-23 25 l62 90 l58 0 Z" /><glyph glyph-name="onesuperior" unicode="¹" d="M170 448 l0 317 l-73 -61 l-53 62 l137 111 l83 0 l0 -429 l-94 0 Z" /><glyph glyph-name="ordmasculine" unicode="º" d="M342 574 q0 -64 -43 -106 q-43 -42 -109 -42 q-66 0 -109 42 q-43 42 -43 106 q0 65 43 106.5 q43 41.5 109 41.5 q66 0 109 -41.5 q43 -41.5 43 -106.5 ZM260 574 q0 32 -18.5 53.5 q-18.5 21.5 -51.5 21.5 q-33 0 -51 -21.5 q-18 -21.5 -18 -53.5 q0 -31 18 -53 q18 -22 51 -22 q33 0 51.5 22 q18.5 22 18.5 53 Z" /><glyph glyph-name="guillemotright" unicode="»" d="M262 73 l115 173 l-116 175 l76 51 l152 -226 l-152 -224 l-75 51 ZM39 73 l115 173 l-116 175 l76 51 l152 -226 l-152 -224 l-75 51 Z" /><glyph glyph-name="onequarter" unicode="¼" d="M682 0 l0 85 l-190 0 l0 74 l179 270 l97 0 l0 -265 l58 0 l0 -79 l-58 0 l0 -85 l-86 0 ZM682 164 l0 149 l-1 0 l-96 -149 l97 0 ZM186 6 l416 734 l78 -38 l-416 -734 l-78 38 ZM95 535 l-53 62 l137 111 l83 0 l0 -429 l-94 0 l0 317 l-73 -61 Z" /><glyph glyph-name="onehalf" unicode="½" d="M186 6 l416 734 l78 -38 l-416 -734 l-78 38 ZM771 179 l-100 -97 l169 0 l0 -82 l-291 0 l0 76 l162 161 q36 36 36 70 q0 22 -15 35.5 q-15 13.5 -38 13.5 q-25 0 -42 -18.5 q-17 -18.5 -19 -48.5 l-88 12 q7 59 48 97 q41 38 101 38 q61 0 103.5 -33.5 q42.5 -33.5 42.5 -94.5 q0 -62 -69 -129 ZM95 535 l-53 62 l137 111 l83 0 l0 -429 l-94 0 l0 317 l-73 -61 Z" /><glyph glyph-name="threequarters" unicode="¾" d="M682 0 l0 85 l-190 0 l0 74 l179 270 l97 0 l0 -265 l58 0 l0 -79 l-58 0 l0 -85 l-86 0 ZM682 164 l0 149 l-1 0 l-96 -149 l97 0 ZM186 6 l416 734 l78 -38 l-416 -734 l-78 38 ZM354 409 q0 -64 -45.5 -98 q-45.5 -34 -107.5 -34 q-125 0 -161 112 l85 25 q19 -58 73 -58 q27 0 46 14 q19 14 19 43 q0 56 -88 56 l-27 0 l0 71 l28 0 q32 0 53.5 13.5 q21.5 13.5 21.5 43.5 q0 21 -14 33 q-14 12 -36 12 q-47 0 -59 -53 l-86 21 q14 48 54 79 q40 31 91 31 q63 0 102.5 -30 q39.5 -30 39.5 -88 q0 -62 -55 -93 q66 -25 66 -100 Z" /><glyph glyph-name="questiondown" unicode="¿" d="M195 285 l118 0 l0 -38 q0 -48 -14 -79 q-14 -31 -52 -67 l-45 -43 q-46 -42 -46 -89 q0 -40 25.5 -66 q25.5 -26 68.5 -26 q45 0 72.5 30.5 q27.5 30.5 29.5 73.5 l123 -11 q-11 -94 -75 -148 q-64 -54 -158 -54 q-91 0 -152 51 q-61 51 -61 142 q0 58 23 94 q23 36 77 83 q41 36 53.5 57.5 q12.5 21.5 12.5 63.5 l0 26 ZM309 478 q24 -22 24 -54 q0 -32 -23.5 -55 q-23.5 -23 -56.5 -23 q-33 0 -56.5 22 q-23.5 22 -23.5 54 q0 32 23.5 55 q23.5 23 56.5 23 q32 0 56 -22 Z" /><glyph glyph-name="Agrave" unicode="à" d="M-8 0 l308 708 l109 0 l305 -708 l-144 0 l-66 162 l-307 0 l-64 -162 l-141 0 ZM240 270 l220 0 l-109 288 l-111 -288 ZM304 908 l99 -144 l-94 0 l-141 144 l136 0 Z" /><glyph glyph-name="Aacute" unicode="á" d="M-8 0 l308 708 l109 0 l305 -708 l-144 0 l-66 162 l-307 0 l-64 -162 l-141 0 ZM240 270 l220 0 l-109 288 l-111 -288 ZM301 764 l99 144 l136 0 l-141 -144 l-94 0 Z" /><glyph glyph-name="Acircumflex" unicode="â" d="M-8 0 l308 708 l109 0 l305 -708 l-144 0 l-66 162 l-307 0 l-64 -162 l-141 0 ZM240 270 l220 0 l-109 288 l-111 -288 ZM537 764 l-114 0 l-69 90 l-69 -90 l-112 0 l115 144 l135 0 l114 -144 Z" /><glyph glyph-name="Atilde" unicode="ã" d="M-8 0 l308 708 l109 0 l305 -708 l-144 0 l-66 162 l-307 0 l-64 -162 l-141 0 ZM240 270 l220 0 l-109 288 l-111 -288 ZM236 768 l-66 0 q22 127 112 127 q36 0 79 -18 q45 -19 65 -19 q33 0 46 42 l66 0 q-22 -127 -112 -127 q-37 0 -82 20 q-39 18 -62 18 q-32 0 -46 -43 Z" /><glyph glyph-name="Adieresis" unicode="ä" d="M-8 0 l308 708 l109 0 l305 -708 l-144 0 l-66 162 l-307 0 l-64 -162 l-141 0 ZM240 270 l220 0 l-109 288 l-111 -288 ZM206.5 795 q-20.5 21 -20.5 49 q0 28 20.5 49 q20.5 21 50.5 21 q31 0 52 -20 q21 -20 21 -50 q0 -30 -21 -50 q-21 -20 -52 -20 q-30 0 -50.5 21 ZM402.5 795 q-20.5 21 -20.5 49 q0 28 20.5 49 q20.5 21 50.5 21 q31 0 52 -20 q21 -20 21 -50 q0 -30 -21 -50 q-21 -20 -52 -20 q-30 0 -50.5 21 Z" /><glyph glyph-name="Aring" unicode="å" d="M-8 0 l308 708 l109 0 l305 -708 l-144 0 l-66 162 l-307 0 l-64 -162 l-141 0 ZM240 270 l220 0 l-109 288 l-111 -288 ZM428 928 q30 -29 30 -73 q0 -44 -30 -73 q-30 -29 -75 -29 q-44 0 -74.5 29 q-30.5 29 -30.5 72 q0 44 30 73.5 q30 29.5 75 29.5 q45 0 75 -29 ZM395 814 q17 16 17 41 q0 25 -17 41 q-17 16 -42 16 q-25 0 -42 -16.5 q-17 -16.5 -17 -41.5 q0 -24 17 -40 q17 -16 42 -16 q25 0 42 16 Z" /><glyph glyph-name="AE" unicode="æ" d="M529 0 l0 186 l-268 0 l-114 -186 l-153 0 l453 708 l536 0 l0 -110 l-328 0 l0 -180 l310 0 l0 -106 l-310 0 l0 -200 l346 0 l0 -112 l-472 0 ZM327 294 l202 0 l0 304 l-15 0 l-187 -304 Z" /><glyph glyph-name="Ccedilla" unicode="ç" d="M685 618 l-96 -76 q-26 36 -70.5 54.5 q-44.5 18.5 -90.5 18.5 q-108 0 -176.5 -74 q-68.5 -74 -68.5 -185 q0 -116 65.5 -188.5 q65.5 -72.5 174.5 -72.5 q112 0 172 82 l101 -71 q-92 -117 -258 -123 l-32 -47 q8 1 19 1 q105 0 105 -83 q0 -50 -41 -72 q-41 -22 -95 -22 q-61 0 -110 26 l23 48 q38 -20 82 -20 q57 0 57 41 q0 36 -53 36 q-21 0 -39 -6 l-23 25 l51 74 q-151 13 -244.5 115 q-93.5 102 -93.5 257 q0 167 108.5 268.5 q108.5 101.5 275.5 101.5 q74 0 145.5 -27.5 q71.5 -27.5 111.5 -80.5 Z" /><glyph glyph-name="Egrave" unicode="è" d="M78 0 l0 708 l469 0 l0 -110 l-343 0 l0 -180 l325 0 l0 -106 l-325 0 l0 -200 l361 0 l0 -112 l-487 0 ZM296 908 l99 -144 l-94 0 l-141 144 l136 0 Z" /><glyph glyph-name="Eacute" unicode="é" d="M78 0 l0 708 l469 0 l0 -110 l-343 0 l0 -180 l325 0 l0 -106 l-325 0 l0 -200 l361 0 l0 -112 l-487 0 ZM253 764 l99 144 l136 0 l-141 -144 l-94 0 Z" /><glyph glyph-name="Ecircumflex" unicode="ê" d="M78 0 l0 708 l469 0 l0 -110 l-343 0 l0 -180 l325 0 l0 -106 l-325 0 l0 -200 l361 0 l0 -112 l-487 0 ZM499 764 l-114 0 l-69 90 l-69 -90 l-112 0 l115 144 l135 0 l114 -144 Z" /><glyph glyph-name="Edieresis" unicode="ë" d="M78 0 l0 708 l469 0 l0 -110 l-343 0 l0 -180 l325 0 l0 -106 l-325 0 l0 -200 l361 0 l0 -112 l-487 0 ZM168.5 795 q-20.5 21 -20.5 49 q0 28 20.5 49 q20.5 21 50.5 21 q31 0 52 -20 q21 -20 21 -50 q0 -30 -21 -50 q-21 -20 -52 -20 q-30 0 -50.5 21 ZM364.5 795 q-20.5 21 -20.5 49 q0 28 20.5 49 q20.5 21 50.5 21 q31 0 52 -20 q21 -20 21 -50 q0 -30 -21 -50 q-21 -20 -52 -20 q-30 0 -50.5 21 Z" /><glyph glyph-name="Igrave" unicode="ì" d="M78 0 l0 708 l126 0 l0 -708 l-126 0 ZM104 908 l99 -144 l-94 0 l-141 144 l136 0 Z" /><glyph glyph-name="Iacute" unicode="í" d="M78 0 l0 708 l126 0 l0 -708 l-126 0 ZM78 764 l99 144 l136 0 l-141 -144 l-94 0 Z" /><glyph glyph-name="Icircumflex" unicode="î" d="M78 0 l0 708 l126 0 l0 -708 l-126 0 ZM322 764 l-114 0 l-69 90 l-69 -90 l-112 0 l115 144 l135 0 l114 -144 Z" /><glyph glyph-name="Idieresis" unicode="ï" d="M78 0 l0 708 l126 0 l0 -708 l-126 0 ZM-8.5 795 q-20.5 21 -20.5 49 q0 28 20.5 49 q20.5 21 50.5 21 q31 0 52 -20 q21 -20 21 -50 q0 -30 -21 -50 q-21 -20 -52 -20 q-30 0 -50.5 21 ZM187.5 795 q-20.5 21 -20.5 49 q0 28 20.5 49 q20.5 21 50.5 21 q31 0 52 -20 q21 -20 21 -50 q0 -30 -21 -50 q-21 -20 -52 -20 q-30 0 -50.5 21 Z" /><glyph glyph-name="Eth" unicode="ð" d="M79 0 l0 324 l-66 0 l0 84 l66 0 l0 300 l279 0 q150 0 255 -92 q105 -92 105 -262 q0 -87 -34.5 -157 q-34.5 -70 -90 -111.5 q-55.5 -41.5 -120 -63.5 q-64.5 -22 -130.5 -22 l-264 0 ZM205 114 l94 0 q128 0 207.5 59 q79.5 59 79.5 181 q0 123 -71.5 181.5 q-71.5 58.5 -194.5 58.5 l-115 0 l0 -186 l216 0 l0 -84 l-216 0 l0 -210 Z" /><glyph glyph-name="Ntilde" unicode="ñ" d="M78 0 l0 708 l167 0 l329 -530 l2 0 l0 530 l126 0 l0 -708 l-160 0 l-336 547 l-2 0 l0 -547 l-126 0 ZM271 768 l-66 0 q22 127 112 127 q36 0 79 -18 q45 -19 65 -19 q33 0 46 42 l66 0 q-22 -127 -112 -127 q-37 0 -82 20 q-39 18 -62 18 q-32 0 -46 -43 Z" /><glyph glyph-name="Ograve" unicode="ò" d="M44 356 q0 168 106.5 269 q106.5 101 272.5 101 q168 0 275 -101 q107 -101 107 -269 q0 -165 -107.5 -269.5 q-107.5 -104.5 -274.5 -104.5 q-165 0 -272 104.5 q-107 104.5 -107 269.5 ZM181 356 q0 -114 68 -187.5 q68 -73.5 175 -73.5 q108 0 176 73.5 q68 73.5 68 187.5 q0 111 -67.5 185 q-67.5 74 -176.5 74 q-108 0 -175.5 -74 q-67.5 -74 -67.5 -185 ZM395 908 l99 -144 l-94 0 l-141 144 l136 0 Z" /><glyph glyph-name="Oacute" unicode="ó" d="M44 356 q0 168 106.5 269 q106.5 101 272.5 101 q168 0 275 -101 q107 -101 107 -269 q0 -165 -107.5 -269.5 q-107.5 -104.5 -274.5 -104.5 q-165 0 -272 104.5 q-107 104.5 -107 269.5 ZM181 356 q0 -114 68 -187.5 q68 -73.5 175 -73.5 q108 0 176 73.5 q68 73.5 68 187.5 q0 111 -67.5 185 q-67.5 74 -176.5 74 q-108 0 -175.5 -74 q-67.5 -74 -67.5 -185 ZM361 764 l99 144 l136 0 l-141 -144 l-94 0 Z" /><glyph glyph-name="Ocircumflex" unicode="ô" d="M44 356 q0 168 106.5 269 q106.5 101 272.5 101 q168 0 275 -101 q107 -101 107 -269 q0 -165 -107.5 -269.5 q-107.5 -104.5 -274.5 -104.5 q-165 0 -272 104.5 q-107 104.5 -107 269.5 ZM181 356 q0 -114 68 -187.5 q68 -73.5 175 -73.5 q108 0 176 73.5 q68 73.5 68 187.5 q0 111 -67.5 185 q-67.5 74 -176.5 74 q-108 0 -175.5 -74 q-67.5 -74 -67.5 -185 ZM611 764 l-114 0 l-69 90 l-69 -90 l-112 0 l115 144 l135 0 l114 -144 Z" /><glyph glyph-name="Otilde" unicode="õ" d="M44 356 q0 168 106.5 269 q106.5 101 272.5 101 q168 0 275 -101 q107 -101 107 -269 q0 -165 -107.5 -269.5 q-107.5 -104.5 -274.5 -104.5 q-165 0 -272 104.5 q-107 104.5 -107 269.5 ZM181 356 q0 -114 68 -187.5 q68 -73.5 175 -73.5 q108 0 176 73.5 q68 73.5 68 187.5 q0 111 -67.5 185 q-67.5 74 -176.5 74 q-108 0 -175.5 -74 q-67.5 -74 -67.5 -185 ZM310 768 l-66 0 q22 127 112 127 q36 0 79 -18 q45 -19 65 -19 q33 0 46 42 l66 0 q-22 -127 -112 -127 q-37 0 -82 20 q-39 18 -62 18 q-32 0 -46 -43 Z" /><glyph glyph-name="Odieresis" unicode="ö" d="M44 356 q0 168 106.5 269 q106.5 101 272.5 101 q168 0 275 -101 q107 -101 107 -269 q0 -165 -107.5 -269.5 q-107.5 -104.5 -274.5 -104.5 q-165 0 -272 104.5 q-107 104.5 -107 269.5 ZM181 356 q0 -114 68 -187.5 q68 -73.5 175 -73.5 q108 0 176 73.5 q68 73.5 68 187.5 q0 111 -67.5 185 q-67.5 74 -176.5 74 q-108 0 -175.5 -74 q-67.5 -74 -67.5 -185 ZM277.5 795 q-20.5 21 -20.5 49 q0 28 20.5 49 q20.5 21 50.5 21 q31 0 52 -20 q21 -20 21 -50 q0 -30 -21 -50 q-21 -20 -52 -20 q-30 0 -50.5 21 ZM473.5 795 q-20.5 21 -20.5 49 q0 28 20.5 49 q20.5 21 50.5 21 q31 0 52 -20 q21 -20 21 -50 q0 -30 -21 -50 q-21 -20 -52 -20 q-30 0 -50.5 21 Z" /><glyph glyph-name="multiply" unicode="×" d="M150 557 l183 -183 l182 182 l70 -70 l-181 -181 l185 -186 l-74 -74 l-183 181 l-181 -181 l-74 73 l185 182 l-184 186 l72 71 Z" /><glyph glyph-name="Oslash" unicode="ø" d="M44 356 q0 168 106.5 269 q106.5 101 272.5 101 q130 0 225 -62 l85 93 l49 -43 l-83 -91 q106 -103 106 -267 q0 -164 -107.5 -267.5 q-107.5 -103.5 -274.5 -106.5 q-141 0 -240 77 l-85 -92 l-50 43 l87 94 q-91 96 -91 252 ZM674 356 q0 107 -57 174 l-352 -383 q60 -55 159 -55 q110 0 180 74 q70 74 70 190 ZM175 356 q0 -97 45 -159 l349 378 q-56 43 -145 43 q-112 0 -180.5 -74 q-68.5 -74 -68.5 -188 Z" /><glyph glyph-name="Ugrave" unicode="ù" d="M642 708 l0 -448 q0 -126 -80.5 -202 q-80.5 -76 -204.5 -76 q-124 0 -204.5 76 q-80.5 76 -80.5 202 l0 448 l126 0 l0 -443 q0 -71 38 -120.5 q38 -49.5 121 -49.5 q83 0 121 49.5 q38 49.5 38 120.5 l0 443 l126 0 ZM338 908 l99 -144 l-94 0 l-141 144 l136 0 Z" /><glyph glyph-name="Uacute" unicode="ú" d="M642 708 l0 -448 q0 -126 -80.5 -202 q-80.5 -76 -204.5 -76 q-124 0 -204.5 76 q-80.5 76 -80.5 202 l0 448 l126 0 l0 -443 q0 -71 38 -120.5 q38 -49.5 121 -49.5 q83 0 121 49.5 q38 49.5 38 120.5 l0 443 l126 0 ZM291 764 l99 144 l136 0 l-141 -144 l-94 0 Z" /><glyph glyph-name="Ucircumflex" unicode="û" d="M642 708 l0 -448 q0 -126 -80.5 -202 q-80.5 -76 -204.5 -76 q-124 0 -204.5 76 q-80.5 76 -80.5 202 l0 448 l126 0 l0 -443 q0 -71 38 -120.5 q38 -49.5 121 -49.5 q83 0 121 49.5 q38 49.5 38 120.5 l0 443 l126 0 ZM541 764 l-114 0 l-69 90 l-69 -90 l-112 0 l115 144 l135 0 l114 -144 Z" /><glyph glyph-name="Udieresis" unicode="ü" d="M642 708 l0 -448 q0 -126 -80.5 -202 q-80.5 -76 -204.5 -76 q-124 0 -204.5 76 q-80.5 76 -80.5 202 l0 448 l126 0 l0 -443 q0 -71 38 -120.5 q38 -49.5 121 -49.5 q83 0 121 49.5 q38 49.5 38 120.5 l0 443 l126 0 ZM209.5 795 q-20.5 21 -20.5 49 q0 28 20.5 49 q20.5 21 50.5 21 q31 0 52 -20 q21 -20 21 -50 q0 -30 -21 -50 q-21 -20 -52 -20 q-30 0 -50.5 21 ZM405.5 795 q-20.5 21 -20.5 49 q0 28 20.5 49 q20.5 21 50.5 21 q31 0 52 -20 q21 -20 21 -50 q0 -30 -21 -50 q-21 -20 -52 -20 q-30 0 -50.5 21 Z" /><glyph glyph-name="Yacute" unicode="ý" d="M249 0 l0 307 l-266 401 l154 0 l178 -298 l180 298 l146 0 l-266 -401 l0 -307 l-126 0 ZM266 764 l99 144 l136 0 l-141 -144 l-94 0 Z" /><glyph glyph-name="Thorn" unicode="þ" d="M78 0 l0 708 l126 0 l0 -134 l105 0 q267 0 267 -205 q0 -110 -76 -160 q-76 -50 -199 -50 l-97 0 l0 -159 l-126 0 ZM204 265 l88 0 q157 0 157 104 q0 57 -41.5 78 q-41.5 21 -111.5 21 l-92 0 l0 -203 Z" /><glyph glyph-name="germandbls" unicode="ß" d="M72 0 l0 507 q0 113 60.5 187 q60.5 74 183.5 74 q94 0 154 -56 q60 -56 60 -139 q0 -52 -30.5 -94.5 q-30.5 -42.5 -76.5 -54.5 l0 -2 q75 -13 119.5 -67.5 q44.5 -54.5 44.5 -132.5 q0 -104 -67 -169 q-67 -65 -180 -65 q-44 0 -87 11 l0 101 q30 -10 70 -10 q64 0 102.5 37.5 q38.5 37.5 38.5 100.5 q0 67 -43.5 101.5 q-43.5 34.5 -110.5 34.5 l-13 0 l0 102 l15 0 q44 0 71.5 26.5 q27.5 26.5 27.5 69.5 q0 41 -25.5 71 q-25.5 30 -74.5 30 q-65 0 -92 -48 q-27 -48 -27 -114 l0 -501 l-120 0 Z" /><glyph glyph-name="agrave" unicode="à" d="M370 0 l0 61 l-3 0 q-18 -32 -58.5 -52.5 q-40.5 -20.5 -90.5 -20.5 q-69 0 -124.5 36.5 q-55.5 36.5 -55.5 112.5 q0 41 20.5 71.5 q20.5 30.5 51.5 47.5 q31 17 77.5 27.5 q46.5 10.5 88 13.5 q41.5 3 92.5 3 l0 12 q0 42 -31 65 q-31 23 -79 23 q-76 0 -131 -55 l-62 73 q82 76 203 76 q62 0 105.5 -17.5 q43.5 -17.5 66.5 -48 q23 -30.5 32.5 -64 q9.5 -33.5 9.5 -72.5 l0 -292 l-112 0 ZM368 202 l0 17 l-27 0 q-183 0 -183 -80 q0 -32 24.5 -46 q24.5 -14 59.5 -14 q61 0 93.5 32.5 q32.5 32.5 32.5 90.5 ZM236 708 l99 -144 l-94 0 l-141 144 l136 0 Z" /><glyph glyph-name="aacute" unicode="á" d="M370 0 l0 61 l-3 0 q-18 -32 -58.5 -52.5 q-40.5 -20.5 -90.5 -20.5 q-69 0 -124.5 36.5 q-55.5 36.5 -55.5 112.5 q0 41 20.5 71.5 q20.5 30.5 51.5 47.5 q31 17 77.5 27.5 q46.5 10.5 88 13.5 q41.5 3 92.5 3 l0 12 q0 42 -31 65 q-31 23 -79 23 q-76 0 -131 -55 l-62 73 q82 76 203 76 q62 0 105.5 -17.5 q43.5 -17.5 66.5 -48 q23 -30.5 32.5 -64 q9.5 -33.5 9.5 -72.5 l0 -292 l-112 0 ZM368 202 l0 17 l-27 0 q-183 0 -183 -80 q0 -32 24.5 -46 q24.5 -14 59.5 -14 q61 0 93.5 32.5 q32.5 32.5 32.5 90.5 ZM195 564 l99 144 l136 0 l-141 -144 l-94 0 Z" /><glyph glyph-name="acircumflex" unicode="â" d="M370 0 l0 61 l-3 0 q-18 -32 -58.5 -52.5 q-40.5 -20.5 -90.5 -20.5 q-69 0 -124.5 36.5 q-55.5 36.5 -55.5 112.5 q0 41 20.5 71.5 q20.5 30.5 51.5 47.5 q31 17 77.5 27.5 q46.5 10.5 88 13.5 q41.5 3 92.5 3 l0 12 q0 42 -31 65 q-31 23 -79 23 q-76 0 -131 -55 l-62 73 q82 76 203 76 q62 0 105.5 -17.5 q43.5 -17.5 66.5 -48 q23 -30.5 32.5 -64 q9.5 -33.5 9.5 -72.5 l0 -292 l-112 0 ZM368 202 l0 17 l-27 0 q-183 0 -183 -80 q0 -32 24.5 -46 q24.5 -14 59.5 -14 q61 0 93.5 32.5 q32.5 32.5 32.5 90.5 ZM456 564 l-114 0 l-69 90 l-69 -90 l-112 0 l115 144 l135 0 l114 -144 Z" /><glyph glyph-name="atilde" unicode="ã" d="M370 0 l0 61 l-3 0 q-18 -32 -58.5 -52.5 q-40.5 -20.5 -90.5 -20.5 q-69 0 -124.5 36.5 q-55.5 36.5 -55.5 112.5 q0 41 20.5 71.5 q20.5 30.5 51.5 47.5 q31 17 77.5 27.5 q46.5 10.5 88 13.5 q41.5 3 92.5 3 l0 12 q0 42 -31 65 q-31 23 -79 23 q-76 0 -131 -55 l-62 73 q82 76 203 76 q62 0 105.5 -17.5 q43.5 -17.5 66.5 -48 q23 -30.5 32.5 -64 q9.5 -33.5 9.5 -72.5 l0 -292 l-112 0 ZM368 202 l0 17 l-27 0 q-183 0 -183 -80 q0 -32 24.5 -46 q24.5 -14 59.5 -14 q61 0 93.5 32.5 q32.5 32.5 32.5 90.5 ZM153 568 l-66 0 q22 127 112 127 q36 0 79 -18 q45 -19 65 -19 q33 0 46 42 l66 0 q-22 -127 -112 -127 q-37 0 -82 20 q-39 18 -62 18 q-32 0 -46 -43 Z" /><glyph glyph-name="adieresis" unicode="ä" d="M370 0 l0 61 l-3 0 q-18 -32 -58.5 -52.5 q-40.5 -20.5 -90.5 -20.5 q-69 0 -124.5 36.5 q-55.5 36.5 -55.5 112.5 q0 41 20.5 71.5 q20.5 30.5 51.5 47.5 q31 17 77.5 27.5 q46.5 10.5 88 13.5 q41.5 3 92.5 3 l0 12 q0 42 -31 65 q-31 23 -79 23 q-76 0 -131 -55 l-62 73 q82 76 203 76 q62 0 105.5 -17.5 q43.5 -17.5 66.5 -48 q23 -30.5 32.5 -64 q9.5 -33.5 9.5 -72.5 l0 -292 l-112 0 ZM368 202 l0 17 l-27 0 q-183 0 -183 -80 q0 -32 24.5 -46 q24.5 -14 59.5 -14 q61 0 93.5 32.5 q32.5 32.5 32.5 90.5 ZM123.5 595 q-20.5 21 -20.5 49 q0 28 20.5 49 q20.5 21 50.5 21 q31 0 52 -20 q21 -20 21 -50 q0 -30 -21 -50 q-21 -20 -52 -20 q-30 0 -50.5 21 ZM319.5 595 q-20.5 21 -20.5 49 q0 28 20.5 49 q20.5 21 50.5 21 q31 0 52 -20 q21 -20 21 -50 q0 -30 -21 -50 q-21 -20 -52 -20 q-30 0 -50.5 21 Z" /><glyph glyph-name="aring" unicode="å" d="M370 0 l0 61 l-3 0 q-18 -32 -58.5 -52.5 q-40.5 -20.5 -90.5 -20.5 q-69 0 -124.5 36.5 q-55.5 36.5 -55.5 112.5 q0 41 20.5 71.5 q20.5 30.5 51.5 47.5 q31 17 77.5 27.5 q46.5 10.5 88 13.5 q41.5 3 92.5 3 l0 12 q0 42 -31 65 q-31 23 -79 23 q-76 0 -131 -55 l-62 73 q82 76 203 76 q62 0 105.5 -17.5 q43.5 -17.5 66.5 -48 q23 -30.5 32.5 -64 q9.5 -33.5 9.5 -72.5 l0 -292 l-112 0 ZM368 202 l0 17 l-27 0 q-183 0 -183 -80 q0 -32 24.5 -46 q24.5 -14 59.5 -14 q61 0 93.5 32.5 q32.5 32.5 32.5 90.5 ZM344 728 q30 -29 30 -73 q0 -44 -30 -73 q-30 -29 -75 -29 q-44 0 -74.5 29 q-30.5 29 -30.5 72 q0 44 30 73.5 q30 29.5 75 29.5 q45 0 75 -29 ZM311 614 q17 16 17 41 q0 25 -17 41 q-17 16 -42 16 q-25 0 -42 -16.5 q-17 -16.5 -17 -41.5 q0 -24 17 -40 q17 -16 42 -16 q25 0 42 16 Z" /><glyph glyph-name="ae" unicode="æ" d="M611 494 q104 0 168 -67 q64 -67 64 -193 q0 -21 -1 -32 l-365 0 q6 -52 45 -85 q39 -33 92 -33 q82 0 127 63 l79 -65 q-70 -96 -206 -96 q-130 0 -190 96 q-51 -94 -201 -94 q-44 0 -84.5 14 q-40.5 14 -70.5 49.5 q-30 35.5 -30 85.5 q0 48 25 79.5 q25 31.5 75 46.5 q50 15 102 20 q52 5 128 5 l0 10 q0 102 -109 102 q-35 0 -71.5 -15.5 q-36.5 -15.5 -60.5 -39.5 l-61 73 q81 76 202 76 q58 0 99.5 -23.5 q41.5 -23.5 63.5 -58.5 q60 82 180 82 ZM368 186 l0 16 l-27 0 q-94 0 -138.5 -12.5 q-44.5 -12.5 -44.5 -50.5 q0 -32 24.5 -46 q24.5 -14 59.5 -14 q61 0 93.5 28 q32.5 28 32.5 79 ZM477 288 l246 0 q0 50 -29 83 q-29 33 -84 33 q-53 0 -91 -33 q-38 -33 -42 -83 Z" /><glyph glyph-name="ccedilla" unicode="ç" d="M482 419 l-82 -72 q-14 20 -42 33.5 q-28 13.5 -57 13.5 q-62 0 -97 -46.5 q-35 -46.5 -35 -107.5 q0 -62 36 -108 q36 -46 100 -46 q66 0 101 43 l75 -76 q-58 -62 -165 -67 l-35 -50 q8 1 19 1 q105 0 105 -83 q0 -50 -41 -72 q-41 -22 -95 -22 q-61 0 -110 26 l23 48 q38 -20 82 -20 q57 0 57 41 q0 36 -53 36 q-21 0 -39 -6 l-23 25 l54 79 q-95 13 -155.5 79.5 q-60.5 66.5 -60.5 171.5 q0 114 74 184 q74 70 183 70 q53 0 103 -20 q50 -20 78 -55 Z" /><glyph glyph-name="egrave" unicode="è" d="M164 288 l246 0 q0 50 -29 83 q-29 33 -84 33 q-53 0 -91 -33 q-38 -33 -42 -83 ZM530 234 q0 -21 -1 -32 l-365 0 q4 -50 44 -84 q40 -34 93 -34 q83 0 127 62 l80 -64 q-71 -96 -206 -96 q-113 0 -185.5 68 q-72.5 68 -72.5 183 q0 115 72 186 q72 71 182 71 q104 0 168 -67 q64 -67 64 -193 ZM260 708 l99 -144 l-94 0 l-141 144 l136 0 Z" /><glyph glyph-name="eacute" unicode="é" d="M164 288 l246 0 q0 50 -29 83 q-29 33 -84 33 q-53 0 -91 -33 q-38 -33 -42 -83 ZM530 234 q0 -21 -1 -32 l-365 0 q4 -50 44 -84 q40 -34 93 -34 q83 0 127 62 l80 -64 q-71 -96 -206 -96 q-113 0 -185.5 68 q-72.5 68 -72.5 183 q0 115 72 186 q72 71 182 71 q104 0 168 -67 q64 -67 64 -193 ZM231 564 l99 144 l136 0 l-141 -144 l-94 0 Z" /><glyph glyph-name="ecircumflex" unicode="ê" d="M164 288 l246 0 q0 50 -29 83 q-29 33 -84 33 q-53 0 -91 -33 q-38 -33 -42 -83 ZM530 234 q0 -21 -1 -32 l-365 0 q4 -50 44 -84 q40 -34 93 -34 q83 0 127 62 l80 -64 q-71 -96 -206 -96 q-113 0 -185.5 68 q-72.5 68 -72.5 183 q0 115 72 186 q72 71 182 71 q104 0 168 -67 q64 -67 64 -193 ZM484 564 l-114 0 l-69 90 l-69 -90 l-112 0 l115 144 l135 0 l114 -144 Z" /><glyph glyph-name="edieresis" unicode="ë" d="M164 288 l246 0 q0 50 -29 83 q-29 33 -84 33 q-53 0 -91 -33 q-38 -33 -42 -83 ZM530 234 q0 -21 -1 -32 l-365 0 q4 -50 44 -84 q40 -34 93 -34 q83 0 127 62 l80 -64 q-71 -96 -206 -96 q-113 0 -185.5 68 q-72.5 68 -72.5 183 q0 115 72 186 q72 71 182 71 q104 0 168 -67 q64 -67 64 -193 ZM150.5 595 q-20.5 21 -20.5 49 q0 28 20.5 49 q20.5 21 50.5 21 q31 0 52 -20 q21 -20 21 -50 q0 -30 -21 -50 q-21 -20 -52 -20 q-30 0 -50.5 21 ZM346.5 595 q-20.5 21 -20.5 49 q0 28 20.5 49 q20.5 21 50.5 21 q31 0 52 -20 q21 -20 21 -50 q0 -30 -21 -50 q-21 -20 -52 -20 q-30 0 -50.5 21 Z" /><glyph glyph-name="igrave" unicode="ì" d="M74 0 l0 480 l120 0 l0 -480 l-120 0 ZM94 708 l99 -144 l-94 0 l-141 144 l136 0 Z" /><glyph glyph-name="iacute" unicode="í" d="M74 0 l0 480 l120 0 l0 -480 l-120 0 ZM75 564 l99 144 l136 0 l-141 -144 l-94 0 Z" /><glyph glyph-name="icircumflex" unicode="î" d="M74 0 l0 480 l120 0 l0 -480 l-120 0 ZM317 564 l-114 0 l-69 90 l-69 -90 l-112 0 l115 144 l135 0 l114 -144 Z" /><glyph glyph-name="idieresis" unicode="ï" d="M74 0 l0 480 l120 0 l0 -480 l-120 0 ZM-14.5 595 q-20.5 21 -20.5 49 q0 28 20.5 49 q20.5 21 50.5 21 q31 0 52 -20 q21 -20 21 -50 q0 -30 -21 -50 q-21 -20 -52 -20 q-30 0 -50.5 21 ZM181.5 595 q-20.5 21 -20.5 49 q0 28 20.5 49 q20.5 21 50.5 21 q31 0 52 -20 q21 -20 21 -50 q0 -30 -21 -50 q-21 -20 -52 -20 q-30 0 -50.5 21 Z" /><glyph glyph-name="eth" unicode="ð" d="M442 768 l64 -56 l-117 -54 q178 -195 178 -386 q0 -127 -68.5 -206.5 q-68.5 -79.5 -193.5 -79.5 q-112 0 -186.5 71 q-74.5 71 -74.5 183 q0 111 73.5 182.5 q73.5 71.5 179.5 71.5 q71 0 112 -40 l2 2 q-64 104 -127 156 l-108 -50 l-60 57 l110 50 q-21 23 -78 65 l94 55 q46 -36 87 -74 l113 53 ZM201 132 q37 -46 104 -46 q67 0 104 46 q37 46 37 108 q0 62 -37 108 q-37 46 -104 46 q-67 0 -104 -46 q-37 -46 -37 -108 q0 -62 37 -108 Z" /><glyph glyph-name="ntilde" unicode="ñ" d="M72 0 l0 480 l114 0 l0 -77 l2 0 q17 38 57.5 64.5 q40.5 26.5 91.5 26.5 q88 0 132.5 -56.5 q44.5 -56.5 44.5 -137.5 l0 -300 l-120 0 l0 266 q0 128 -90 128 q-54 0 -83 -38.5 q-29 -38.5 -29 -91.5 l0 -264 l-120 0 ZM175 568 l-66 0 q22 127 112 127 q36 0 79 -18 q45 -19 65 -19 q33 0 46 42 l66 0 q-22 -127 -112 -127 q-37 0 -82 20 q-39 18 -62 18 q-32 0 -46 -43 Z" /><glyph glyph-name="ograve" unicode="ò" d="M44 242 q0 111 75 181.5 q75 70.5 186 70.5 q111 0 186 -70.5 q75 -70.5 75 -181.5 q0 -112 -75.5 -184 q-75.5 -72 -185.5 -72 q-110 0 -185.5 72 q-75.5 72 -75.5 184 ZM202 350 q-36 -46 -36 -108 q0 -62 36 -109 q36 -47 103 -47 q67 0 103 47 q36 47 36 109 q0 62 -36 108 q-36 46 -103 46 q-67 0 -103 -46 ZM280 708 l99 -144 l-94 0 l-141 144 l136 0 Z" /><glyph glyph-name="oacute" unicode="ó" d="M44 242 q0 111 75 181.5 q75 70.5 186 70.5 q111 0 186 -70.5 q75 -70.5 75 -181.5 q0 -112 -75.5 -184 q-75.5 -72 -185.5 -72 q-110 0 -185.5 72 q-75.5 72 -75.5 184 ZM202 350 q-36 -46 -36 -108 q0 -62 36 -109 q36 -47 103 -47 q67 0 103 47 q36 47 36 109 q0 62 -36 108 q-36 46 -103 46 q-67 0 -103 -46 ZM233 564 l99 144 l136 0 l-141 -144 l-94 0 Z" /><glyph glyph-name="ocircumflex" unicode="ô" d="M44 242 q0 111 75 181.5 q75 70.5 186 70.5 q111 0 186 -70.5 q75 -70.5 75 -181.5 q0 -112 -75.5 -184 q-75.5 -72 -185.5 -72 q-110 0 -185.5 72 q-75.5 72 -75.5 184 ZM202 350 q-36 -46 -36 -108 q0 -62 36 -109 q36 -47 103 -47 q67 0 103 47 q36 47 36 109 q0 62 -36 108 q-36 46 -103 46 q-67 0 -103 -46 ZM489 564 l-114 0 l-69 90 l-69 -90 l-112 0 l115 144 l135 0 l114 -144 Z" /><glyph glyph-name="otilde" unicode="õ" d="M44 242 q0 111 75 181.5 q75 70.5 186 70.5 q111 0 186 -70.5 q75 -70.5 75 -181.5 q0 -112 -75.5 -184 q-75.5 -72 -185.5 -72 q-110 0 -185.5 72 q-75.5 72 -75.5 184 ZM202 350 q-36 -46 -36 -108 q0 -62 36 -109 q36 -47 103 -47 q67 0 103 47 q36 47 36 109 q0 62 -36 108 q-36 46 -103 46 q-67 0 -103 -46 ZM189 568 l-66 0 q22 127 112 127 q36 0 79 -18 q45 -19 65 -19 q33 0 46 42 l66 0 q-22 -127 -112 -127 q-37 0 -82 20 q-39 18 -62 18 q-32 0 -46 -43 Z" /><glyph glyph-name="odieresis" unicode="ö" d="M44 242 q0 111 75 181.5 q75 70.5 186 70.5 q111 0 186 -70.5 q75 -70.5 75 -181.5 q0 -112 -75.5 -184 q-75.5 -72 -185.5 -72 q-110 0 -185.5 72 q-75.5 72 -75.5 184 ZM202 350 q-36 -46 -36 -108 q0 -62 36 -109 q36 -47 103 -47 q67 0 103 47 q36 47 36 109 q0 62 -36 108 q-36 46 -103 46 q-67 0 -103 -46 ZM157.5 595 q-20.5 21 -20.5 49 q0 28 20.5 49 q20.5 21 50.5 21 q31 0 52 -20 q21 -20 21 -50 q0 -30 -21 -50 q-21 -20 -52 -20 q-30 0 -50.5 21 ZM353.5 595 q-20.5 21 -20.5 49 q0 28 20.5 49 q20.5 21 50.5 21 q31 0 52 -20 q21 -20 21 -50 q0 -30 -21 -50 q-21 -20 -52 -20 q-30 0 -50.5 21 Z" /><glyph glyph-name="divide" unicode="÷" d="M280 430 q-22 22 -22 53 q0 31 22 53 q22 22 53 22 q31 0 53 -22 q22 -22 22 -53 q0 -31 -22 -53 q-22 -22 -53 -22 q-31 0 -53 22 ZM280 70 q-22 22 -22 53 q0 31 22 53 q22 22 53 22 q31 0 53 -22 q22 -22 22 -53 q0 -31 -22 -53 q-22 -22 -53 -22 q-31 0 -53 22 ZM586 250 l-506 0 l0 107 l506 0 l0 -107 Z" /><glyph glyph-name="oslash" unicode="ø" d="M184 156 l207 213 q-36 31 -86 31 q-68 0 -105.5 -49 q-37.5 -49 -37.5 -112 q0 -54 22 -83 ZM427 326 l-209 -212 q32 -31 87 -31 q71 0 107 47.5 q36 47.5 36 111.5 q0 51 -21 84 ZM533 516 l42 -40 l-69 -71 q60 -69 60 -165 q0 -112 -75 -183 q-75 -71 -186 -71 q-94 0 -159 51 l-70 -71 l-40 41 l67 68 q-59 67 -59 165 q0 112 75 183 q75 71 186 71 q94 0 158 -50 l70 72 Z" /><glyph glyph-name="ugrave" unicode="ù" d="M510 480 l0 -480 l-114 0 l0 77 l-2 0 q-17 -38 -57.5 -64.5 q-40.5 -26.5 -91.5 -26.5 q-88 0 -132.5 56.5 q-44.5 56.5 -44.5 137.5 l0 300 l120 0 l0 -266 q0 -128 90 -128 q54 0 83 38.5 q29 38.5 29 91.5 l0 264 l120 0 ZM264 708 l99 -144 l-94 0 l-141 144 l136 0 Z" /><glyph glyph-name="uacute" unicode="ú" d="M510 480 l0 -480 l-114 0 l0 77 l-2 0 q-17 -38 -57.5 -64.5 q-40.5 -26.5 -91.5 -26.5 q-88 0 -132.5 56.5 q-44.5 56.5 -44.5 137.5 l0 300 l120 0 l0 -266 q0 -128 90 -128 q54 0 83 38.5 q29 38.5 29 91.5 l0 264 l120 0 ZM225 564 l99 144 l136 0 l-141 -144 l-94 0 Z" /><glyph glyph-name="ucircumflex" unicode="û" d="M510 480 l0 -480 l-114 0 l0 77 l-2 0 q-17 -38 -57.5 -64.5 q-40.5 -26.5 -91.5 -26.5 q-88 0 -132.5 56.5 q-44.5 56.5 -44.5 137.5 l0 300 l120 0 l0 -266 q0 -128 90 -128 q54 0 83 38.5 q29 38.5 29 91.5 l0 264 l120 0 ZM475 564 l-114 0 l-69 90 l-69 -90 l-112 0 l115 144 l135 0 l114 -144 Z" /><glyph glyph-name="udieresis" unicode="ü" d="M510 480 l0 -480 l-114 0 l0 77 l-2 0 q-17 -38 -57.5 -64.5 q-40.5 -26.5 -91.5 -26.5 q-88 0 -132.5 56.5 q-44.5 56.5 -44.5 137.5 l0 300 l120 0 l0 -266 q0 -128 90 -128 q54 0 83 38.5 q29 38.5 29 91.5 l0 264 l120 0 ZM142.5 595 q-20.5 21 -20.5 49 q0 28 20.5 49 q20.5 21 50.5 21 q31 0 52 -20 q21 -20 21 -50 q0 -30 -21 -50 q-21 -20 -52 -20 q-30 0 -50.5 21 ZM338.5 595 q-20.5 21 -20.5 49 q0 28 20.5 49 q20.5 21 50.5 21 q31 0 52 -20 q21 -20 21 -50 q0 -30 -21 -50 q-21 -20 -52 -20 q-30 0 -50.5 21 Z" /><glyph glyph-name="yacute" unicode="ý" d="M206 0 l-206 480 l133 0 l134 -349 l2 0 l119 349 l125 0 l-227 -583 q-28 -71 -67.5 -104 q-39.5 -33 -114.5 -33 q-33 0 -62 7 l10 104 q22 -7 45 -7 q36 0 52 16.5 q16 16.5 33 58.5 l24 61 ZM205 564 l99 144 l136 0 l-141 -144 l-94 0 Z" /><glyph glyph-name="thorn" unicode="þ" d="M74 756 l120 0 l0 -337 l3 0 q60 75 161 75 q102 0 167.5 -72 q65.5 -72 65.5 -180 q0 -108 -64.5 -182 q-64.5 -74 -171.5 -74 q-51 0 -95 22 q-44 22 -64 58 l-2 0 l0 -294 l-120 0 l0 984 ZM432.5 133 q36.5 47 36.5 109 q0 62 -36.5 108 q-36.5 46 -101.5 46 q-63 0 -102 -48 q-39 -48 -39 -108 q0 -60 39 -107 q39 -47 102 -47 q65 0 101.5 47 Z" /><glyph glyph-name="ydieresis" unicode="ÿ" d="M206 0 l-206 480 l133 0 l134 -349 l2 0 l119 349 l125 0 l-227 -583 q-28 -71 -67.5 -104 q-39.5 -33 -114.5 -33 q-33 0 -62 7 l10 104 q22 -7 45 -7 q36 0 52 16.5 q16 16.5 33 58.5 l24 61 ZM118.5 595 q-20.5 21 -20.5 49 q0 28 20.5 49 q20.5 21 50.5 21 q31 0 52 -20 q21 -20 21 -50 q0 -30 -21 -50 q-21 -20 -52 -20 q-30 0 -50.5 21 ZM314.5 595 q-20.5 21 -20.5 49 q0 28 20.5 49 q20.5 21 50.5 21 q31 0 52 -20 q21 -20 21 -50 q0 -30 -21 -50 q-21 -20 -52 -20 q-30 0 -50.5 21 Z" /><glyph glyph-name="Amacron" unicode="&#x100;" d="M-8 0 l308 708 l109 0 l305 -708 l-144 0 l-66 162 l-307 0 l-64 -162 l-141 0 ZM240 270 l220 0 l-109 288 l-111 -288 ZM515 873 l0 -78 l-320 0 l0 78 l320 0 Z" /><glyph glyph-name="amacron" unicode="&#x101;" d="M370 0 l0 61 l-3 0 q-18 -32 -58.5 -52.5 q-40.5 -20.5 -90.5 -20.5 q-69 0 -124.5 36.5 q-55.5 36.5 -55.5 112.5 q0 41 20.5 71.5 q20.5 30.5 51.5 47.5 q31 17 77.5 27.5 q46.5 10.5 88 13.5 q41.5 3 92.5 3 l0 12 q0 42 -31 65 q-31 23 -79 23 q-76 0 -131 -55 l-62 73 q82 76 203 76 q62 0 105.5 -17.5 q43.5 -17.5 66.5 -48 q23 -30.5 32.5 -64 q9.5 -33.5 9.5 -72.5 l0 -292 l-112 0 ZM368 202 l0 17 l-27 0 q-183 0 -183 -80 q0 -32 24.5 -46 q24.5 -14 59.5 -14 q61 0 93.5 32.5 q32.5 32.5 32.5 90.5 ZM444 673 l0 -78 l-320 0 l0 78 l320 0 Z" /><glyph glyph-name="Abreve" unicode="&#x102;" d="M-8 0 l308 708 l109 0 l305 -708 l-144 0 l-66 162 l-307 0 l-64 -162 l-141 0 ZM240 270 l220 0 l-109 288 l-111 -288 ZM184 908 l67 0 q12 -66 103 -66 q46 0 70 13 q24 13 34 53 l66 0 q-7 -72 -52.5 -108 q-45.5 -36 -118.5 -36 q-74 0 -119.5 36 q-45.5 36 -49.5 108 Z" /><glyph glyph-name="abreve" unicode="&#x103;" d="M370 0 l0 61 l-3 0 q-18 -32 -58.5 -52.5 q-40.5 -20.5 -90.5 -20.5 q-69 0 -124.5 36.5 q-55.5 36.5 -55.5 112.5 q0 41 20.5 71.5 q20.5 30.5 51.5 47.5 q31 17 77.5 27.5 q46.5 10.5 88 13.5 q41.5 3 92.5 3 l0 12 q0 42 -31 65 q-31 23 -79 23 q-76 0 -131 -55 l-62 73 q82 76 203 76 q62 0 105.5 -17.5 q43.5 -17.5 66.5 -48 q23 -30.5 32.5 -64 q9.5 -33.5 9.5 -72.5 l0 -292 l-112 0 ZM368 202 l0 17 l-27 0 q-183 0 -183 -80 q0 -32 24.5 -46 q24.5 -14 59.5 -14 q61 0 93.5 32.5 q32.5 32.5 32.5 90.5 ZM109 708 l67 0 q12 -66 103 -66 q46 0 70 13 q24 13 34 53 l66 0 q-7 -72 -52.5 -108 q-45.5 -36 -118.5 -36 q-74 0 -119.5 36 q-45.5 36 -49.5 108 Z" /><glyph glyph-name="Aogonek" unicode="&#x104;" d="M653 -147 l25 -49 q-48 -38 -100 -38 q-42 0 -72.5 24 q-30.5 24 -30.5 65 q0 38 28.5 77.5 q28.5 39.5 65.5 68.5 l-65 161 l-307 0 l-64 -162 l-141 0 l308 708 l109 0 l305 -708 l-85 0 q-76 -71 -76 -122 q0 -19 13.5 -32.5 q13.5 -13.5 32.5 -13.5 q29 0 54 21 ZM240 270 l220 0 l-109 288 l-111 -288 Z" /><glyph glyph-name="aogonek" unicode="&#x105;" d="M447 -147 l25 -49 q-48 -38 -100 -38 q-42 0 -72.5 24 q-30.5 24 -30.5 65 q0 39 30.5 80 q30.5 41 69.5 71 l1 0 l0 55 l-3 0 q-18 -32 -58.5 -52.5 q-40.5 -20.5 -90.5 -20.5 q-69 0 -124.5 36.5 q-55.5 36.5 -55.5 112.5 q0 41 20.5 71.5 q20.5 30.5 51.5 47.5 q31 17 77.5 27.5 q46.5 10.5 88 13.5 q41.5 3 92.5 3 l0 12 q0 42 -31 65 q-31 23 -79 23 q-76 0 -131 -55 l-62 73 q82 76 203 76 q62 0 105.5 -17.5 q43.5 -17.5 66.5 -48 q23 -30.5 32.5 -64 q9.5 -33.5 9.5 -72.5 l0 -292 l-59 0 q-76 -71 -76 -122 q0 -19 13.5 -32.5 q13.5 -13.5 32.5 -13.5 q29 0 54 21 ZM368 202 l0 17 l-27 0 q-183 0 -183 -80 q0 -32 24.5 -46 q24.5 -14 59.5 -14 q61 0 93.5 32.5 q32.5 32.5 32.5 90.5 Z" /><glyph glyph-name="Cacute" unicode="&#x106;" d="M685 618 l-96 -76 q-26 36 -70.5 54.5 q-44.5 18.5 -90.5 18.5 q-108 0 -176.5 -74 q-68.5 -74 -68.5 -185 q0 -116 65.5 -188.5 q65.5 -72.5 174.5 -72.5 q112 0 172 82 l101 -71 q-99 -124 -274 -124 q-166 0 -272 104.5 q-106 104.5 -106 269.5 q0 167 108.5 268.5 q108.5 101.5 275.5 101.5 q74 0 145.5 -27.5 q71.5 -27.5 111.5 -80.5 ZM330 764 l99 144 l136 0 l-141 -144 l-94 0 Z" /><glyph glyph-name="cacute" unicode="&#x107;" d="M482 419 l-82 -72 q-14 20 -42 33.5 q-28 13.5 -57 13.5 q-62 0 -97 -46.5 q-35 -46.5 -35 -107.5 q0 -62 36 -108 q36 -46 100 -46 q66 0 101 43 l75 -76 q-62 -67 -177 -67 q-110 0 -185 69 q-75 69 -75 185 q0 114 74 184 q74 70 183 70 q53 0 103 -20 q50 -20 78 -55 ZM229 564 l99 144 l136 0 l-141 -144 l-94 0 Z" /><glyph glyph-name="Ccircumflex" unicode="&#x108;" d="M685 618 l-96 -76 q-26 36 -70.5 54.5 q-44.5 18.5 -90.5 18.5 q-108 0 -176.5 -74 q-68.5 -74 -68.5 -185 q0 -116 65.5 -188.5 q65.5 -72.5 174.5 -72.5 q112 0 172 82 l101 -71 q-99 -124 -274 -124 q-166 0 -272 104.5 q-106 104.5 -106 269.5 q0 167 108.5 268.5 q108.5 101.5 275.5 101.5 q74 0 145.5 -27.5 q71.5 -27.5 111.5 -80.5 ZM611 764 l-114 0 l-69 90 l-69 -90 l-112 0 l115 144 l135 0 l114 -144 Z" /><glyph glyph-name="ccircumflex" unicode="&#x109;" d="M482 419 l-82 -72 q-14 20 -42 33.5 q-28 13.5 -57 13.5 q-62 0 -97 -46.5 q-35 -46.5 -35 -107.5 q0 -62 36 -108 q36 -46 100 -46 q66 0 101 43 l75 -76 q-62 -67 -177 -67 q-110 0 -185 69 q-75 69 -75 185 q0 114 74 184 q74 70 183 70 q53 0 103 -20 q50 -20 78 -55 ZM483 564 l-114 0 l-69 90 l-69 -90 l-112 0 l115 144 l135 0 l114 -144 Z" /><glyph glyph-name="Cdotaccent" unicode="&#x10a;" d="M685 618 l-96 -76 q-26 36 -70.5 54.5 q-44.5 18.5 -90.5 18.5 q-108 0 -176.5 -74 q-68.5 -74 -68.5 -185 q0 -116 65.5 -188.5 q65.5 -72.5 174.5 -72.5 q112 0 172 82 l101 -71 q-99 -124 -274 -124 q-166 0 -272 104.5 q-106 104.5 -106 269.5 q0 167 108.5 268.5 q108.5 101.5 275.5 101.5 q74 0 145.5 -27.5 q71.5 -27.5 111.5 -80.5 ZM371 792.5 q-22 21.5 -22 50.5 q0 29 22 50.5 q22 21.5 54 21.5 q33 0 55.5 -20.5 q22.5 -20.5 22.5 -51.5 q0 -31 -22.5 -51.5 q-22.5 -20.5 -55.5 -20.5 q-32 0 -54 21.5 Z" /><glyph glyph-name="cdotaccent" unicode="&#x10b;" d="M482 419 l-82 -72 q-14 20 -42 33.5 q-28 13.5 -57 13.5 q-62 0 -97 -46.5 q-35 -46.5 -35 -107.5 q0 -62 36 -108 q36 -46 100 -46 q66 0 101 43 l75 -76 q-62 -67 -177 -67 q-110 0 -185 69 q-75 69 -75 185 q0 114 74 184 q74 70 183 70 q53 0 103 -20 q50 -20 78 -55 ZM244 592.5 q-22 21.5 -22 50.5 q0 29 22 50.5 q22 21.5 54 21.5 q33 0 55.5 -20.5 q22.5 -20.5 22.5 -51.5 q0 -31 -22.5 -51.5 q-22.5 -20.5 -55.5 -20.5 q-32 0 -54 21.5 Z" /><glyph glyph-name="Ccaron" unicode="&#x10c;" d="M685 618 l-96 -76 q-26 36 -70.5 54.5 q-44.5 18.5 -90.5 18.5 q-108 0 -176.5 -74 q-68.5 -74 -68.5 -185 q0 -116 65.5 -188.5 q65.5 -72.5 174.5 -72.5 q112 0 172 82 l101 -71 q-99 -124 -274 -124 q-166 0 -272 104.5 q-106 104.5 -106 269.5 q0 167 108.5 268.5 q108.5 101.5 275.5 101.5 q74 0 145.5 -27.5 q71.5 -27.5 111.5 -80.5 ZM243 908 l114 0 l69 -90 l69 90 l110 0 l-115 -144 l-133 0 l-114 144 Z" /><glyph glyph-name="ccaron" unicode="&#x10d;" d="M482 419 l-82 -72 q-14 20 -42 33.5 q-28 13.5 -57 13.5 q-62 0 -97 -46.5 q-35 -46.5 -35 -107.5 q0 -62 36 -108 q36 -46 100 -46 q66 0 101 43 l75 -76 q-62 -67 -177 -67 q-110 0 -185 69 q-75 69 -75 185 q0 114 74 184 q74 70 183 70 q53 0 103 -20 q50 -20 78 -55 ZM121 708 l114 0 l69 -90 l69 90 l110 0 l-115 -144 l-133 0 l-114 144 Z" /><glyph glyph-name="Dcaron" unicode="&#x10e;" d="M78 0 l0 708 l251 0 q74 0 140 -18.5 q66 -18.5 124 -58 q58 -39.5 92.5 -111 q34.5 -71.5 34.5 -166.5 q0 -89 -34.5 -159 q-34.5 -70 -92 -111.5 q-57.5 -41.5 -125 -62.5 q-67.5 -21 -139.5 -21 l-251 0 ZM204 110 l105 0 q41 0 78.5 7 q37.5 7 74.5 24.5 q37 17.5 63.5 44 q26.5 26.5 43 70 q16.5 43.5 16.5 98.5 q0 246 -276 246 l-105 0 l0 -490 ZM163 908 l114 0 l69 -90 l69 90 l110 0 l-115 -144 l-133 0 l-114 144 Z" /><glyph glyph-name="dcaron" unicode="&#x10f;" d="M560 756 l0 -756 l-114 0 l0 72 l-2 0 q-24 -41 -69 -63.5 q-45 -22.5 -96 -22.5 q-107 0 -171.5 74 q-64.5 74 -64.5 182 q0 108 65.5 180 q65.5 72 167.5 72 q101 0 161 -75 l3 0 l0 337 l120 0 ZM201.5 350 q-36.5 -46 -36.5 -108 q0 -62 36.5 -109 q36.5 -47 101.5 -47 q63 0 102 47 q39 47 39 107 q0 60 -39 108 q-39 48 -102 48 q-65 0 -101.5 -46 ZM587 513 l65 195 l106 0 l-80 -195 l-91 0 Z" /><glyph glyph-name="Dcroat" unicode="&#x110;" d="M79 0 l0 324 l-66 0 l0 84 l66 0 l0 300 l279 0 q150 0 255 -92 q105 -92 105 -262 q0 -87 -34.5 -157 q-34.5 -70 -90 -111.5 q-55.5 -41.5 -120 -63.5 q-64.5 -22 -130.5 -22 l-264 0 ZM205 114 l94 0 q128 0 207.5 59 q79.5 59 79.5 181 q0 123 -71.5 181.5 q-71.5 58.5 -194.5 58.5 l-115 0 l0 -186 l216 0 l0 -84 l-216 0 l0 -210 Z" /><glyph glyph-name="dcroat" unicode="&#x111;" d="M614 645 l0 -75 l-54 0 l0 -570 l-114 0 l0 72 l-2 0 q-24 -41 -69 -63.5 q-45 -22.5 -96 -22.5 q-107 0 -171.5 74 q-64.5 74 -64.5 182 q0 108 65.5 180 q65.5 72 167.5 72 q101 0 161 -75 l3 0 l0 151 l-170 0 l0 75 l170 0 l0 111 l120 0 l0 -111 l54 0 ZM201.5 350 q-36.5 -46 -36.5 -108 q0 -62 36.5 -109 q36.5 -47 101.5 -47 q63 0 102 47 q39 47 39 107 q0 60 -39 108 q-39 48 -102 48 q-65 0 -101.5 -46 Z" /><glyph glyph-name="Emacron" unicode="&#x112;" d="M78 0 l0 708 l469 0 l0 -110 l-343 0 l0 -180 l325 0 l0 -106 l-325 0 l0 -200 l361 0 l0 -112 l-487 0 ZM477 873 l0 -78 l-320 0 l0 78 l320 0 Z" /><glyph glyph-name="emacron" unicode="&#x113;" d="M164 288 l246 0 q0 50 -29 83 q-29 33 -84 33 q-53 0 -91 -33 q-38 -33 -42 -83 ZM530 234 q0 -21 -1 -32 l-365 0 q4 -50 44 -84 q40 -34 93 -34 q83 0 127 62 l80 -64 q-71 -96 -206 -96 q-113 0 -185.5 68 q-72.5 68 -72.5 183 q0 115 72 186 q72 71 182 71 q104 0 168 -67 q64 -67 64 -193 ZM459 673 l0 -78 l-320 0 l0 78 l320 0 Z" /><glyph glyph-name="Ebreve" unicode="&#x114;" d="M78 0 l0 708 l469 0 l0 -110 l-343 0 l0 -180 l325 0 l0 -106 l-325 0 l0 -200 l361 0 l0 -112 l-487 0 ZM146 908 l67 0 q12 -66 103 -66 q46 0 70 13 q24 13 34 53 l66 0 q-7 -72 -52.5 -108 q-45.5 -36 -118.5 -36 q-74 0 -119.5 36 q-45.5 36 -49.5 108 Z" /><glyph glyph-name="ebreve" unicode="&#x115;" d="M164 288 l246 0 q0 50 -29 83 q-29 33 -84 33 q-53 0 -91 -33 q-38 -33 -42 -83 ZM530 234 q0 -21 -1 -32 l-365 0 q4 -50 44 -84 q40 -34 93 -34 q83 0 127 62 l80 -64 q-71 -96 -206 -96 q-113 0 -185.5 68 q-72.5 68 -72.5 183 q0 115 72 186 q72 71 182 71 q104 0 168 -67 q64 -67 64 -193 ZM131 708 l67 0 q12 -66 103 -66 q46 0 70 13 q24 13 34 53 l66 0 q-7 -72 -52.5 -108 q-45.5 -36 -118.5 -36 q-74 0 -119.5 36 q-45.5 36 -49.5 108 Z" /><glyph glyph-name="Edotaccent" unicode="&#x116;" d="M78 0 l0 708 l469 0 l0 -110 l-343 0 l0 -180 l325 0 l0 -106 l-325 0 l0 -200 l361 0 l0 -112 l-487 0 ZM266 792.5 q-22 21.5 -22 50.5 q0 29 22 50.5 q22 21.5 54 21.5 q33 0 55.5 -20.5 q22.5 -20.5 22.5 -51.5 q0 -31 -22.5 -51.5 q-22.5 -20.5 -55.5 -20.5 q-32 0 -54 21.5 Z" /><glyph glyph-name="edotaccent" unicode="&#x117;" d="M164 288 l246 0 q0 50 -29 83 q-29 33 -84 33 q-53 0 -91 -33 q-38 -33 -42 -83 ZM530 234 q0 -21 -1 -32 l-365 0 q4 -50 44 -84 q40 -34 93 -34 q83 0 127 62 l80 -64 q-71 -96 -206 -96 q-113 0 -185.5 68 q-72.5 68 -72.5 183 q0 115 72 186 q72 71 182 71 q104 0 168 -67 q64 -67 64 -193 ZM244 592.5 q-22 21.5 -22 50.5 q0 29 22 50.5 q22 21.5 54 21.5 q33 0 55.5 -20.5 q22.5 -20.5 22.5 -51.5 q0 -31 -22.5 -51.5 q-22.5 -20.5 -55.5 -20.5 q-32 0 -54 21.5 Z" /><glyph glyph-name="Eogonek" unicode="&#x118;" d="M78 0 l0 708 l469 0 l0 -110 l-343 0 l0 -180 l325 0 l0 -106 l-325 0 l0 -200 l361 0 l0 -112 l-26 0 q-76 -71 -76 -122 q0 -19 13.5 -32.5 q13.5 -13.5 32.5 -13.5 q29 0 54 21 l25 -49 q-48 -38 -100 -38 q-42 0 -72.5 24 q-30.5 24 -30.5 65 q0 37 27.5 76 q27.5 39 64.5 69 l-399 0 Z" /><glyph glyph-name="eogonek" unicode="&#x119;" d="M395 -147 l25 -49 q-48 -38 -100 -38 q-42 0 -72.5 24 q-30.5 24 -30.5 65 q0 63 76 131 q-110 3 -179.5 70.5 q-69.5 67.5 -69.5 180.5 q0 115 72 186 q72 71 182 71 q104 0 168 -67 q64 -67 64 -193 q0 -21 -1 -32 l-365 0 q4 -50 44 -84 q40 -34 93 -34 q83 0 127 62 l80 -64 q-54 -73 -146 -90 q-67 -67 -67 -114 q0 -19 13.5 -32.5 q13.5 -13.5 32.5 -13.5 q29 0 54 21 ZM164 288 l246 0 q0 50 -29 83 q-29 33 -84 33 q-53 0 -91 -33 q-38 -33 -42 -83 Z" /><glyph glyph-name="Ecaron" unicode="&#x11a;" d="M78 0 l0 708 l469 0 l0 -110 l-343 0 l0 -180 l325 0 l0 -106 l-325 0 l0 -200 l361 0 l0 -112 l-487 0 ZM135 908 l114 0 l69 -90 l69 90 l110 0 l-115 -144 l-133 0 l-114 144 Z" /><glyph glyph-name="ecaron" unicode="&#x11b;" d="M164 288 l246 0 q0 50 -29 83 q-29 33 -84 33 q-53 0 -91 -33 q-38 -33 -42 -83 ZM530 234 q0 -21 -1 -32 l-365 0 q4 -50 44 -84 q40 -34 93 -34 q83 0 127 62 l80 -64 q-71 -96 -206 -96 q-113 0 -185.5 68 q-72.5 68 -72.5 183 q0 115 72 186 q72 71 182 71 q104 0 168 -67 q64 -67 64 -193 ZM120 708 l114 0 l69 -90 l69 90 l110 0 l-115 -144 l-133 0 l-114 144 Z" /><glyph glyph-name="Gcircumflex" unicode="&#x11c;" d="M698 404 l0 -367 q-115 -55 -267 -55 q-171 0 -279 104 q-108 104 -108 270 q0 167 108.5 268.5 q108.5 101.5 275.5 101.5 q82 0 153.5 -24 q71.5 -24 115.5 -65 l-87 -94 q-28 31 -77 51.5 q-49 20.5 -104 20.5 q-110 0 -178 -74 q-68 -74 -68 -185 q0 -115 68.5 -188 q68.5 -73 183.5 -73 q81 0 141 25 l0 180 l-149 0 l0 104 l271 0 ZM613 764 l-114 0 l-69 90 l-69 -90 l-112 0 l115 144 l135 0 l114 -144 Z" /><glyph glyph-name="gcircumflex" unicode="&#x11d;" d="M446 480 l114 0 l0 -437 q0 -134 -67.5 -208.5 q-67.5 -74.5 -203.5 -74.5 q-61 0 -127 21 q-66 21 -111 58 l69 93 q71 -68 168 -68 q152 0 152 165 l0 35 l-2 0 q-54 -72 -157 -72 q-105 0 -171 72.5 q-66 72.5 -66 177.5 q0 107 64.5 179.5 q64.5 72.5 170.5 72.5 q113 0 165 -86 l2 0 l0 72 ZM304 396 q-63 0 -100.5 -43.5 q-37.5 -43.5 -37.5 -109.5 q0 -61 37.5 -106.5 q37.5 -45.5 99.5 -45.5 q64 0 103.5 44.5 q39.5 44.5 39.5 107.5 q0 64 -39 108.5 q-39 44.5 -103 44.5 ZM507 564 l-114 0 l-69 90 l-69 -90 l-112 0 l115 144 l135 0 l114 -144 Z" /><glyph glyph-name="Gbreve" unicode="&#x11e;" d="M698 404 l0 -367 q-115 -55 -267 -55 q-171 0 -279 104 q-108 104 -108 270 q0 167 108.5 268.5 q108.5 101.5 275.5 101.5 q82 0 153.5 -24 q71.5 -24 115.5 -65 l-87 -94 q-28 31 -77 51.5 q-49 20.5 -104 20.5 q-110 0 -178 -74 q-68 -74 -68 -185 q0 -115 68.5 -188 q68.5 -73 183.5 -73 q81 0 141 25 l0 180 l-149 0 l0 104 l271 0 ZM260 908 l67 0 q12 -66 103 -66 q46 0 70 13 q24 13 34 53 l66 0 q-7 -72 -52.5 -108 q-45.5 -36 -118.5 -36 q-74 0 -119.5 36 q-45.5 36 -49.5 108 Z" /><glyph glyph-name="gbreve" unicode="&#x11f;" d="M446 480 l114 0 l0 -437 q0 -134 -67.5 -208.5 q-67.5 -74.5 -203.5 -74.5 q-61 0 -127 21 q-66 21 -111 58 l69 93 q71 -68 168 -68 q152 0 152 165 l0 35 l-2 0 q-54 -72 -157 -72 q-105 0 -171 72.5 q-66 72.5 -66 177.5 q0 107 64.5 179.5 q64.5 72.5 170.5 72.5 q113 0 165 -86 l2 0 l0 72 ZM304 396 q-63 0 -100.5 -43.5 q-37.5 -43.5 -37.5 -109.5 q0 -61 37.5 -106.5 q37.5 -45.5 99.5 -45.5 q64 0 103.5 44.5 q39.5 44.5 39.5 107.5 q0 64 -39 108.5 q-39 44.5 -103 44.5 ZM143 708 l67 0 q12 -66 103 -66 q46 0 70 13 q24 13 34 53 l66 0 q-7 -72 -52.5 -108 q-45.5 -36 -118.5 -36 q-74 0 -119.5 36 q-45.5 36 -49.5 108 Z" /><glyph glyph-name="Gdotaccent" unicode="&#x120;" d="M698 404 l0 -367 q-115 -55 -267 -55 q-171 0 -279 104 q-108 104 -108 270 q0 167 108.5 268.5 q108.5 101.5 275.5 101.5 q82 0 153.5 -24 q71.5 -24 115.5 -65 l-87 -94 q-28 31 -77 51.5 q-49 20.5 -104 20.5 q-110 0 -178 -74 q-68 -74 -68 -185 q0 -115 68.5 -188 q68.5 -73 183.5 -73 q81 0 141 25 l0 180 l-149 0 l0 104 l271 0 ZM376 792.5 q-22 21.5 -22 50.5 q0 29 22 50.5 q22 21.5 54 21.5 q33 0 55.5 -20.5 q22.5 -20.5 22.5 -51.5 q0 -31 -22.5 -51.5 q-22.5 -20.5 -55.5 -20.5 q-32 0 -54 21.5 Z" /><glyph glyph-name="gdotaccent" unicode="&#x121;" d="M446 480 l114 0 l0 -437 q0 -134 -67.5 -208.5 q-67.5 -74.5 -203.5 -74.5 q-61 0 -127 21 q-66 21 -111 58 l69 93 q71 -68 168 -68 q152 0 152 165 l0 35 l-2 0 q-54 -72 -157 -72 q-105 0 -171 72.5 q-66 72.5 -66 177.5 q0 107 64.5 179.5 q64.5 72.5 170.5 72.5 q113 0 165 -86 l2 0 l0 72 ZM304 396 q-63 0 -100.5 -43.5 q-37.5 -43.5 -37.5 -109.5 q0 -61 37.5 -106.5 q37.5 -45.5 99.5 -45.5 q64 0 103.5 44.5 q39.5 44.5 39.5 107.5 q0 64 -39 108.5 q-39 44.5 -103 44.5 ZM261 592.5 q-22 21.5 -22 50.5 q0 29 22 50.5 q22 21.5 54 21.5 q33 0 55.5 -20.5 q22.5 -20.5 22.5 -51.5 q0 -31 -22.5 -51.5 q-22.5 -20.5 -55.5 -20.5 q-32 0 -54 21.5 Z" /><glyph glyph-name="Gcommaaccent" unicode="&#x122;" d="M698 404 l0 -367 q-115 -55 -267 -55 q-171 0 -279 104 q-108 104 -108 270 q0 167 108.5 268.5 q108.5 101.5 275.5 101.5 q82 0 153.5 -24 q71.5 -24 115.5 -65 l-87 -94 q-28 31 -77 51.5 q-49 20.5 -104 20.5 q-110 0 -178 -74 q-68 -74 -68 -185 q0 -115 68.5 -188 q68.5 -73 183.5 -73 q81 0 141 25 l0 180 l-149 0 l0 104 l271 0 ZM321 -240 l65 195 l106 0 l-80 -195 l-91 0 Z" /><glyph glyph-name="gcommaaccent" unicode="&#x123;" d="M446 480 l114 0 l0 -437 q0 -134 -67.5 -208.5 q-67.5 -74.5 -203.5 -74.5 q-61 0 -127 21 q-66 21 -111 58 l69 93 q71 -68 168 -68 q152 0 152 165 l0 35 l-2 0 q-54 -72 -157 -72 q-105 0 -171 72.5 q-66 72.5 -66 177.5 q0 107 64.5 179.5 q64.5 72.5 170.5 72.5 q113 0 165 -86 l2 0 l0 72 ZM304 396 q-63 0 -100.5 -43.5 q-37.5 -43.5 -37.5 -109.5 q0 -61 37.5 -106.5 q37.5 -45.5 99.5 -45.5 q64 0 103.5 44.5 q39.5 44.5 39.5 107.5 q0 64 -39 108.5 q-39 44.5 -103 44.5 ZM400 759 l-65 -195 l-106 0 l80 195 l91 0 Z" /><glyph glyph-name="Hcircumflex" unicode="&#x124;" d="M78 0 l0 708 l126 0 l0 -286 l331 0 l0 286 l126 0 l0 -708 l-126 0 l0 314 l-331 0 l0 -314 l-126 0 ZM553 764 l-114 0 l-69 90 l-69 -90 l-112 0 l115 144 l135 0 l114 -144 Z" /><glyph glyph-name="hcircumflex" unicode="&#x125;" d="M339 494 q88 0 132.5 -56.5 q44.5 -56.5 44.5 -137.5 l0 -300 l-120 0 l0 264 q0 127 -89 127 q-54 0 -83.5 -38.5 q-29.5 -38.5 -29.5 -90.5 l0 -262 l-120 0 l0 756 l120 0 l0 -343 l2 0 q16 33 54.5 57 q38.5 24 88.5 24 ZM476 796 l-114 0 l-69 90 l-69 -90 l-112 0 l115 144 l135 0 l114 -144 Z" /><glyph glyph-name="Hbar" unicode="&#x126;" d="M78 0 l0 708 l126 0 l0 -133 l331 0 l0 133 l126 0 l0 -708 l-126 0 l0 314 l-331 0 l0 -314 l-126 0 ZM204 422 l331 0 l0 78 l-331 0 l0 -78 Z" /><glyph glyph-name="hbar" unicode="&#x127;" d="M364 645 l0 -75 l-170 0 l0 -157 l2 0 q16 33 54.5 57 q38.5 24 88.5 24 q88 0 132.5 -56.5 q44.5 -56.5 44.5 -137.5 l0 -300 l-120 0 l0 264 q0 127 -89 127 q-54 0 -83.5 -38.5 q-29.5 -38.5 -29.5 -90.5 l0 -262 l-120 0 l0 570 l-54 0 l0 75 l54 0 l0 111 l120 0 l0 -111 l170 0 Z" /><glyph glyph-name="Itilde" unicode="&#x128;" d="M78 0 l0 708 l126 0 l0 -708 l-126 0 ZM23 768 l-66 0 q22 127 112 127 q36 0 79 -18 q45 -19 65 -19 q33 0 46 42 l66 0 q-22 -127 -112 -127 q-37 0 -82 20 q-39 18 -62 18 q-32 0 -46 -43 Z" /><glyph glyph-name="itilde" unicode="&#x129;" d="M74 0 l0 480 l120 0 l0 -480 l-120 0 ZM18 568 l-66 0 q22 127 112 127 q36 0 79 -18 q45 -19 65 -19 q33 0 46 42 l66 0 q-22 -127 -112 -127 q-37 0 -82 20 q-39 18 -62 18 q-32 0 -46 -43 Z" /><glyph glyph-name="Imacron" unicode="&#x12a;" d="M78 0 l0 708 l126 0 l0 -708 l-126 0 ZM301 873 l0 -78 l-320 0 l0 78 l320 0 Z" /><glyph glyph-name="imacron" unicode="&#x12b;" d="M74 0 l0 480 l120 0 l0 -480 l-120 0 ZM296 673 l0 -78 l-320 0 l0 78 l320 0 Z" /><glyph glyph-name="Ibreve" unicode="&#x12c;" d="M78 0 l0 708 l126 0 l0 -708 l-126 0 ZM-29 908 l67 0 q12 -66 103 -66 q46 0 70 13 q24 13 34 53 l66 0 q-7 -72 -52.5 -108 q-45.5 -36 -118.5 -36 q-74 0 -119.5 36 q-45.5 36 -49.5 108 Z" /><glyph glyph-name="ibreve" unicode="&#x12d;" d="M74 0 l0 480 l120 0 l0 -480 l-120 0 ZM-36 708 l67 0 q12 -66 103 -66 q46 0 70 13 q24 13 34 53 l66 0 q-7 -72 -52.5 -108 q-45.5 -36 -118.5 -36 q-74 0 -119.5 36 q-45.5 36 -49.5 108 Z" /><glyph glyph-name="Iogonek" unicode="&#x12e;" d="M78 0 l0 708 l126 0 l0 -708 l-13 0 q-76 -71 -76 -122 q0 -19 13.5 -32.5 q13.5 -13.5 32.5 -13.5 q29 0 54 21 l25 -49 q-48 -38 -100 -38 q-42 0 -72.5 24 q-30.5 24 -30.5 65 q0 37 27.5 76 q27.5 39 64.5 69 l-51 0 Z" /><glyph glyph-name="iogonek" unicode="&#x12f;" d="M74 0 l0 480 l120 0 l0 -480 l-19 0 q-76 -71 -76 -122 q0 -19 13.5 -32.5 q13.5 -13.5 32.5 -13.5 q29 0 54 21 l25 -49 q-48 -38 -100 -38 q-42 0 -72.5 24 q-30.5 24 -30.5 65 q0 37 27.5 76 q27.5 39 64.5 69 l-39 0 ZM79 592.5 q-22 21.5 -22 50.5 q0 29 22 50.5 q22 21.5 54 21.5 q33 0 55.5 -20.5 q22.5 -20.5 22.5 -51.5 q0 -31 -22.5 -51.5 q-22.5 -20.5 -55.5 -20.5 q-32 0 -54 21.5 Z" /><glyph glyph-name="Idotaccent" unicode="&#x130;" d="M78 0 l0 708 l126 0 l0 -708 l-126 0 ZM85 792.5 q-22 21.5 -22 50.5 q0 29 22 50.5 q22 21.5 54 21.5 q33 0 55.5 -20.5 q22.5 -20.5 22.5 -51.5 q0 -31 -22.5 -51.5 q-22.5 -20.5 -55.5 -20.5 q-32 0 -54 21.5 Z" /><glyph glyph-name="dotlessi" unicode="&#x131;" d="M74 0 l0 480 l120 0 l0 -480 l-120 0 Z" /><glyph glyph-name="IJ" unicode="&#x132;" d="M78 0 l0 708 l126 0 l0 -708 l-126 0 ZM698 708 l0 -479 q0 -34 -5 -65.5 q-5 -31.5 -19.5 -65.5 q-14.5 -34 -37 -59 q-22.5 -25 -61.5 -41 q-39 -16 -90 -16 q-83 0 -136 42 q-53 42 -72 114 l116 33 q9 -35 33 -55.5 q24 -20.5 57 -20.5 q51 0 70 35.5 q19 35.5 19 102.5 l0 475 l126 0 Z" /><glyph glyph-name="ij" unicode="&#x133;" d="M74 0 l0 480 l120 0 l0 -480 l-120 0 ZM79 592.5 q-22 21.5 -22 50.5 q0 29 22 50.5 q22 21.5 54 21.5 q33 0 55.5 -20.5 q22.5 -20.5 22.5 -51.5 q0 -31 -22.5 -51.5 q-22.5 -20.5 -55.5 -20.5 q-32 0 -54 21.5 ZM342 480 l120 0 l0 -509 q0 -47 -7.5 -82 q-7.5 -35 -25.5 -66 q-18 -31 -53.5 -47 q-35.5 -16 -87.5 -16 q-30 0 -54 6 l10 102 q15 -4 33 -4 q39 0 52 26.5 q13 26.5 13 75.5 l0 514 ZM347 592.5 q-22 21.5 -22 50.5 q0 29 22 50.5 q22 21.5 54 21.5 q33 0 55.5 -20.5 q22.5 -20.5 22.5 -51.5 q0 -31 -22.5 -51.5 q-22.5 -20.5 -55.5 -20.5 q-32 0 -54 21.5 Z" /><glyph glyph-name="Jcircumflex" unicode="&#x134;" d="M426 708 l0 -479 q0 -34 -5 -65.5 q-5 -31.5 -19.5 -65.5 q-14.5 -34 -37 -59 q-22.5 -25 -61.5 -41 q-39 -16 -90 -16 q-83 0 -136 42 q-53 42 -72 114 l116 33 q9 -35 33 -55.5 q24 -20.5 57 -20.5 q51 0 70 35.5 q19 35.5 19 102.5 l0 475 l126 0 ZM544 764 l-114 0 l-69 90 l-69 -90 l-112 0 l115 144 l135 0 l114 -144 Z" /><glyph glyph-name="jcircumflex" unicode="&#x135;" d="M74 480 l120 0 l0 -509 q0 -47 -7.5 -82 q-7.5 -35 -25.5 -66 q-18 -31 -53.5 -47 q-35.5 -16 -87.5 -16 q-30 0 -54 6 l10 102 q15 -4 33 -4 q39 0 52 26.5 q13 26.5 13 75.5 l0 514 ZM316 564 l-114 0 l-69 90 l-69 -90 l-112 0 l115 144 l135 0 l114 -144 Z" /><glyph glyph-name="Kcommaaccent" unicode="&#x136;" d="M78 0 l0 708 l126 0 l0 -306 l3 0 l296 306 l170 0 l-331 -327 l353 -381 l-177 0 l-311 355 l-3 0 l0 -355 l-126 0 ZM249 -240 l65 195 l106 0 l-80 -195 l-91 0 Z" /><glyph glyph-name="kcommaaccent" unicode="&#x137;" d="M74 0 l0 756 l120 0 l0 -478 l3 0 l182 202 l154 0 l-208 -217 l221 -263 l-159 0 l-190 246 l-3 0 l0 -246 l-120 0 ZM181 -240 l65 195 l106 0 l-80 -195 l-91 0 Z" /><glyph glyph-name="kgreenlandic" unicode="&#x138;" d="M74 0 l0 480 l120 0 l0 -202 l3 0 l182 202 l154 0 l-208 -217 l221 -263 l-159 0 l-190 246 l-3 0 l0 -246 l-120 0 Z" /><glyph glyph-name="Lacute" unicode="&#x139;" d="M78 0 l0 708 l126 0 l0 -596 l301 0 l0 -112 l-427 0 ZM93 764 l99 144 l136 0 l-141 -144 l-94 0 Z" /><glyph glyph-name="lacute" unicode="&#x13a;" d="M74 0 l0 756 l120 0 l0 -756 l-120 0 ZM74 792 l99 144 l136 0 l-141 -144 l-94 0 Z" /><glyph glyph-name="Lcommaaccent" unicode="&#x13b;" d="M78 0 l0 708 l126 0 l0 -596 l301 0 l0 -112 l-427 0 ZM187 -240 l65 195 l106 0 l-80 -195 l-91 0 Z" /><glyph glyph-name="lcommaaccent" unicode="&#x13c;" d="M74 0 l0 756 l120 0 l0 -756 l-120 0 ZM29 -240 l65 195 l106 0 l-80 -195 l-91 0 Z" /><glyph glyph-name="Lcaron" unicode="&#x13d;" d="M78 0 l0 708 l126 0 l0 -596 l301 0 l0 -112 l-427 0 ZM266 513 l65 195 l106 0 l-80 -195 l-91 0 Z" /><glyph glyph-name="lcaron" unicode="&#x13e;" d="M74 0 l0 756 l120 0 l0 -756 l-120 0 ZM219 513 l65 195 l106 0 l-80 -195 l-91 0 Z" /><glyph glyph-name="Ldot" unicode="&#x13f;" d="M78 0 l0 708 l126 0 l0 -596 l301 0 l0 -112 l-427 0 ZM310 372.5 q-22 21.5 -22 50.5 q0 29 22 50.5 q22 21.5 54 21.5 q33 0 55.5 -20.5 q22.5 -20.5 22.5 -51.5 q0 -31 -22.5 -51.5 q-22.5 -20.5 -55.5 -20.5 q-32 0 -54 21.5 Z" /><glyph glyph-name="ldot" unicode="&#x140;" d="M74 0 l0 756 l120 0 l0 -756 l-120 0 ZM259 402.5 q-22 21.5 -22 50.5 q0 29 22 50.5 q22 21.5 54 21.5 q33 0 55.5 -20.5 q22.5 -20.5 22.5 -51.5 q0 -31 -22.5 -51.5 q-22.5 -20.5 -55.5 -20.5 q-32 0 -54 21.5 Z" /><glyph glyph-name="Lslash" unicode="&#x141;" d="M78 0 l0 201 l-70 -62 l0 110 l70 62 l0 397 l126 0 l0 -300 l206 181 l0 -109 l-206 -182 l0 -186 l301 0 l0 -112 l-427 0 Z" /><glyph glyph-name="lslash" unicode="&#x142;" d="M74 0 l0 298 l-69 -69 l0 109 l69 69 l0 349 l120 0 l0 -255 l69 69 l0 -107 l-69 -68 l0 -395 l-120 0 Z" /><glyph glyph-name="Nacute" unicode="&#x143;" d="M78 0 l0 708 l167 0 l329 -530 l2 0 l0 530 l126 0 l0 -708 l-160 0 l-336 547 l-2 0 l0 -547 l-126 0 ZM309 764 l99 144 l136 0 l-141 -144 l-94 0 Z" /><glyph glyph-name="nacute" unicode="&#x144;" d="M72 0 l0 480 l114 0 l0 -77 l2 0 q17 38 57.5 64.5 q40.5 26.5 91.5 26.5 q88 0 132.5 -56.5 q44.5 -56.5 44.5 -137.5 l0 -300 l-120 0 l0 266 q0 128 -90 128 q-54 0 -83 -38.5 q-29 -38.5 -29 -91.5 l0 -264 l-120 0 ZM217 564 l99 144 l136 0 l-141 -144 l-94 0 Z" /><glyph glyph-name="Ncommaaccent" unicode="&#x145;" d="M78 0 l0 708 l167 0 l329 -530 l2 0 l0 530 l126 0 l0 -708 l-160 0 l-336 547 l-2 0 l0 -547 l-126 0 ZM289 -240 l65 195 l106 0 l-80 -195 l-91 0 Z" /><glyph glyph-name="ncommaaccent" unicode="&#x146;" d="M72 0 l0 480 l114 0 l0 -77 l2 0 q17 38 57.5 64.5 q40.5 26.5 91.5 26.5 q88 0 132.5 -56.5 q44.5 -56.5 44.5 -137.5 l0 -300 l-120 0 l0 266 q0 128 -90 128 q-54 0 -83 -38.5 q-29 -38.5 -29 -91.5 l0 -264 l-120 0 ZM189 -240 l65 195 l106 0 l-80 -195 l-91 0 Z" /><glyph glyph-name="Ncaron" unicode="&#x147;" d="M78 0 l0 708 l167 0 l329 -530 l2 0 l0 530 l126 0 l0 -708 l-160 0 l-336 547 l-2 0 l0 -547 l-126 0 ZM208 908 l114 0 l69 -90 l69 90 l110 0 l-115 -144 l-133 0 l-114 144 Z" /><glyph glyph-name="ncaron" unicode="&#x148;" d="M72 0 l0 480 l114 0 l0 -77 l2 0 q17 38 57.5 64.5 q40.5 26.5 91.5 26.5 q88 0 132.5 -56.5 q44.5 -56.5 44.5 -137.5 l0 -300 l-120 0 l0 266 q0 128 -90 128 q-54 0 -83 -38.5 q-29 -38.5 -29 -91.5 l0 -264 l-120 0 ZM107 708 l114 0 l69 -90 l69 90 l110 0 l-115 -144 l-133 0 l-114 144 Z" /><glyph glyph-name="napostrophe" unicode="&#x149;" d="M112 0 l0 480 l114 0 l0 -77 l2 0 q17 38 57.5 64.5 q40.5 26.5 91.5 26.5 q88 0 132.5 -56.5 q44.5 -56.5 44.5 -137.5 l0 -300 l-120 0 l0 266 q0 128 -90 128 q-54 0 -83 -38.5 q-29 -38.5 -29 -91.5 l0 -264 l-120 0 ZM-23 513 l65 195 l106 0 l-80 -195 l-91 0 Z" /><glyph glyph-name="Eng" unicode="&#x14a;" d="M78 0 l0 708 l167 0 l329 -491 l2 0 l0 491 l126 0 l0 -737 q0 -47 -7.5 -82 q-7.5 -35 -25.5 -66 q-18 -31 -53.5 -47 q-35.5 -16 -87.5 -16 q-30 0 -54 6 l10 102 q15 -4 33 -4 q39 0 52 26.5 q13 26.5 13 75.5 l0 24 l-376 557 l-2 0 l0 -547 l-126 0 Z" /><glyph glyph-name="eng" unicode="&#x14b;" d="M394 266 q0 128 -90 128 q-54 0 -83 -38.5 q-29 -38.5 -29 -91.5 l0 -264 l-120 0 l0 480 l114 0 l0 -77 l2 0 q17 38 57.5 64.5 q40.5 26.5 91.5 26.5 q88 0 132.5 -56.5 q44.5 -56.5 44.5 -137.5 l0 -329 q0 -47 -7.5 -82 q-7.5 -35 -25.5 -66 q-18 -31 -53.5 -47 q-35.5 -16 -87.5 -16 q-30 0 -54 6 l10 102 q15 -4 33 -4 q39 0 52 26.5 q13 26.5 13 75.5 l0 300 Z" /><glyph glyph-name="Omacron" unicode="&#x14c;" d="M44 356 q0 168 106.5 269 q106.5 101 272.5 101 q168 0 275 -101 q107 -101 107 -269 q0 -165 -107.5 -269.5 q-107.5 -104.5 -274.5 -104.5 q-165 0 -272 104.5 q-107 104.5 -107 269.5 ZM181 356 q0 -114 68 -187.5 q68 -73.5 175 -73.5 q108 0 176 73.5 q68 73.5 68 187.5 q0 111 -67.5 185 q-67.5 74 -176.5 74 q-108 0 -175.5 -74 q-67.5 -74 -67.5 -185 ZM585 873 l0 -78 l-320 0 l0 78 l320 0 Z" /><glyph glyph-name="omacron" unicode="&#x14d;" d="M44 242 q0 111 75 181.5 q75 70.5 186 70.5 q111 0 186 -70.5 q75 -70.5 75 -181.5 q0 -112 -75.5 -184 q-75.5 -72 -185.5 -72 q-110 0 -185.5 72 q-75.5 72 -75.5 184 ZM202 350 q-36 -46 -36 -108 q0 -62 36 -109 q36 -47 103 -47 q67 0 103 47 q36 47 36 109 q0 62 -36 108 q-36 46 -103 46 q-67 0 -103 -46 ZM465 673 l0 -78 l-320 0 l0 78 l320 0 Z" /><glyph glyph-name="Obreve" unicode="&#x14e;" d="M44 356 q0 168 106.5 269 q106.5 101 272.5 101 q168 0 275 -101 q107 -101 107 -269 q0 -165 -107.5 -269.5 q-107.5 -104.5 -274.5 -104.5 q-165 0 -272 104.5 q-107 104.5 -107 269.5 ZM181 356 q0 -114 68 -187.5 q68 -73.5 175 -73.5 q108 0 176 73.5 q68 73.5 68 187.5 q0 111 -67.5 185 q-67.5 74 -176.5 74 q-108 0 -175.5 -74 q-67.5 -74 -67.5 -185 ZM255 908 l67 0 q12 -66 103 -66 q46 0 70 13 q24 13 34 53 l66 0 q-7 -72 -52.5 -108 q-45.5 -36 -118.5 -36 q-74 0 -119.5 36 q-45.5 36 -49.5 108 Z" /><glyph glyph-name="obreve" unicode="&#x14f;" d="M44 242 q0 111 75 181.5 q75 70.5 186 70.5 q111 0 186 -70.5 q75 -70.5 75 -181.5 q0 -112 -75.5 -184 q-75.5 -72 -185.5 -72 q-110 0 -185.5 72 q-75.5 72 -75.5 184 ZM202 350 q-36 -46 -36 -108 q0 -62 36 -109 q36 -47 103 -47 q67 0 103 47 q36 47 36 109 q0 62 -36 108 q-36 46 -103 46 q-67 0 -103 -46 ZM135 708 l67 0 q12 -66 103 -66 q46 0 70 13 q24 13 34 53 l66 0 q-7 -72 -52.5 -108 q-45.5 -36 -118.5 -36 q-74 0 -119.5 36 q-45.5 36 -49.5 108 Z" /><glyph glyph-name="Ohungarumlaut" unicode="&#x150;" d="M44 356 q0 168 106.5 269 q106.5 101 272.5 101 q168 0 275 -101 q107 -101 107 -269 q0 -165 -107.5 -269.5 q-107.5 -104.5 -274.5 -104.5 q-165 0 -272 104.5 q-107 104.5 -107 269.5 ZM181 356 q0 -114 68 -187.5 q68 -73.5 175 -73.5 q108 0 176 73.5 q68 73.5 68 187.5 q0 111 -67.5 185 q-67.5 74 -176.5 74 q-108 0 -175.5 -74 q-67.5 -74 -67.5 -185 ZM272 764 l99 144 l136 0 l-141 -144 l-94 0 ZM477 764 l99 144 l136 0 l-141 -144 l-94 0 Z" /><glyph glyph-name="ohungarumlaut" unicode="&#x151;" d="M44 242 q0 111 75 181.5 q75 70.5 186 70.5 q111 0 186 -70.5 q75 -70.5 75 -181.5 q0 -112 -75.5 -184 q-75.5 -72 -185.5 -72 q-110 0 -185.5 72 q-75.5 72 -75.5 184 ZM202 350 q-36 -46 -36 -108 q0 -62 36 -109 q36 -47 103 -47 q67 0 103 47 q36 47 36 109 q0 62 -36 108 q-36 46 -103 46 q-67 0 -103 -46 ZM159 564 l99 144 l136 0 l-141 -144 l-94 0 ZM364 564 l99 144 l136 0 l-141 -144 l-94 0 Z" /><glyph glyph-name="OE" unicode="&#x152;" d="M455 112 l55 0 l0 486 l-55 0 q-276 0 -276 -244 q0 -68 24 -117.5 q24 -49.5 66 -75.5 q42 -26 87.5 -37.5 q45.5 -11.5 98.5 -11.5 ZM435 708 l529 0 l0 -110 l-328 0 l0 -180 l310 0 l0 -106 l-310 0 l0 -200 l346 0 l0 -112 l-547 0 q-72 0 -139.5 21 q-67.5 21 -125 62.5 q-57.5 41.5 -92 111.5 q-34.5 70 -34.5 159 q0 95 34.5 166.5 q34.5 71.5 92.5 111 q58 39.5 124 58 q66 18.5 140 18.5 Z" /><glyph glyph-name="oe" unicode="&#x153;" d="M683 494 q104 0 168 -67 q64 -67 64 -193 q0 -21 -1 -32 l-365 0 q6 -52 45 -85 q39 -33 92 -33 q82 0 127 63 l79 -65 q-70 -96 -206 -96 q-62 0 -113 24.5 q-51 24.5 -82 66.5 q-31 -42 -81 -66.5 q-50 -24.5 -109 -24.5 q-110 0 -183.5 72 q-73.5 72 -73.5 184 q0 112 73.5 182 q73.5 70 183.5 70 q60 0 111 -25.5 q51 -25.5 82 -67.5 q72 93 189 93 ZM202 350 q-36 -46 -36 -108 q0 -62 36 -109 q36 -47 103 -47 q67 0 103 47 q36 47 36 109 q0 62 -36 108 q-36 46 -103 46 q-67 0 -103 -46 ZM549 288 l246 0 q0 50 -29 83 q-29 33 -84 33 q-53 0 -91 -33 q-38 -33 -42 -83 Z" /><glyph glyph-name="Racute" unicode="&#x154;" d="M78 0 l0 708 l246 0 q71 0 127.5 -18.5 q56.5 -18.5 95 -66 q38.5 -47.5 38.5 -118.5 q0 -75 -43 -124.5 q-43 -49.5 -119 -66.5 l189 -314 l-152 0 l-164 300 l-92 0 l0 -300 l-126 0 ZM204 403 l103 0 q152 0 152 103 q0 52 -41 74 q-41 22 -100 22 l-114 0 l0 -199 ZM224 764 l99 144 l136 0 l-141 -144 l-94 0 Z" /><glyph glyph-name="racute" unicode="&#x155;" d="M72 0 l0 480 l115 0 l0 -80 l2 0 q20 43 57 68.5 q37 25.5 83 25.5 q17 0 29 -3 l0 -110 q-20 5 -37 5 q-31 0 -55 -10 q-24 -10 -37.5 -25 q-13.5 -15 -22 -33.5 q-8.5 -18.5 -11.5 -33.5 q-3 -15 -3 -27 l0 -257 l-120 0 ZM103 564 l99 144 l136 0 l-141 -144 l-94 0 Z" /><glyph glyph-name="Rcommaaccent" unicode="&#x156;" d="M78 0 l0 708 l246 0 q71 0 127.5 -18.5 q56.5 -18.5 95 -66 q38.5 -47.5 38.5 -118.5 q0 -75 -43 -124.5 q-43 -49.5 -119 -66.5 l189 -314 l-152 0 l-164 300 l-92 0 l0 -300 l-126 0 ZM204 403 l103 0 q152 0 152 103 q0 52 -41 74 q-41 22 -100 22 l-114 0 l0 -199 ZM212 -240 l65 195 l106 0 l-80 -195 l-91 0 Z" /><glyph glyph-name="rcommaaccent" unicode="&#x157;" d="M72 0 l0 480 l115 0 l0 -80 l2 0 q20 43 57 68.5 q37 25.5 83 25.5 q17 0 29 -3 l0 -110 q-20 5 -37 5 q-31 0 -55 -10 q-24 -10 -37.5 -25 q-13.5 -15 -22 -33.5 q-8.5 -18.5 -11.5 -33.5 q-3 -15 -3 -27 l0 -257 l-120 0 ZM28 -240 l65 195 l106 0 l-80 -195 l-91 0 Z" /><glyph glyph-name="Rcaron" unicode="&#x158;" d="M78 0 l0 708 l246 0 q71 0 127.5 -18.5 q56.5 -18.5 95 -66 q38.5 -47.5 38.5 -118.5 q0 -75 -43 -124.5 q-43 -49.5 -119 -66.5 l189 -314 l-152 0 l-164 300 l-92 0 l0 -300 l-126 0 ZM204 403 l103 0 q152 0 152 103 q0 52 -41 74 q-41 22 -100 22 l-114 0 l0 -199 ZM124 908 l114 0 l69 -90 l69 90 l110 0 l-115 -144 l-133 0 l-114 144 Z" /><glyph glyph-name="rcaron" unicode="&#x159;" d="M72 0 l0 480 l115 0 l0 -80 l2 0 q20 43 57 68.5 q37 25.5 83 25.5 q17 0 29 -3 l0 -110 q-20 5 -37 5 q-31 0 -55 -10 q-24 -10 -37.5 -25 q-13.5 -15 -22 -33.5 q-8.5 -18.5 -11.5 -33.5 q-3 -15 -3 -27 l0 -257 l-120 0 ZM29 708 l114 0 l69 -90 l69 90 l110 0 l-115 -144 l-133 0 l-114 144 Z" /><glyph glyph-name="Sacute" unicode="&#x15a;" d="M521 650 l-82 -90 q-20 27 -56.5 44 q-36.5 17 -73.5 17 q-49 0 -87 -24.5 q-38 -24.5 -38 -72.5 q0 -24 8.5 -40.5 q8.5 -16.5 30 -29.5 q21.5 -13 40.5 -20 q19 -7 56 -19 q35 -11 57.5 -19 q22.5 -8 54 -25.5 q31.5 -17.5 50 -37.5 q18.5 -20 32 -52.5 q13.5 -32.5 13.5 -72.5 q0 -109 -73.5 -167.5 q-73.5 -58.5 -184.5 -58.5 q-71 0 -136.5 26.5 q-65.5 26.5 -106.5 74.5 l90 84 q26 -35 69 -56.5 q43 -21.5 86 -21.5 q51 0 89.5 26 q38.5 26 38.5 79 q0 18 -5 32.5 q-5 14.5 -18.5 26.5 q-13.5 12 -23.5 19.5 q-10 7.5 -35.5 17 q-25.5 9.5 -36.5 13.5 q-11 4 -44 14 q-38 12 -65 25 q-27 13 -55.5 35.5 q-28.5 22.5 -43.5 58 q-15 35.5 -15 82.5 q0 101 76.5 154.5 q76.5 53.5 182.5 53.5 q56 0 111.5 -19.5 q55.5 -19.5 94.5 -56.5 ZM233 764 l99 144 l136 0 l-141 -144 l-94 0 Z" /><glyph glyph-name="sacute" unicode="&#x15b;" d="M413 421 l-78 -69 q-17 22 -45 37 q-28 15 -60 15 q-32 0 -54.5 -13 q-22.5 -13 -22.5 -39 q0 -25 23 -37 q23 -12 81 -26 q31 -7 55 -16.5 q24 -9.5 48.5 -25.5 q24.5 -16 38 -42 q13.5 -26 13.5 -59 q0 -82 -56.5 -121 q-56.5 -39 -143.5 -39 q-57 0 -110 21 q-53 21 -87 58 l79 74 q46 -60 123 -60 q31 0 54 14 q23 14 23 43 q0 28 -24.5 41.5 q-24.5 13.5 -85.5 27.5 q-65 16 -103.5 45.5 q-38.5 29.5 -38.5 90.5 q0 75 56 114 q56 39 135 39 q54 0 103 -19 q49 -19 77 -54 ZM158 564 l99 144 l136 0 l-141 -144 l-94 0 Z" /><glyph glyph-name="Scircumflex" unicode="&#x15c;" d="M521 650 l-82 -90 q-20 27 -56.5 44 q-36.5 17 -73.5 17 q-49 0 -87 -24.5 q-38 -24.5 -38 -72.5 q0 -24 8.5 -40.5 q8.5 -16.5 30 -29.5 q21.5 -13 40.5 -20 q19 -7 56 -19 q35 -11 57.5 -19 q22.5 -8 54 -25.5 q31.5 -17.5 50 -37.5 q18.5 -20 32 -52.5 q13.5 -32.5 13.5 -72.5 q0 -109 -73.5 -167.5 q-73.5 -58.5 -184.5 -58.5 q-71 0 -136.5 26.5 q-65.5 26.5 -106.5 74.5 l90 84 q26 -35 69 -56.5 q43 -21.5 86 -21.5 q51 0 89.5 26 q38.5 26 38.5 79 q0 18 -5 32.5 q-5 14.5 -18.5 26.5 q-13.5 12 -23.5 19.5 q-10 7.5 -35.5 17 q-25.5 9.5 -36.5 13.5 q-11 4 -44 14 q-38 12 -65 25 q-27 13 -55.5 35.5 q-28.5 22.5 -43.5 58 q-15 35.5 -15 82.5 q0 101 76.5 154.5 q76.5 53.5 182.5 53.5 q56 0 111.5 -19.5 q55.5 -19.5 94.5 -56.5 ZM494 764 l-114 0 l-69 90 l-69 -90 l-112 0 l115 144 l135 0 l114 -144 Z" /><glyph glyph-name="scircumflex" unicode="&#x15d;" d="M413 421 l-78 -69 q-17 22 -45 37 q-28 15 -60 15 q-32 0 -54.5 -13 q-22.5 -13 -22.5 -39 q0 -25 23 -37 q23 -12 81 -26 q31 -7 55 -16.5 q24 -9.5 48.5 -25.5 q24.5 -16 38 -42 q13.5 -26 13.5 -59 q0 -82 -56.5 -121 q-56.5 -39 -143.5 -39 q-57 0 -110 21 q-53 21 -87 58 l79 74 q46 -60 123 -60 q31 0 54 14 q23 14 23 43 q0 28 -24.5 41.5 q-24.5 13.5 -85.5 27.5 q-65 16 -103.5 45.5 q-38.5 29.5 -38.5 90.5 q0 75 56 114 q56 39 135 39 q54 0 103 -19 q49 -19 77 -54 ZM418 564 l-114 0 l-69 90 l-69 -90 l-112 0 l115 144 l135 0 l114 -144 Z" /><glyph glyph-name="Scedilla" unicode="&#x15e;" d="M521 650 l-82 -90 q-20 27 -56.5 44 q-36.5 17 -73.5 17 q-49 0 -87 -24.5 q-38 -24.5 -38 -72.5 q0 -24 8.5 -40.5 q8.5 -16.5 30 -29.5 q21.5 -13 40.5 -20 q19 -7 56 -19 q35 -11 57.5 -19 q22.5 -8 54 -25.5 q31.5 -17.5 50 -37.5 q18.5 -20 32 -52.5 q13.5 -32.5 13.5 -72.5 q0 -100 -63.5 -157.5 q-63.5 -57.5 -162.5 -66.5 l-33 -48 q8 1 19 1 q105 0 105 -83 q0 -50 -41 -72 q-41 -22 -95 -22 q-61 0 -110 26 l23 48 q38 -20 82 -20 q57 0 57 41 q0 36 -53 36 q-21 0 -39 -6 l-23 25 l50 73 q-65 5 -123 30.5 q-58 25.5 -94 69.5 l90 84 q26 -35 69 -56.5 q43 -21.5 86 -21.5 q51 0 89.5 26 q38.5 26 38.5 79 q0 18 -5 32.5 q-5 14.5 -18.5 26.5 q-13.5 12 -23.5 19.5 q-10 7.5 -35.5 17 q-25.5 9.5 -36.5 13.5 q-11 4 -44 14 q-38 12 -65 25 q-27 13 -55.5 35.5 q-28.5 22.5 -43.5 58 q-15 35.5 -15 82.5 q0 101 76.5 154.5 q76.5 53.5 182.5 53.5 q56 0 111.5 -19.5 q55.5 -19.5 94.5 -56.5 Z" /><glyph glyph-name="scedilla" unicode="&#x15f;" d="M413 421 l-78 -69 q-17 22 -45 37 q-28 15 -60 15 q-32 0 -54.5 -13 q-22.5 -13 -22.5 -39 q0 -25 23 -37 q23 -12 81 -26 q31 -7 55 -16.5 q24 -9.5 48.5 -25.5 q24.5 -16 38 -42 q13.5 -26 13.5 -59 q0 -75 -47.5 -113.5 q-47.5 -38.5 -123.5 -45.5 l-36 -51 q8 1 19 1 q105 0 105 -83 q0 -50 -41 -72 q-41 -22 -95 -22 q-61 0 -110 26 l23 48 q38 -20 82 -20 q57 0 57 41 q0 36 -53 36 q-21 0 -39 -6 l-23 25 l53 78 q-108 10 -168 77 l79 74 q46 -60 123 -60 q31 0 54 14 q23 14 23 43 q0 28 -24.5 41.5 q-24.5 13.5 -85.5 27.5 q-65 16 -103.5 45.5 q-38.5 29.5 -38.5 90.5 q0 75 56 114 q56 39 135 39 q54 0 103 -19 q49 -19 77 -54 Z" /><glyph glyph-name="Scaron" unicode="&#x160;" d="M521 650 l-82 -90 q-20 27 -56.5 44 q-36.5 17 -73.5 17 q-49 0 -87 -24.5 q-38 -24.5 -38 -72.5 q0 -24 8.5 -40.5 q8.5 -16.5 30 -29.5 q21.5 -13 40.5 -20 q19 -7 56 -19 q35 -11 57.5 -19 q22.5 -8 54 -25.5 q31.5 -17.5 50 -37.5 q18.5 -20 32 -52.5 q13.5 -32.5 13.5 -72.5 q0 -109 -73.5 -167.5 q-73.5 -58.5 -184.5 -58.5 q-71 0 -136.5 26.5 q-65.5 26.5 -106.5 74.5 l90 84 q26 -35 69 -56.5 q43 -21.5 86 -21.5 q51 0 89.5 26 q38.5 26 38.5 79 q0 18 -5 32.5 q-5 14.5 -18.5 26.5 q-13.5 12 -23.5 19.5 q-10 7.5 -35.5 17 q-25.5 9.5 -36.5 13.5 q-11 4 -44 14 q-38 12 -65 25 q-27 13 -55.5 35.5 q-28.5 22.5 -43.5 58 q-15 35.5 -15 82.5 q0 101 76.5 154.5 q76.5 53.5 182.5 53.5 q56 0 111.5 -19.5 q55.5 -19.5 94.5 -56.5 ZM128 908 l114 0 l69 -90 l69 90 l110 0 l-115 -144 l-133 0 l-114 144 Z" /><glyph glyph-name="scaron" unicode="&#x161;" d="M413 421 l-78 -69 q-17 22 -45 37 q-28 15 -60 15 q-32 0 -54.5 -13 q-22.5 -13 -22.5 -39 q0 -25 23 -37 q23 -12 81 -26 q31 -7 55 -16.5 q24 -9.5 48.5 -25.5 q24.5 -16 38 -42 q13.5 -26 13.5 -59 q0 -82 -56.5 -121 q-56.5 -39 -143.5 -39 q-57 0 -110 21 q-53 21 -87 58 l79 74 q46 -60 123 -60 q31 0 54 14 q23 14 23 43 q0 28 -24.5 41.5 q-24.5 13.5 -85.5 27.5 q-65 16 -103.5 45.5 q-38.5 29.5 -38.5 90.5 q0 75 56 114 q56 39 135 39 q54 0 103 -19 q49 -19 77 -54 ZM47 708 l114 0 l69 -90 l69 90 l110 0 l-115 -144 l-133 0 l-114 144 Z" /><glyph glyph-name="uni0162" unicode="&#x162;" d="M221 0 l0 598 l-217 0 l0 110 l560 0 l0 -110 l-217 0 l0 -598 l-126 0 ZM179 -240 l65 195 l106 0 l-80 -195 l-91 0 Z" /><glyph glyph-name="uni0163" unicode="&#x163;" d="M87 384 l-84 0 l0 96 l84 0 l0 139 l118 0 l0 -139 l120 0 l0 -96 l-120 0 l0 -223 q0 -36 13 -55 q13 -19 50 -19 q31 0 51 10 l4 -94 q-34 -13 -80 -13 q-88 0 -122 45.5 q-34 45.5 -34 124.5 l0 224 ZM98 -240 l65 195 l106 0 l-80 -195 l-91 0 Z" /><glyph glyph-name="Tcaron" unicode="&#x164;" d="M221 0 l0 598 l-217 0 l0 110 l560 0 l0 -110 l-217 0 l0 -598 l-126 0 ZM105 908 l114 0 l69 -90 l69 90 l110 0 l-115 -144 l-133 0 l-114 144 Z" /><glyph glyph-name="tcaron" unicode="&#x165;" d="M87 384 l-84 0 l0 96 l84 0 l0 139 l118 0 l0 -139 l120 0 l0 -96 l-120 0 l0 -223 q0 -36 13 -55 q13 -19 50 -19 q31 0 51 10 l4 -94 q-34 -13 -80 -13 q-88 0 -122 45.5 q-34 45.5 -34 124.5 l0 224 ZM232 536 l65 195 l106 0 l-80 -195 l-91 0 Z" /><glyph glyph-name="Tbar" unicode="&#x166;" d="M506 507 l0 -75 l-159 0 l0 -432 l-126 0 l0 432 l-149 0 l0 75 l149 0 l0 91 l-217 0 l0 110 l560 0 l0 -110 l-217 0 l0 -91 l159 0 Z" /><glyph glyph-name="tbar" unicode="&#x167;" d="M305 294 l0 -75 l-100 0 l0 -58 q0 -36 13 -55 q13 -19 50 -19 q31 0 51 10 l4 -94 q-34 -13 -80 -13 q-88 0 -122 45.5 q-34 45.5 -34 124.5 l0 59 l-75 0 l0 75 l75 0 l0 90 l-84 0 l0 96 l84 0 l0 139 l118 0 l0 -139 l120 0 l0 -96 l-120 0 l0 -90 l100 0 Z" /><glyph glyph-name="Utilde" unicode="&#x168;" d="M642 708 l0 -448 q0 -126 -80.5 -202 q-80.5 -76 -204.5 -76 q-124 0 -204.5 76 q-80.5 76 -80.5 202 l0 448 l126 0 l0 -443 q0 -71 38 -120.5 q38 -49.5 121 -49.5 q83 0 121 49.5 q38 49.5 38 120.5 l0 443 l126 0 ZM243 768 l-66 0 q22 127 112 127 q36 0 79 -18 q45 -19 65 -19 q33 0 46 42 l66 0 q-22 -127 -112 -127 q-37 0 -82 20 q-39 18 -62 18 q-32 0 -46 -43 Z" /><glyph glyph-name="utilde" unicode="&#x169;" d="M510 480 l0 -480 l-114 0 l0 77 l-2 0 q-17 -38 -57.5 -64.5 q-40.5 -26.5 -91.5 -26.5 q-88 0 -132.5 56.5 q-44.5 56.5 -44.5 137.5 l0 300 l120 0 l0 -266 q0 -128 90 -128 q54 0 83 38.5 q29 38.5 29 91.5 l0 264 l120 0 ZM173 568 l-66 0 q22 127 112 127 q36 0 79 -18 q45 -19 65 -19 q33 0 46 42 l66 0 q-22 -127 -112 -127 q-37 0 -82 20 q-39 18 -62 18 q-32 0 -46 -43 Z" /><glyph glyph-name="Umacron" unicode="&#x16a;" d="M642 708 l0 -448 q0 -126 -80.5 -202 q-80.5 -76 -204.5 -76 q-124 0 -204.5 76 q-80.5 76 -80.5 202 l0 448 l126 0 l0 -443 q0 -71 38 -120.5 q38 -49.5 121 -49.5 q83 0 121 49.5 q38 49.5 38 120.5 l0 443 l126 0 ZM521 873 l0 -78 l-320 0 l0 78 l320 0 Z" /><glyph glyph-name="umacron" unicode="&#x16b;" d="M510 480 l0 -480 l-114 0 l0 77 l-2 0 q-17 -38 -57.5 -64.5 q-40.5 -26.5 -91.5 -26.5 q-88 0 -132.5 56.5 q-44.5 56.5 -44.5 137.5 l0 300 l120 0 l0 -266 q0 -128 90 -128 q54 0 83 38.5 q29 38.5 29 91.5 l0 264 l120 0 ZM450 673 l0 -78 l-320 0 l0 78 l320 0 Z" /><glyph glyph-name="Ubreve" unicode="&#x16c;" d="M642 708 l0 -448 q0 -126 -80.5 -202 q-80.5 -76 -204.5 -76 q-124 0 -204.5 76 q-80.5 76 -80.5 202 l0 448 l126 0 l0 -443 q0 -71 38 -120.5 q38 -49.5 121 -49.5 q83 0 121 49.5 q38 49.5 38 120.5 l0 443 l126 0 ZM186 908 l67 0 q12 -66 103 -66 q46 0 70 13 q24 13 34 53 l66 0 q-7 -72 -52.5 -108 q-45.5 -36 -118.5 -36 q-74 0 -119.5 36 q-45.5 36 -49.5 108 Z" /><glyph glyph-name="ubreve" unicode="&#x16d;" d="M510 480 l0 -480 l-114 0 l0 77 l-2 0 q-17 -38 -57.5 -64.5 q-40.5 -26.5 -91.5 -26.5 q-88 0 -132.5 56.5 q-44.5 56.5 -44.5 137.5 l0 300 l120 0 l0 -266 q0 -128 90 -128 q54 0 83 38.5 q29 38.5 29 91.5 l0 264 l120 0 ZM119 708 l67 0 q12 -66 103 -66 q46 0 70 13 q24 13 34 53 l66 0 q-7 -72 -52.5 -108 q-45.5 -36 -118.5 -36 q-74 0 -119.5 36 q-45.5 36 -49.5 108 Z" /><glyph glyph-name="Uring" unicode="&#x16e;" d="M642 708 l0 -448 q0 -126 -80.5 -202 q-80.5 -76 -204.5 -76 q-124 0 -204.5 76 q-80.5 76 -80.5 202 l0 448 l126 0 l0 -443 q0 -71 38 -120.5 q38 -49.5 121 -49.5 q83 0 121 49.5 q38 49.5 38 120.5 l0 443 l126 0 ZM436 928 q30 -29 30 -73 q0 -44 -30 -73 q-30 -29 -75 -29 q-44 0 -74.5 29 q-30.5 29 -30.5 72 q0 44 30 73.5 q30 29.5 75 29.5 q45 0 75 -29 ZM403 814 q17 16 17 41 q0 25 -17 41 q-17 16 -42 16 q-25 0 -42 -16.5 q-17 -16.5 -17 -41.5 q0 -24 17 -40 q17 -16 42 -16 q25 0 42 16 Z" /><glyph glyph-name="uring" unicode="&#x16f;" d="M510 480 l0 -480 l-114 0 l0 77 l-2 0 q-17 -38 -57.5 -64.5 q-40.5 -26.5 -91.5 -26.5 q-88 0 -132.5 56.5 q-44.5 56.5 -44.5 137.5 l0 300 l120 0 l0 -266 q0 -128 90 -128 q54 0 83 38.5 q29 38.5 29 91.5 l0 264 l120 0 ZM363 728 q30 -29 30 -73 q0 -44 -30 -73 q-30 -29 -75 -29 q-44 0 -74.5 29 q-30.5 29 -30.5 72 q0 44 30 73.5 q30 29.5 75 29.5 q45 0 75 -29 ZM330 614 q17 16 17 41 q0 25 -17 41 q-17 16 -42 16 q-25 0 -42 -16.5 q-17 -16.5 -17 -41.5 q0 -24 17 -40 q17 -16 42 -16 q25 0 42 16 Z" /><glyph glyph-name="Uhungarumlaut" unicode="&#x170;" d="M642 708 l0 -448 q0 -126 -80.5 -202 q-80.5 -76 -204.5 -76 q-124 0 -204.5 76 q-80.5 76 -80.5 202 l0 448 l126 0 l0 -443 q0 -71 38 -120.5 q38 -49.5 121 -49.5 q83 0 121 49.5 q38 49.5 38 120.5 l0 443 l126 0 ZM203 764 l99 144 l136 0 l-141 -144 l-94 0 ZM408 764 l99 144 l136 0 l-141 -144 l-94 0 Z" /><glyph glyph-name="uhungarumlaut" unicode="&#x171;" d="M510 480 l0 -480 l-114 0 l0 77 l-2 0 q-17 -38 -57.5 -64.5 q-40.5 -26.5 -91.5 -26.5 q-88 0 -132.5 56.5 q-44.5 56.5 -44.5 137.5 l0 300 l120 0 l0 -266 q0 -128 90 -128 q54 0 83 38.5 q29 38.5 29 91.5 l0 264 l120 0 ZM134 564 l99 144 l136 0 l-141 -144 l-94 0 ZM339 564 l99 144 l136 0 l-141 -144 l-94 0 Z" /><glyph glyph-name="Uogonek" unicode="&#x172;" d="M447 -147 l25 -49 q-48 -38 -100 -38 q-42 0 -72.5 24 q-30.5 24 -30.5 65 q0 60 72 128 q-118 5 -193.5 80 q-75.5 75 -75.5 197 l0 448 l126 0 l0 -443 q0 -71 38 -120.5 q38 -49.5 121 -49.5 q83 0 121 49.5 q38 49.5 38 120.5 l0 443 l126 0 l0 -448 q0 -112 -65 -185.5 q-65 -73.5 -169 -88.5 q-61 -63 -61 -108 q0 -19 13.5 -32.5 q13.5 -13.5 32.5 -13.5 q29 0 54 21 Z" /><glyph glyph-name="uogonek" unicode="&#x173;" d="M477 -147 l25 -49 q-48 -38 -100 -38 q-42 0 -72.5 24 q-30.5 24 -30.5 65 q0 38 29.5 79 q29.5 41 67.5 70 l0 73 l-2 0 q-17 -38 -57.5 -64.5 q-40.5 -26.5 -91.5 -26.5 q-88 0 -132.5 56.5 q-44.5 56.5 -44.5 137.5 l0 300 l120 0 l0 -266 q0 -128 90 -128 q54 0 83 38.5 q29 38.5 29 91.5 l0 264 l120 0 l0 -480 l-57 0 q-76 -71 -76 -122 q0 -19 13.5 -32.5 q13.5 -13.5 32.5 -13.5 q29 0 54 21 Z" /><glyph glyph-name="Wcircumflex" unicode="&#x174;" d="M213 0 l-207 708 l138 0 l137 -520 l2 0 l156 520 l130 0 l153 -520 l2 0 l140 520 l134 0 l-207 -708 l-122 0 l-166 531 l-2 0 l-166 -531 l-122 0 ZM685 764 l-114 0 l-69 90 l-69 -90 l-112 0 l115 144 l135 0 l114 -144 Z" /><glyph glyph-name="wcircumflex" unicode="&#x175;" d="M171 0 l-167 480 l130 0 l100 -344 l2 0 l103 344 l128 0 l104 -344 l2 0 l102 344 l125 0 l-166 -480 l-122 0 l-109 336 l-2 0 l-108 -336 l-122 0 ZM586 564 l-114 0 l-69 90 l-69 -90 l-112 0 l115 144 l135 0 l114 -144 Z" /><glyph glyph-name="Ycircumflex" unicode="&#x176;" d="M249 0 l0 307 l-266 401 l154 0 l178 -298 l180 298 l146 0 l-266 -401 l0 -307 l-126 0 ZM497 764 l-114 0 l-69 90 l-69 -90 l-112 0 l115 144 l135 0 l114 -144 Z" /><glyph glyph-name="ycircumflex" unicode="&#x177;" d="M206 0 l-206 480 l133 0 l134 -349 l2 0 l119 349 l125 0 l-227 -583 q-28 -71 -67.5 -104 q-39.5 -33 -114.5 -33 q-33 0 -62 7 l10 104 q22 -7 45 -7 q36 0 52 16.5 q16 16.5 33 58.5 l24 61 ZM448 564 l-114 0 l-69 90 l-69 -90 l-112 0 l115 144 l135 0 l114 -144 Z" /><glyph glyph-name="Ydieresis" unicode="&#x178;" d="M249 0 l0 307 l-266 401 l154 0 l178 -298 l180 298 l146 0 l-266 -401 l0 -307 l-126 0 ZM165.5 795 q-20.5 21 -20.5 49 q0 28 20.5 49 q20.5 21 50.5 21 q31 0 52 -20 q21 -20 21 -50 q0 -30 -21 -50 q-21 -20 -52 -20 q-30 0 -50.5 21 ZM361.5 795 q-20.5 21 -20.5 49 q0 28 20.5 49 q20.5 21 50.5 21 q31 0 52 -20 q21 -20 21 -50 q0 -30 -21 -50 q-21 -20 -52 -20 q-30 0 -50.5 21 Z" /><glyph glyph-name="Zacute" unicode="&#x179;" d="M35 0 l0 114 l385 484 l-379 0 l0 110 l529 0 l0 -114 l-387 -482 l393 0 l0 -112 l-541 0 ZM234 764 l99 144 l136 0 l-141 -144 l-94 0 Z" /><glyph glyph-name="zacute" unicode="&#x17a;" d="M34 0 l0 106 l259 278 l-247 0 l0 96 l390 0 l0 -106 l-260 -276 l272 0 l0 -98 l-414 0 ZM174 564 l99 144 l136 0 l-141 -144 l-94 0 Z" /><glyph glyph-name="Zdotaccent" unicode="&#x17b;" d="M35 0 l0 114 l385 484 l-379 0 l0 110 l529 0 l0 -114 l-387 -482 l393 0 l0 -112 l-541 0 ZM254 792.5 q-22 21.5 -22 50.5 q0 29 22 50.5 q22 21.5 54 21.5 q33 0 55.5 -20.5 q22.5 -20.5 22.5 -51.5 q0 -31 -22.5 -51.5 q-22.5 -20.5 -55.5 -20.5 q-32 0 -54 21.5 Z" /><glyph glyph-name="zdotaccent" unicode="&#x17c;" d="M34 0 l0 106 l259 278 l-247 0 l0 96 l390 0 l0 -106 l-260 -276 l272 0 l0 -98 l-414 0 ZM188 592.5 q-22 21.5 -22 50.5 q0 29 22 50.5 q22 21.5 54 21.5 q33 0 55.5 -20.5 q22.5 -20.5 22.5 -51.5 q0 -31 -22.5 -51.5 q-22.5 -20.5 -55.5 -20.5 q-32 0 -54 21.5 Z" /><glyph glyph-name="Zcaron" unicode="&#x17d;" d="M35 0 l0 114 l385 484 l-379 0 l0 110 l529 0 l0 -114 l-387 -482 l393 0 l0 -112 l-541 0 ZM126 908 l114 0 l69 -90 l69 90 l110 0 l-115 -144 l-133 0 l-114 144 Z" /><glyph glyph-name="zcaron" unicode="&#x17e;" d="M34 0 l0 106 l259 278 l-247 0 l0 96 l390 0 l0 -106 l-260 -276 l272 0 l0 -98 l-414 0 ZM65 708 l114 0 l69 -90 l69 90 l110 0 l-115 -144 l-133 0 l-114 144 Z" /><glyph glyph-name="florin" unicode="&#x192;" d="M480 426 l0 -90 l-138 0 l-57 -288 q-19 -96 -64 -141.5 q-45 -45.5 -123 -45.5 q-55 0 -102 24 l45 92 q20 -14 47 -14 q36 0 53 26 q17 26 27 78 l53 269 l-113 0 l0 90 l131 0 l22 111 q17 85 58 134 q41 49 122 49 q60 0 117 -31 l-46 -93 q-27 16 -55 16 q-21 0 -35.5 -8.5 q-14.5 -8.5 -23.5 -26 q-9 -17.5 -13 -30.5 q-4 -13 -9 -37 l-18 -84 l122 0 Z" /><glyph glyph-name="Scommaaccent" unicode="&#x218;" d="M521 650 l-82 -90 q-20 27 -56.5 44 q-36.5 17 -73.5 17 q-49 0 -87 -24.5 q-38 -24.5 -38 -72.5 q0 -24 8.5 -40.5 q8.5 -16.5 30 -29.5 q21.5 -13 40.5 -20 q19 -7 56 -19 q35 -11 57.5 -19 q22.5 -8 54 -25.5 q31.5 -17.5 50 -37.5 q18.5 -20 32 -52.5 q13.5 -32.5 13.5 -72.5 q0 -109 -73.5 -167.5 q-73.5 -58.5 -184.5 -58.5 q-71 0 -136.5 26.5 q-65.5 26.5 -106.5 74.5 l90 84 q26 -35 69 -56.5 q43 -21.5 86 -21.5 q51 0 89.5 26 q38.5 26 38.5 79 q0 18 -5 32.5 q-5 14.5 -18.5 26.5 q-13.5 12 -23.5 19.5 q-10 7.5 -35.5 17 q-25.5 9.5 -36.5 13.5 q-11 4 -44 14 q-38 12 -65 25 q-27 13 -55.5 35.5 q-28.5 22.5 -43.5 58 q-15 35.5 -15 82.5 q0 101 76.5 154.5 q76.5 53.5 182.5 53.5 q56 0 111.5 -19.5 q55.5 -19.5 94.5 -56.5 ZM177 -240 l65 195 l106 0 l-80 -195 l-91 0 Z" /><glyph glyph-name="scommaaccent" unicode="&#x219;" d="M413 421 l-78 -69 q-17 22 -45 37 q-28 15 -60 15 q-32 0 -54.5 -13 q-22.5 -13 -22.5 -39 q0 -25 23 -37 q23 -12 81 -26 q31 -7 55 -16.5 q24 -9.5 48.5 -25.5 q24.5 -16 38 -42 q13.5 -26 13.5 -59 q0 -82 -56.5 -121 q-56.5 -39 -143.5 -39 q-57 0 -110 21 q-53 21 -87 58 l79 74 q46 -60 123 -60 q31 0 54 14 q23 14 23 43 q0 28 -24.5 41.5 q-24.5 13.5 -85.5 27.5 q-65 16 -103.5 45.5 q-38.5 29.5 -38.5 90.5 q0 75 56 114 q56 39 135 39 q54 0 103 -19 q49 -19 77 -54 ZM117 -240 l65 195 l106 0 l-80 -195 l-91 0 Z" /><glyph glyph-name="uni021A" unicode="&#x21a;" d="M221 0 l0 598 l-217 0 l0 110 l560 0 l0 -110 l-217 0 l0 -598 l-126 0 ZM179 -240 l65 195 l106 0 l-80 -195 l-91 0 Z" /><glyph glyph-name="uni021B" unicode="&#x21b;" d="M87 384 l-84 0 l0 96 l84 0 l0 139 l118 0 l0 -139 l120 0 l0 -96 l-120 0 l0 -223 q0 -36 13 -55 q13 -19 50 -19 q31 0 51 10 l4 -94 q-34 -13 -80 -13 q-88 0 -122 45.5 q-34 45.5 -34 124.5 l0 224 ZM98 -240 l65 195 l106 0 l-80 -195 l-91 0 Z" /><glyph glyph-name="dotlessj" unicode="&#x237;" d="M74 480 l120 0 l0 -509 q0 -47 -7.5 -82 q-7.5 -35 -25.5 -66 q-18 -31 -53.5 -47 q-35.5 -16 -87.5 -16 q-30 0 -54 6 l10 102 q15 -4 33 -4 q39 0 52 26.5 q13 26.5 13 75.5 l0 514 Z" /><glyph glyph-name="circumflex" unicode="&#x2c6;" d="M312 564 l-114 0 l-69 90 l-69 -90 l-112 0 l115 144 l135 0 l114 -144 Z" /><glyph glyph-name="caron" unicode="&#x2c7;" d="M-51 708 l114 0 l69 -90 l69 90 l110 0 l-115 -144 l-133 0 l-114 144 Z" /><glyph glyph-name="uni02C9" unicode="&#x2c9;" d="M290 873 l0 -78 l-320 0 l0 78 l320 0 Z" /><glyph glyph-name="breve" unicode="&#x2d8;" d="M-40 708 l67 0 q12 -66 103 -66 q46 0 70 13 q24 13 34 53 l66 0 q-7 -72 -52.5 -108 q-45.5 -36 -118.5 -36 q-74 0 -119.5 36 q-45.5 36 -49.5 108 Z" /><glyph glyph-name="dotaccent" unicode="&#x2d9;" d="M76 592.5 q-22 21.5 -22 50.5 q0 29 22 50.5 q22 21.5 54 21.5 q33 0 55.5 -20.5 q22.5 -20.5 22.5 -51.5 q0 -31 -22.5 -51.5 q-22.5 -20.5 -55.5 -20.5 q-32 0 -54 21.5 Z" /><glyph glyph-name="ring" unicode="&#x2da;" d="M205 728 q30 -29 30 -73 q0 -44 -30 -73 q-30 -29 -75 -29 q-44 0 -74.5 29 q-30.5 29 -30.5 72 q0 44 30 73.5 q30 29.5 75 29.5 q45 0 75 -29 ZM172 614 q17 16 17 41 q0 25 -17 41 q-17 16 -42 16 q-25 0 -42 -16.5 q-17 -16.5 -17 -41.5 q0 -24 17 -40 q17 -16 42 -16 q25 0 42 16 Z" /><glyph glyph-name="ogonek" unicode="&#x2db;" d="M177 -147 l25 -49 q-48 -38 -100 -38 q-42 0 -72.5 24 q-30.5 24 -30.5 65 q0 39 30.5 80 q30.5 41 69.5 71 l61 0 q-30 -26 -56.5 -62.5 q-26.5 -36.5 -26.5 -65.5 q0 -19 13.5 -32.5 q13.5 -13.5 32.5 -13.5 q29 0 54 21 Z" /><glyph glyph-name="tilde" unicode="&#x2dc;" d="M12 568 l-66 0 q22 127 112 127 q36 0 79 -18 q45 -19 65 -19 q33 0 46 42 l66 0 q-22 -127 -112 -127 q-37 0 -82 20 q-39 18 -62 18 q-32 0 -46 -43 Z" /><glyph glyph-name="hungarumlaut" unicode="&#x2dd;" d="M-20 564 l99 144 l136 0 l-141 -144 l-94 0 ZM185 564 l99 144 l136 0 l-141 -144 l-94 0 Z" /><glyph glyph-name="uni0394" unicode="&#x394;" d="M675 0 l-637 0 l0 107 l265 601 l109 0 l263 -601 l0 -107 ZM354 558 l-180 -451 l361 0 l-181 451 Z" /><glyph glyph-name="uni03A9" unicode="&#x3a9;" d="M718 0 l-283 0 l0 191 q75 19 116.5 77.5 q41.5 58.5 41.5 135.5 q0 38 -11.5 74 q-11.5 36 -35 67.5 q-23.5 31.5 -64 50.5 q-40.5 19 -93.5 19 q-101 0 -153 -62 q-52 -62 -52 -149 q0 -82 43.5 -138.5 q43.5 -56.5 114.5 -74.5 l0 -191 l-283 0 l0 102 l183 0 l0 19 q-94 30 -143 107 q-49 77 -49 176 q0 148 97.5 235 q97.5 87 241.5 87 q147 0 242.5 -88.5 q95.5 -88.5 95.5 -232.5 q0 -104 -50.5 -179.5 q-50.5 -75.5 -141.5 -104.5 l0 -19 l183 0 l0 -102 Z" /><glyph glyph-name="uni03BC" unicode="&#x3bc;" d="M577 95 l4 -93 q-30 -10 -69 -10 q-90 0 -102 79 l-2 0 q-43 -85 -125 -85 q-67 0 -89 35 l-2 0 l0 -261 l-120 0 l0 720 l120 0 l0 -264 q0 -130 92 -130 q49 0 79.5 37.5 q30.5 37.5 30.5 92.5 l0 264 l120 0 l0 -354 q0 -37 35 -37 q13 0 28 6 Z" /><glyph glyph-name="pi" unicode="&#x3c0;" d="M594 1 q-32 -9 -68 -9 q-68 0 -98 32 q-30 32 -30 108 l0 249 l-149 0 l-60 -381 l-115 0 l63 381 l-107 0 l0 99 l588 0 l0 -99 l-108 0 l0 -248 q0 -44 45 -44 q22 0 35 4 l4 -92 Z" /><glyph glyph-name="uni0400" unicode="&#x400;" d="M78 0 l0 708 l469 0 l0 -110 l-343 0 l0 -180 l325 0 l0 -106 l-325 0 l0 -200 l361 0 l0 -112 l-487 0 ZM279 908 l99 -144 l-94 0 l-141 144 l136 0 Z" /><glyph glyph-name="uni0401" unicode="&#x401;" d="M78 0 l0 708 l469 0 l0 -110 l-343 0 l0 -180 l325 0 l0 -106 l-325 0 l0 -200 l361 0 l0 -112 l-487 0 ZM168.5 795 q-20.5 21 -20.5 49 q0 28 20.5 49 q20.5 21 50.5 21 q31 0 52 -20 q21 -20 21 -50 q0 -30 -21 -50 q-21 -20 -52 -20 q-30 0 -50.5 21 ZM364.5 795 q-20.5 21 -20.5 49 q0 28 20.5 49 q20.5 21 50.5 21 q31 0 52 -20 q21 -20 21 -50 q0 -30 -21 -50 q-21 -20 -52 -20 q-30 0 -50.5 21 Z" /><glyph glyph-name="uni0402" unicode="&#x402;" d="M519 -10 q-47 0 -95 10 l13 103 q23 -7 58 -7 q144 0 144 107 q0 116 -158 116 q-78 0 -134 -24 l0 -295 l-126 0 l0 598 l-217 0 l0 110 l559 0 l0 -110 l-216 0 l0 -198 q79 22 163 22 q122 0 189.5 -57 q67.5 -57 67.5 -164 q0 -104 -69 -157.5 q-69 -53.5 -179 -53.5 Z" /><glyph glyph-name="uni0403" unicode="&#x403;" d="M215 764 l99 144 l136 0 l-141 -144 l-94 0 ZM78 0 l0 708 l425 0 l0 -110 l-299 0 l0 -598 l-126 0 Z" /><glyph glyph-name="uni0404" unicode="&#x404;" d="M601 179 l95 -73 q-41 -57 -113.5 -91 q-72.5 -34 -163.5 -34 q-161 0 -268 105 q-107 105 -107 268 q0 163 107 267.5 q107 104.5 268 104.5 q81 0 152.5 -27 q71.5 -27 111.5 -76 l-86 -81 q-24 32 -71.5 52.5 q-47.5 20.5 -107.5 20.5 q-92 0 -155 -56 q-63 -56 -77 -141 l303 0 l0 -106 l-305 0 q6 -95 70.5 -156 q64.5 -61 163.5 -61 q119 0 183 84 Z" /><glyph glyph-name="uni0405" unicode="&#x405;" d="M521 650 l-82 -90 q-20 27 -56.5 44 q-36.5 17 -73.5 17 q-49 0 -87 -24.5 q-38 -24.5 -38 -72.5 q0 -24 8.5 -40.5 q8.5 -16.5 30 -29.5 q21.5 -13 40.5 -20 q19 -7 56 -19 q35 -11 57.5 -19 q22.5 -8 54 -25.5 q31.5 -17.5 50 -37.5 q18.5 -20 32 -52.5 q13.5 -32.5 13.5 -72.5 q0 -109 -73.5 -167.5 q-73.5 -58.5 -184.5 -58.5 q-71 0 -136.5 26.5 q-65.5 26.5 -106.5 74.5 l90 84 q26 -35 69 -56.5 q43 -21.5 86 -21.5 q51 0 89.5 26 q38.5 26 38.5 79 q0 18 -5 32.5 q-5 14.5 -18.5 26.5 q-13.5 12 -23.5 19.5 q-10 7.5 -35.5 17 q-25.5 9.5 -36.5 13.5 q-11 4 -44 14 q-38 12 -65 25 q-27 13 -55.5 35.5 q-28.5 22.5 -43.5 58 q-15 35.5 -15 82.5 q0 101 76.5 154.5 q76.5 53.5 182.5 53.5 q56 0 111.5 -19.5 q55.5 -19.5 94.5 -56.5 Z" /><glyph glyph-name="uni0406" unicode="&#x406;" d="M78 0 l0 708 l126 0 l0 -708 l-126 0 Z" /><glyph glyph-name="uni0407" unicode="&#x407;" d="M78 0 l0 708 l126 0 l0 -708 l-126 0 ZM-8.5 795 q-20.5 21 -20.5 49 q0 28 20.5 49 q20.5 21 50.5 21 q31 0 52 -20 q21 -20 21 -50 q0 -30 -21 -50 q-21 -20 -52 -20 q-30 0 -50.5 21 ZM187.5 795 q-20.5 21 -20.5 49 q0 28 20.5 49 q20.5 21 50.5 21 q31 0 52 -20 q21 -20 21 -50 q0 -30 -21 -50 q-21 -20 -52 -20 q-30 0 -50.5 21 Z" /><glyph glyph-name="uni0408" unicode="&#x408;" d="M426 708 l0 -479 q0 -34 -5 -65.5 q-5 -31.5 -19.5 -65.5 q-14.5 -34 -37 -59 q-22.5 -25 -61.5 -41 q-39 -16 -90 -16 q-83 0 -136 42 q-53 42 -72 114 l116 33 q9 -35 33 -55.5 q24 -20.5 57 -20.5 q51 0 70 35.5 q19 35.5 19 102.5 l0 475 l126 0 Z" /><glyph glyph-name="uni0409" unicode="&#x409;" d="M566 0 l0 598 l-240 0 l0 -109 q0 -261 -54.5 -378.5 q-54.5 -117.5 -180.5 -117.5 q-51 0 -84 10 l13 111 q21 -7 43 -7 q75 0 108.5 88 q33.5 88 33.5 311 l0 202 l487 0 l0 -281 l105 0 q120 0 193.5 -53 q73.5 -53 73.5 -160 q0 -106 -73.5 -160 q-73.5 -54 -191.5 -54 l-233 0 ZM692 106 l95 0 q150 0 150 107 q0 53 -39 80.5 q-39 27.5 -111 27.5 l-95 0 l0 -215 Z" /><glyph glyph-name="uni040A" unicode="&#x40a;" d="M78 0 l0 708 l126 0 l0 -285 l331 0 l0 285 l126 0 l0 -285 l112 0 q118 0 190 -52 q72 -52 72 -159 q0 -105 -72 -158.5 q-72 -53.5 -188 -53.5 l-240 0 l0 319 l-331 0 l0 -319 l-126 0 ZM661 106 l99 0 q70 0 109 26.5 q39 26.5 39 79.5 q0 53 -38.5 80 q-38.5 27 -109.5 27 l-99 0 l0 -213 Z" /><glyph glyph-name="uni040B" unicode="&#x40b;" d="M221 0 l0 598 l-217 0 l0 110 l559 0 l0 -110 l-216 0 l0 -196 q79 22 162 22 q119 0 175.5 -48.5 q56.5 -48.5 56.5 -151.5 l0 -224 l-126 0 l0 193 q0 62 -30.5 91.5 q-30.5 29.5 -99.5 29.5 q-91 0 -138 -20 l0 -294 l-126 0 Z" /><glyph glyph-name="uni040C" unicode="&#x40c;" d="M281 764 l99 144 l136 0 l-141 -144 l-94 0 ZM78 0 l0 708 l126 0 l0 -306 l3 0 l296 306 l170 0 l-331 -327 l353 -381 l-177 0 l-311 355 l-3 0 l0 -355 l-126 0 Z" /><glyph glyph-name="uni040D" unicode="&#x40d;" d="M78 0 l0 708 l126 0 l0 -518 l3 0 l332 518 l136 0 l0 -708 l-126 0 l0 514 l-2 0 l-331 -514 l-138 0 ZM332 908 l99 -144 l-94 0 l-141 144 l136 0 Z" /><glyph glyph-name="uni040E" unicode="&#x40e;" d="M146 -10 q-52 0 -90 9 l16 112 q29 -9 59 -9 q39 0 62.5 19 q23.5 19 46.5 64 l22 42 l-272 481 l146 0 l197 -364 l186 364 l141 0 l-294 -545 q-48 -90 -93.5 -131.5 q-45.5 -41.5 -126.5 -41.5 ZM333 764 q-65 0 -109 37 q-44 37 -52 102 l67 13 q5 -34 30.5 -54 q25.5 -20 63.5 -20 q38 0 63.5 20 q25.5 20 30.5 54 l68 -13 q-9 -65 -52.5 -102 q-43.5 -37 -109.5 -37 Z" /><glyph glyph-name="uni040F" unicode="&#x40f;" d="M310 -161 l0 161 l-232 0 l0 708 l126 0 l0 -596 l325 0 l0 596 l126 0 l0 -708 l-232 0 l0 -161 l-113 0 Z" /><glyph glyph-name="uni0410" unicode="&#x410;" d="M-8 0 l308 708 l109 0 l305 -708 l-144 0 l-66 162 l-307 0 l-64 -162 l-141 0 ZM240 270 l220 0 l-109 288 l-111 -288 Z" /><glyph glyph-name="uni0411" unicode="&#x411;" d="M78 0 l0 708 l464 0 l0 -106 l-338 0 l0 -182 l125 0 q118 0 190 -52 q72 -52 72 -158 q0 -104 -72 -157 q-72 -53 -189 -53 l-252 0 ZM204 106 l112 0 q148 0 148 104 q0 51 -38.5 77.5 q-38.5 26.5 -109.5 26.5 l-112 0 l0 -208 Z" /><glyph glyph-name="uni0412" unicode="&#x412;" d="M78 0 l0 708 l276 0 q90 0 153.5 -44 q63.5 -44 63.5 -134 q0 -58 -33 -98 q-33 -40 -90 -57 l0 -2 q69 -9 111 -53 q42 -44 42 -114 q0 -55 -22.5 -96.5 q-22.5 -41.5 -61.5 -64.5 q-39 -23 -85 -34 q-46 -11 -99 -11 l-255 0 ZM204 604 l0 -184 l112 0 q63 0 96 25 q33 25 33 71 q0 47 -34 67.5 q-34 20.5 -106 20.5 l-101 0 ZM204 312 l0 -206 l113 0 q158 0 158 106 q0 54 -37 77 q-37 23 -116 23 l-118 0 Z" /><glyph glyph-name="uni0413" unicode="&#x413;" d="M78 0 l0 708 l425 0 l0 -110 l-299 0 l0 -598 l-126 0 Z" /><glyph glyph-name="uni0414" unicode="&#x414;" d="M14 -161 l0 273 l60 0 q108 123 108 414 l0 182 l495 0 l0 -596 l79 0 l0 -273 l-113 0 l0 161 l-516 0 l0 -161 l-113 0 ZM216 112 l335 0 l0 486 l-247 0 l0 -85 q0 -274 -88 -401 Z" /><glyph glyph-name="uni0415" unicode="&#x415;" d="M78 0 l0 708 l469 0 l0 -110 l-343 0 l0 -180 l325 0 l0 -106 l-325 0 l0 -200 l361 0 l0 -112 l-487 0 Z" /><glyph glyph-name="uni0416" unicode="&#x416;" d="M575 0 l-126 0 l0 352 l-1 0 l-287 -352 l-167 0 l319 386 l-302 322 l162 0 l275 -306 l1 0 l0 306 l126 0 l0 -306 l1 0 l275 306 l162 0 l-302 -322 l319 -386 l-167 0 l-287 352 l-1 0 l0 -352 Z" /><glyph glyph-name="uni0417" unicode="&#x417;" d="M278 -18 q-166 0 -258 103 l85 85 q63 -81 167 -81 q58 0 101 31.5 q43 31.5 43 85.5 q0 106 -166 106 l-50 0 l0 106 l52 0 q145 0 145 105 q0 43 -37.5 70.5 q-37.5 27.5 -86.5 27.5 q-94 0 -148 -67 l-79 78 q83 94 234 94 q110 0 176 -50.5 q66 -50.5 66 -139.5 q0 -62 -34 -105 q-34 -43 -88 -57 l0 -3 q64 -15 105 -60 q41 -45 41 -113 q0 -101 -78.5 -158.5 q-78.5 -57.5 -189.5 -57.5 Z" /><glyph glyph-name="uni0418" unicode="&#x418;" d="M78 0 l0 708 l126 0 l0 -518 l3 0 l332 518 l136 0 l0 -708 l-126 0 l0 514 l-2 0 l-331 -514 l-138 0 Z" /><glyph glyph-name="uni0419" unicode="&#x419;" d="M78 0 l0 708 l126 0 l0 -518 l3 0 l332 518 l136 0 l0 -708 l-126 0 l0 514 l-2 0 l-331 -514 l-138 0 ZM372 764 q-65 0 -109 37 q-44 37 -52 102 l67 13 q5 -34 30.5 -54 q25.5 -20 63.5 -20 q38 0 63.5 20 q25.5 20 30.5 54 l68 -13 q-9 -65 -52.5 -102 q-43.5 -37 -109.5 -37 Z" /><glyph glyph-name="uni041A" unicode="&#x41a;" d="M78 0 l0 708 l126 0 l0 -306 l3 0 l296 306 l170 0 l-331 -327 l353 -381 l-177 0 l-311 355 l-3 0 l0 -355 l-126 0 Z" /><glyph glyph-name="uni041B" unicode="&#x41b;" d="M91 -7 q-51 0 -84 10 l13 111 q21 -7 43 -7 q75 0 108.5 88 q33.5 88 33.5 311 l0 202 l487 0 l0 -708 l-126 0 l0 598 l-240 0 l0 -109 q0 -261 -54.5 -378.5 q-54.5 -117.5 -180.5 -117.5 Z" /><glyph glyph-name="uni041C" unicode="&#x41c;" d="M78 0 l0 708 l197 0 l184 -503 l3 0 l182 503 l198 0 l0 -708 l-125 0 l0 569 l-2 0 l-215 -569 l-88 0 l-212 569 l-2 0 l0 -569 l-120 0 Z" /><glyph glyph-name="uni041D" unicode="&#x41d;" d="M78 0 l0 708 l126 0 l0 -286 l331 0 l0 286 l126 0 l0 -708 l-126 0 l0 314 l-331 0 l0 -314 l-126 0 Z" /><glyph glyph-name="uni041E" unicode="&#x41e;" d="M44 356 q0 168 106.5 269 q106.5 101 272.5 101 q168 0 275 -101 q107 -101 107 -269 q0 -165 -107.5 -269.5 q-107.5 -104.5 -274.5 -104.5 q-165 0 -272 104.5 q-107 104.5 -107 269.5 ZM181 356 q0 -114 68 -187.5 q68 -73.5 175 -73.5 q108 0 176 73.5 q68 73.5 68 187.5 q0 111 -67.5 185 q-67.5 74 -176.5 74 q-108 0 -175.5 -74 q-67.5 -74 -67.5 -185 Z" /><glyph glyph-name="uni041F" unicode="&#x41f;" d="M78 0 l0 708 l577 0 l0 -708 l-126 0 l0 598 l-325 0 l0 -598 l-126 0 Z" /><glyph glyph-name="uni0420" unicode="&#x420;" d="M78 0 l0 708 l231 0 q267 0 267 -205 q0 -110 -76 -160 q-76 -50 -199 -50 l-97 0 l0 -293 l-126 0 ZM204 399 l88 0 q157 0 157 104 q0 57 -41.5 78 q-41.5 21 -111.5 21 l-92 0 l0 -203 Z" /><glyph glyph-name="uni0421" unicode="&#x421;" d="M685 618 l-96 -76 q-26 36 -70.5 54.5 q-44.5 18.5 -90.5 18.5 q-108 0 -176.5 -74 q-68.5 -74 -68.5 -185 q0 -116 65.5 -188.5 q65.5 -72.5 174.5 -72.5 q112 0 172 82 l101 -71 q-99 -124 -274 -124 q-166 0 -272 104.5 q-106 104.5 -106 269.5 q0 167 108.5 268.5 q108.5 101.5 275.5 101.5 q74 0 145.5 -27.5 q71.5 -27.5 111.5 -80.5 Z" /><glyph glyph-name="uni0422" unicode="&#x422;" d="M221 0 l0 598 l-217 0 l0 110 l560 0 l0 -110 l-217 0 l0 -598 l-126 0 Z" /><glyph glyph-name="uni0423" unicode="&#x423;" d="M146 -10 q-52 0 -90 9 l16 112 q29 -9 59 -9 q39 0 62.5 19 q23.5 19 46.5 64 l22 42 l-272 481 l146 0 l197 -364 l186 364 l141 0 l-294 -545 q-48 -90 -93.5 -131.5 q-45.5 -41.5 -126.5 -41.5 Z" /><glyph glyph-name="uni0424" unicode="&#x424;" d="M369 -18 l0 86 q-143 2 -236 83.5 q-93 81.5 -93 213.5 q0 140 88.5 216 q88.5 76 240.5 81 l0 64 l130 0 l0 -64 q152 -5 240.5 -81 q88.5 -76 88.5 -216 q0 -132 -93 -213.5 q-93 -81.5 -236 -83.5 l0 -86 l-130 0 ZM369 179 l0 373 q-97 -7 -145 -57 q-48 -50 -48 -131 q0 -166 193 -185 ZM499 179 q193 19 193 185 q0 81 -48 131 q-48 50 -145 57 l0 -373 Z" /><glyph glyph-name="uni0425" unicode="&#x425;" d="M4 0 l245 378 l-220 330 l152 0 l146 -242 l144 242 l145 0 l-216 -333 l254 -375 l-159 0 l-173 278 l-166 -278 l-152 0 Z" /><glyph glyph-name="uni0426" unicode="&#x426;" d="M620 -161 l0 161 l-542 0 l0 708 l126 0 l0 -596 l325 0 l0 596 l126 0 l0 -596 l78 0 l0 -273 l-113 0 Z" /><glyph glyph-name="uni0427" unicode="&#x427;" d="M463 0 l0 277 q-79 -22 -161 -22 q-119 0 -176 48.5 q-57 48.5 -57 151.5 l0 253 l126 0 l0 -224 q0 -62 31 -91 q31 -29 101 -29 q89 0 136 19 l0 325 l126 0 l0 -708 l-126 0 Z" /><glyph glyph-name="uni0428" unicode="&#x428;" d="M78 0 l0 708 l126 0 l0 -596 l269 0 l0 596 l126 0 l0 -596 l269 0 l0 596 l126 0 l0 -708 l-916 0 Z" /><glyph glyph-name="uni0429" unicode="&#x429;" d="M994 708 l0 -596 l78 0 l0 -273 l-113 0 l0 161 l-881 0 l0 708 l126 0 l0 -596 l269 0 l0 596 l126 0 l0 -596 l269 0 l0 596 l126 0 Z" /><glyph glyph-name="uni042A" unicode="&#x42a;" d="M171 0 l0 598 l-163 0 l0 110 l289 0 l0 -281 l105 0 q120 0 193.5 -53 q73.5 -53 73.5 -160 q0 -106 -73.5 -160 q-73.5 -54 -191.5 -54 l-233 0 ZM297 106 l95 0 q150 0 150 107 q0 53 -39 80.5 q-39 27.5 -111 27.5 l-95 0 l0 -215 Z" /><glyph glyph-name="uni042B" unicode="&#x42b;" d="M674 0 l0 708 l126 0 l0 -708 l-126 0 ZM78 0 l0 708 l126 0 l0 -281 l105 0 q120 0 193.5 -53 q73.5 -53 73.5 -160 q0 -106 -73.5 -160 q-73.5 -54 -191.5 -54 l-233 0 ZM204 106 l95 0 q150 0 150 107 q0 53 -39 80.5 q-39 27.5 -111 27.5 l-95 0 l0 -215 Z" /><glyph glyph-name="uni042C" unicode="&#x42c;" d="M78 0 l0 708 l126 0 l0 -281 l105 0 q120 0 193.5 -53 q73.5 -53 73.5 -160 q0 -106 -73.5 -160 q-73.5 -54 -191.5 -54 l-233 0 ZM204 106 l95 0 q150 0 150 107 q0 53 -39 80.5 q-39 27.5 -111 27.5 l-95 0 l0 -215 Z" /><glyph glyph-name="uni042D" unicode="&#x42d;" d="M0 106 l95 73 q64 -84 183 -84 q99 0 163.5 61 q64.5 61 70.5 156 l-305 0 l0 106 l303 0 q-14 85 -77 141 q-63 56 -155 56 q-60 0 -107.5 -20.5 q-47.5 -20.5 -71.5 -52.5 l-86 81 q40 49 111.5 76 q71.5 27 152.5 27 q161 0 268 -104.5 q107 -104.5 107 -267.5 q0 -163 -107 -268 q-107 -105 -268 -105 q-91 0 -163.5 34 q-72.5 34 -113.5 91 Z" /><glyph glyph-name="uni042E" unicode="&#x42e;" d="M684 -19 q-148 0 -245 92.5 q-97 92.5 -109 240.5 l-126 0 l0 -314 l-126 0 l0 708 l126 0 l0 -286 l129 0 q17 134 113.5 219.5 q96.5 85.5 237.5 85.5 q158 0 257 -106 q99 -106 99 -266 q0 -160 -99.5 -267 q-99.5 -107 -256.5 -107 ZM684 96 q100 0 159.5 75.5 q59.5 75.5 59.5 183.5 q0 108 -59 183 q-59 75 -160 75 q-101 0 -160 -75 q-59 -75 -59 -183 q0 -109 59 -184 q59 -75 160 -75 Z" /><glyph glyph-name="uni042F" unicode="&#x42f;" d="M19 0 l190 300 q-74 19 -115 70 q-41 51 -41 128 q0 108 70.5 159 q70.5 51 196.5 51 l232 0 l0 -708 l-126 0 l0 283 l-88 0 l-166 -283 l-153 0 ZM332 386 l94 0 l0 216 l-98 0 q-150 0 -150 -107 q0 -55 41 -82 q41 -27 113 -27 Z" /><glyph glyph-name="uni0430" unicode="&#x430;" d="M370 0 l0 61 l-3 0 q-18 -32 -58.5 -52.5 q-40.5 -20.5 -90.5 -20.5 q-69 0 -124.5 36.5 q-55.5 36.5 -55.5 112.5 q0 41 20.5 71.5 q20.5 30.5 51.5 47.5 q31 17 77.5 27.5 q46.5 10.5 88 13.5 q41.5 3 92.5 3 l0 12 q0 42 -31 65 q-31 23 -79 23 q-76 0 -131 -55 l-62 73 q82 76 203 76 q62 0 105.5 -17.5 q43.5 -17.5 66.5 -48 q23 -30.5 32.5 -64 q9.5 -33.5 9.5 -72.5 l0 -292 l-112 0 ZM368 202 l0 17 l-27 0 q-183 0 -183 -80 q0 -32 24.5 -46 q24.5 -14 59.5 -14 q61 0 93.5 32.5 q32.5 32.5 32.5 90.5 Z" /><glyph glyph-name="uni0431" unicode="&#x431;" d="M317 -14 q-125 0 -199 83 q-35 40 -50.5 94 q-15.5 54 -15.5 144 q0 75 4.5 127 q4.5 52 18 104 q13.5 52 38 84.5 q24.5 32.5 66 55.5 q41.5 23 99.5 31 l123 16 q43 6 62 15 q19 9 25 32 l86 -25 q-13 -58 -43.5 -84.5 q-30.5 -26.5 -89.5 -34.5 l-130 -17 q-44 -6 -72.5 -17 q-28.5 -11 -52 -35.5 q-23.5 -24.5 -35 -67.5 q-11.5 -43 -13.5 -109 l3 0 q59 109 200 109 q98 0 167 -70 q69 -70 69 -181 q0 -113 -75 -183.5 q-75 -70.5 -185 -70.5 ZM214 132.5 q37 -45.5 101 -45.5 q64 0 102.5 45.5 q38.5 45.5 38.5 110.5 q0 64 -38.5 109.5 q-38.5 45.5 -103.5 45.5 q-64 0 -100.5 -45 q-36.5 -45 -36.5 -110 q0 -65 37 -110.5 Z" /><glyph glyph-name="uni0432" unicode="&#x432;" d="M72 0 l0 480 l248 0 q43 0 77.5 -9 q34.5 -9 62.5 -38.5 q28 -29.5 28 -77.5 q0 -37 -22.5 -64.5 q-22.5 -27.5 -58.5 -36.5 l0 -2 q45 -7 73.5 -37.5 q28.5 -30.5 28.5 -78.5 q0 -64 -50 -100 q-50 -36 -132 -36 l-255 0 ZM192 86 l113 0 q83 0 83 58 q0 58 -80 58 l-116 0 l0 -116 ZM192 288 l114 0 q66 0 66 53 q0 54 -75 54 l-105 0 l0 -107 Z" /><glyph glyph-name="uni0433" unicode="&#x433;" d="M72 0 l0 480 l337 0 l0 -96 l-217 0 l0 -384 l-120 0 Z" /><glyph glyph-name="uni0434" unicode="&#x434;" d="M13 -137 l0 235 l50 0 q67 87 67 258 l0 124 l390 0 l0 -382 l71 0 l0 -235 l-101 0 l0 137 l-376 0 l0 -137 l-101 0 ZM190 98 l210 0 l0 286 l-156 0 l0 -59 q0 -133 -54 -227 Z" /><glyph glyph-name="uni0435" unicode="&#x435;" d="M164 288 l246 0 q0 50 -29 83 q-29 33 -84 33 q-53 0 -91 -33 q-38 -33 -42 -83 ZM530 234 q0 -21 -1 -32 l-365 0 q4 -50 44 -84 q40 -34 93 -34 q83 0 127 62 l80 -64 q-71 -96 -206 -96 q-113 0 -185.5 68 q-72.5 68 -72.5 183 q0 115 72 186 q72 71 182 71 q104 0 168 -67 q64 -67 64 -193 Z" /><glyph glyph-name="uni0436" unicode="&#x436;" d="M-5 0 l208 252 l-191 228 l148 0 l169 -219 l3 0 l0 219 l120 0 l0 -219 l3 0 l170 219 l148 0 l-192 -228 l208 -252 l-148 0 l-186 232 l-3 0 l0 -232 l-120 0 l0 232 l-3 0 l-185 -232 l-149 0 Z" /><glyph glyph-name="uni0437" unicode="&#x437;" d="M225 -16 q-135 0 -210 87 l72 70 q21 -28 55.5 -46 q34.5 -18 73.5 -18 q95 0 95 61 q0 37 -29.5 51 q-29.5 14 -81.5 14 l-38 0 l0 86 l38 0 q99 0 99 61 q0 53 -81 53 q-73 0 -115 -55 l-67 65 q64 81 196 81 q85 0 136.5 -35 q51.5 -35 51.5 -96 q0 -41 -27 -71.5 q-27 -30.5 -69 -39.5 l0 -2 q49 -9 79 -40 q30 -31 30 -77 q0 -70 -59.5 -109.5 q-59.5 -39.5 -148.5 -39.5 Z" /><glyph glyph-name="uni0438" unicode="&#x438;" d="M72 0 l0 480 l120 0 l0 -310 l2 0 l210 310 l130 0 l0 -480 l-120 0 l0 308 l-2 0 l-208 -308 l-132 0 Z" /><glyph glyph-name="uni0439" unicode="&#x439;" d="M301 564 q-67 0 -107 37.5 q-40 37.5 -49 103.5 l65 7 q5 -34 29.5 -52 q24.5 -18 61.5 -18 q37 0 62 18 q25 18 30 52 l64 -13 q-8 -64 -48 -99.5 q-40 -35.5 -108 -35.5 ZM72 0 l0 480 l120 0 l0 -310 l2 0 l210 310 l130 0 l0 -480 l-120 0 l0 308 l-2 0 l-208 -308 l-132 0 Z" /><glyph glyph-name="uni043A" unicode="&#x43a;" d="M72 0 l0 480 l120 0 l0 -213 l3 0 l185 213 l152 0 l-211 -226 l227 -254 l-154 0 l-199 228 l-3 0 l0 -228 l-120 0 Z" /><glyph glyph-name="uni043B" unicode="&#x43b;" d="M77 -6 q-48 0 -72 8 l9 98 q15 -5 32 -5 q46 0 70 47 q24 47 24 167 l0 171 l393 0 l0 -480 l-120 0 l0 384 l-158 0 l0 -102 q0 -148 -43 -218 q-43 -70 -135 -70 Z" /><glyph glyph-name="uni043C" unicode="&#x43c;" d="M72 0 l0 480 l168 0 l140 -324 l1 0 l135 324 l170 0 l0 -480 l-118 0 l0 340 l-2 0 l-149 -340 l-80 0 l-145 341 l-2 0 l0 -341 l-118 0 Z" /><glyph glyph-name="uni043D" unicode="&#x43d;" d="M72 0 l0 480 l120 0 l0 -181 l202 0 l0 181 l120 0 l0 -480 l-120 0 l0 203 l-202 0 l0 -203 l-120 0 Z" /><glyph glyph-name="uni043E" unicode="&#x43e;" d="M44 242 q0 111 75 181.5 q75 70.5 186 70.5 q111 0 186 -70.5 q75 -70.5 75 -181.5 q0 -112 -75.5 -184 q-75.5 -72 -185.5 -72 q-110 0 -185.5 72 q-75.5 72 -75.5 184 ZM202 350 q-36 -46 -36 -108 q0 -62 36 -109 q36 -47 103 -47 q67 0 103 47 q36 47 36 109 q0 62 -36 108 q-36 46 -103 46 q-67 0 -103 -46 Z" /><glyph glyph-name="uni043F" unicode="&#x43f;" d="M72 0 l0 480 l442 0 l0 -480 l-120 0 l0 384 l-202 0 l0 -384 l-120 0 Z" /><glyph glyph-name="uni0440" unicode="&#x440;" d="M72 480 l115 0 l0 -67 l3 0 q21 33 63.5 57 q42.5 24 102.5 24 q102 0 167.5 -72 q65.5 -72 65.5 -180 q0 -108 -64.5 -182 q-64.5 -74 -171.5 -74 q-50 0 -93 21 q-43 21 -66 57 l-2 0 l0 -304 l-120 0 l0 720 ZM430.5 133 q36.5 47 36.5 109 q0 62 -36.5 108 q-36.5 46 -101.5 46 q-63 0 -102 -48 q-39 -48 -39 -108 q0 -60 39 -107 q39 -47 102 -47 q65 0 101.5 47 Z" /><glyph glyph-name="uni0441" unicode="&#x441;" d="M482 419 l-82 -72 q-14 20 -42 33.5 q-28 13.5 -57 13.5 q-62 0 -97 -46.5 q-35 -46.5 -35 -107.5 q0 -62 36 -108 q36 -46 100 -46 q66 0 101 43 l75 -76 q-62 -67 -177 -67 q-110 0 -185 69 q-75 69 -75 185 q0 114 74 184 q74 70 183 70 q53 0 103 -20 q50 -20 78 -55 Z" /><glyph glyph-name="uni0442" unicode="&#x442;" d="M174 0 l0 384 l-154 0 l0 96 l427 0 l0 -96 l-153 0 l0 -384 l-120 0 Z" /><glyph glyph-name="uni0443" unicode="&#x443;" d="M206 0 l-206 480 l133 0 l134 -349 l2 0 l119 349 l125 0 l-227 -583 q-28 -71 -67.5 -104 q-39.5 -33 -114.5 -33 q-33 0 -62 7 l10 104 q22 -7 45 -7 q36 0 52 16.5 q16 16.5 33 58.5 l24 61 Z" /><glyph glyph-name="uni0444" unicode="&#x444;" d="M445 83 q76 1 117.5 43 q41.5 42 41.5 113 q0 70 -42 111 q-42 41 -117 42 l0 -309 ZM445 -240 l-120 0 l0 224 q-131 1 -206 71 q-75 70 -75 183 q0 117 74 184 q74 67 207 69 l0 265 l120 0 l0 -265 q133 -2 207 -69 q74 -67 74 -184 q0 -113 -75 -183 q-75 -70 -206 -71 l0 -224 ZM325 83 l0 309 q-75 -1 -117 -42 q-42 -41 -42 -111 q0 -71 41.5 -113 q41.5 -42 117.5 -43 Z" /><glyph glyph-name="uni0445" unicode="&#x445;" d="M-1 0 l195 255 l-173 225 l144 0 l104 -149 l107 149 l138 0 l-172 -225 l196 -255 l-146 0 l-125 175 l-126 -175 l-142 0 Z" /><glyph glyph-name="uni0446" unicode="&#x446;" d="M484 -137 l0 137 l-412 0 l0 480 l120 0 l0 -382 l202 0 l0 382 l120 0 l0 -382 l70 0 l0 -235 l-100 0 Z" /><glyph glyph-name="uni0447" unicode="&#x447;" d="M348 0 l0 179 q-58 -15 -127 -15 q-166 0 -166 151 l0 165 l115 0 l0 -131 q0 -52 21.5 -70.5 q21.5 -18.5 68.5 -18.5 q37 0 88 12 l0 208 l120 0 l0 -480 l-120 0 Z" /><glyph glyph-name="uni0448" unicode="&#x448;" d="M72 0 l0 480 l120 0 l0 -382 l179 0 l0 382 l120 0 l0 -382 l178 0 l0 382 l120 0 l0 -480 l-717 0 Z" /><glyph glyph-name="uni0449" unicode="&#x449;" d="M789 480 l0 -382 l70 0 l0 -235 l-100 0 l0 137 l-687 0 l0 480 l120 0 l0 -382 l179 0 l0 382 l120 0 l0 -382 l178 0 l0 382 l120 0 Z" /><glyph glyph-name="uni044A" unicode="&#x44a;" d="M149 0 l0 384 l-129 0 l0 96 l249 0 l0 -168 l104 0 q89 0 141.5 -38.5 q52.5 -38.5 52.5 -116.5 q0 -76 -53 -116.5 q-53 -40.5 -141 -40.5 l-224 0 ZM269 91 l73 0 q54 0 79.5 15 q25.5 15 25.5 50 q0 36 -24 51 q-24 15 -81 15 l-73 0 l0 -131 Z" /><glyph glyph-name="uni044B" unicode="&#x44b;" d="M575 0 l0 480 l120 0 l0 -480 l-120 0 ZM72 0 l0 480 l120 0 l0 -168 l104 0 q89 0 141.5 -38.5 q52.5 -38.5 52.5 -116.5 q0 -76 -53 -116.5 q-53 -40.5 -141 -40.5 l-224 0 ZM192 91 l73 0 q54 0 79.5 15 q25.5 15 25.5 50 q0 36 -24 51 q-24 15 -81 15 l-73 0 l0 -131 Z" /><glyph glyph-name="uni044C" unicode="&#x44c;" d="M72 0 l0 480 l120 0 l0 -168 l104 0 q89 0 141.5 -38.5 q52.5 -38.5 52.5 -116.5 q0 -76 -53 -116.5 q-53 -40.5 -141 -40.5 l-224 0 ZM192 91 l73 0 q54 0 79.5 15 q25.5 15 25.5 50 q0 36 -24 51 q-24 15 -81 15 l-73 0 l0 -131 Z" /><glyph glyph-name="uni044D" unicode="&#x44d;" d="M4 57 l69 71 q42 -45 112 -45 q58 0 96.5 32.5 q38.5 32.5 45.5 88.5 l-191 0 l0 86 l188 0 q-11 51 -47 80 q-36 29 -90 29 q-68 0 -111 -48 l-69 74 q28 31 79 50 q51 19 103 19 q116 0 188 -70.5 q72 -70.5 72 -184.5 q0 -114 -71.5 -184 q-71.5 -70 -188.5 -70 q-118 0 -185 72 Z" /><glyph glyph-name="uni044E" unicode="&#x44e;" d="M528 -15 q-98 0 -167.5 60 q-69.5 60 -82.5 158 l-86 0 l0 -203 l-120 0 l0 480 l120 0 l0 -184 l88 0 q18 89 86 143.5 q68 54.5 162 54.5 q110 0 183 -71 q73 -71 73 -183 q0 -113 -73 -184 q-73 -71 -183 -71 ZM528 87 q62 0 98 43 q36 43 36 110 q0 67 -36 110.5 q-36 43.5 -98 43.5 q-61 0 -97 -43.5 q-36 -43.5 -36 -110.5 q0 -67 36.5 -110 q36.5 -43 96.5 -43 Z" /><glyph glyph-name="uni044F" unicode="&#x44f;" d="M36 0 l121 182 q-107 31 -107 143 q0 76 53.5 115.5 q53.5 39.5 138.5 39.5 l242 0 l0 -480 l-120 0 l0 170 l-89 0 l-98 -170 l-141 0 ZM271 259 l93 0 l0 131 l-93 0 q-57 0 -81 -15 q-24 -15 -24 -51 q0 -35 25.5 -50 q25.5 -15 79.5 -15 Z" /><glyph glyph-name="uni0450" unicode="&#x450;" d="M234 708 l99 -144 l-94 0 l-141 144 l136 0 ZM164 288 l246 0 q0 50 -29 83 q-29 33 -84 33 q-53 0 -91 -33 q-38 -33 -42 -83 ZM530 234 q0 -21 -1 -32 l-365 0 q4 -50 44 -84 q40 -34 93 -34 q83 0 127 62 l80 -64 q-71 -96 -206 -96 q-113 0 -185.5 68 q-72.5 68 -72.5 183 q0 115 72 186 q72 71 182 71 q104 0 168 -67 q64 -67 64 -193 Z" /><glyph glyph-name="uni0451" unicode="&#x451;" d="M164 288 l246 0 q0 50 -29 83 q-29 33 -84 33 q-53 0 -91 -33 q-38 -33 -42 -83 ZM530 234 q0 -21 -1 -32 l-365 0 q4 -50 44 -84 q40 -34 93 -34 q83 0 127 62 l80 -64 q-71 -96 -206 -96 q-113 0 -185.5 68 q-72.5 68 -72.5 183 q0 115 72 186 q72 71 182 71 q104 0 168 -67 q64 -67 64 -193 ZM150.5 595 q-20.5 21 -20.5 49 q0 28 20.5 49 q20.5 21 50.5 21 q31 0 52 -20 q21 -20 21 -50 q0 -30 -21 -50 q-21 -20 -52 -20 q-30 0 -50.5 21 ZM346.5 595 q-20.5 21 -20.5 49 q0 28 20.5 49 q20.5 21 50.5 21 q31 0 52 -20 q21 -20 21 -50 q0 -30 -21 -50 q-21 -20 -52 -20 q-30 0 -50.5 21 Z" /><glyph glyph-name="uni0452" unicode="&#x452;" d="M516 290 l0 -333 q0 -91 -45 -144 q-45 -53 -139 -53 q-38 0 -70 8 l12 97 q26 -6 42 -6 q45 0 62.5 27.5 q17.5 27.5 17.5 77.5 l0 290 q0 127 -89 127 q-54 0 -83.5 -38.5 q-29.5 -38.5 -29.5 -90.5 l0 -252 l-120 0 l0 562 l-74 0 l0 86 l74 0 l0 108 l120 0 l0 -108 l145 0 l0 -86 l-145 0 l0 -159 l2 0 q16 33 54.5 57 q38.5 24 88.5 24 q88 0 132.5 -56.5 q44.5 -56.5 44.5 -137.5 Z" /><glyph glyph-name="uni0453" unicode="&#x453;" d="M158 564 l99 144 l136 0 l-141 -144 l-94 0 ZM72 0 l0 480 l337 0 l0 -96 l-217 0 l0 -384 l-120 0 Z" /><glyph glyph-name="uni0454" unicode="&#x454;" d="M420 128 l69 -71 q-67 -72 -185 -72 q-117 0 -188.5 70 q-71.5 70 -71.5 184 q0 114 72 184.5 q72 70.5 188 70.5 q52 0 103 -19 q51 -19 79 -50 l-69 -74 q-43 48 -111 48 q-54 0 -90 -29 q-36 -29 -47 -80 l188 0 l0 -86 l-191 0 q7 -56 45.5 -88.5 q38.5 -32.5 96.5 -32.5 q70 0 112 45 Z" /><glyph glyph-name="uni0455" unicode="&#x455;" d="M413 421 l-78 -69 q-17 22 -45 37 q-28 15 -60 15 q-32 0 -54.5 -13 q-22.5 -13 -22.5 -39 q0 -25 23 -37 q23 -12 81 -26 q31 -7 55 -16.5 q24 -9.5 48.5 -25.5 q24.5 -16 38 -42 q13.5 -26 13.5 -59 q0 -82 -56.5 -121 q-56.5 -39 -143.5 -39 q-57 0 -110 21 q-53 21 -87 58 l79 74 q46 -60 123 -60 q31 0 54 14 q23 14 23 43 q0 28 -24.5 41.5 q-24.5 13.5 -85.5 27.5 q-65 16 -103.5 45.5 q-38.5 29.5 -38.5 90.5 q0 75 56 114 q56 39 135 39 q54 0 103 -19 q49 -19 77 -54 Z" /><glyph glyph-name="uni0456" unicode="&#x456;" d="M74 0 l0 480 l120 0 l0 -480 l-120 0 ZM79 592.5 q-22 21.5 -22 50.5 q0 29 22 50.5 q22 21.5 54 21.5 q33 0 55.5 -20.5 q22.5 -20.5 22.5 -51.5 q0 -31 -22.5 -51.5 q-22.5 -20.5 -55.5 -20.5 q-32 0 -54 21.5 Z" /><glyph glyph-name="uni0457" unicode="&#x457;" d="M-15.5 595 q-20.5 21 -20.5 49 q0 28 20.5 49 q20.5 21 50.5 21 q31 0 52 -20 q21 -20 21 -50 q0 -30 -21 -50 q-21 -20 -52 -20 q-30 0 -50.5 21 ZM180.5 595 q-20.5 21 -20.5 49 q0 28 20.5 49 q20.5 21 50.5 21 q31 0 52 -20 q21 -20 21 -50 q0 -30 -21 -50 q-21 -20 -52 -20 q-30 0 -50.5 21 ZM74 0 l0 480 l120 0 l0 -480 l-120 0 Z" /><glyph glyph-name="uni0458" unicode="&#x458;" d="M74 480 l120 0 l0 -509 q0 -47 -7.5 -82 q-7.5 -35 -25.5 -66 q-18 -31 -53.5 -47 q-35.5 -16 -87.5 -16 q-30 0 -54 6 l10 102 q15 -4 33 -4 q39 0 52 26.5 q13 26.5 13 75.5 l0 514 ZM79 592.5 q-22 21.5 -22 50.5 q0 29 22 50.5 q22 21.5 54 21.5 q33 0 55.5 -20.5 q22.5 -20.5 22.5 -51.5 q0 -31 -22.5 -51.5 q-22.5 -20.5 -55.5 -20.5 q-32 0 -54 21.5 Z" /><glyph glyph-name="uni0459" unicode="&#x459;" d="M77 -6 q-48 0 -72 8 l9 98 q15 -5 32 -5 q46 0 70 47 q24 47 24 167 l0 171 l393 0 l0 -168 l104 0 q89 0 141.5 -38.5 q52.5 -38.5 52.5 -116.5 q0 -76 -53 -116.5 q-53 -40.5 -141 -40.5 l-224 0 l0 384 l-158 0 l0 -102 q0 -148 -43 -218 q-43 -70 -135 -70 ZM533 91 l73 0 q54 0 79.5 15 q25.5 15 25.5 50 q0 36 -24 51 q-24 15 -81 15 l-73 0 l0 -131 Z" /><glyph glyph-name="uni045A" unicode="&#x45a;" d="M72 0 l0 480 l120 0 l0 -175 l202 0 l0 175 l120 0 l0 -175 l106 0 q90 0 143 -37.5 q53 -37.5 53 -115.5 q0 -75 -53 -113.5 q-53 -38.5 -142 -38.5 l-227 0 l0 215 l-202 0 l0 -215 l-120 0 ZM514 90 l91 0 q90 0 90 62 q0 63 -90 63 l-91 0 l0 -125 Z" /><glyph glyph-name="uni045B" unicode="&#x45b;" d="M0 648 l74 0 l0 108 l120 0 l0 -108 l145 0 l0 -86 l-145 0 l0 -159 l2 0 q16 33 54.5 57 q38.5 24 88.5 24 q88 0 132.5 -56.5 q44.5 -56.5 44.5 -137.5 l0 -290 l-120 0 l0 254 q0 127 -89 127 q-54 0 -83.5 -38.5 q-29.5 -38.5 -29.5 -90.5 l0 -252 l-120 0 l0 562 l-74 0 l0 86 Z" /><glyph glyph-name="uni045C" unicode="&#x45c;" d="M229 564 l99 144 l136 0 l-141 -144 l-94 0 ZM72 0 l0 480 l120 0 l0 -213 l3 0 l185 213 l152 0 l-211 -226 l227 -254 l-154 0 l-199 228 l-3 0 l0 -228 l-120 0 Z" /><glyph glyph-name="uni045D" unicode="&#x45d;" d="M276 708 l99 -144 l-94 0 l-141 144 l136 0 ZM72 0 l0 480 l120 0 l0 -310 l2 0 l210 310 l130 0 l0 -480 l-120 0 l0 308 l-2 0 l-208 -308 l-132 0 Z" /><glyph glyph-name="uni045E" unicode="&#x45e;" d="M268 564 q-67 0 -107 37.5 q-40 37.5 -49 103.5 l65 7 q5 -34 29.5 -52 q24.5 -18 61.5 -18 q37 0 62 18 q25 18 30 52 l64 -13 q-8 -64 -48 -99.5 q-40 -35.5 -108 -35.5 ZM206 0 l-206 480 l133 0 l134 -349 l2 0 l119 349 l125 0 l-227 -583 q-28 -71 -67.5 -104 q-39.5 -33 -114.5 -33 q-33 0 -62 7 l10 104 q22 -7 45 -7 q36 0 52 16.5 q16 16.5 33 58.5 l24 61 Z" /><glyph glyph-name="uni045F" unicode="&#x45f;" d="M243 -137 l0 137 l-171 0 l0 480 l120 0 l0 -382 l202 0 l0 382 l120 0 l0 -480 l-170 0 l0 -137 l-101 0 Z" /><glyph glyph-name="uni0490" unicode="&#x490;" d="M78 0 l0 708 l319 0 l0 137 l106 0 l0 -247 l-299 0 l0 -598 l-126 0 Z" /><glyph glyph-name="uni0491" unicode="&#x491;" d="M72 0 l0 480 l242 0 l0 118 l95 0 l0 -214 l-217 0 l0 -384 l-120 0 Z" /><glyph glyph-name="Wgrave" unicode="&#x1e80;" d="M213 0 l-207 708 l138 0 l137 -520 l2 0 l156 520 l130 0 l153 -520 l2 0 l140 520 l134 0 l-207 -708 l-122 0 l-166 531 l-2 0 l-166 -531 l-122 0 ZM462 908 l99 -144 l-94 0 l-141 144 l136 0 Z" /><glyph glyph-name="wgrave" unicode="&#x1e81;" d="M171 0 l-167 480 l130 0 l100 -344 l2 0 l103 344 l128 0 l104 -344 l2 0 l102 344 l125 0 l-166 -480 l-122 0 l-109 336 l-2 0 l-108 -336 l-122 0 ZM360 708 l99 -144 l-94 0 l-141 144 l136 0 Z" /><glyph glyph-name="Wacute" unicode="&#x1e82;" d="M213 0 l-207 708 l138 0 l137 -520 l2 0 l156 520 l130 0 l153 -520 l2 0 l140 520 l134 0 l-207 -708 l-122 0 l-166 531 l-2 0 l-166 -531 l-122 0 ZM447 764 l99 144 l136 0 l-141 -144 l-94 0 Z" /><glyph glyph-name="wacute" unicode="&#x1e83;" d="M171 0 l-167 480 l130 0 l100 -344 l2 0 l103 344 l128 0 l104 -344 l2 0 l102 344 l125 0 l-166 -480 l-122 0 l-109 336 l-2 0 l-108 -336 l-122 0 ZM347 564 l99 144 l136 0 l-141 -144 l-94 0 Z" /><glyph glyph-name="Wdieresis" unicode="&#x1e84;" d="M213 0 l-207 708 l138 0 l137 -520 l2 0 l156 520 l130 0 l153 -520 l2 0 l140 520 l134 0 l-207 -708 l-122 0 l-166 531 l-2 0 l-166 -531 l-122 0 ZM352.5 795 q-20.5 21 -20.5 49 q0 28 20.5 49 q20.5 21 50.5 21 q31 0 52 -20 q21 -20 21 -50 q0 -30 -21 -50 q-21 -20 -52 -20 q-30 0 -50.5 21 ZM548.5 795 q-20.5 21 -20.5 49 q0 28 20.5 49 q20.5 21 50.5 21 q31 0 52 -20 q21 -20 21 -50 q0 -30 -21 -50 q-21 -20 -52 -20 q-30 0 -50.5 21 Z" /><glyph glyph-name="wdieresis" unicode="&#x1e85;" d="M171 0 l-167 480 l130 0 l100 -344 l2 0 l103 344 l128 0 l104 -344 l2 0 l102 344 l125 0 l-166 -480 l-122 0 l-109 336 l-2 0 l-108 -336 l-122 0 ZM252.5 595 q-20.5 21 -20.5 49 q0 28 20.5 49 q20.5 21 50.5 21 q31 0 52 -20 q21 -20 21 -50 q0 -30 -21 -50 q-21 -20 -52 -20 q-30 0 -50.5 21 ZM448.5 595 q-20.5 21 -20.5 49 q0 28 20.5 49 q20.5 21 50.5 21 q31 0 52 -20 q21 -20 21 -50 q0 -30 -21 -50 q-21 -20 -52 -20 q-30 0 -50.5 21 Z" /><glyph glyph-name="Ygrave" unicode="&#x1ef2;" d="M249 0 l0 307 l-266 401 l154 0 l178 -298 l180 298 l146 0 l-266 -401 l0 -307 l-126 0 ZM275 908 l99 -144 l-94 0 l-141 144 l136 0 Z" /><glyph glyph-name="ygrave" unicode="&#x1ef3;" d="M206 0 l-206 480 l133 0 l134 -349 l2 0 l119 349 l125 0 l-227 -583 q-28 -71 -67.5 -104 q-39.5 -33 -114.5 -33 q-33 0 -62 7 l10 104 q22 -7 45 -7 q36 0 52 16.5 q16 16.5 33 58.5 l24 61 ZM219 708 l99 -144 l-94 0 l-141 144 l136 0 Z" /><glyph glyph-name="uni2010" unicode="&#x2010;" d="M280 297 l0 -102 l-240 0 l0 102 l240 0 Z" /><glyph glyph-name="endash" unicode="&#x2013;" d="M370 292 l0 -92 l-340 0 l0 92 l340 0 Z" /><glyph glyph-name="emdash" unicode="&#x2014;" d="M570 292 l0 -92 l-540 0 l0 92 l540 0 Z" /><glyph glyph-name="quoteleft" unicode="&#x2018;" d="M228 708 l-70 -264 l-116 0 l85 264 l101 0 Z" /><glyph glyph-name="quoteright" unicode="&#x2019;" d="M42 444 l70 264 l116 0 l-85 -264 l-101 0 Z" /><glyph glyph-name="quotesinglbase" unicode="&#x201a;" d="M42 -126 l70 264 l116 0 l-85 -264 l-101 0 Z" /><glyph glyph-name="quotedblleft" unicode="&#x201c;" d="M228 708 l-70 -264 l-116 0 l85 264 l101 0 ZM423 708 l-70 -264 l-116 0 l85 264 l101 0 Z" /><glyph glyph-name="quotedblright" unicode="&#x201d;" d="M237 444 l70 264 l116 0 l-85 -264 l-101 0 ZM42 444 l70 264 l116 0 l-85 -264 l-101 0 Z" /><glyph glyph-name="quotedblbase" unicode="&#x201e;" d="M237 -126 l70 264 l116 0 l-85 -264 l-101 0 ZM42 -126 l70 264 l116 0 l-85 -264 l-101 0 Z" /><glyph glyph-name="dagger" unicode="&#x2020;" d="M353 708 l0 -203 l199 0 l0 -96 l-199 0 l0 -535 l-114 0 l0 535 l-198 0 l0 96 l198 0 l0 203 l114 0 Z" /><glyph glyph-name="daggerdbl" unicode="&#x2021;" d="M353 708 l0 -185 l193 0 l0 -96 l-193 0 l0 -271 l193 0 l0 -96 l-193 0 l0 -186 l-114 0 l0 186 l-192 0 l0 96 l192 0 l0 271 l-192 0 l0 96 l192 0 l0 185 l114 0 Z" /><glyph glyph-name="bullet" unicode="&#x2022;" d="M124.5 228.5 q-51.5 51.5 -51.5 125.5 q0 74 51.5 125.5 q51.5 51.5 125.5 51.5 q74 0 125.5 -51.5 q51.5 -51.5 51.5 -125.5 q0 -74 -51.5 -125.5 q-51.5 -51.5 -125.5 -51.5 q-74 0 -125.5 51.5 Z" /><glyph glyph-name="ellipsis" unicode="&#x2026;" d="M111 16 q-24 22 -24 54 q0 32 23.5 55 q23.5 23 56.5 23 q33 0 56.5 -22 q23.5 -22 23.5 -54 q0 -32 -23.5 -55 q-23.5 -23 -56.5 -23 q-32 0 -56 22 ZM444 16 q-24 22 -24 54 q0 32 23.5 55 q23.5 23 56.5 23 q33 0 56.5 -22 q23.5 -22 23.5 -54 q0 -32 -23.5 -55 q-23.5 -23 -56.5 -23 q-32 0 -56 22 ZM777 16 q-24 22 -24 54 q0 32 23.5 55 q23.5 23 56.5 23 q33 0 56.5 -22 q23.5 -22 23.5 -54 q0 -32 -23.5 -55 q-23.5 -23 -56.5 -23 q-32 0 -56 22 Z" /><glyph glyph-name="perthousand" unicode="&#x2030;" d="M494.5 40 q-51.5 52 -51.5 125 q0 73 51.5 124.5 q51.5 51.5 124.5 51.5 q73 0 125 -51.5 q52 -51.5 52 -124.5 q0 -73 -52 -125 q-52 -52 -125 -52 q-73 0 -124.5 52 ZM533 165 q0 -38 24.5 -62.5 q24.5 -24.5 61.5 -24.5 q37 0 62 25 q25 25 25 62 q0 37 -24.5 61.5 q-24.5 24.5 -62.5 24.5 q-37 0 -61.5 -24.5 q-24.5 -24.5 -24.5 -61.5 ZM890.5 40 q-51.5 52 -51.5 125 q0 73 51.5 124.5 q51.5 51.5 124.5 51.5 q73 0 125 -51.5 q52 -51.5 52 -124.5 q0 -73 -52 -125 q-52 -52 -125 -52 q-73 0 -124.5 52 ZM929 165 q0 -38 24.5 -62.5 q24.5 -24.5 61.5 -24.5 q37 0 62 25 q25 25 25 62 q0 37 -24.5 61.5 q-24.5 24.5 -62.5 24.5 q-37 0 -61.5 -24.5 q-24.5 -24.5 -24.5 -61.5 ZM90.5 419 q-51.5 52 -51.5 125 q0 73 51.5 124.5 q51.5 51.5 124.5 51.5 q73 0 125 -51.5 q52 -51.5 52 -124.5 q0 -73 -52 -125 q-52 -52 -125 -52 q-73 0 -124.5 52 ZM153.5 606 q-24.5 -24 -24.5 -62 q0 -38 24.5 -62.5 q24.5 -24.5 61.5 -24.5 q37 0 62 24.5 q25 24.5 25 62.5 q0 37 -24.5 61.5 q-24.5 24.5 -62.5 24.5 q-37 0 -61.5 -24 ZM166 6 l416 734 l83 -38 l-416 -734 l-83 38 Z" /><glyph glyph-name="guilsinglleft" unicode="&#x2039;" d="M257 421 l-115 -173 l116 -175 l-76 -51 l-152 226 l152 224 l75 -51 Z" /><glyph glyph-name="guilsinglright" unicode="&#x203a;" d="M39 73 l115 173 l-116 175 l76 51 l152 -226 l-152 -224 l-75 51 Z" /><glyph glyph-name="interrobang" unicode="&#x203d;" d="M326 209 l-112 0 l-1 301 l108 0 l-5 -118 l1 0 q64 67 64 131 q0 44 -27.5 72 q-27.5 28 -78.5 28 q-51 0 -80.5 -30.5 q-29.5 -30.5 -33.5 -79.5 l-113 11 q11 94 75 148 q64 54 158 54 q91 0 152 -51.5 q61 -51.5 61 -142.5 q0 -59 -24.5 -100.5 q-24.5 -41.5 -75.5 -87.5 q-41 -37 -54.5 -60 q-13.5 -23 -13.5 -64 l0 -11 ZM327.5 126 q23.5 -22 23.5 -54 q0 -32 -23.5 -55 q-23.5 -23 -56.5 -23 q-32 0 -56 22 q-24 22 -24 54 q0 32 23.5 55 q23.5 23 56.5 23 q33 0 56.5 -22 Z" /><glyph glyph-name="fraction" unicode="&#x2044;" d="M-214 6 l416 734 l78 -38 l-416 -734 l-78 38 Z" /><glyph glyph-name="zero.superior" unicode="&#x2070;" d="M358 663 q0 -105 -40 -163.5 q-40 -58.5 -117 -58.5 q-78 0 -118.5 58.5 q-40.5 58.5 -40.5 163.5 q0 104 40.5 162.5 q40.5 58.5 118.5 58.5 q77 0 117 -58.5 q40 -58.5 40 -162.5 ZM201 521 q64 0 64 142 q0 142 -64 142 q-65 0 -65 -142 q0 -142 65 -142 Z" /><glyph glyph-name="four.superior" unicode="&#x2074;" d="M306 448 l-86 0 l0 85 l-190 0 l0 74 l179 270 l97 0 l0 -265 l58 0 l0 -79 l-58 0 l0 -85 ZM220 612 l0 150 l-1 0 l-96 -150 l97 0 Z" /><glyph glyph-name="five.superior" unicode="&#x2075;" d="M353 594 q0 -69 -45.5 -111 q-45.5 -42 -112.5 -42 q-55 0 -94 27.5 q-39 27.5 -57 78.5 l81 28 q20 -55 71 -55 q30 0 48 18.5 q18 18.5 18 49.5 q0 34 -22 51.5 q-22 17.5 -58 17.5 q-50 0 -106 -30 l7 250 l253 0 l0 -82 l-166 0 l-3 -66 q19 4 36 4 q66 0 108 -37 q42 -37 42 -102 Z" /><glyph glyph-name="six.superior" unicode="&#x2076;" d="M358 593 q0 -67 -45 -109.5 q-45 -42.5 -113 -42.5 q-68 0 -113.5 43.5 q-45.5 43.5 -45.5 106.5 q0 59 43 125 l104 161 l111 0 l-102 -146 l1 -1 q10 3 25 3 q55 0 95 -40.5 q40 -40.5 40 -99.5 ZM267 590 q0 30 -18.5 49.5 q-18.5 19.5 -48.5 19.5 q-30 0 -49 -19.5 q-19 -19.5 -19 -50.5 q0 -28 18.5 -48.5 q18.5 -20.5 48.5 -20.5 q31 0 49.5 19.5 q18.5 19.5 18.5 50.5 Z" /><glyph glyph-name="seven.superior" unicode="&#x2077;" d="M182 448 l-105 0 l172 347 l-196 0 l0 82 l297 0 l0 -74 l-168 -355 Z" /><glyph glyph-name="eight.superior" unicode="&#x2078;" d="M352 575 q0 -62 -43.5 -98 q-43.5 -36 -108.5 -36 q-65 0 -108.5 36 q-43.5 36 -43.5 98 q0 34 17.5 59.5 q17.5 25.5 46.5 38.5 l0 2 q-52 26 -52 87 q0 54 40.5 88 q40.5 34 99.5 34 q60 0 100 -32.5 q40 -32.5 40 -86.5 q0 -61 -50 -90 l0 -2 q28 -12 45 -38.5 q17 -26.5 17 -59.5 ZM200 807 q-21 0 -35 -14 q-14 -14 -14 -35 q0 -21 14 -35 q14 -14 35 -14 q20 0 34.5 14 q14.5 14 14.5 35 q0 21 -14.5 35 q-14.5 14 -34.5 14 ZM243 619.5 q-18 16.5 -43 16.5 q-25 0 -43 -16 q-18 -16 -18 -42 q0 -26 17.5 -42 q17.5 -16 43.5 -16 q26 0 43.5 16 q17.5 16 17.5 42 q0 25 -18 41.5 Z" /><glyph glyph-name="nine.superior" unicode="&#x2079;" d="M358 735 q0 -60 -43 -126 l-104 -161 l-111 0 l102 146 l-1 1 q-12 -3 -25 -3 q-59 0 -97 41 q-38 41 -38 99 q0 67 45 109.5 q45 42.5 113 42.5 q68 0 113.5 -43 q45.5 -43 45.5 -106 ZM267 736 q0 29 -18.5 49.5 q-18.5 20.5 -48.5 20.5 q-31 0 -49.5 -19.5 q-18.5 -19.5 -18.5 -51.5 q0 -30 18.5 -49 q18.5 -19 48.5 -19 q30 0 49 19.5 q19 19.5 19 49.5 Z" /><glyph glyph-name="zero.inferior" unicode="&#x2080;" d="M358 73 q0 -105 -40 -163.5 q-40 -58.5 -117 -58.5 q-78 0 -118.5 58.5 q-40.5 58.5 -40.5 163.5 q0 104 40.5 162.5 q40.5 58.5 118.5 58.5 q77 0 117 -58.5 q40 -58.5 40 -162.5 ZM201 -69 q64 0 64 142 q0 142 -64 142 q-65 0 -65 -142 q0 -142 65 -142 Z" /><glyph glyph-name="one.inferior" unicode="&#x2081;" d="M170 -142 l0 317 l-73 -61 l-53 62 l137 111 l83 0 l0 -429 l-94 0 Z" /><glyph glyph-name="two.inferior" unicode="&#x2082;" d="M347 -142 l-291 0 l0 76 l162 161 q36 36 36 70 q0 22 -15 35.5 q-15 13.5 -38 13.5 q-25 0 -42 -18.5 q-17 -18.5 -19 -48.5 l-88 12 q7 59 48 97 q41 38 101 38 q61 0 103.5 -33.5 q42.5 -33.5 42.5 -94.5 q0 -62 -69 -129 l-100 -97 l169 0 l0 -82 Z" /><glyph glyph-name="three.inferior" unicode="&#x2083;" d="M354 -17 q0 -64 -45.5 -98 q-45.5 -34 -107.5 -34 q-125 0 -161 112 l85 25 q19 -58 73 -58 q27 0 46 14 q19 14 19 43 q0 56 -88 56 l-27 0 l0 71 l28 0 q32 0 53.5 13.5 q21.5 13.5 21.5 43.5 q0 21 -14 33 q-14 12 -36 12 q-47 0 -59 -53 l-86 21 q14 48 54 79 q40 31 91 31 q63 0 102.5 -30 q39.5 -30 39.5 -88 q0 -62 -55 -93 q66 -25 66 -100 Z" /><glyph glyph-name="four.inferior" unicode="&#x2084;" d="M306 -142 l-86 0 l0 85 l-190 0 l0 74 l179 270 l97 0 l0 -265 l58 0 l0 -79 l-58 0 l0 -85 ZM220 22 l0 150 l-1 0 l-96 -150 l97 0 Z" /><glyph glyph-name="five.inferior" unicode="&#x2085;" d="M353 4 q0 -69 -45.5 -111 q-45.5 -42 -112.5 -42 q-55 0 -94 27.5 q-39 27.5 -57 78.5 l81 28 q20 -55 71 -55 q30 0 48 18.5 q18 18.5 18 49.5 q0 34 -22 51.5 q-22 17.5 -58 17.5 q-50 0 -106 -30 l7 250 l253 0 l0 -82 l-166 0 l-3 -66 q19 4 36 4 q66 0 108 -37 q42 -37 42 -102 Z" /><glyph glyph-name="six.inferior" unicode="&#x2086;" d="M358 3 q0 -67 -45 -109.5 q-45 -42.5 -113 -42.5 q-68 0 -113.5 43.5 q-45.5 43.5 -45.5 106.5 q0 59 43 125 l104 161 l111 0 l-102 -146 l1 -1 q10 3 25 3 q55 0 95 -40.5 q40 -40.5 40 -99.5 ZM267 0 q0 30 -18.5 49.5 q-18.5 19.5 -48.5 19.5 q-30 0 -49 -19.5 q-19 -19.5 -19 -50.5 q0 -28 18.5 -48.5 q18.5 -20.5 48.5 -20.5 q31 0 49.5 19.5 q18.5 19.5 18.5 50.5 Z" /><glyph glyph-name="seven.inferior" unicode="&#x2087;" d="M182 -142 l-105 0 l172 347 l-196 0 l0 82 l297 0 l0 -74 l-168 -355 Z" /><glyph glyph-name="eight.inferior" unicode="&#x2088;" d="M352 -15 q0 -62 -43.5 -98 q-43.5 -36 -108.5 -36 q-65 0 -108.5 36 q-43.5 36 -43.5 98 q0 34 17.5 59.5 q17.5 25.5 46.5 38.5 l0 2 q-52 26 -52 87 q0 54 40.5 88 q40.5 34 99.5 34 q60 0 100 -32.5 q40 -32.5 40 -86.5 q0 -61 -50 -90 l0 -2 q28 -12 45 -38.5 q17 -26.5 17 -59.5 ZM200 217 q-21 0 -35 -14 q-14 -14 -14 -35 q0 -21 14 -35 q14 -14 35 -14 q20 0 34.5 14 q14.5 14 14.5 35 q0 21 -14.5 35 q-14.5 14 -34.5 14 ZM243 29.5 q-18 16.5 -43 16.5 q-25 0 -43 -16 q-18 -16 -18 -42 q0 -26 17.5 -42 q17.5 -16 43.5 -16 q26 0 43.5 16 q17.5 16 17.5 42 q0 25 -18 41.5 Z" /><glyph glyph-name="nine.inferior" unicode="&#x2089;" d="M358 145 q0 -60 -43 -126 l-104 -161 l-111 0 l102 146 l-1 1 q-12 -3 -25 -3 q-59 0 -97 41 q-38 41 -38 99 q0 67 45 109.5 q45 42.5 113 42.5 q68 0 113.5 -43 q45.5 -43 45.5 -106 ZM267 146 q0 29 -18.5 49.5 q-18.5 20.5 -48.5 20.5 q-31 0 -49.5 -19.5 q-18.5 -19.5 -18.5 -51.5 q0 -30 18.5 -49 q18.5 -19 48.5 -19 q30 0 49 19.5 q19 19.5 19 49.5 Z" /><glyph glyph-name="Euro" unicode="&#x20ac;" d="M543 121 l41 -96 q-67 -43 -176 -43 q-129 0 -206 67 q-77 67 -103 173 l-84 0 l28 86 l45 0 q-1 15 -1 44 q0 27 3 48 l-72 0 l30 86 l55 0 q29 110 114 175 q85 65 203 65 q97 0 160 -33 l-38 -100 q-46 28 -128 28 q-63 0 -116.5 -36 q-53.5 -36 -73.5 -99 l288 0 l-28 -86 l-279 0 q-3 -21 -3 -49 q0 -30 2 -43 l256 0 l-27 -86 l-214 0 q14 -58 67 -96 q53 -38 126 -38 q76 0 131 33 Z" /><glyph glyph-name="afii61248" unicode="&#x2105;" d="M234 350 q-81 0 -136.5 50.5 q-55.5 50.5 -55.5 135.5 q0 83 55 134.5 q55 51.5 135 51.5 q89 0 142 -64 l-74 -62 q-24 34 -68 34 q-37 0 -60.5 -26.5 q-23.5 -26.5 -23.5 -67.5 q0 -37 23.5 -65 q23.5 -28 63.5 -28 q43 0 70 32 l67 -66 q-56 -59 -138 -59 ZM291 -32 l-83 38 l416 734 l83 -38 l-416 -734 ZM892 175 q0 -81 -55.5 -134 q-55.5 -53 -136.5 -53 q-81 0 -136.5 53 q-55.5 53 -55.5 134 q0 82 55.5 133.5 q55.5 51.5 136.5 51.5 q81 0 136.5 -51.5 q55.5 -51.5 55.5 -133.5 ZM764.5 109.5 q23.5 28.5 23.5 65.5 q0 37 -23 65 q-23 28 -65 28 q-42 0 -65 -28 q-23 -28 -23 -65 q0 -37 23 -65.5 q23 -28.5 65 -28.5 q41 0 64.5 28.5 Z" /><glyph glyph-name="afii61289" unicode="&#x2113;" d="M443 49 q-72 -63 -158 -63 q-71 0 -112 38.5 q-41 38.5 -41 102.5 l0 64 l-56 -52 l-2 0 l-42 63 l99 85 l0 244 q0 83 47 136.5 q47 53.5 118 53.5 q62 0 99.5 -39 q37.5 -39 37.5 -104 q0 -146 -185 -310 l0 -122 q0 -39 19 -56.5 q19 -17.5 46 -17.5 q41 0 88 38 l2 0 l40 -61 ZM338 570 q0 31 -12 52 q-12 21 -31 21 q-20 0 -33.5 -24.5 q-13.5 -24.5 -13.5 -65.5 l0 -185 q90 99 90 202 Z" /><glyph glyph-name="uni2116" unicode="&#x2116;" d="M78 0 l0 708 l143 0 l279 -509 l3 0 l0 509 l123 0 l0 -708 l-144 0 l-277 506 l-3 0 l0 -506 l-124 0 ZM725 293 l0 73 l286 0 l0 -73 l-286 0 ZM975 463 q-43 -42 -109 -42 q-66 0 -109 42 q-43 42 -43 106 q0 65 43 106.5 q43 41.5 109 41.5 q66 0 109 -41.5 q43 -41.5 43 -106.5 q0 -64 -43 -106 ZM815 516 q18 -22 51 -22 q33 0 51.5 22 q18.5 22 18.5 53 q0 32 -18.5 53.5 q-18.5 21.5 -51.5 21.5 q-33 0 -51 -21.5 q-18 -21.5 -18 -53.5 q0 -31 18 -53 Z" /><glyph glyph-name="published" unicode="&#x2117;" d="M20 353 q0 157 111.5 267 q111.5 110 269.5 110 q157 0 268 -110 q111 -110 111 -267 q0 -156 -111 -265.5 q-111 -109.5 -268 -109.5 q-158 0 -269.5 109.5 q-111.5 109.5 -111.5 265.5 ZM80 353 q0 -132 94 -225.5 q94 -93.5 227 -93.5 q132 0 225.5 93.5 q93.5 93.5 93.5 225.5 q0 133 -93.5 227 q-93.5 94 -225.5 94 q-133 0 -227 -94 q-94 -94 -94 -227 ZM268 126 l0 442 l169 0 q80 0 126 -37 q46 -37 46 -108 q0 -72 -48 -110 q-48 -38 -125 -38 l-68 0 l0 -149 l-100 0 ZM368 362 l70 0 q34 0 53 15.5 q19 15.5 19 45.5 q0 29 -18.5 44 q-18.5 15 -50.5 15 l-73 0 l0 -120 Z" /><glyph glyph-name="trademark" unicode="&#x2122;" d="M162 296 l0 322 l-122 0 l0 90 l346 0 l0 -90 l-122 0 l0 -322 l-102 0 ZM465 296 l0 412 l142 0 l98 -268 l98 268 l142 0 l0 -412 l-102 0 l0 268 l-2 0 l-101 -268 l-70 0 l-101 268 l-2 0 l0 -268 l-102 0 Z" /><glyph glyph-name="Omega" unicode="&#x2126;" d="M718 0 l-283 0 l0 191 q75 19 116.5 77.5 q41.5 58.5 41.5 135.5 q0 38 -11.5 74 q-11.5 36 -35 67.5 q-23.5 31.5 -64 50.5 q-40.5 19 -93.5 19 q-101 0 -153 -62 q-52 -62 -52 -149 q0 -82 43.5 -138.5 q43.5 -56.5 114.5 -74.5 l0 -191 l-283 0 l0 102 l183 0 l0 19 q-94 30 -143 107 q-49 77 -49 176 q0 148 97.5 235 q97.5 87 241.5 87 q147 0 242.5 -88.5 q95.5 -88.5 95.5 -232.5 q0 -104 -50.5 -179.5 q-50.5 -75.5 -141.5 -104.5 l0 -19 l183 0 l0 -102 Z" /><glyph glyph-name="estimated" unicode="&#x212e;" d="M561 259 l-404 0 l0 -181 q59 -59 145 -59 q122 0 193 120 l35 -21 q-46 -72 -98 -103.5 q-52 -31.5 -130 -31.5 q-115 0 -186.5 79 q-71.5 79 -71.5 197 q0 119 71 197.5 q71 78.5 187 78.5 q115 0 186.5 -77 q71.5 -77 72.5 -199 ZM157 295 l291 0 l0 145 q-63 60 -147 60 q-84 0 -144 -60 l0 -145 Z" /><glyph glyph-name="partialdiff" unicode="&#x2202;" d="M514 358 q0 -56 -6 -104.5 q-6 -48.5 -23.5 -99 q-17.5 -50.5 -45 -86.5 q-27.5 -36 -73.5 -58.5 q-46 -22.5 -107 -22.5 q-98 0 -158.5 64.5 q-60.5 64.5 -60.5 163.5 q0 97 60 159 q60 62 156 62 q77 0 143 -55 l0 28 q1 38 -6.5 75.5 q-7.5 37.5 -23.5 72 q-16 34.5 -47.5 56 q-31.5 21.5 -73.5 21.5 q-61 0 -122 -49 l-59 70 q86 66 175 66 q74 0 129 -31.5 q55 -31.5 85 -85 q30 -53.5 44 -115 q14 -61.5 14 -131.5 ZM398 264 l-1 25 q-57 64 -126 64 q-59 0 -90.5 -41.5 q-31.5 -41.5 -31.5 -102.5 q0 -59 28.5 -98.5 q28.5 -39.5 85.5 -39.5 q65 0 101 61.5 q36 61.5 34 131.5 Z" /><glyph glyph-name="Delta" unicode="&#x2206;" d="M675 0 l-637 0 l0 107 l265 601 l109 0 l263 -601 l0 -107 ZM354 558 l-180 -451 l361 0 l-181 451 Z" /><glyph glyph-name="product" unicode="&#x220f;" d="M679 -214 l-114 0 l0 897 l-389 0 l0 -897 l-114 0 l0 1000 l617 0 l0 -1000 Z" /><glyph glyph-name="summation" unicode="&#x2211;" d="M624 -214 l-599 0 l0 89 l303 417 l-290 405 l0 89 l573 0 l0 -103 l-422 0 l275 -390 l-293 -404 l453 0 l0 -103 Z" /><glyph glyph-name="minus" unicode="&#x2212;" d="M62 354 l542 0 l0 -102 l-542 0 l0 102 Z" /><glyph glyph-name="fraction" unicode="&#x2215;" d="M-214 6 l416 734 l78 -38 l-416 -734 l-78 38 Z" /><glyph glyph-name="periodcentered" unicode="&#x2219;" d="M74 237 q-24 22 -24 54 q0 32 23.5 55 q23.5 23 56.5 23 q33 0 56.5 -22 q23.5 -22 23.5 -54 q0 -32 -23.5 -55 q-23.5 -23 -56.5 -23 q-32 0 -56 22 Z" /><glyph glyph-name="radical" unicode="&#x221a;" d="M549 786 l-211 -1000 l-106 0 l-152 317 l-51 -25 l-41 90 l148 68 l129 -273 l168 823 l116 0 Z" /><glyph glyph-name="infinity" unicode="&#x221e;" d="M770 263 q0 -78 -46 -130 q-46 -52 -123 -52 q-56 0 -100.5 29.5 q-44.5 29.5 -92.5 82.5 q-27 -28 -42.5 -43 q-15.5 -15 -40.5 -33.5 q-25 -18.5 -51.5 -26.5 q-26.5 -8 -57.5 -8 q-77 0 -124 51 q-47 51 -47 129 q0 77 45.5 128 q45.5 51 121.5 51 q59 0 103.5 -31 q44.5 -31 92.5 -88 q48 57 92 88.5 q44 31.5 102 31.5 q76 0 122 -51 q46 -51 46 -128 ZM680 260 q0 37 -21.5 61.5 q-21.5 24.5 -58.5 24.5 q-55 0 -135 -87 q74 -82 138 -82 q36 0 56.5 23.5 q20.5 23.5 20.5 59.5 ZM350 259 q-81 86 -138 86 q-34 0 -55.5 -25 q-21.5 -25 -21.5 -60 q0 -37 21.5 -59.5 q21.5 -22.5 58.5 -22.5 q63 0 135 81 Z" /><glyph glyph-name="integral" unicode="&#x222b;" d="M486 709 q0 -23 -15 -37.5 q-15 -14.5 -37 -14.5 q-27 0 -40 18.5 q-13 18.5 -19 36.5 q-6 18 -17 18 q-16 0 -16 -26 q0 -20 2 -61 q2 -41 2 -61 l0 -589 q0 -43 -5.5 -75.5 q-5.5 -32.5 -19.5 -65 q-14 -32.5 -44 -50 q-30 -17.5 -75 -17.5 q-42 0 -76.5 18.5 q-34.5 18.5 -34.5 57.5 q0 23 15.5 38 q15.5 15 37.5 15 q21 0 34 -11.5 q13 -11.5 16.5 -25 q3.5 -13.5 9 -25 q5.5 -11.5 14.5 -11.5 q4 0 7.5 2 q3.5 2 5 5 q1.5 3 3 6.5 q1.5 3.5 1.5 9 q0 5.5 0 8.5 q0 3 0 8 q0 5 0 7 q0 17 -2 51 q-2 34 -2 51 l0 506 q0 10 -0.5 39 q-0.5 29 0 43.5 q0.5 14.5 1.5 42.5 q1 28 5 43.5 q4 15.5 10.5 38 q6.5 22.5 17.5 35 q11 12.5 26 25.5 q15 13 36.5 18.5 q21.5 5.5 48.5 5.5 q41 0 75.5 -19.5 q34.5 -19.5 34.5 -57.5 Z" /><glyph glyph-name="approxequal" unicode="&#x2248;" d="M602 451 q-8 -74 -43.5 -123 q-35.5 -49 -105.5 -49 q-47 0 -136 35 q-94 34 -117 34 q-26 0 -42.5 -20.5 q-16.5 -20.5 -21.5 -48.5 l-71 0 q7 72 40 118 q38 55 106 55 q45 0 130 -33 q91 -33 128 -33 q26 0 41.5 18.5 q15.5 18.5 20.5 46.5 l71 0 ZM600 243 q-8 -75 -43 -123.5 q-35 -48.5 -105 -48.5 q-45 0 -136 35 q-92 34 -118 34 q-26 0 -42.5 -20.5 q-16.5 -20.5 -21.5 -47.5 l-71 0 q7 72 43 122 q36 50 103 50 q45 0 130 -33 q91 -33 128 -33 q26 0 41.5 18.5 q15.5 18.5 20.5 46.5 l71 0 Z" /><glyph glyph-name="notequal" unicode="&#x2260;" d="M586 162 l-264 0 l-74 -144 l-88 45 l50 99 l-130 0 l0 102 l181 0 l38 78 l-219 0 l0 102 l270 0 l72 143 l90 -44 l-51 -99 l125 0 l0 -102 l-176 0 l-38 -78 l214 0 l0 -102 Z" /><glyph glyph-name="lessequal" unicode="&#x2264;" d="M586 144 l-506 170 l0 108 l506 177 l0 -113 l-359 -118 l359 -112 l0 -112 ZM586 4 l-506 0 l0 107 l506 0 l0 -107 Z" /><glyph glyph-name="greaterequal" unicode="&#x2265;" d="M80 144 l0 112 l359 112 l-359 118 l0 113 l506 -177 l0 -108 l-506 -170 ZM80 4 l0 107 l506 0 l0 -107 l-506 0 Z" /><glyph glyph-name="lozenge" unicode="&#x25ca;" d="M524 356 l-178 -391 l-100 0 l-177 391 l177 391 l100 0 l178 -391 ZM415 356 l-119 285 l-118 -285 l118 -286 l119 286 Z" /><glyph glyph-name="fi" unicode="&#xf001;" d="M91 0 l0 384 l-91 0 l0 96 l91 0 l0 71 q0 97 45 157 q45 60 149 60 q36 0 61 -7 l-8 -102 q-23 7 -46 7 q-81 0 -81 -108 l0 -78 l111 0 l0 -96 l-111 0 l0 -384 l-120 0 ZM398 0 l0 480 l120 0 l0 -480 l-120 0 ZM403 592.5 q-22 21.5 -22 50.5 q0 29 22 50.5 q22 21.5 54 21.5 q33 0 55.5 -20.5 q22.5 -20.5 22.5 -51.5 q0 -31 -22.5 -51.5 q-22.5 -20.5 -55.5 -20.5 q-32 0 -54 21.5 Z" /><glyph glyph-name="fl" unicode="&#xf002;" d="M91 0 l0 384 l-91 0 l0 96 l91 0 l0 71 q0 97 45 157 q45 60 149 60 q36 0 61 -7 l-8 -102 q-23 7 -46 7 q-81 0 -81 -108 l0 -78 l111 0 l0 -96 l-111 0 l0 -384 l-120 0 ZM398 0 l0 756 l120 0 l0 -756 l-120 0 Z" /><glyph glyph-name="uniF8FF" unicode="&#xf8ff;" d="M278 117 l-56 0 l0 67 l56 0 l0 -67 ZM271 234 l-46 0 l-2 17 q0 56 13 81 q15 28 46 59 q31 29 40.5 46 q9.5 17 9.5 37 q0 36 -22.5 60.5 q-22.5 24.5 -53.5 24.5 q-71 0 -82 -95 l-50 8 q7 69 43 103 q36 34 92 34 q54 0 89 -36 q35 -36 35 -95 q0 -34 -13 -60 q-13 -26 -50 -60 q-37 -33 -43 -52 q-6 -20 -6 -72 ZM50 50 l412 0 l0 617 l-412 0 l0 -617 ZM0 718 l512 0 l0 -718 l-512 0 l0 718 Z" /><glyph glyph-name="f_f" unicode="&#xfb00;" d="M394 0 l0 384 l-183 0 l0 -384 l-120 0 l0 384 l-91 0 l0 96 l91 0 l0 71 q0 97 45 157 q45 60 149 60 q36 0 61 -7 l-8 -102 q-23 7 -46 7 q-81 0 -81 -108 l0 -78 l183 0 l0 71 q0 97 45 157 q45 60 149 60 q36 0 61 -7 l-8 -102 q-23 7 -46 7 q-81 0 -81 -108 l0 -78 l111 0 l0 -96 l-111 0 l0 -384 l-120 0 Z" /><glyph glyph-name="fi" unicode="&#xfb01;" d="M91 0 l0 384 l-91 0 l0 96 l91 0 l0 71 q0 97 45 157 q45 60 149 60 q36 0 61 -7 l-8 -102 q-23 7 -46 7 q-81 0 -81 -108 l0 -78 l111 0 l0 -96 l-111 0 l0 -384 l-120 0 ZM398 0 l0 480 l120 0 l0 -480 l-120 0 ZM403 592.5 q-22 21.5 -22 50.5 q0 29 22 50.5 q22 21.5 54 21.5 q33 0 55.5 -20.5 q22.5 -20.5 22.5 -51.5 q0 -31 -22.5 -51.5 q-22.5 -20.5 -55.5 -20.5 q-32 0 -54 21.5 Z" /><glyph glyph-name="fl" unicode="&#xfb02;" d="M91 0 l0 384 l-91 0 l0 96 l91 0 l0 71 q0 97 45 157 q45 60 149 60 q36 0 61 -7 l-8 -102 q-23 7 -46 7 q-81 0 -81 -108 l0 -78 l111 0 l0 -96 l-111 0 l0 -384 l-120 0 ZM398 0 l0 756 l120 0 l0 -756 l-120 0 Z" /><glyph glyph-name="f_f_i" unicode="&#xfb03;" d="M701 0 l0 480 l120 0 l0 -480 l-120 0 ZM706 592.5 q-22 21.5 -22 50.5 q0 29 22 50.5 q22 21.5 54 21.5 q33 0 55.5 -20.5 q22.5 -20.5 22.5 -51.5 q0 -31 -22.5 -51.5 q-22.5 -20.5 -55.5 -20.5 q-32 0 -54 21.5 ZM394 0 l0 384 l-183 0 l0 -384 l-120 0 l0 384 l-91 0 l0 96 l91 0 l0 71 q0 97 45 157 q45 60 149 60 q36 0 61 -7 l-8 -102 q-23 7 -46 7 q-81 0 -81 -108 l0 -78 l183 0 l0 71 q0 97 45 157 q45 60 149 60 q36 0 61 -7 l-8 -102 q-23 7 -46 7 q-81 0 -81 -108 l0 -78 l111 0 l0 -96 l-111 0 l0 -384 l-120 0 Z" /><glyph glyph-name="f_f_l" unicode="&#xfb04;" d="M701 0 l0 756 l120 0 l0 -756 l-120 0 ZM394 0 l0 384 l-183 0 l0 -384 l-120 0 l0 384 l-91 0 l0 96 l91 0 l0 71 q0 97 45 157 q45 60 149 60 q36 0 61 -7 l-8 -102 q-23 7 -46 7 q-81 0 -81 -108 l0 -78 l183 0 l0 71 q0 97 45 157 q45 60 149 60 q36 0 61 -7 l-8 -102 q-23 7 -46 7 q-81 0 -81 -108 l0 -78 l111 0 l0 -96 l-111 0 l0 -384 l-120 0 Z" /></font>
</defs>
</svg>
