<?xml version="1.0" standalone="no"?><!DOCTYPE svg PUBLIC "-//W3C//DTD SVG 1.1//EN" "http://www.w3.org/Graphics/SVG/1.1/DTD/svg11.dtd" ><svg xmlns="http://www.w3.org/2000/svg"><metadata></metadata><defs><font id="Linotype GmbH:Avenir Next Cyr Light:2012" horiz-adv-x="1078"><font-face font-family="Avenir Next Cyr Light" font-weight="300" font-stretch="normal" units-per-em="1000" panose-1="2 11 4 3 2 2 2 2 2 4" ascent="971" descent="-254" x-height="4" bbox="-202 -250 1042 945" underline-thickness="50" underline-position="-175" unicode-range="U+0000-fb04" /><missing-glyph horiz-adv-x="512" d="M278 117 l-56 0 l0 67 l56 0 l0 -67 ZM271 234 l-46 0 l-2 17 q0 54 11.5 79.5 q11.5 25.5 47.5 60.5 q31 31 40.5 47 q9.5 16 9.5 36 q0 36 -22.5 60.5 q-22.5 24.5 -53.5 24.5 q-71 0 -82 -95 l-50 8 q7 69 43 103 q36 34 92 34 q54 0 89 -36 q35 -36 35 -95 q0 -33 -13 -60 q-13 -27 -50 -60 q-37 -33 -43 -50 q-6 -17 -6 -74 ZM50 50 l412 0 l0 617 l-412 0 l0 -617 ZM0 718 l512 0 l0 -718 l-512 0 l0 718 Z" /><glyph glyph-name=".null" unicode="" d="" /><glyph glyph-name="nonmarkingreturn" unicode="" d="" /><glyph glyph-name="space" unicode=" " d="" /><glyph glyph-name="exclam" unicode="!" d="M185 708 l0 -515 l-57 0 l0 515 l57 0 ZM201 39 q0 -18 -13 -31.5 q-13 -13.5 -32 -13.5 q-19 0 -32 13.5 q-13 13.5 -13 31.5 q0 19 13 32.5 q13 13.5 32 13.5 q19 0 32 -13.5 q13 -13.5 13 -32.5 Z" /><glyph glyph-name="quotedbl" unicode="&quot;" d="M106 475 l0 233 l48 0 l0 -233 l-48 0 ZM250 475 l0 233 l49 0 l0 -233 l-49 0 Z" /><glyph glyph-name="numbersign" unicode="#" d="M108 0 l30 222 l-105 0 l0 47 l111 0 l24 172 l-109 0 l0 47 l116 0 l29 220 l48 0 l-29 -220 l144 0 l30 220 l48 0 l-29 -220 l96 0 l0 -47 l-103 0 l-23 -172 l100 0 l0 -47 l-107 0 l-30 -222 l-48 0 l30 222 l-145 0 l-30 -222 l-48 0 ZM216 441 l-23 -172 l144 0 l23 172 l-144 0 Z" /><glyph glyph-name="dollar" unicode="$" d="M261 396 l0 279 q-58 -3 -97.5 -40.5 q-39.5 -37.5 -39.5 -97.5 q0 -102 137 -141 ZM301 328 l0 -294 q60 3 103 39.5 q43 36.5 43 106.5 q0 101 -146 148 ZM261 34 l0 304 q-42 13 -72 27 q-30 14 -59.5 36 q-29.5 22 -45 55.5 q-15.5 33.5 -15.5 76.5 q0 82 54.5 132 q54.5 50 137.5 55 l0 72 l40 0 l0 -72 q117 -2 183 -80 l-36 -34 q-58 69 -147 69 l0 -293 q37 -13 62 -23.5 q25 -10.5 54 -28 q29 -17.5 46.5 -38 q17.5 -20.5 29 -50 q11.5 -29.5 11.5 -66.5 q0 -83 -57.5 -134.5 q-57.5 -51.5 -145.5 -53.5 l0 -72 l-40 0 l0 72 q-125 3 -203 102 l40 31 q33 -43 77 -64.5 q44 -21.5 86 -22.5 Z" /><glyph glyph-name="percent" unicode="%" d="M383 548 q0 -71 -49.5 -120.5 q-49.5 -49.5 -120.5 -49.5 q-72 0 -121.5 49.5 q-49.5 49.5 -49.5 120.5 q0 72 49.5 121.5 q49.5 49.5 121.5 49.5 q71 0 120.5 -49.5 q49.5 -49.5 49.5 -121.5 ZM298.5 461 q35.5 35 35.5 87 q0 52 -35.5 87.5 q-35.5 35.5 -85.5 35.5 q-51 0 -86.5 -35.5 q-35.5 -35.5 -35.5 -87.5 q0 -52 35.5 -87 q35.5 -35 86.5 -35 q50 0 85.5 35 ZM737 279.5 q50 -49.5 50 -120.5 q0 -71 -50 -120.5 q-50 -49.5 -121 -49.5 q-71 0 -120.5 49.5 q-49.5 49.5 -49.5 120.5 q0 71 49.5 120.5 q49.5 49.5 120.5 49.5 q71 0 121 -49.5 ZM702.5 72 q35.5 35 35.5 87 q0 52 -35.5 87.5 q-35.5 35.5 -86.5 35.5 q-50 0 -85.5 -35.5 q-35.5 -35.5 -35.5 -87.5 q0 -52 35.5 -87 q35.5 -35 85.5 -35 q51 0 86.5 35 ZM657 716 l-447 -746 l-41 22 l448 746 l40 -22 Z" /><glyph glyph-name="ampersand" unicode="&amp;" d="M652 379 l-128 -221 l151 -158 l-78 0 l-105 111 q-86 -125 -221 -125 q-92 0 -152.5 52.5 q-60.5 52.5 -60.5 144.5 q0 74 43 124 q43 50 122 87 q-88 93 -88 169 q0 75 48.5 119 q48.5 44 121.5 44 q70 0 117 -42 q47 -42 47 -111 q0 -64 -43 -107 q-43 -43 -121 -83 l180 -188 l103 184 l64 0 ZM413 571 q0 47 -31 77.5 q-31 30.5 -77 30.5 q-49 0 -81.5 -32 q-32.5 -32 -32.5 -84 q0 -67 81 -146 q67 33 104 67.5 q37 34.5 37 86.5 ZM454 148 l-198 209 q-141 -66 -141 -175 q0 -65 46 -106.5 q46 -41.5 113 -41.5 q108 0 180 114 Z" /><glyph glyph-name="quotesingle" unicode="&#39;" d="M106 475 l0 233 l48 0 l0 -233 l-48 0 Z" /><glyph glyph-name="parenleft" unicode="(" d="M97 288 q0 -111 35.5 -221.5 q35.5 -110.5 95.5 -198.5 l-43 -26 q-140 204 -140 446 q0 123 38 241 q38 118 102 205 l43 -26 q-59 -83 -95 -195.5 q-36 -112.5 -36 -224.5 Z" /><glyph glyph-name="parenright" unicode=")" d="M166 63.5 q36 112.5 36 224.5 q0 112 -36 224.5 q-36 112.5 -95 195.5 l43 26 q64 -87 102.5 -205 q38.5 -118 38.5 -241 q0 -123 -38.5 -241 q-38.5 -118 -102.5 -205 l-43 26 q59 83 95 195.5 Z" /><glyph glyph-name="asterisk" unicode="*" d="M246 708 l0 -151 l147 47 l16 -45 l-148 -46 l94 -127 l-38 -29 l-95 130 l-95 -130 l-38 29 l94 127 l-148 46 l16 45 l147 -47 l0 151 l48 0 Z" /><glyph glyph-name="plus" unicode="+" d="M358 554 l0 -227 l223 0 l0 -47 l-223 0 l0 -227 l-49 0 l0 227 l-224 0 l0 47 l224 0 l0 227 l49 0 Z" /><glyph glyph-name="comma" unicode="," d="M174 94 l-76 -233 l-45 0 l64 233 l57 0 Z" /><glyph glyph-name="hyphen" unicode="-" d="M262 269 l0 -46 l-210 0 l0 46 l210 0 Z" /><glyph glyph-name="period" unicode="." d="M172 40 q0 -19 -13 -32.5 q-13 -13.5 -32 -13.5 q-19 0 -32 13.5 q-13 13.5 -13 32.5 q0 18 13 31.5 q13 13.5 32 13.5 q19 0 32 -13.5 q13 -13.5 13 -31.5 Z" /><glyph glyph-name="slash" unicode="/" d="M360 711 l-303 -728 l-47 15 l305 729 l45 -16 Z" /><glyph glyph-name="zero" unicode="0" d="M287 724 q52 0 92 -22 q40 -22 65 -57 q25 -35 41.5 -84.5 q16.5 -49.5 23 -100 q6.5 -50.5 6.5 -107.5 q0 -71 -11 -133 q-11 -62 -35.5 -117 q-24.5 -55 -71 -87 q-46.5 -32 -110.5 -32 q-64 0 -110.5 32 q-46.5 32 -71 87 q-24.5 55 -35.5 116.5 q-11 61.5 -11 133.5 q0 72 11 134 q11 62 35.5 117.5 q24.5 55.5 71 87.5 q46.5 32 110.5 32 ZM372.5 644 q-35.5 31 -85.5 31 q-50 0 -86 -31 q-36 -31 -53.5 -82 q-17.5 -51 -24.5 -102 q-7 -51 -7 -107 q0 -56 7 -106 q7 -50 24.5 -101.5 q17.5 -51.5 53.5 -82 q36 -30.5 86 -30.5 q50 0 85.5 30.5 q35.5 30.5 53 81.5 q17.5 51 25 102 q7.5 51 7.5 106 q0 56 -7.5 107 q-7.5 51 -25 102 q-17.5 51 -53 82 Z" /><glyph glyph-name="one" unicode="1" d="M344 708 l0 -708 l-57 0 l0 638 l-130 -111 l-34 40 l170 141 l51 0 Z" /><glyph glyph-name="two" unicode="2" d="M491 51 l0 -51 l-436 0 l0 60 l277 292 q96 101 96 181 q0 64 -42 103.5 q-42 39.5 -104 39.5 q-56 0 -97 -34 q-41 -34 -55 -91 l-56 12 q17 72 73.5 116.5 q56.5 44.5 134.5 44.5 q87 0 145.5 -50.5 q58.5 -50.5 58.5 -137.5 q0 -62 -30 -111.5 q-30 -49.5 -92 -114.5 l-248 -259 l375 0 Z" /><glyph glyph-name="three" unicode="3" d="M215 347 l0 49 l29 0 q73 0 120.5 34.5 q47.5 34.5 47.5 105.5 q0 62 -41.5 101 q-41.5 39 -102.5 39 q-86 0 -139 -80 l-43 28 q63 100 184 100 q84 0 141 -49.5 q57 -49.5 57 -135.5 q0 -62 -35 -107 q-35 -45 -95 -58 l0 -2 q70 -14 111 -62 q41 -48 41 -117 q0 -93 -61.5 -151 q-61.5 -58 -158.5 -58 q-148 0 -213 132 l47 24 q52 -107 166 -107 q70 0 116.5 44 q46.5 44 46.5 116 q0 78 -56 116 q-56 38 -133 38 l-29 0 Z" /><glyph glyph-name="four" unicode="4" d="M424 708 l0 -483 l108 0 l0 -50 l-108 0 l0 -175 l-56 0 l0 175 l-326 0 l0 57 l306 476 l76 0 ZM368 225 l0 419 l-2 0 l-265 -419 l267 0 Z" /><glyph glyph-name="five" unicode="5" d="M466 708 l0 -51 l-296 0 l-6 -236 q43 19 105 19 q100 0 163 -62 q63 -62 63 -160 q0 -104 -65 -169 q-65 -65 -164 -65 q-138 0 -202 116 l47 27 q54 -94 152 -94 q73 0 123.5 50 q50.5 50 50.5 130 q0 81 -51 130.5 q-51 49.5 -133 49.5 q-72 0 -143 -38 l7 353 l349 0 Z" /><glyph glyph-name="six" unicode="6" d="M383 708 l-203 -324 l2 -2 q41 39 117 39 q91 0 151.5 -61 q60.5 -61 60.5 -156 q0 -97 -63 -158.5 q-63 -61.5 -161 -61.5 q-98 0 -160.5 61.5 q-62.5 61.5 -62.5 158.5 q0 87 62 190 l191 314 l66 0 ZM120 204 q0 -74 47 -123 q47 -49 120 -49 q73 0 120 49 q47 49 47 123 q0 74 -46 122.5 q-46 48.5 -119 48.5 q-74 0 -121.5 -49 q-47.5 -49 -47.5 -122 Z" /><glyph glyph-name="seven" unicode="7" d="M486 708 l0 -54 l-288 -654 l-64 0 l295 657 l-352 0 l0 51 l409 0 Z" /><glyph glyph-name="eight" unicode="8" d="M370 376 q64 -19 101.5 -70 q37.5 -51 37.5 -119 q0 -91 -64.5 -147 q-64.5 -56 -157.5 -56 q-93 0 -157.5 56 q-64.5 56 -64.5 147 q0 68 37.5 119.5 q37.5 51.5 101.5 69.5 l0 2 q-51 18 -81.5 63 q-30.5 45 -30.5 99 q0 82 56.5 133 q56.5 51 138.5 51 q82 0 138.5 -51 q56.5 -51 56.5 -133 q0 -54 -30.5 -99 q-30.5 -45 -81.5 -63 l0 -2 ZM148 537 q0 -58 40 -97 q40 -39 99 -39 q59 0 99 39 q40 39 40 97 q0 60 -39.5 99.5 q-39.5 39.5 -99.5 39.5 q-60 0 -99.5 -39.5 q-39.5 -39.5 -39.5 -99.5 ZM168.5 306 q-46.5 -45 -46.5 -114 q0 -69 46 -114.5 q46 -45.5 119 -45.5 q73 0 119 45.5 q46 45.5 46 114.5 q0 69 -46.5 114 q-46.5 45 -118.5 45 q-72 0 -118.5 -45 Z" /><glyph glyph-name="nine" unicode="9" d="M192 0 l204 326 l-2 2 q-41 -39 -118 -39 q-91 0 -151.5 60.5 q-60.5 60.5 -60.5 155.5 q0 96 63.5 157.5 q63.5 61.5 161.5 61.5 q98 0 160 -61 q62 -61 62 -158 q0 -89 -61 -189 l-192 -316 l-66 0 ZM455 505 q0 74 -47 122.5 q-47 48.5 -120 48.5 q-73 0 -120 -48.5 q-47 -48.5 -47 -122.5 q0 -74 46 -122 q46 -48 120 -48 q74 0 121 48.5 q47 48.5 47 121.5 Z" /><glyph glyph-name="colon" unicode=":" d="M179 456 q13 -14 13 -32 q0 -18 -13 -31.5 q-13 -13.5 -32 -13.5 q-19 0 -32 13.5 q-13 13.5 -13 31.5 q0 18 13 32 q13 14 32 14 q19 0 32 -14 ZM192 40 q0 -19 -13 -32.5 q-13 -13.5 -32 -13.5 q-19 0 -32 13.5 q-13 13.5 -13 32.5 q0 18 13 31.5 q13 13.5 32 13.5 q19 0 32 -13.5 q13 -13.5 13 -31.5 Z" /><glyph glyph-name="semicolon" unicode=";" d="M179 456 q13 -14 13 -32 q0 -18 -13 -31.5 q-13 -13.5 -32 -13.5 q-19 0 -32 13.5 q-13 13.5 -13 31.5 q0 18 13 32 q13 14 32 14 q19 0 32 -14 ZM188 94 l-76 -233 l-47 0 l64 233 l59 0 Z" /><glyph glyph-name="less" unicode="&lt;" d="M581 557 l0 -49 l-436 -205 l436 -205 l0 -49 l-496 234 l0 40 l496 234 Z" /><glyph glyph-name="equal" unicode="=" d="M85 405 l496 0 l0 -47 l-496 0 l0 47 ZM85 249 l496 0 l0 -48 l-496 0 l0 48 Z" /><glyph glyph-name="greater" unicode="&gt;" d="M85 508 l0 49 l496 -234 l0 -40 l-496 -234 l0 49 l436 205 l-436 205 Z" /><glyph glyph-name="question" unicode="?" d="M267 240 l0 -46 l-56 0 l0 58 q0 47 19.5 81 q19.5 34 57.5 67 l30 26 q30 26 45.5 53 q15.5 27 15.5 66 q0 59 -38.5 93 q-38.5 34 -96.5 34 q-57 0 -94.5 -34.5 q-37.5 -34.5 -46.5 -90.5 l-54 10 q15 77 68 121 q53 44 129 44 q82 0 136 -46.5 q54 -46.5 54 -127.5 q0 -58 -22 -92 q-22 -34 -69 -72 q-47 -39 -62.5 -66 q-15.5 -27 -15.5 -78 ZM289 39 q0 -18 -12.5 -31.5 q-12.5 -13.5 -31.5 -13.5 q-20 0 -32.5 13.5 q-12.5 13.5 -12.5 31.5 q0 19 12.5 32.5 q12.5 13.5 32.5 13.5 q19 0 31.5 -13.5 q12.5 -13.5 12.5 -32.5 Z" /><glyph glyph-name="at" unicode="@" d="M418 502 q-62 0 -100.5 -60 q-38.5 -60 -38.5 -131 q0 -41 20.5 -72.5 q20.5 -31.5 64.5 -31.5 q45 0 78.5 35 q33.5 35 47 77.5 q13.5 42.5 13.5 80.5 q0 44 -20 73 q-20 29 -65 29 ZM697 143 l30 -36 q-117 -126 -309 -126 q-169 0 -274 105.5 q-105 105.5 -105 267.5 q0 158 110 265.5 q110 107.5 268 107.5 q147 0 249 -86 q102 -86 102 -233 q0 -114 -55 -181 q-55 -67 -140 -67 q-42 0 -63.5 21.5 q-21.5 21.5 -21.5 56.5 l-3 0 q-15 -29 -49 -53.5 q-34 -24.5 -79 -24.5 q-63 0 -99.5 43.5 q-36.5 43.5 -36.5 110.5 q0 91 56 163.5 q56 72.5 143 72.5 q39 0 67 -19 q28 -19 37 -50 l4 0 l13 53 l50 0 l-49 -201 q-10 -45 -10 -74 q0 -52 53 -52 q59 0 94 56.5 q35 56.5 35 139.5 q0 127 -83 200.5 q-83 73.5 -215 73.5 q-140 0 -229 -94 q-89 -94 -89 -232 q0 -143 90 -232.5 q90 -89.5 235 -89.5 q163 0 274 114 Z" /><glyph glyph-name="A" unicode="a" d="M155 191 l-80 -191 l-63 0 l307 708 l57 0 l301 -708 l-63 0 l-80 191 l-379 0 ZM346 648 l-170 -405 l337 0 l-167 405 Z" /><glyph glyph-name="B" unicode="b" d="M98 0 l0 708 l205 0 q44 0 81.5 -8.5 q37.5 -8.5 71.5 -27.5 q34 -19 53.5 -55 q19.5 -36 19.5 -86 q0 -60 -36.5 -101.5 q-36.5 -41.5 -94.5 -54.5 l0 -2 q69 -7 117 -54 q48 -47 48 -125 q0 -93 -70.5 -143.5 q-70.5 -50.5 -182.5 -50.5 l-212 0 ZM155 659 l0 -265 l152 0 q67 0 115.5 32.5 q48.5 32.5 48.5 100.5 q0 68 -50 100 q-50 32 -129 32 l-137 0 ZM155 346 l0 -297 l149 0 q89 0 145 36 q56 36 56 111 q0 75 -52 112.5 q-52 37.5 -137 37.5 l-161 0 Z" /><glyph glyph-name="C" unicode="c" d="M645 136 l39 -31 q-95 -124 -258 -124 q-159 0 -262 105.5 q-103 105.5 -103 267.5 q0 162 104 267.5 q104 105.5 262 105.5 q78 0 142 -27 q64 -27 102 -76 l-41 -38 q-32 40 -85.5 65 q-53.5 25 -116.5 25 q-138 0 -222.5 -93.5 q-84.5 -93.5 -84.5 -228.5 q0 -135 84.5 -228.5 q84.5 -93.5 222.5 -93.5 q133 0 217 104 Z" /><glyph glyph-name="D" unicode="d" d="M98 0 l0 708 l224 0 q73 0 139.5 -22 q66.5 -22 120.5 -64.5 q54 -42.5 86 -112 q32 -69.5 32 -155.5 q0 -86 -32 -155.5 q-32 -69.5 -86 -112 q-54 -42.5 -120.5 -64.5 q-66.5 -22 -139.5 -22 l-224 0 ZM155 657 l0 -606 l152 0 q155 0 244 85 q89 85 89 218 q0 133 -89 218 q-89 85 -244 85 l-152 0 Z" /><glyph glyph-name="E" unicode="e" d="M154 343 l0 -292 l388 0 l0 -51 l-444 0 l0 708 l431 0 l0 -51 l-375 0 l0 -264 l351 0 l0 -50 l-351 0 Z" /><glyph glyph-name="F" unicode="f" d="M155 342 l0 -342 l-57 0 l0 708 l420 0 l0 -51 l-363 0 l0 -265 l337 0 l0 -50 l-337 0 Z" /><glyph glyph-name="G" unicode="g" d="M677 635 l-36 -39 q-80 80 -211 80 q-139 0 -224 -93 q-85 -93 -85 -228 q0 -135 85 -229 q85 -94 226 -94 q122 0 203 48 l0 234 l-170 0 l0 50 l227 0 l0 -316 q-112 -67 -261 -67 q-162 0 -266 106 q-104 106 -104 268 q0 161 104.5 266.5 q104.5 105.5 264.5 105.5 q153 0 247 -92 Z" /><glyph glyph-name="H" unicode="h" d="M98 0 l0 708 l57 0 l0 -314 l413 0 l0 314 l57 0 l0 -708 l-57 0 l0 341 l-413 0 l0 -341 l-57 0 Z" /><glyph glyph-name="I" unicode="i" d="M155 708 l0 -708 l-57 0 l0 708 l57 0 Z" /><glyph glyph-name="J" unicode="j" d="M26 116 l53 15 q12 -44 45 -71.5 q33 -27.5 80 -27.5 q135 0 135 173 l0 503 l57 0 l0 -507 q0 -42 -9 -78.5 q-9 -36.5 -29.5 -69.5 q-20.5 -33 -58 -52 q-37.5 -19 -89.5 -19 q-71 0 -120 37.5 q-49 37.5 -64 96.5 Z" /><glyph glyph-name="K" unicode="k" d="M155 708 l0 -320 l343 320 l82 0 l-358 -322 l377 -386 l-83 0 l-361 378 l0 -378 l-57 0 l0 708 l57 0 Z" /><glyph glyph-name="L" unicode="l" d="M155 708 l0 -657 l336 0 l0 -51 l-393 0 l0 708 l57 0 Z" /><glyph glyph-name="M" unicode="m" d="M98 0 l0 708 l88 0 l261 -613 l259 613 l88 0 l0 -708 l-57 0 l0 635 l-2 0 l-273 -635 l-32 0 l-273 635 l-2 0 l0 -635 l-57 0 Z" /><glyph glyph-name="N" unicode="n" d="M170 708 l441 -626 l2 0 l0 626 l57 0 l0 -708 l-72 0 l-441 630 l-2 0 l0 -630 l-57 0 l0 708 l72 0 Z" /><glyph glyph-name="O" unicode="o" d="M691.5 621.5 q104.5 -105.5 104.5 -267.5 q0 -162 -104.5 -267.5 q-104.5 -105.5 -263.5 -105.5 q-158 0 -262.5 105.5 q-104.5 105.5 -104.5 267.5 q0 162 104.5 267.5 q104.5 105.5 262.5 105.5 q159 0 263.5 -105.5 ZM651 125.5 q85 93.5 85 228.5 q0 135 -85.5 228.5 q-85.5 93.5 -222.5 93.5 q-137 0 -222 -93.5 q-85 -93.5 -85 -228.5 q0 -135 85 -228.5 q85 -93.5 222 -93.5 q138 0 223 93.5 Z" /><glyph glyph-name="P" unicode="p" d="M98 0 l0 708 l197 0 q105 0 169 -46 q64 -46 64 -139 q0 -91 -63 -139.5 q-63 -48.5 -167 -48.5 l-143 0 l0 -335 l-57 0 ZM155 659 l0 -276 l140 0 q81 0 128.5 35.5 q47.5 35.5 47.5 104.5 q0 69 -48 102.5 q-48 33.5 -129 33.5 l-139 0 Z" /><glyph glyph-name="Q" unicode="q" d="M121 362 q0 -130 83 -221 q83 -91 217 -91 q133 0 216.5 92.5 q83.5 92.5 83.5 219.5 q0 131 -83.5 222.5 q-83.5 91.5 -216.5 91.5 q-134 0 -217 -91 q-83 -91 -83 -223 ZM825 51 l0 -51 l-405 0 q-154 0 -256.5 102 q-102.5 102 -102.5 260 q0 158 102.5 261.5 q102.5 103.5 257.5 103.5 q154 0 256.5 -104 q102.5 -104 102.5 -261 q0 -102 -51.5 -186 q-51.5 -84 -139.5 -123 l0 -2 l236 0 Z" /><glyph glyph-name="R" unicode="r" d="M155 339 l0 -339 l-57 0 l0 708 l204 0 q236 0 236 -185 q0 -80 -54 -127 q-54 -47 -134 -53 l209 -343 l-69 0 l-202 339 l-133 0 ZM155 659 l0 -271 l139 0 q90 0 138.5 34.5 q48.5 34.5 48.5 100.5 q0 136 -188 136 l-138 0 Z" /><glyph glyph-name="S" unicode="s" d="M491 643 l-41 -37 q-59 72 -156 72 q-64 0 -114 -37.5 q-50 -37.5 -50 -105.5 q0 -42 20.5 -71 q20.5 -29 53.5 -45 q33 -16 72.5 -29 q39.5 -13 79 -28 q39.5 -15 72.5 -35.5 q33 -20.5 53.5 -57.5 q20.5 -37 20.5 -88 q0 -96 -67 -148 q-67 -52 -159 -52 q-136 0 -214 102 l40 35 q74 -87 174 -87 q67 0 117.5 39.5 q50.5 39.5 50.5 107.5 q0 42 -20.5 71.5 q-20.5 29.5 -53 46.5 q-32.5 17 -72 30.5 q-39.5 13.5 -79.5 28.5 q-40 15 -72.5 35.5 q-32.5 20.5 -53 57 q-20.5 36.5 -20.5 87.5 q0 92 67 142 q67 50 157 50 q130 0 194 -84 Z" /><glyph glyph-name="T" unicode="t" d="M309 657 l0 -657 l-57 0 l0 657 l-238 0 l0 51 l533 0 l0 -51 l-238 0 Z" /><glyph glyph-name="U" unicode="u" d="M358 -19 q-74 0 -128.5 25.5 q-54.5 25.5 -83 68.5 q-28.5 43 -41.5 90 q-13 47 -13 100 l0 443 l57 0 l0 -436 q0 -36 5.5 -68.5 q5.5 -32.5 20.5 -64.5 q15 -32 38 -55 q23 -23 60 -37.5 q37 -14.5 85 -14.5 q59 0 101.5 21 q42.5 21 65.5 56.5 q23 35.5 33 76 q10 40.5 10 86.5 l0 436 l57 0 l0 -443 q0 -53 -13 -100 q-13 -47 -41.5 -90 q-28.5 -43 -83 -68.5 q-54.5 -25.5 -129.5 -25.5 Z" /><glyph glyph-name="V" unicode="v" d="M69 708 l239 -637 l2 0 l239 637 l61 0 l-270 -708 l-64 0 l-269 708 l62 0 Z" /><glyph glyph-name="W" unicode="w" d="M78 708 l184 -633 l2 0 l184 633 l71 0 l185 -633 l3 0 l182 633 l60 0 l-210 -708 l-69 0 l-186 632 l-2 0 l-185 -632 l-69 0 l-210 708 l60 0 Z" /><glyph glyph-name="X" unicode="x" d="M95 0 l-71 0 l257 372 l-234 336 l71 0 l198 -292 l196 292 l67 0 l-231 -335 l259 -373 l-71 0 l-221 327 l-220 -327 Z" /><glyph glyph-name="Y" unicode="y" d="M320 306 l0 -306 l-57 0 l0 306 l-259 402 l71 0 l218 -353 l219 353 l66 0 l-258 -402 Z" /><glyph glyph-name="Z" unicode="z" d="M536 708 l0 -51 l-428 -606 l436 0 l0 -51 l-506 0 l0 50 l429 607 l-418 0 l0 51 l487 0 Z" /><glyph glyph-name="bracketleft" unicode="[" d="M220 732 l0 -44 l-103 0 l0 -800 l103 0 l0 -44 l-155 0 l0 888 l155 0 Z" /><glyph glyph-name="backslash" unicode="\" d="M314 -17 l-304 728 l46 16 l304 -729 l-46 -15 Z" /><glyph glyph-name="bracketright" unicode="]" d="M80 -156 l0 44 l103 0 l0 800 l-103 0 l0 44 l155 0 l0 -888 l-155 0 Z" /><glyph glyph-name="asciicircum" unicode="^" d="M85 265 l228 443 l40 0 l228 -443 l-50 0 l-198 389 l-198 -389 l-50 0 Z" /><glyph glyph-name="underscore" unicode="_" d="M0 -122 l0 41 l500 0 l0 -41 l-500 0 Z" /><glyph glyph-name="grave" unicode="`" d="M125 564 l-126 144 l72 0 l101 -144 l-47 0 Z" /><glyph glyph-name="a" unicode="a" d="M218 -13 q-62 0 -111 35 q-49 35 -49 104 q0 48 23.5 80.5 q23.5 32.5 67 48 q43.5 15.5 88.5 21.5 q45 6 104 6 l47 0 l0 21 q0 130 -132 130 q-82 0 -139 -55 l-30 36 q66 64 174 64 q81 0 130 -43 q49 -43 49 -126 l0 -204 q0 -63 8 -105 l-49 0 q-8 48 -8 86 l-2 0 q-55 -99 -171 -99 ZM231 32 q76 0 116.5 49.5 q40.5 49.5 40.5 119.5 l0 38 l-35 0 q-239 0 -239 -110 q0 -50 34.5 -73.5 q34.5 -23.5 82.5 -23.5 Z" /><glyph glyph-name="b" unicode="b" d="M152 92 l-3 0 l0 -92 l-54 0 l0 756 l54 0 l0 -385 l3 0 q29 51 79.5 79 q50.5 28 106.5 28 q106 0 172 -69.5 q66 -69.5 66 -175.5 q0 -106 -66.5 -176 q-66.5 -70 -171.5 -70 q-56 0 -107 27.5 q-51 27.5 -79 77.5 ZM468.5 91 q50.5 57 50.5 142 q0 85 -50.5 142.5 q-50.5 57.5 -135.5 57.5 q-82 0 -136 -57.5 q-54 -57.5 -54 -142.5 q0 -85 54 -142 q54 -57 136 -57 q85 0 135.5 57 Z" /><glyph glyph-name="c" unicode="c" d="M466 405 l-36 -33 q-21 27 -56 43 q-35 16 -73 16 q-83 0 -134.5 -56.5 q-51.5 -56.5 -51.5 -141.5 q0 -85 51 -141 q51 -56 133 -56 q82 0 136 56 l34 -31 q-64 -74 -170 -74 q-108 0 -174 69 q-66 69 -66 177 q0 107 67.5 176 q67.5 69 173.5 69 q108 0 166 -73 Z" /><glyph glyph-name="d" unicode="d" d="M482 92 q-29 -50 -79.5 -77.5 q-50.5 -27.5 -106.5 -27.5 q-105 0 -171.5 70 q-66.5 70 -66.5 176 q0 105 66.5 175 q66.5 70 171.5 70 q56 0 106.5 -28 q50.5 -28 79.5 -79 l2 0 l0 385 l55 0 l0 -756 l-55 0 l0 92 l-2 0 ZM165.5 375.5 q-50.5 -57.5 -50.5 -142.5 q0 -85 50.5 -142 q50.5 -57 135.5 -57 q82 0 135.5 57 q53.5 57 53.5 142 q0 85 -53.5 142.5 q-53.5 57.5 -135.5 57.5 q-85 0 -135.5 -57.5 Z" /><glyph glyph-name="e" unicode="e" d="M115 265 l340 0 q-3 75 -47.5 121.5 q-44.5 46.5 -119.5 46.5 q-74 0 -122 -52.5 q-48 -52.5 -51 -115.5 ZM294 -13 q-102 0 -169 70 q-67 70 -67 177 q0 105 66.5 174.5 q66.5 69.5 164.5 69.5 q105 0 162.5 -65.5 q57.5 -65.5 57.5 -162.5 l0 -28 l-395 0 q2 -77 52 -132.5 q50 -55.5 130 -55.5 q93 0 160 79 l36 -29 q-75 -97 -198 -97 Z" /><glyph glyph-name="f" unicode="f" d="M282 466 l0 -46 l-114 0 l0 -420 l-55 0 l0 420 l-97 0 l0 46 l97 0 l0 139 q0 80 39 121.5 q39 41.5 108 41.5 q32 0 53 -7 l-9 -45 q-18 5 -45 5 q-91 0 -91 -122 l0 -133 l114 0 Z" /><glyph glyph-name="g" unicode="g" d="M74 -151 l35 37 q76 -81 186 -81 q99 0 144 57.5 q45 57.5 45 148.5 l0 91 l-2 0 q-26 -50 -77.5 -78 q-51.5 -28 -108.5 -28 q-106 0 -172 67.5 q-66 67.5 -66 171.5 q0 103 66.5 173 q66.5 70 171.5 70 q57 0 107.5 -28 q50.5 -28 78.5 -79 l2 0 l0 95 l55 0 l0 -455 q0 -48 -11.5 -89.5 q-11.5 -41.5 -37.5 -80.5 q-26 -39 -76.5 -61.5 q-50.5 -22.5 -120.5 -22.5 q-133 0 -219 92 ZM165.5 376 q-50.5 -57 -50.5 -139 q0 -82 50.5 -138.5 q50.5 -56.5 135.5 -56.5 q82 0 135.5 55.5 q53.5 55.5 53.5 139.5 q0 80 -54 138 q-54 58 -135 58 q-85 0 -135.5 -57 Z" /><glyph glyph-name="h" unicode="h" d="M149 375 l2 0 q23 50 67 76.5 q44 26.5 97 26.5 q88 0 131.5 -53.5 q43.5 -53.5 43.5 -140.5 l0 -284 l-54 0 l0 264 q0 168 -133 168 q-64 0 -109 -51 q-45 -51 -45 -144 l0 -237 l-54 0 l0 756 l54 0 l0 -381 Z" /><glyph glyph-name="i" unicode="i" d="M149 466 l0 -466 l-55 0 l0 466 l55 0 ZM149.5 680 q12.5 -12 12.5 -29 q0 -17 -12.5 -29 q-12.5 -12 -28.5 -12 q-16 0 -28 12 q-12 12 -12 29 q0 17 12 29 q12 12 28 12 q16 0 28.5 -12 Z" /><glyph glyph-name="j" unicode="j" d="M-24 -234 l8 45 q20 -5 38 -5 q44 0 58.5 27.5 q14.5 27.5 14.5 79.5 l0 553 l54 0 l0 -560 q0 -68 -28 -107 q-28 -39 -98 -39 q-30 0 -47 6 ZM150.5 680 q12.5 -12 12.5 -29 q0 -17 -12.5 -29 q-12.5 -12 -28.5 -12 q-16 0 -28 12 q-12 12 -12 29 q0 17 12 29 q12 12 28 12 q16 0 28.5 -12 Z" /><glyph glyph-name="k" unicode="k" d="M149 756 l0 -502 l3 0 l222 212 l78 0 l-238 -214 l263 -252 l-80 0 l-245 245 l-3 0 l0 -245 l-54 0 l0 756 l54 0 Z" /><glyph glyph-name="l" unicode="l" d="M149 756 l0 -756 l-54 0 l0 756 l54 0 Z" /><glyph glyph-name="m" unicode="m" d="M94 0 l0 359 q0 66 -4 107 l52 0 q4 -52 4 -93 l2 0 q20 48 63.5 76.5 q43.5 28.5 93.5 28.5 q112 0 149 -111 l2 0 q23 53 66 82 q43 29 101 29 q86 0 129.5 -53.5 q43.5 -53.5 43.5 -140.5 l0 -284 l-54 0 l0 264 q0 76 -30.5 122.5 q-30.5 46.5 -96.5 46.5 q-70 0 -107.5 -54 q-37.5 -54 -37.5 -136 l0 -243 l-55 0 l0 274 q0 159 -119 159 q-60 0 -103.5 -52 q-43.5 -52 -43.5 -144 l0 -237 l-55 0 Z" /><glyph glyph-name="n" unicode="n" d="M90 466 l52 0 q4 -52 4 -93 l2 0 q20 47 67 76 q47 29 100 29 q87 0 130.5 -53 q43.5 -53 43.5 -141 l0 -284 l-54 0 l0 264 q0 168 -132 168 q-65 0 -109.5 -51 q-44.5 -51 -44.5 -144 l0 -237 l-55 0 l0 359 q0 66 -4 107 Z" /><glyph glyph-name="o" unicode="o" d="M550 233 q0 -106 -69 -176 q-69 -70 -177 -70 q-107 0 -176 70 q-69 70 -69 176 q0 107 68.5 176 q68.5 69 176.5 69 q108 0 177 -69 q69 -69 69 -176 ZM442 92 q52 56 52 141 q0 85 -52 141.5 q-52 56.5 -138 56.5 q-85 0 -137 -56.5 q-52 -56.5 -52 -141.5 q0 -85 52 -141 q52 -56 137 -56 q86 0 138 56 Z" /><glyph glyph-name="p" unicode="p" d="M148 90 l0 -330 l-54 0 l0 706 l54 0 l0 -93 l3 0 q29 52 78.5 78.5 q49.5 26.5 106.5 26.5 q106 0 172.5 -69.5 q66.5 -69.5 66.5 -175.5 q0 -106 -65.5 -176 q-65.5 -70 -171.5 -70 q-58 0 -109 26.5 q-51 26.5 -78 76.5 l-3 0 ZM466.5 91 q50.5 57 50.5 142 q0 85 -50.5 142.5 q-50.5 57.5 -135.5 57.5 q-81 0 -134.5 -57.5 q-53.5 -57.5 -53.5 -142.5 q0 -85 53.5 -142 q53.5 -57 134.5 -57 q85 0 135.5 57 Z" /><glyph glyph-name="q" unicode="q" d="M484 92 l-3 0 q-27 -49 -78 -77 q-51 -28 -107 -28 q-105 0 -171.5 70 q-66.5 70 -66.5 176 q0 106 66 175.5 q66 69.5 172 69.5 q56 0 106.5 -28 q50.5 -28 78.5 -79 l3 0 l0 95 l55 0 l0 -706 l-55 0 l0 332 ZM165.5 375.5 q-50.5 -57.5 -50.5 -142.5 q0 -85 50.5 -142 q50.5 -57 135.5 -57 q81 0 134.5 57 q53.5 57 53.5 142 q0 85 -53.5 142.5 q-53.5 57.5 -134.5 57.5 q-85 0 -135.5 -57.5 Z" /><glyph glyph-name="r" unicode="r" d="M94 359 q0 66 -4 107 l52 0 q4 -52 4 -93 l2 0 q19 49 60.5 77 q41.5 28 92.5 28 q25 0 37 -4 l-6 -50 q-14 4 -38 4 q-65 0 -105 -51 q-40 -51 -40 -138 l0 -239 l-55 0 l0 359 Z" /><glyph glyph-name="s" unicode="s" d="M379 399 l-42 -30 q-38 64 -117 64 q-42 0 -73.5 -20.5 q-31.5 -20.5 -31.5 -60.5 q0 -38 27 -56.5 q27 -18.5 90 -32.5 q78 -17 117 -48 q39 -31 39 -86 q0 -70 -49.5 -105.5 q-49.5 -35.5 -119.5 -35.5 q-118 0 -177 87 l43 31 q21 -32 56.5 -52 q35.5 -20 77.5 -20 q48 0 81.5 22.5 q33.5 22.5 33.5 68.5 q0 35 -28 55 q-28 20 -67.5 29.5 q-39.5 9.5 -79.5 21 q-40 11.5 -68 40.5 q-28 29 -28 77 q0 64 46.5 97 q46.5 33 112.5 33 q52 0 93.5 -20.5 q41.5 -20.5 63.5 -58.5 Z" /><glyph glyph-name="t" unicode="t" d="M294 466 l0 -46 l-133 0 l0 -295 q0 -47 19 -66.5 q19 -19.5 55 -19.5 q29 0 57 13 l3 -47 q-36 -13 -74 -13 q-49 0 -81.5 28.5 q-32.5 28.5 -32.5 91.5 l0 308 l-98 0 l0 46 l97 0 l0 133 l55 0 l0 -133 l133 0 Z" /><glyph glyph-name="u" unicode="u" d="M488 0 l-53 0 q-4 50 -4 92 l-2 0 q-19 -47 -66 -76 q-47 -29 -100 -29 q-88 0 -131.5 53.5 q-43.5 53.5 -43.5 140.5 l0 285 l55 0 l0 -264 q0 -169 132 -169 q64 0 109 51.5 q45 51.5 45 144.5 l0 237 l54 0 l0 -359 q0 -57 5 -107 Z" /><glyph glyph-name="v" unicode="v" d="M453 466 l-185 -466 l-62 0 l-188 466 l61 0 l158 -409 l2 0 l156 409 l58 0 Z" /><glyph glyph-name="w" unicode="w" d="M28 466 l58 0 l117 -398 l2 0 l133 398 l55 0 l135 -398 l2 0 l116 398 l57 0 l-144 -466 l-61 0 l-132 396 l-2 0 l-131 -396 l-61 0 l-144 466 Z" /><glyph glyph-name="x" unicode="x" d="M20 0 l183 242 l-169 224 l70 0 l133 -186 l133 186 l66 0 l-167 -222 l186 -244 l-71 0 l-148 205 l-151 -205 l-65 0 Z" /><glyph glyph-name="y" unicode="y" d="M84 -241 q-25 0 -55 7 l7 49 q21 -8 46 -8 q34 0 54.5 21.5 q20.5 21.5 36.5 63.5 l40 105 l-195 469 l61 0 l162 -411 l2 2 l150 409 l59 0 l-232 -596 q-22 -55 -53 -83 q-31 -28 -83 -28 Z" /><glyph glyph-name="z" unicode="z" d="M393 466 l0 -41 l-286 -378 l297 0 l0 -47 l-368 0 l0 40 l287 380 l-272 0 l0 46 l342 0 Z" /><glyph glyph-name="braceleft" unicode="{" d="M0 264 l0 48 q78 0 78 112 l0 183 q0 66 30 95.5 q30 29.5 78 29.5 l58 0 l0 -44 l-48 0 q-65 0 -65 -89 l0 -184 q0 -62 -26.5 -92 q-26.5 -30 -55.5 -34 l0 -2 q29 -4 55.5 -34 q26.5 -30 26.5 -92 l0 -184 q0 -89 65 -89 l48 0 l0 -44 l-58 0 q-48 0 -78 29.5 q-30 29.5 -30 95.5 l0 183 q0 112 -78 112 Z" /><glyph glyph-name="bar" unicode="|" d="M87 750 l48 0 l0 -1000 l-48 0 l0 1000 Z" /><glyph glyph-name="braceright" unicode="}" d="M300 312 l0 -48 q-78 0 -78 -112 l0 -183 q0 -66 -30 -95.5 q-30 -29.5 -78 -29.5 l-58 0 l0 44 l48 0 q65 0 65 89 l0 184 q0 62 26.5 92 q26.5 30 55.5 34 l0 2 q-29 4 -55.5 34 q-26.5 30 -26.5 92 l0 184 q0 89 -65 89 l-48 0 l0 44 l58 0 q48 0 78 -29.5 q30 -29.5 30 -95.5 l0 -183 q0 -112 78 -112 Z" /><glyph glyph-name="asciitilde" unicode="~" d="M542 365 l34 -33 q-58 -92 -134 -92 q-56 0 -108 35 q-38 25 -60 34 q-22 9 -47 9 q-61 0 -102 -76 l-35 32 q62 93 135 93 q55 0 107 -35 q66 -44 108 -44 q56 0 102 77 Z" /><glyph glyph-name="nonbreakingspace" unicode=" " d="" /><glyph glyph-name="exclamdown" unicode="¡" d="M185 288 l0 -515 l-57 0 l0 515 l57 0 ZM201 442 q0 -19 -13 -32.5 q-13 -13.5 -32 -13.5 q-19 0 -32 13.5 q-13 13.5 -13 32.5 q0 18 13 31.5 q13 13.5 32 13.5 q19 0 32 -13.5 q13 -13.5 13 -31.5 Z" /><glyph glyph-name="cent" unicode="¢" d="M340 -72 l-44 0 l0 61 q-95 10 -151.5 77 q-56.5 67 -56.5 167 q0 98 57.5 165.5 q57.5 67.5 150.5 77.5 l0 64 l44 0 l0 -62 q100 -5 155 -73 l-36 -33 q-43 54 -119 59 l0 -395 q74 4 124 56 l34 -31 q-60 -70 -158 -74 l0 -59 ZM144 233 q0 -76 41.5 -130 q41.5 -54 110.5 -65 l0 390 q-70 -12 -111 -66 q-41 -54 -41 -129 Z" /><glyph glyph-name="sterling" unicode="£" d="M405 390 l0 -48 l-169 0 l0 -294 l261 0 l0 -48 l-422 0 l0 48 l104 0 l0 294 l-96 0 l0 48 l96 0 l0 106 q0 99 49.5 164.5 q49.5 65.5 153.5 65.5 q87 0 142 -55 l-35 -40 q-43 46 -109 46 q-55 0 -89 -31 q-34 -31 -44.5 -69.5 q-10.5 -38.5 -10.5 -85.5 l0 -101 l169 0 Z" /><glyph glyph-name="currency" unicode="¤" d="M621 470 q53 -67 53 -161 q0 -97 -57 -165 l94 -94 l-35 -35 q-83 84 -95 94 q-67 -53 -159 -53 q-93 0 -160 55 l-97 -96 l-34 35 l96 96 q-55 64 -55 163 q0 94 51 159 q-6 6 -27 26.5 q-21 20.5 -38.5 38 q-17.5 17.5 -26.5 27.5 l35 35 l92 -92 q69 58 164 58 q96 0 162 -57 q10 9 27 26.5 q17 17.5 37.5 38 q20.5 20.5 26.5 26.5 l36 -35 l-90 -90 ZM562 450 q-53 57 -140 57 q-87 0 -140 -57 q-53 -57 -53 -141 q0 -85 53.5 -142.5 q53.5 -57.5 139.5 -57.5 q86 0 139.5 57.5 q53.5 57.5 53.5 142.5 q0 84 -53 141 Z" /><glyph glyph-name="yen" unicode="¥" d="M87 223 l173 0 l0 113 l-173 0 l0 43 l156 0 l-228 329 l70 0 l204 -309 l202 309 l68 0 l-226 -329 l154 0 l0 -43 l-173 0 l0 -113 l173 0 l0 -44 l-173 0 l0 -179 l-54 0 l0 179 l-173 0 l0 44 Z" /><glyph glyph-name="brokenbar" unicode="¦" d="M88 675 l47 0 l0 -344 l-47 0 l0 344 ZM88 170 l47 0 l0 -344 l-47 0 l0 344 Z" /><glyph glyph-name="section" unicode="§" d="M465 642 l-46 -26 q-31 63 -116 63 q-52 0 -86 -27 q-34 -27 -34 -75 q0 -24 8 -42.5 q8 -18.5 26 -32 q18 -13.5 33 -21 q15 -7.5 41 -18.5 l70 -33 q56 -26 86 -59 q30 -33 30 -85 q0 -51 -29.5 -86 q-29.5 -35 -73.5 -47 q82 -44 82 -127 q0 -77 -53 -118 q-53 -41 -131 -41 q-64 0 -113.5 25.5 q-49.5 25.5 -74.5 75.5 l51 27 q37 -80 138 -80 q50 0 88 26 q38 26 38 80 q0 67 -93 107 l-100 48 q-53 24 -80 54 q-27 30 -27 84 q0 50 32 85 q32 35 80 49 q-38 20 -61.5 48 q-23.5 28 -23.5 76 q0 74 52 114.5 q52 40.5 127 40.5 q59 0 100.5 -23.5 q41.5 -23.5 59.5 -61.5 ZM313 394 l-55 23 q-40 -4 -71.5 -29.5 q-31.5 -25.5 -31.5 -71.5 q0 -42 27 -64.5 q27 -22.5 87 -46.5 l59 -26 q38 6 65.5 31.5 q27.5 25.5 27.5 68.5 q0 44 -27 68 q-27 24 -81 47 Z" /><glyph glyph-name="dieresis" unicode="¨" d="M-13 651 q0 17 12.5 30 q12.5 13 30.5 13 q18 0 30 -13 q12 -13 12 -30 q0 -18 -12 -31 q-12 -13 -30 -13 q-18 0 -30.5 13 q-12.5 13 -12.5 31 ZM168 651 q0 17 12 30 q12 13 30 13 q18 0 30.5 -13 q12.5 -13 12.5 -30 q0 -18 -12.5 -31 q-12.5 -13 -30.5 -13 q-18 0 -30 13 q-12 13 -12 31 Z" /><glyph glyph-name="copyright" unicode="©" d="M532 239 l41 -28 q-26 -36 -68 -58 q-42 -22 -93 -22 q-96 0 -159.5 64 q-63.5 64 -63.5 162 q0 97 63.5 161 q63.5 64 159.5 64 q46 0 88 -19.5 q42 -19.5 67 -53.5 l-42 -32 q-18 24 -48.5 40.5 q-30.5 16.5 -63.5 16.5 q-75 0 -122 -52 q-47 -52 -47 -125 q0 -74 46 -126 q46 -52 122 -52 q74 0 120 60 ZM20 353 q0 157 111.5 267 q111.5 110 269.5 110 q157 0 268 -110 q111 -110 111 -267 q0 -156 -111 -265.5 q-111 -109.5 -268 -109.5 q-158 0 -269.5 109.5 q-111.5 109.5 -111.5 265.5 ZM69 353 q0 -136 97.5 -232.5 q97.5 -96.5 234.5 -96.5 q137 0 233.5 96.5 q96.5 96.5 96.5 232.5 q0 137 -96.5 234 q-96.5 97 -233.5 97 q-137 0 -234.5 -97 q-97.5 -97 -97.5 -234 Z" /><glyph glyph-name="ordfeminine" unicode="ª" d="M251 605 l0 9 q0 34 -21 51.5 q-21 17.5 -57 17.5 q-54 0 -88 -34 l-26 30 q44 41 117 41 q58 0 88.5 -29.5 q30.5 -29.5 30.5 -78.5 l0 -123 q0 -38 4 -58 l-42 0 q-5 22 -5 48 l-2 0 q-33 -55 -104 -55 q-41 0 -72 21 q-31 21 -31 65 q0 31 17 51 q17 20 50 29 q33 9 64.5 12 q31.5 3 76.5 3 ZM251 572 l-15 0 q-146 0 -146 -61 q0 -50 67 -50 q43 0 68.5 26 q25.5 26 25.5 66 l0 19 Z" /><glyph glyph-name="guillemotleft" unicode="«" d="M233 418 l-114 -179 l115 -179 l-38 -26 l-135 205 l135 205 l37 -26 ZM411 418 l-115 -179 l115 -179 l-38 -26 l-135 205 l135 205 l38 -26 Z" /><glyph glyph-name="logicalnot" unicode="¬" d="M584 405 l0 -274 l-49 0 l0 227 l-452 0 l0 47 l501 0 Z" /><glyph glyph-name="uni00AD" unicode="­" d="M262 269 l0 -46 l-210 0 l0 46 l210 0 Z" /><glyph glyph-name="registered" unicode="®" d="M138.5 333.5 q-66.5 65.5 -66.5 159.5 q0 94 66.5 160.5 q66.5 66.5 161.5 66.5 q95 0 161.5 -66.5 q66.5 -66.5 66.5 -160.5 q0 -94 -66.5 -159.5 q-66.5 -65.5 -161.5 -65.5 q-95 0 -161.5 65.5 ZM104 493 q0 -80 57.5 -138 q57.5 -58 138.5 -58 q81 0 138.5 58 q57.5 58 57.5 138 q0 81 -57.5 138.5 q-57.5 57.5 -138.5 57.5 q-81 0 -138.5 -57.5 q-57.5 -57.5 -57.5 -138.5 ZM215 367 l0 255 l88 0 q40 0 65.5 -18 q25.5 -18 25.5 -56 q0 -28 -17 -45.5 q-17 -17.5 -44 -22.5 l71 -113 l-47 0 l-64 108 l-40 0 l0 -108 l-38 0 ZM253 506 l41 0 q62 0 62 43 q0 40 -54 40 l-49 0 l0 -83 Z" /><glyph glyph-name="macron" unicode="¯" d="M249 650 l0 -44 l-258 0 l0 44 l258 0 Z" /><glyph glyph-name="degree" unicode="°" d="M305.5 676.5 q42.5 -42.5 42.5 -105.5 q0 -63 -42.5 -105.5 q-42.5 -42.5 -105.5 -42.5 q-63 0 -105.5 42.5 q-42.5 42.5 -42.5 105.5 q0 63 42.5 105.5 q42.5 42.5 105.5 42.5 q63 0 105.5 -42.5 ZM276.5 494.5 q31.5 31.5 31.5 76.5 q0 45 -31.5 76.5 q-31.5 31.5 -76.5 31.5 q-45 0 -76.5 -31.5 q-31.5 -31.5 -31.5 -76.5 q0 -45 31.5 -76.5 q31.5 -31.5 76.5 -31.5 q45 0 76.5 31.5 Z" /><glyph glyph-name="plusminus" unicode="±" d="M83 346 l0 48 l225 0 l0 168 l48 0 l0 -168 l228 0 l0 -48 l-227 0 l0 -164 l-49 0 l0 164 l-225 0 ZM84 48 l0 48 l498 0 l0 -48 l-498 0 Z" /><glyph glyph-name="twosuperior" unicode="²" d="M313 496 l0 -44 l-268 0 l0 46 l163 169 q51 52 52 100 q0 33 -21 52 q-21 19 -54 19 q-31 0 -53 -18.5 q-22 -18.5 -30 -52.5 l-47 8 q10 49 46 78 q36 29 84 29 q55 0 90.5 -30.5 q35.5 -30.5 35.5 -82.5 q0 -39 -18 -68 q-18 -29 -57 -69 l-132 -136 l209 0 Z" /><glyph glyph-name="threesuperior" unicode="³" d="M174 444 q-97 0 -135 88 l45 16 q12 -29 36.5 -45 q24.5 -16 53.5 -16 q38 0 62.5 22 q24.5 22 24.5 61 q0 41 -30 61 q-30 20 -73 20 l-24 0 l0 41 l24 0 q42 0 66.5 20.5 q24.5 20.5 24.5 57.5 q0 31 -22 50.5 q-22 19.5 -54 19.5 q-51 0 -78 -48 l-39 21 q41 69 119 69 q54 0 87.5 -29.5 q33.5 -29.5 33.5 -82.5 q0 -69 -64 -94 l-3 -2 q80 -23 80 -105 q0 -59 -38.5 -92 q-38.5 -33 -96.5 -33 Z" /><glyph glyph-name="acute" unicode="´" d="M241 708 l-126 -144 l-47 0 l101 144 l72 0 Z" /><glyph glyph-name="mu" unicode="µ" d="M79 -228 l0 694 l52 0 l0 -264 q0 -83 30 -125 q30 -42 103 -42 q67 0 110.5 52 q43.5 52 43.5 142 l0 237 l53 0 l0 -359 q0 -43 4 -107 l-57 0 l0 89 l-2 0 q-22 -44 -68 -73 q-46 -29 -96 -29 q-78 0 -121 46 l0 -261 l-52 0 Z" /><glyph glyph-name="paragraph" unicode="¶" d="M506 708 l0 -834 l-53 0 l0 791 l-133 0 l0 -791 l-53 0 l0 449 q-92 0 -151.5 53 q-59.5 53 -59.5 131 q0 95 60.5 148 q60.5 53 166.5 53 l223 0 Z" /><glyph glyph-name="periodcentered" unicode="·" d="M159 328 q13 -14 13 -32 q0 -18 -13 -31.5 q-13 -13.5 -32 -13.5 q-19 0 -32 13.5 q-13 13.5 -13 31.5 q0 18 13 32 q13 14 32 14 q19 0 32 -14 Z" /><glyph glyph-name="cedilla" unicode="¸" d="M150 0 l-50 -78 q15 5 40 5 q33 0 58.5 -18.5 q25.5 -18.5 25.5 -52.5 q0 -45 -35 -65 q-35 -20 -81 -20 q-50 0 -93 20 l13 31 q33 -16 76 -16 q26 0 49 12 q23 12 23 37 q0 43 -60 43 q-28 0 -51 -10 l-15 13 l64 99 l36 0 Z" /><glyph glyph-name="onesuperior" unicode="¹" d="M220 873 l0 -421 l-50 0 l0 361 l-73 -59 l-30 34 l111 85 l42 0 Z" /><glyph glyph-name="ordmasculine" unicode="º" d="M328 572 q0 -64 -42 -106 q-42 -42 -107 -42 q-65 0 -107.5 42 q-42.5 42 -42.5 106 q0 65 42.5 106.5 q42.5 41.5 107.5 41.5 q65 0 107 -41.5 q42 -41.5 42 -106.5 ZM253.5 493 q27.5 32 27.5 79 q0 47 -27 79 q-27 32 -75 32 q-48 0 -75.5 -32 q-27.5 -32 -27.5 -79 q0 -47 27.5 -79 q27.5 -32 75.5 -32 q47 0 74.5 32 Z" /><glyph glyph-name="guillemotright" unicode="»" d="M248 60 l115 179 l-115 179 l38 27 l135 -206 l-135 -205 l-38 26 ZM71 60 l115 179 l-115 179 l38 27 l135 -206 l-135 -205 l-38 26 Z" /><glyph glyph-name="onequarter" unicode="¼" d="M707 423 l0 -279 l63 0 l0 -43 l-63 0 l0 -101 l-44 0 l0 101 l-190 0 l0 43 l178 279 l56 0 ZM663 359 l-3 0 l-137 -215 l140 0 l0 215 ZM220 708 l0 -421 l-50 0 l0 361 l-73 -59 l-30 34 l111 85 l42 0 ZM651 716 l-447 -746 l-42 22 l448 746 l41 -22 Z" /><glyph glyph-name="onehalf" unicode="½" d="M768 43 l0 -43 l-268 0 l0 46 l164 169 q51 52 52 100 q0 32 -21.5 51.5 q-21.5 19.5 -54.5 19.5 q-30 0 -52 -19 q-22 -19 -30 -53 l-48 8 q10 49 46 78.5 q36 29.5 84 29.5 q56 0 91.5 -30.5 q35.5 -30.5 35.5 -83.5 q0 -27 -11 -51.5 q-11 -24.5 -24 -40.5 q-13 -16 -41 -45 l-131 -136 l208 0 ZM651 716 l-447 -746 l-42 22 l448 746 l41 -22 ZM220 708 l0 -421 l-50 0 l0 361 l-73 -59 l-30 34 l137 85 l16 0 Z" /><glyph glyph-name="threequarters" unicode="¾" d="M663 0 l0 101 l-190 0 l0 43 l178 279 l56 0 l0 -279 l63 0 l0 -43 l-63 0 l0 -101 l-44 0 ZM174 282 q-97 0 -135 88 l45 16 q12 -29 36.5 -45 q24.5 -16 53.5 -16 q38 0 62.5 22 q24.5 22 24.5 61 q0 41 -30 61 q-30 20 -73 20 l-24 0 l0 41 l24 0 q42 0 66.5 20.5 q24.5 20.5 24.5 57.5 q0 31 -22 50.5 q-22 19.5 -54 19.5 q-51 0 -78 -48 l-39 21 q41 69 119 69 q54 0 87.5 -29.5 q33.5 -29.5 33.5 -82.5 q0 -71 -67 -96 l1 -1 q37 -10 58 -37.5 q21 -27.5 21 -66.5 q0 -59 -38.5 -92 q-38.5 -33 -96.5 -33 ZM523 144 l140 0 l0 215 l-3 0 l-137 -215 ZM651 716 l-447 -746 l-42 22 l448 746 l41 -22 Z" /><glyph glyph-name="questiondown" unicode="¿" d="M216 241 l0 46 l56 0 l0 -58 q0 -47 -19.5 -81 q-19.5 -34 -57.5 -67 l-30 -26 q-61 -52 -61 -119 q0 -59 38.5 -93 q38.5 -34 96.5 -34 q57 0 94.5 34.5 q37.5 34.5 45.5 90.5 l54 -9 q-14 -77 -67 -121.5 q-53 -44.5 -129 -44.5 q-82 0 -136 46.5 q-54 46.5 -54 127.5 q0 40 14 72 q14 32 29.5 48.5 q15.5 16.5 47.5 43.5 q47 39 62.5 66 q15.5 27 15.5 78 ZM194 442 q0 18 12.5 31.5 q12.5 13.5 31.5 13.5 q19 0 32 -13.5 q13 -13.5 13 -31.5 q0 -19 -13 -32.5 q-13 -13.5 -32 -13.5 q-19 0 -31.5 13.5 q-12.5 13.5 -12.5 32.5 Z" /><glyph glyph-name="Agrave" unicode="à" d="M155 191 l-80 -191 l-63 0 l307 708 l57 0 l301 -708 l-63 0 l-80 191 l-379 0 ZM346 648 l-170 -405 l337 0 l-167 405 ZM327 764 l-126 144 l72 0 l101 -144 l-47 0 Z" /><glyph glyph-name="Aacute" unicode="á" d="M155 191 l-80 -191 l-63 0 l307 708 l57 0 l301 -708 l-63 0 l-80 191 l-379 0 ZM346 648 l-170 -405 l337 0 l-167 405 ZM494 908 l-126 -144 l-47 0 l101 144 l72 0 Z" /><glyph glyph-name="Acircumflex" unicode="â" d="M155 191 l-80 -191 l-63 0 l307 708 l57 0 l301 -708 l-63 0 l-80 191 l-379 0 ZM346 648 l-170 -405 l337 0 l-167 405 ZM377 908 l107 -144 l-53 0 l-86 115 l-86 -115 l-53 0 l107 144 l64 0 Z" /><glyph glyph-name="Atilde" unicode="ã" d="M155 191 l-80 -191 l-63 0 l307 708 l57 0 l301 -708 l-63 0 l-80 191 l-379 0 ZM346 648 l-170 -405 l337 0 l-167 405 ZM233 781 l-35 0 q15 94 82 94 q22 0 71 -23.5 q49 -23.5 64 -23.5 q35 0 46 49 l35 0 q-15 -93 -81 -93 q-23 0 -71 23.5 q-48 23.5 -64 23.5 q-36 0 -47 -50 Z" /><glyph glyph-name="Adieresis" unicode="ä" d="M155 191 l-80 -191 l-63 0 l307 708 l57 0 l301 -708 l-63 0 l-80 191 l-379 0 ZM346 648 l-170 -405 l337 0 l-167 405 ZM214 851 q0 17 12.5 30 q12.5 13 30.5 13 q18 0 30 -13 q12 -13 12 -30 q0 -18 -12 -31 q-12 -13 -30 -13 q-18 0 -30.5 13 q-12.5 13 -12.5 31 ZM395 851 q0 17 12 30 q12 13 30 13 q18 0 30.5 -13 q12.5 -13 12.5 -30 q0 -18 -12.5 -31 q-12.5 -13 -30.5 -13 q-18 0 -30 13 q-12 13 -12 31 Z" /><glyph glyph-name="Aring" unicode="å" d="M155 191 l-80 -191 l-63 0 l307 708 l57 0 l301 -708 l-63 0 l-80 191 l-379 0 ZM346 648 l-170 -405 l337 0 l-167 405 ZM413.5 917.5 q28.5 -27.5 28.5 -67.5 q0 -40 -28.5 -67.5 q-28.5 -27.5 -67.5 -27.5 q-39 0 -67.5 27.5 q-28.5 27.5 -28.5 67.5 q0 40 28.5 67.5 q28.5 27.5 67.5 27.5 q39 0 67.5 -27.5 ZM392 804 q19 19 19 46 q0 27 -19 46 q-19 19 -46 19 q-27 0 -46 -19 q-19 -19 -19 -46 q0 -27 19 -46 q19 -19 46 -19 q27 0 46 19 Z" /><glyph glyph-name="AE" unicode="æ" d="M568 343 l0 -292 l361 0 l0 -51 l-418 0 l0 200 l-298 0 l-130 -200 l-65 0 l460 708 l437 0 l0 -51 l-347 0 l0 -264 l323 0 l0 -50 l-323 0 ZM243 251 l268 0 l0 406 l-6 0 l-262 -406 Z" /><glyph glyph-name="Ccedilla" unicode="ç" d="M645 136 l39 -31 q-94 -123 -255 -124 l-38 -59 q15 5 40 5 q33 0 58.5 -18.5 q25.5 -18.5 25.5 -52.5 q0 -45 -35 -65 q-35 -20 -81 -20 q-50 0 -93 20 l13 31 q33 -16 76 -16 q26 0 49 12 q23 12 23 37 q0 43 -60 43 q-28 0 -51 -10 l-15 13 l52 81 q-147 11 -239.5 114.5 q-92.5 103.5 -92.5 257.5 q0 162 104 267.5 q104 105.5 262 105.5 q78 0 142 -27 q64 -27 102 -76 l-41 -38 q-32 40 -85.5 65 q-53.5 25 -116.5 25 q-138 0 -222.5 -93.5 q-84.5 -93.5 -84.5 -228.5 q0 -135 84.5 -228.5 q84.5 -93.5 222.5 -93.5 q133 0 217 104 Z" /><glyph glyph-name="Egrave" unicode="è" d="M154 343 l0 -292 l388 0 l0 -51 l-444 0 l0 708 l431 0 l0 -51 l-375 0 l0 -264 l351 0 l0 -50 l-351 0 ZM317 764 l-126 144 l72 0 l101 -144 l-47 0 Z" /><glyph glyph-name="Eacute" unicode="é" d="M154 343 l0 -292 l388 0 l0 -51 l-444 0 l0 708 l431 0 l0 -51 l-375 0 l0 -264 l351 0 l0 -50 l-351 0 ZM445 908 l-126 -144 l-47 0 l101 144 l72 0 Z" /><glyph glyph-name="Ecircumflex" unicode="ê" d="M154 343 l0 -292 l388 0 l0 -51 l-444 0 l0 708 l431 0 l0 -51 l-375 0 l0 -264 l351 0 l0 -50 l-351 0 ZM347 908 l107 -144 l-53 0 l-86 115 l-86 -115 l-53 0 l107 144 l64 0 Z" /><glyph glyph-name="Edieresis" unicode="ë" d="M154 343 l0 -292 l388 0 l0 -51 l-444 0 l0 708 l431 0 l0 -51 l-375 0 l0 -264 l351 0 l0 -50 l-351 0 ZM183 851 q0 17 12.5 30 q12.5 13 30.5 13 q18 0 30 -13 q12 -13 12 -30 q0 -18 -12 -31 q-12 -13 -30 -13 q-18 0 -30.5 13 q-12.5 13 -12.5 31 ZM364 851 q0 17 12 30 q12 13 30 13 q18 0 30.5 -13 q12.5 -13 12.5 -30 q0 -18 -12.5 -31 q-12.5 -13 -30.5 -13 q-18 0 -30 13 q-12 13 -12 31 Z" /><glyph glyph-name="Igrave" unicode="ì" d="M155 708 l0 -708 l-57 0 l0 708 l57 0 ZM107 764 l-126 144 l72 0 l101 -144 l-47 0 Z" /><glyph glyph-name="Iacute" unicode="í" d="M155 708 l0 -708 l-57 0 l0 708 l57 0 ZM270 908 l-126 -144 l-47 0 l101 144 l72 0 Z" /><glyph glyph-name="Icircumflex" unicode="î" d="M155 708 l0 -708 l-57 0 l0 708 l57 0 ZM157 908 l107 -144 l-53 0 l-86 115 l-86 -115 l-53 0 l107 144 l64 0 Z" /><glyph glyph-name="Idieresis" unicode="ï" d="M155 708 l0 -708 l-57 0 l0 708 l57 0 ZM-7 851 q0 17 12.5 30 q12.5 13 30.5 13 q18 0 30 -13 q12 -13 12 -30 q0 -18 -12 -31 q-12 -13 -30 -13 q-18 0 -30.5 13 q-12.5 13 -12.5 31 ZM174 851 q0 17 12 30 q12 13 30 13 q18 0 30.5 -13 q12.5 -13 12.5 -30 q0 -18 -12.5 -31 q-12.5 -13 -30.5 -13 q-18 0 -30 13 q-12 13 -12 31 Z" /><glyph glyph-name="Eth" unicode="ð" d="M92 0 l0 350 l-75 0 l0 44 l75 0 l0 314 l225 0 q73 0 139.5 -22 q66.5 -22 120 -64.5 q53.5 -42.5 85.5 -112 q32 -69.5 32 -155.5 q0 -86 -32 -155.5 q-32 -69.5 -85.5 -112 q-53.5 -42.5 -120 -64.5 q-66.5 -22 -139.5 -22 l-225 0 ZM149 350 l0 -298 l150 0 q156 0 245 84.5 q89 84.5 89 217.5 q0 134 -88.5 218 q-88.5 84 -245.5 84 l-150 0 l0 -262 l261 0 l0 -44 l-261 0 Z" /><glyph glyph-name="Ntilde" unicode="ñ" d="M170 708 l441 -626 l2 0 l0 626 l57 0 l0 -708 l-72 0 l-441 630 l-2 0 l0 -630 l-57 0 l0 708 l72 0 ZM274 781 l-35 0 q15 94 82 94 q22 0 71 -23.5 q49 -23.5 64 -23.5 q35 0 46 49 l35 0 q-15 -93 -81 -93 q-23 0 -71 23.5 q-48 23.5 -64 23.5 q-36 0 -47 -50 Z" /><glyph glyph-name="Ograve" unicode="ò" d="M691.5 621.5 q104.5 -105.5 104.5 -267.5 q0 -162 -104.5 -267.5 q-104.5 -105.5 -263.5 -105.5 q-158 0 -262.5 105.5 q-104.5 105.5 -104.5 267.5 q0 162 104.5 267.5 q104.5 105.5 262.5 105.5 q159 0 263.5 -105.5 ZM651 125.5 q85 93.5 85 228.5 q0 135 -85.5 228.5 q-85.5 93.5 -222.5 93.5 q-137 0 -222 -93.5 q-85 -93.5 -85 -228.5 q0 -135 85 -228.5 q85 -93.5 222 -93.5 q138 0 223 93.5 ZM443 764 l-126 144 l72 0 l101 -144 l-47 0 Z" /><glyph glyph-name="Oacute" unicode="ó" d="M691.5 621.5 q104.5 -105.5 104.5 -267.5 q0 -162 -104.5 -267.5 q-104.5 -105.5 -263.5 -105.5 q-158 0 -262.5 105.5 q-104.5 105.5 -104.5 267.5 q0 162 104.5 267.5 q104.5 105.5 262.5 105.5 q159 0 263.5 -105.5 ZM651 125.5 q85 93.5 85 228.5 q0 135 -85.5 228.5 q-85.5 93.5 -222.5 93.5 q-137 0 -222 -93.5 q-85 -93.5 -85 -228.5 q0 -135 85 -228.5 q85 -93.5 222 -93.5 q138 0 223 93.5 ZM553 908 l-126 -144 l-47 0 l101 144 l72 0 Z" /><glyph glyph-name="Ocircumflex" unicode="ô" d="M691.5 621.5 q104.5 -105.5 104.5 -267.5 q0 -162 -104.5 -267.5 q-104.5 -105.5 -263.5 -105.5 q-158 0 -262.5 105.5 q-104.5 105.5 -104.5 267.5 q0 162 104.5 267.5 q104.5 105.5 262.5 105.5 q159 0 263.5 -105.5 ZM651 125.5 q85 93.5 85 228.5 q0 135 -85.5 228.5 q-85.5 93.5 -222.5 93.5 q-137 0 -222 -93.5 q-85 -93.5 -85 -228.5 q0 -135 85 -228.5 q85 -93.5 222 -93.5 q138 0 223 93.5 ZM460 908 l107 -144 l-53 0 l-86 115 l-86 -115 l-53 0 l107 144 l64 0 Z" /><glyph glyph-name="Otilde" unicode="õ" d="M691.5 621.5 q104.5 -105.5 104.5 -267.5 q0 -162 -104.5 -267.5 q-104.5 -105.5 -263.5 -105.5 q-158 0 -262.5 105.5 q-104.5 105.5 -104.5 267.5 q0 162 104.5 267.5 q104.5 105.5 262.5 105.5 q159 0 263.5 -105.5 ZM651 125.5 q85 93.5 85 228.5 q0 135 -85.5 228.5 q-85.5 93.5 -222.5 93.5 q-137 0 -222 -93.5 q-85 -93.5 -85 -228.5 q0 -135 85 -228.5 q85 -93.5 222 -93.5 q138 0 223 93.5 ZM315 781 l-35 0 q15 94 82 94 q22 0 71 -23.5 q49 -23.5 64 -23.5 q35 0 46 49 l35 0 q-15 -93 -81 -93 q-23 0 -71 23.5 q-48 23.5 -64 23.5 q-36 0 -47 -50 Z" /><glyph glyph-name="Odieresis" unicode="ö" d="M691.5 621.5 q104.5 -105.5 104.5 -267.5 q0 -162 -104.5 -267.5 q-104.5 -105.5 -263.5 -105.5 q-158 0 -262.5 105.5 q-104.5 105.5 -104.5 267.5 q0 162 104.5 267.5 q104.5 105.5 262.5 105.5 q159 0 263.5 -105.5 ZM651 125.5 q85 93.5 85 228.5 q0 135 -85.5 228.5 q-85.5 93.5 -222.5 93.5 q-137 0 -222 -93.5 q-85 -93.5 -85 -228.5 q0 -135 85 -228.5 q85 -93.5 222 -93.5 q138 0 223 93.5 ZM296 851 q0 17 12.5 30 q12.5 13 30.5 13 q18 0 30 -13 q12 -13 12 -30 q0 -18 -12 -31 q-12 -13 -30 -13 q-18 0 -30.5 13 q-12.5 13 -12.5 31 ZM477 851 q0 17 12 30 q12 13 30 13 q18 0 30.5 -13 q12.5 -13 12.5 -30 q0 -18 -12.5 -31 q-12.5 -13 -30.5 -13 q-18 0 -30 13 q-12 13 -12 31 Z" /><glyph glyph-name="multiply" unicode="×" d="M168 504 l165 -165 l165 165 l34 -34 l-165 -166 l165 -165 l-34 -34 l-165 165 l-165 -165 l-33 34 l165 165 l-165 166 l33 34 Z" /><glyph glyph-name="Oslash" unicode="ø" d="M763 699 l-73 -81 q102 -105 102 -264 q0 -162 -104.5 -267.5 q-104.5 -105.5 -263.5 -105.5 q-138 0 -237 83 l-74 -80 l-30 28 l73 81 q-99 104 -99 261 q0 162 104.5 267.5 q104.5 105.5 262.5 105.5 q137 0 235 -81 l74 80 l30 -27 ZM652 576 l-428 -472 q82 -72 200 -72 q139 0 223.5 93.5 q84.5 93.5 84.5 228.5 q0 134 -80 222 ZM195 134 l428 472 q-80 70 -199 70 q-138 0 -222.5 -93.5 q-84.5 -93.5 -84.5 -228.5 q0 -133 78 -220 Z" /><glyph glyph-name="Ugrave" unicode="ù" d="M358 -19 q-74 0 -128.5 25.5 q-54.5 25.5 -83 68.5 q-28.5 43 -41.5 90 q-13 47 -13 100 l0 443 l57 0 l0 -436 q0 -36 5.5 -68.5 q5.5 -32.5 20.5 -64.5 q15 -32 38 -55 q23 -23 60 -37.5 q37 -14.5 85 -14.5 q59 0 101.5 21 q42.5 21 65.5 56.5 q23 35.5 33 76 q10 40.5 10 86.5 l0 436 l57 0 l0 -443 q0 -53 -13 -100 q-13 -47 -41.5 -90 q-28.5 -43 -83 -68.5 q-54.5 -25.5 -129.5 -25.5 ZM364 764 l-126 144 l72 0 l101 -144 l-47 0 Z" /><glyph glyph-name="Uacute" unicode="ú" d="M358 -19 q-74 0 -128.5 25.5 q-54.5 25.5 -83 68.5 q-28.5 43 -41.5 90 q-13 47 -13 100 l0 443 l57 0 l0 -436 q0 -36 5.5 -68.5 q5.5 -32.5 20.5 -64.5 q15 -32 38 -55 q23 -23 60 -37.5 q37 -14.5 85 -14.5 q59 0 101.5 21 q42.5 21 65.5 56.5 q23 35.5 33 76 q10 40.5 10 86.5 l0 436 l57 0 l0 -443 q0 -53 -13 -100 q-13 -47 -41.5 -90 q-28.5 -43 -83 -68.5 q-54.5 -25.5 -129.5 -25.5 ZM484 908 l-126 -144 l-47 0 l101 144 l72 0 Z" /><glyph glyph-name="Ucircumflex" unicode="û" d="M358 -19 q-74 0 -128.5 25.5 q-54.5 25.5 -83 68.5 q-28.5 43 -41.5 90 q-13 47 -13 100 l0 443 l57 0 l0 -436 q0 -36 5.5 -68.5 q5.5 -32.5 20.5 -64.5 q15 -32 38 -55 q23 -23 60 -37.5 q37 -14.5 85 -14.5 q59 0 101.5 21 q42.5 21 65.5 56.5 q23 35.5 33 76 q10 40.5 10 86.5 l0 436 l57 0 l0 -443 q0 -53 -13 -100 q-13 -47 -41.5 -90 q-28.5 -43 -83 -68.5 q-54.5 -25.5 -129.5 -25.5 ZM390 908 l107 -144 l-53 0 l-86 115 l-86 -115 l-53 0 l107 144 l64 0 Z" /><glyph glyph-name="Udieresis" unicode="ü" d="M358 -19 q-74 0 -128.5 25.5 q-54.5 25.5 -83 68.5 q-28.5 43 -41.5 90 q-13 47 -13 100 l0 443 l57 0 l0 -436 q0 -36 5.5 -68.5 q5.5 -32.5 20.5 -64.5 q15 -32 38 -55 q23 -23 60 -37.5 q37 -14.5 85 -14.5 q59 0 101.5 21 q42.5 21 65.5 56.5 q23 35.5 33 76 q10 40.5 10 86.5 l0 436 l57 0 l0 -443 q0 -53 -13 -100 q-13 -47 -41.5 -90 q-28.5 -43 -83 -68.5 q-54.5 -25.5 -129.5 -25.5 ZM226 851 q0 17 12.5 30 q12.5 13 30.5 13 q18 0 30 -13 q12 -13 12 -30 q0 -18 -12 -31 q-12 -13 -30 -13 q-18 0 -30.5 13 q-12.5 13 -12.5 31 ZM407 851 q0 17 12 30 q12 13 30 13 q18 0 30.5 -13 q12.5 -13 12.5 -30 q0 -18 -12.5 -31 q-12.5 -13 -30.5 -13 q-18 0 -30 13 q-12 13 -12 31 Z" /><glyph glyph-name="Yacute" unicode="ý" d="M320 306 l0 -306 l-57 0 l0 306 l-259 402 l71 0 l218 -353 l219 353 l66 0 l-258 -402 ZM441 908 l-126 -144 l-47 0 l101 144 l72 0 Z" /><glyph glyph-name="Thorn" unicode="þ" d="M98 0 l0 708 l57 0 l0 -156 l140 0 q105 0 169 -46 q64 -46 64 -139 q0 -91 -63 -139.5 q-63 -48.5 -167 -48.5 l-143 0 l0 -179 l-57 0 ZM155 502 l0 -273 l136 0 q82 0 129 35 q47 35 47 103 q0 69 -48 102 q-48 33 -130 33 l-134 0 Z" /><glyph glyph-name="germandbls" unicode="ß" d="M146 540 l0 -540 l-54 0 l0 542 q0 45 11 83.5 q11 38.5 34 71.5 q23 33 64.5 52 q41.5 19 97.5 19 q79 0 134 -48 q55 -48 55 -128 q0 -123 -122 -161 l0 -2 q77 -9 125.5 -65 q48.5 -56 48.5 -145 q0 -104 -64 -167 q-64 -63 -171 -63 q-32 0 -53 4 l0 46 q30 -4 48 -4 q84 0 133.5 50 q49.5 50 49.5 135 q0 90 -54 137 q-54 47 -144 47 l-11 0 l0 48 l11 0 q66 0 107 35 q41 35 41 101 q0 62 -38.5 97 q-38.5 35 -97.5 35 q-44 0 -75 -16 q-31 -16 -46.5 -44 q-15.5 -28 -22.5 -57 q-7 -29 -7 -63 Z" /><glyph glyph-name="agrave" unicode="à" d="M218 -13 q-62 0 -111 35 q-49 35 -49 104 q0 48 23.5 80.5 q23.5 32.5 67 48 q43.5 15.5 88.5 21.5 q45 6 104 6 l47 0 l0 21 q0 130 -132 130 q-82 0 -139 -55 l-30 36 q66 64 174 64 q81 0 130 -43 q49 -43 49 -126 l0 -204 q0 -63 8 -105 l-49 0 q-8 48 -8 86 l-2 0 q-55 -99 -171 -99 ZM231 32 q76 0 116.5 49.5 q40.5 49.5 40.5 119.5 l0 38 l-35 0 q-239 0 -239 -110 q0 -50 34.5 -73.5 q34.5 -23.5 82.5 -23.5 ZM276 564 l-126 144 l72 0 l101 -144 l-47 0 Z" /><glyph glyph-name="aacute" unicode="á" d="M218 -13 q-62 0 -111 35 q-49 35 -49 104 q0 48 23.5 80.5 q23.5 32.5 67 48 q43.5 15.5 88.5 21.5 q45 6 104 6 l47 0 l0 21 q0 130 -132 130 q-82 0 -139 -55 l-30 36 q66 64 174 64 q81 0 130 -43 q49 -43 49 -126 l0 -204 q0 -63 8 -105 l-49 0 q-8 48 -8 86 l-2 0 q-55 -99 -171 -99 ZM231 32 q76 0 116.5 49.5 q40.5 49.5 40.5 119.5 l0 38 l-35 0 q-239 0 -239 -110 q0 -50 34.5 -73.5 q34.5 -23.5 82.5 -23.5 ZM393 708 l-126 -144 l-47 0 l101 144 l72 0 Z" /><glyph glyph-name="acircumflex" unicode="â" d="M218 -13 q-62 0 -111 35 q-49 35 -49 104 q0 48 23.5 80.5 q23.5 32.5 67 48 q43.5 15.5 88.5 21.5 q45 6 104 6 l47 0 l0 21 q0 130 -132 130 q-82 0 -139 -55 l-30 36 q66 64 174 64 q81 0 130 -43 q49 -43 49 -126 l0 -204 q0 -63 8 -105 l-49 0 q-8 48 -8 86 l-2 0 q-55 -99 -171 -99 ZM231 32 q76 0 116.5 49.5 q40.5 49.5 40.5 119.5 l0 38 l-35 0 q-239 0 -239 -110 q0 -50 34.5 -73.5 q34.5 -23.5 82.5 -23.5 ZM294 708 l107 -144 l-53 0 l-86 115 l-86 -115 l-53 0 l107 144 l64 0 Z" /><glyph glyph-name="atilde" unicode="ã" d="M218 -13 q-62 0 -111 35 q-49 35 -49 104 q0 48 23.5 80.5 q23.5 32.5 67 48 q43.5 15.5 88.5 21.5 q45 6 104 6 l47 0 l0 21 q0 130 -132 130 q-82 0 -139 -55 l-30 36 q66 64 174 64 q81 0 130 -43 q49 -43 49 -126 l0 -204 q0 -63 8 -105 l-49 0 q-8 48 -8 86 l-2 0 q-55 -99 -171 -99 ZM231 32 q76 0 116.5 49.5 q40.5 49.5 40.5 119.5 l0 38 l-35 0 q-239 0 -239 -110 q0 -50 34.5 -73.5 q34.5 -23.5 82.5 -23.5 ZM147 581 l-35 0 q15 94 82 94 q22 0 71 -23.5 q49 -23.5 64 -23.5 q35 0 46 49 l35 0 q-15 -93 -81 -93 q-23 0 -71 23.5 q-48 23.5 -64 23.5 q-36 0 -47 -50 Z" /><glyph glyph-name="adieresis" unicode="ä" d="M218 -13 q-62 0 -111 35 q-49 35 -49 104 q0 48 23.5 80.5 q23.5 32.5 67 48 q43.5 15.5 88.5 21.5 q45 6 104 6 l47 0 l0 21 q0 130 -132 130 q-82 0 -139 -55 l-30 36 q66 64 174 64 q81 0 130 -43 q49 -43 49 -126 l0 -204 q0 -63 8 -105 l-49 0 q-8 48 -8 86 l-2 0 q-55 -99 -171 -99 ZM231 32 q76 0 116.5 49.5 q40.5 49.5 40.5 119.5 l0 38 l-35 0 q-239 0 -239 -110 q0 -50 34.5 -73.5 q34.5 -23.5 82.5 -23.5 ZM129 651 q0 17 12.5 30 q12.5 13 30.5 13 q18 0 30 -13 q12 -13 12 -30 q0 -18 -12 -31 q-12 -13 -30 -13 q-18 0 -30.5 13 q-12.5 13 -12.5 31 ZM310 651 q0 17 12 30 q12 13 30 13 q18 0 30.5 -13 q12.5 -13 12.5 -30 q0 -18 -12.5 -31 q-12.5 -13 -30.5 -13 q-18 0 -30 13 q-12 13 -12 31 Z" /><glyph glyph-name="aring" unicode="å" d="M218 -13 q-62 0 -111 35 q-49 35 -49 104 q0 48 23.5 80.5 q23.5 32.5 67 48 q43.5 15.5 88.5 21.5 q45 6 104 6 l47 0 l0 21 q0 130 -132 130 q-82 0 -139 -55 l-30 36 q66 64 174 64 q81 0 130 -43 q49 -43 49 -126 l0 -204 q0 -63 8 -105 l-49 0 q-8 48 -8 86 l-2 0 q-55 -99 -171 -99 ZM231 32 q76 0 116.5 49.5 q40.5 49.5 40.5 119.5 l0 38 l-35 0 q-239 0 -239 -110 q0 -50 34.5 -73.5 q34.5 -23.5 82.5 -23.5 ZM328.5 717.5 q28.5 -27.5 28.5 -67.5 q0 -40 -28.5 -67.5 q-28.5 -27.5 -67.5 -27.5 q-39 0 -67.5 27.5 q-28.5 27.5 -28.5 67.5 q0 40 28.5 67.5 q28.5 27.5 67.5 27.5 q39 0 67.5 -27.5 ZM307 604 q19 19 19 46 q0 27 -19 46 q-19 19 -46 19 q-27 0 -46 -19 q-19 -19 -19 -46 q0 -27 19 -46 q19 -19 46 -19 q27 0 46 19 Z" /><glyph glyph-name="ae" unicode="æ" d="M225 -13 q-68 0 -117 33.5 q-49 33.5 -49 100.5 q0 44 23 73.5 q23 29.5 65.5 44 q42.5 14.5 85.5 20.5 q43 6 101 7 l54 0 l0 24 q0 66 -33.5 104.5 q-33.5 38.5 -96.5 38.5 q-82 0 -144 -55 l-31 35 q32 29 80.5 47 q48.5 18 101.5 18 q62 0 103.5 -29 q41.5 -29 56.5 -80 q27 50 75 79.5 q48 29.5 105 29.5 q100 0 155 -65.5 q55 -65.5 55 -162.5 q0 -22 -1 -28 l-375 0 q1 -77 48.5 -132.5 q47.5 -55.5 123.5 -55.5 q48 0 87 22.5 q39 22.5 62 58.5 l39 -31 q-73 -96 -188 -96 q-68 0 -118 33 q-50 33 -73 90 q-41 -124 -195 -124 ZM233 32 q78 0 116.5 42.5 q38.5 42.5 38.5 110.5 l0 37 l-36 0 q-52 0 -89 -3.5 q-37 -3.5 -73.5 -13 q-36.5 -9.5 -55.5 -30.5 q-19 -21 -19 -53 q0 -48 33.5 -69 q33.5 -21 84.5 -21 ZM441 266 l319 0 q-1 74 -43 120.5 q-42 46.5 -112 46.5 q-69 0 -115.5 -53 q-46.5 -53 -48.5 -114 Z" /><glyph glyph-name="ccedilla" unicode="ç" d="M466 405 l-36 -33 q-21 27 -56.5 44 q-35.5 17 -72.5 17 q-83 0 -134.5 -57.5 q-51.5 -57.5 -51.5 -142.5 q0 -85 51 -142 q51 -57 133 -57 q80 0 136 58 l34 -31 q-60 -70 -159 -74 l-41 -65 q15 5 40 5 q33 0 58.5 -18.5 q25.5 -18.5 25.5 -52.5 q0 -45 -35 -65 q-35 -20 -81 -20 q-50 0 -93 20 l13 31 q33 -16 76 -16 q26 0 49 12 q23 12 23 37 q0 43 -60 43 q-28 0 -51 -10 l-15 13 l56 87 q-99 8 -158 76 q-59 68 -59 169 q0 106 67.5 175.5 q67.5 69.5 174.5 69.5 q108 0 166 -73 Z" /><glyph glyph-name="egrave" unicode="è" d="M115 265 l340 0 q-3 75 -47.5 121.5 q-44.5 46.5 -119.5 46.5 q-74 0 -122 -52.5 q-48 -52.5 -51 -115.5 ZM294 -13 q-102 0 -169 70 q-67 70 -67 177 q0 105 66.5 174.5 q66.5 69.5 164.5 69.5 q105 0 162.5 -65.5 q57.5 -65.5 57.5 -162.5 l0 -28 l-395 0 q2 -77 52 -132.5 q50 -55.5 130 -55.5 q93 0 160 79 l36 -29 q-75 -97 -198 -97 ZM286 564 l-126 144 l72 0 l101 -144 l-47 0 Z" /><glyph glyph-name="eacute" unicode="é" d="M115 265 l340 0 q-3 75 -47.5 121.5 q-44.5 46.5 -119.5 46.5 q-74 0 -122 -52.5 q-48 -52.5 -51 -115.5 ZM294 -13 q-102 0 -169 70 q-67 70 -67 177 q0 105 66.5 174.5 q66.5 69.5 164.5 69.5 q105 0 162.5 -65.5 q57.5 -65.5 57.5 -162.5 l0 -28 l-395 0 q2 -77 52 -132.5 q50 -55.5 130 -55.5 q93 0 160 79 l36 -29 q-75 -97 -198 -97 ZM426 708 l-126 -144 l-47 0 l101 144 l72 0 Z" /><glyph glyph-name="ecircumflex" unicode="ê" d="M115 265 l340 0 q-3 75 -47.5 121.5 q-44.5 46.5 -119.5 46.5 q-74 0 -122 -52.5 q-48 -52.5 -51 -115.5 ZM294 -13 q-102 0 -169 70 q-67 70 -67 177 q0 105 66.5 174.5 q66.5 69.5 164.5 69.5 q105 0 162.5 -65.5 q57.5 -65.5 57.5 -162.5 l0 -28 l-395 0 q2 -77 52 -132.5 q50 -55.5 130 -55.5 q93 0 160 79 l36 -29 q-75 -97 -198 -97 ZM327 708 l107 -144 l-53 0 l-86 115 l-86 -115 l-53 0 l107 144 l64 0 Z" /><glyph glyph-name="edieresis" unicode="ë" d="M115 265 l340 0 q-3 75 -47.5 121.5 q-44.5 46.5 -119.5 46.5 q-74 0 -122 -52.5 q-48 -52.5 -51 -115.5 ZM294 -13 q-102 0 -169 70 q-67 70 -67 177 q0 105 66.5 174.5 q66.5 69.5 164.5 69.5 q105 0 162.5 -65.5 q57.5 -65.5 57.5 -162.5 l0 -28 l-395 0 q2 -77 52 -132.5 q50 -55.5 130 -55.5 q93 0 160 79 l36 -29 q-75 -97 -198 -97 ZM161 651 q0 17 12.5 30 q12.5 13 30.5 13 q18 0 30 -13 q12 -13 12 -30 q0 -18 -12 -31 q-12 -13 -30 -13 q-18 0 -30.5 13 q-12.5 13 -12.5 31 ZM342 651 q0 17 12 30 q12 13 30 13 q18 0 30.5 -13 q12.5 -13 12.5 -30 q0 -18 -12.5 -31 q-12.5 -13 -30.5 -13 q-18 0 -30 13 q-12 13 -12 31 Z" /><glyph glyph-name="igrave" unicode="ì" d="M149 466 l0 -466 l-55 0 l0 466 l55 0 ZM101 564 l-126 144 l72 0 l101 -144 l-47 0 Z" /><glyph glyph-name="iacute" unicode="í" d="M149 466 l0 -466 l-55 0 l0 466 l55 0 ZM267 708 l-126 -144 l-47 0 l101 144 l72 0 Z" /><glyph glyph-name="icircumflex" unicode="î" d="M149 466 l0 -466 l-55 0 l0 466 l55 0 ZM155 708 l107 -144 l-53 0 l-86 115 l-86 -115 l-53 0 l107 144 l64 0 Z" /><glyph glyph-name="idieresis" unicode="ï" d="M149 466 l0 -466 l-55 0 l0 466 l55 0 ZM-11 651 q0 17 12.5 30 q12.5 13 30.5 13 q18 0 30 -13 q12 -13 12 -30 q0 -18 -12 -31 q-12 -13 -30 -13 q-18 0 -30.5 13 q-12.5 13 -12.5 31 ZM170 651 q0 17 12 30 q12 13 30 13 q18 0 30.5 -13 q12.5 -13 12.5 -30 q0 -18 -12.5 -31 q-12.5 -13 -30.5 -13 q-18 0 -30 13 q-12 13 -12 31 Z" /><glyph glyph-name="eth" unicode="ð" d="M161 374 q-52 -56 -52 -141 q0 -85 52 -141.5 q52 -56.5 137 -56.5 q86 0 137.5 56.5 q51.5 56.5 51.5 141.5 q0 85 -51.5 141 q-51.5 56 -137.5 56 q-85 0 -137 -56 ZM451 718 l-103 -56 q80 -76 138 -187.5 q58 -111.5 58 -227.5 q0 -106 -63 -183 q-63 -77 -183 -77 q-107 0 -176.5 70 q-69.5 70 -69.5 176 q0 107 69 176 q69 69 177 69 q89 0 159 -63 l3 2 q-27 61 -70.5 120 q-43.5 59 -90.5 100 l-112 -58 l-28 29 l110 58 q-41 39 -99 78 l46 30 q59 -44 99 -82 l103 54 l33 -28 Z" /><glyph glyph-name="ntilde" unicode="ñ" d="M90 466 l52 0 q4 -52 4 -93 l2 0 q20 47 67 76 q47 29 100 29 q87 0 130.5 -53 q43.5 -53 43.5 -141 l0 -284 l-54 0 l0 264 q0 168 -132 168 q-65 0 -109.5 -51 q-44.5 -51 -44.5 -144 l0 -237 l-55 0 l0 359 q0 66 -4 107 ZM179 581 l-35 0 q15 94 82 94 q22 0 71 -23.5 q49 -23.5 64 -23.5 q35 0 46 49 l35 0 q-15 -93 -81 -93 q-23 0 -71 23.5 q-48 23.5 -64 23.5 q-36 0 -47 -50 Z" /><glyph glyph-name="ograve" unicode="ò" d="M550 233 q0 -106 -69 -176 q-69 -70 -177 -70 q-107 0 -176 70 q-69 70 -69 176 q0 107 68.5 176 q68.5 69 176.5 69 q108 0 177 -69 q69 -69 69 -176 ZM442 92 q52 56 52 141 q0 85 -52 141.5 q-52 56.5 -138 56.5 q-85 0 -137 -56.5 q-52 -56.5 -52 -141.5 q0 -85 52 -141 q52 -56 137 -56 q86 0 138 56 ZM297 564 l-126 144 l72 0 l101 -144 l-47 0 Z" /><glyph glyph-name="oacute" unicode="ó" d="M550 233 q0 -106 -69 -176 q-69 -70 -177 -70 q-107 0 -176 70 q-69 70 -69 176 q0 107 68.5 176 q68.5 69 176.5 69 q108 0 177 -69 q69 -69 69 -176 ZM442 92 q52 56 52 141 q0 85 -52 141.5 q-52 56.5 -138 56.5 q-85 0 -137 -56.5 q-52 -56.5 -52 -141.5 q0 -85 52 -141 q52 -56 137 -56 q86 0 138 56 ZM438 708 l-126 -144 l-47 0 l101 144 l72 0 Z" /><glyph glyph-name="ocircumflex" unicode="ô" d="M550 233 q0 -106 -69 -176 q-69 -70 -177 -70 q-107 0 -176 70 q-69 70 -69 176 q0 107 68.5 176 q68.5 69 176.5 69 q108 0 177 -69 q69 -69 69 -176 ZM442 92 q52 56 52 141 q0 85 -52 141.5 q-52 56.5 -138 56.5 q-85 0 -137 -56.5 q-52 -56.5 -52 -141.5 q0 -85 52 -141 q52 -56 137 -56 q86 0 138 56 ZM336 708 l107 -144 l-53 0 l-86 115 l-86 -115 l-53 0 l107 144 l64 0 Z" /><glyph glyph-name="otilde" unicode="õ" d="M550 233 q0 -106 -69 -176 q-69 -70 -177 -70 q-107 0 -176 70 q-69 70 -69 176 q0 107 68.5 176 q68.5 69 176.5 69 q108 0 177 -69 q69 -69 69 -176 ZM442 92 q52 56 52 141 q0 85 -52 141.5 q-52 56.5 -138 56.5 q-85 0 -137 -56.5 q-52 -56.5 -52 -141.5 q0 -85 52 -141 q52 -56 137 -56 q86 0 138 56 ZM191 581 l-35 0 q15 94 82 94 q22 0 71 -23.5 q49 -23.5 64 -23.5 q35 0 46 49 l35 0 q-15 -93 -81 -93 q-23 0 -71 23.5 q-48 23.5 -64 23.5 q-36 0 -47 -50 Z" /><glyph glyph-name="odieresis" unicode="ö" d="M550 233 q0 -106 -69 -176 q-69 -70 -177 -70 q-107 0 -176 70 q-69 70 -69 176 q0 107 68.5 176 q68.5 69 176.5 69 q108 0 177 -69 q69 -69 69 -176 ZM442 92 q52 56 52 141 q0 85 -52 141.5 q-52 56.5 -138 56.5 q-85 0 -137 -56.5 q-52 -56.5 -52 -141.5 q0 -85 52 -141 q52 -56 137 -56 q86 0 138 56 ZM172 651 q0 17 12.5 30 q12.5 13 30.5 13 q18 0 30 -13 q12 -13 12 -30 q0 -18 -12 -31 q-12 -13 -30 -13 q-18 0 -30.5 13 q-12.5 13 -12.5 31 ZM353 651 q0 17 12 30 q12 13 30 13 q18 0 30.5 -13 q12.5 -13 12.5 -30 q0 -18 -12.5 -31 q-12.5 -13 -30.5 -13 q-18 0 -30 13 q-12 13 -12 31 Z" /><glyph glyph-name="divide" unicode="÷" d="M584 327 l0 -48 l-501 0 l0 48 l501 0 ZM382 466 q0 -19 -14.5 -34 q-14.5 -15 -34.5 -15 q-20 0 -34 15 q-14 15 -14 34 q0 20 14 35 q14 15 34 15 q21 0 35 -15 q14 -15 14 -35 ZM382 140 q0 -20 -14 -35 q-14 -15 -35 -15 q-20 0 -34 15 q-14 15 -14 35 q0 20 13.5 34.5 q13.5 14.5 34.5 14.5 q20 0 34.5 -15 q14.5 -15 14.5 -34 Z" /><glyph glyph-name="oslash" unicode="ø" d="M76 -23 l-27 25 l66 68 q-57 68 -57 163 q0 107 69 176 q69 69 176 69 q95 0 161 -54 l64 66 l26 -26 l-64 -66 q61 -68 61 -165 q0 -106 -70 -176 q-70 -70 -178 -70 q-94 0 -161 57 l-66 -67 ZM151 106 l279 284 q-46 44 -126 44 q-86 0 -138.5 -57.5 q-52.5 -57.5 -52.5 -143.5 q0 -78 38 -127 ZM303 32 q87 0 140 57.5 q53 57.5 53 143.5 q0 80 -42 129 l-279 -284 q51 -46 128 -46 Z" /><glyph glyph-name="ugrave" unicode="ù" d="M488 0 l-53 0 q-4 50 -4 92 l-2 0 q-19 -47 -66 -76 q-47 -29 -100 -29 q-88 0 -131.5 53.5 q-43.5 53.5 -43.5 140.5 l0 285 l55 0 l0 -264 q0 -169 132 -169 q64 0 109 51.5 q45 51.5 45 144.5 l0 237 l54 0 l0 -359 q0 -57 5 -107 ZM280 564 l-126 144 l72 0 l101 -144 l-47 0 Z" /><glyph glyph-name="uacute" unicode="ú" d="M488 0 l-53 0 q-4 50 -4 92 l-2 0 q-19 -47 -66 -76 q-47 -29 -100 -29 q-88 0 -131.5 53.5 q-43.5 53.5 -43.5 140.5 l0 285 l55 0 l0 -264 q0 -169 132 -169 q64 0 109 51.5 q45 51.5 45 144.5 l0 237 l54 0 l0 -359 q0 -57 5 -107 ZM415 708 l-126 -144 l-47 0 l101 144 l72 0 Z" /><glyph glyph-name="ucircumflex" unicode="û" d="M488 0 l-53 0 q-4 50 -4 92 l-2 0 q-19 -47 -66 -76 q-47 -29 -100 -29 q-88 0 -131.5 53.5 q-43.5 53.5 -43.5 140.5 l0 285 l55 0 l0 -264 q0 -169 132 -169 q64 0 109 51.5 q45 51.5 45 144.5 l0 237 l54 0 l0 -359 q0 -57 5 -107 ZM317 708 l107 -144 l-53 0 l-86 115 l-86 -115 l-53 0 l107 144 l64 0 Z" /><glyph glyph-name="udieresis" unicode="ü" d="M488 0 l-53 0 q-4 50 -4 92 l-2 0 q-19 -47 -66 -76 q-47 -29 -100 -29 q-88 0 -131.5 53.5 q-43.5 53.5 -43.5 140.5 l0 285 l55 0 l0 -264 q0 -169 132 -169 q64 0 109 51.5 q45 51.5 45 144.5 l0 237 l54 0 l0 -359 q0 -57 5 -107 ZM153 651 q0 17 12.5 30 q12.5 13 30.5 13 q18 0 30 -13 q12 -13 12 -30 q0 -18 -12 -31 q-12 -13 -30 -13 q-18 0 -30.5 13 q-12.5 13 -12.5 31 ZM334 651 q0 17 12 30 q12 13 30 13 q18 0 30.5 -13 q12.5 -13 12.5 -30 q0 -18 -12.5 -31 q-12.5 -13 -30.5 -13 q-18 0 -30 13 q-12 13 -12 31 Z" /><glyph glyph-name="yacute" unicode="ý" d="M84 -241 q-25 0 -55 7 l7 49 q21 -8 46 -8 q34 0 54.5 21.5 q20.5 21.5 36.5 63.5 l40 105 l-195 469 l61 0 l162 -411 l2 2 l150 409 l59 0 l-232 -596 q-22 -55 -53 -83 q-31 -28 -83 -28 ZM377 708 l-126 -144 l-47 0 l101 144 l72 0 Z" /><glyph glyph-name="thorn" unicode="þ" d="M334 -13 q-57 0 -106.5 27.5 q-49.5 27.5 -77.5 77.5 l-2 0 l0 -332 l-53 0 l0 996 l53 0 l0 -385 l2 0 q29 51 78.5 79 q49.5 28 105.5 28 q103 0 171 -69.5 q68 -69.5 68 -175.5 q0 -106 -68 -176 q-68 -70 -171 -70 ZM516 233 q0 84 -51 140.5 q-51 56.5 -135 56.5 q-83 0 -135 -56.5 q-52 -56.5 -52 -140.5 q0 -84 52 -141 q52 -57 135 -57 q84 0 135 56.5 q51 56.5 51 141.5 Z" /><glyph glyph-name="ydieresis" unicode="ÿ" d="M84 -241 q-25 0 -55 7 l7 49 q21 -8 46 -8 q34 0 54.5 21.5 q20.5 21.5 36.5 63.5 l40 105 l-195 469 l61 0 l162 -411 l2 2 l150 409 l59 0 l-232 -596 q-22 -55 -53 -83 q-31 -28 -83 -28 ZM109 651 q0 17 12.5 30 q12.5 13 30.5 13 q18 0 30 -13 q12 -13 12 -30 q0 -18 -12 -31 q-12 -13 -30 -13 q-18 0 -30.5 13 q-12.5 13 -12.5 31 ZM290 651 q0 17 12 30 q12 13 30 13 q18 0 30.5 -13 q12.5 -13 12.5 -30 q0 -18 -12.5 -31 q-12.5 -13 -30.5 -13 q-18 0 -30 13 q-12 13 -12 31 Z" /><glyph glyph-name="Amacron" unicode="&#x100;" d="M155 191 l-80 -191 l-63 0 l307 708 l57 0 l301 -708 l-63 0 l-80 191 l-379 0 ZM346 648 l-170 -405 l337 0 l-167 405 ZM476 850 l0 -44 l-258 0 l0 44 l258 0 Z" /><glyph glyph-name="amacron" unicode="&#x101;" d="M218 -13 q-62 0 -111 35 q-49 35 -49 104 q0 48 23.5 80.5 q23.5 32.5 67 48 q43.5 15.5 88.5 21.5 q45 6 104 6 l47 0 l0 21 q0 130 -132 130 q-82 0 -139 -55 l-30 36 q66 64 174 64 q81 0 130 -43 q49 -43 49 -126 l0 -204 q0 -63 8 -105 l-49 0 q-8 48 -8 86 l-2 0 q-55 -99 -171 -99 ZM231 32 q76 0 116.5 49.5 q40.5 49.5 40.5 119.5 l0 38 l-35 0 q-239 0 -239 -110 q0 -50 34.5 -73.5 q34.5 -23.5 82.5 -23.5 ZM396 650 l0 -44 l-258 0 l0 44 l258 0 Z" /><glyph glyph-name="Abreve" unicode="&#x102;" d="M155 191 l-80 -191 l-63 0 l307 708 l57 0 l301 -708 l-63 0 l-80 191 l-379 0 ZM346 648 l-170 -405 l337 0 l-167 405 ZM452 905 l36 0 q-5 -61 -43.5 -95.5 q-38.5 -34.5 -97.5 -34.5 q-59 0 -97 34.5 q-38 34.5 -43 95.5 l37 0 q7 -41 35.5 -63.5 q28.5 -22.5 67.5 -22.5 q89 0 105 86 Z" /><glyph glyph-name="abreve" unicode="&#x103;" d="M218 -13 q-62 0 -111 35 q-49 35 -49 104 q0 48 23.5 80.5 q23.5 32.5 67 48 q43.5 15.5 88.5 21.5 q45 6 104 6 l47 0 l0 21 q0 130 -132 130 q-82 0 -139 -55 l-30 36 q66 64 174 64 q81 0 130 -43 q49 -43 49 -126 l0 -204 q0 -63 8 -105 l-49 0 q-8 48 -8 86 l-2 0 q-55 -99 -171 -99 ZM231 32 q76 0 116.5 49.5 q40.5 49.5 40.5 119.5 l0 38 l-35 0 q-239 0 -239 -110 q0 -50 34.5 -73.5 q34.5 -23.5 82.5 -23.5 ZM374 705 l36 0 q-5 -61 -43.5 -95.5 q-38.5 -34.5 -97.5 -34.5 q-59 0 -97 34.5 q-38 34.5 -43 95.5 l37 0 q7 -41 35.5 -63.5 q28.5 -22.5 67.5 -22.5 q89 0 105 86 Z" /><glyph glyph-name="Aogonek" unicode="&#x104;" d="M12 0 l307 708 l57 0 l301 -708 q-5 -5 -23 -12.5 q-18 -7.5 -20 -10.5 q-61 -64 -61 -104 q0 -24 15.5 -38.5 q15.5 -14.5 39.5 -14.5 q34 0 56 24 l16 -32 q-35 -35 -87 -35 q-36 0 -62 23.5 q-26 23.5 -26 60.5 q0 62 89 139 l-80 191 l-379 0 l-80 -191 l-63 0 ZM346 648 l-170 -405 l337 0 l-167 405 Z" /><glyph glyph-name="aogonek" unicode="&#x105;" d="M218 -13 q-62 0 -111 35 q-49 35 -49 104 q0 156 278 156 l52 0 l0 21 q0 130 -132 130 q-82 0 -139 -55 l-30 36 q66 64 174 64 q81 0 130 -43 q49 -43 49 -126 l0 -204 q0 -63 8 -105 l-8 0 q-44 -45 -62.5 -72 q-18.5 -27 -18.5 -55 q0 -24 15 -38.5 q15 -14.5 39 -14.5 q35 0 56 24 l17 -32 q-37 -35 -88 -35 q-36 0 -62 23.5 q-26 23.5 -26 60.5 q0 62 90 139 l-1 0 q-8 48 -8 86 l-2 0 q-55 -99 -171 -99 ZM231 32 q76 0 116.5 49.5 q40.5 49.5 40.5 119.5 l0 38 l-35 0 q-239 0 -239 -110 q0 -50 34.5 -73.5 q34.5 -23.5 82.5 -23.5 Z" /><glyph glyph-name="Cacute" unicode="&#x106;" d="M645 136 l39 -31 q-95 -124 -258 -124 q-159 0 -262 105.5 q-103 105.5 -103 267.5 q0 162 104 267.5 q104 105.5 262 105.5 q78 0 142 -27 q64 -27 102 -76 l-41 -38 q-32 40 -85.5 65 q-53.5 25 -116.5 25 q-138 0 -222.5 -93.5 q-84.5 -93.5 -84.5 -228.5 q0 -135 84.5 -228.5 q84.5 -93.5 222.5 -93.5 q133 0 217 104 ZM549 908 l-126 -144 l-47 0 l101 144 l72 0 Z" /><glyph glyph-name="cacute" unicode="&#x107;" d="M466 405 l-36 -33 q-21 27 -56 43 q-35 16 -73 16 q-83 0 -134.5 -56.5 q-51.5 -56.5 -51.5 -141.5 q0 -85 51 -141 q51 -56 133 -56 q82 0 136 56 l34 -31 q-64 -74 -170 -74 q-108 0 -174 69 q-66 69 -66 177 q0 107 67.5 176 q67.5 69 173.5 69 q108 0 166 -73 ZM428 708 l-126 -144 l-47 0 l101 144 l72 0 Z" /><glyph glyph-name="Ccircumflex" unicode="&#x108;" d="M645 136 l39 -31 q-95 -124 -258 -124 q-159 0 -262 105.5 q-103 105.5 -103 267.5 q0 162 104 267.5 q104 105.5 262 105.5 q78 0 142 -27 q64 -27 102 -76 l-41 -38 q-32 40 -85.5 65 q-53.5 25 -116.5 25 q-138 0 -222.5 -93.5 q-84.5 -93.5 -84.5 -228.5 q0 -135 84.5 -228.5 q84.5 -93.5 222.5 -93.5 q133 0 217 104 ZM458 908 l107 -144 l-53 0 l-86 115 l-86 -115 l-53 0 l107 144 l64 0 Z" /><glyph glyph-name="ccircumflex" unicode="&#x109;" d="M466 405 l-36 -33 q-21 27 -56 43 q-35 16 -73 16 q-83 0 -134.5 -56.5 q-51.5 -56.5 -51.5 -141.5 q0 -85 51 -141 q51 -56 133 -56 q82 0 136 56 l34 -31 q-64 -74 -170 -74 q-108 0 -174 69 q-66 69 -66 177 q0 107 67.5 176 q67.5 69 173.5 69 q108 0 166 -73 ZM332 708 l107 -144 l-53 0 l-86 115 l-86 -115 l-53 0 l107 144 l64 0 Z" /><glyph glyph-name="Cdotaccent" unicode="&#x10a;" d="M645 136 l39 -31 q-95 -124 -258 -124 q-159 0 -262 105.5 q-103 105.5 -103 267.5 q0 162 104 267.5 q104 105.5 262 105.5 q78 0 142 -27 q64 -27 102 -76 l-41 -38 q-32 40 -85.5 65 q-53.5 25 -116.5 25 q-138 0 -222.5 -93.5 q-84.5 -93.5 -84.5 -228.5 q0 -135 84.5 -228.5 q84.5 -93.5 222.5 -93.5 q133 0 217 104 ZM449.5 880 q12.5 -12 12.5 -29 q0 -17 -12.5 -29 q-12.5 -12 -28.5 -12 q-16 0 -28.5 12 q-12.5 12 -12.5 29 q0 17 12.5 29 q12.5 12 28.5 12 q16 0 28.5 -12 Z" /><glyph glyph-name="cdotaccent" unicode="&#x10b;" d="M466 405 l-36 -33 q-21 27 -56 43 q-35 16 -73 16 q-83 0 -134.5 -56.5 q-51.5 -56.5 -51.5 -141.5 q0 -85 51 -141 q51 -56 133 -56 q82 0 136 56 l34 -31 q-64 -74 -170 -74 q-108 0 -174 69 q-66 69 -66 177 q0 107 67.5 176 q67.5 69 173.5 69 q108 0 166 -73 ZM323.5 680 q12.5 -12 12.5 -29 q0 -17 -12.5 -29 q-12.5 -12 -28.5 -12 q-16 0 -28.5 12 q-12.5 12 -12.5 29 q0 17 12.5 29 q12.5 12 28.5 12 q16 0 28.5 -12 Z" /><glyph glyph-name="Ccaron" unicode="&#x10c;" d="M645 136 l39 -31 q-95 -124 -258 -124 q-159 0 -262 105.5 q-103 105.5 -103 267.5 q0 162 104 267.5 q104 105.5 262 105.5 q78 0 142 -27 q64 -27 102 -76 l-41 -38 q-32 40 -85.5 65 q-53.5 25 -116.5 25 q-138 0 -222.5 -93.5 q-84.5 -93.5 -84.5 -228.5 q0 -135 84.5 -228.5 q84.5 -93.5 222.5 -93.5 q133 0 217 104 ZM565 908 l-107 -144 l-64 0 l-107 144 l53 0 l86 -115 l86 115 l53 0 Z" /><glyph glyph-name="ccaron" unicode="&#x10d;" d="M466 405 l-36 -33 q-21 27 -56 43 q-35 16 -73 16 q-83 0 -134.5 -56.5 q-51.5 -56.5 -51.5 -141.5 q0 -85 51 -141 q51 -56 133 -56 q82 0 136 56 l34 -31 q-64 -74 -170 -74 q-108 0 -174 69 q-66 69 -66 177 q0 107 67.5 176 q67.5 69 173.5 69 q108 0 166 -73 ZM439 708 l-107 -144 l-64 0 l-107 144 l53 0 l86 -115 l86 115 l53 0 Z" /><glyph glyph-name="Dcaron" unicode="&#x10e;" d="M98 0 l0 708 l224 0 q73 0 139.5 -22 q66.5 -22 120.5 -64.5 q54 -42.5 86 -112 q32 -69.5 32 -155.5 q0 -86 -32 -155.5 q-32 -69.5 -86 -112 q-54 -42.5 -120.5 -64.5 q-66.5 -22 -139.5 -22 l-224 0 ZM155 657 l0 -606 l152 0 q155 0 244 85 q89 85 89 218 q0 133 -89 218 q-89 85 -244 85 l-152 0 ZM488 908 l-107 -144 l-64 0 l-107 144 l53 0 l86 -115 l86 115 l53 0 Z" /><glyph glyph-name="dcaron" unicode="&#x10f;" d="M482 92 q-29 -50 -79.5 -77.5 q-50.5 -27.5 -106.5 -27.5 q-105 0 -171.5 70 q-66.5 70 -66.5 176 q0 105 66.5 175 q66.5 70 171.5 70 q56 0 106.5 -28 q50.5 -28 79.5 -79 l2 0 l0 385 l55 0 l0 -756 l-55 0 l0 92 l-2 0 ZM165.5 375.5 q-50.5 -57.5 -50.5 -142.5 q0 -85 50.5 -142 q50.5 -57 135.5 -57 q82 0 135.5 57 q53.5 57 53.5 142 q0 85 -53.5 142.5 q-53.5 57.5 -135.5 57.5 q-85 0 -135.5 -57.5 ZM712 708 l-70 -185 l-45 0 l58 185 l57 0 Z" /><glyph glyph-name="Dcroat" unicode="&#x110;" d="M92 0 l0 350 l-75 0 l0 44 l75 0 l0 314 l225 0 q73 0 139.5 -22 q66.5 -22 120 -64.5 q53.5 -42.5 85.5 -112 q32 -69.5 32 -155.5 q0 -86 -32 -155.5 q-32 -69.5 -85.5 -112 q-53.5 -42.5 -120 -64.5 q-66.5 -22 -139.5 -22 l-225 0 ZM149 350 l0 -298 l150 0 q156 0 245 84.5 q89 84.5 89 217.5 q0 134 -88.5 218 q-88.5 84 -245.5 84 l-150 0 l0 -262 l261 0 l0 -44 l-261 0 Z" /><glyph glyph-name="dcroat" unicode="&#x111;" d="M311 610 l173 0 l0 146 l55 0 l0 -146 l60 0 l0 -40 l-60 0 l0 -570 l-55 0 l0 92 l-2 0 q-29 -50 -79.5 -77.5 q-50.5 -27.5 -106.5 -27.5 q-105 0 -171.5 70 q-66.5 70 -66.5 176 q0 105 66.5 175 q66.5 70 171.5 70 q56 0 106.5 -28 q50.5 -28 79.5 -79 l2 0 l0 199 l-173 0 l0 40 ZM165.5 375.5 q-50.5 -57.5 -50.5 -142.5 q0 -85 50.5 -142 q50.5 -57 135.5 -57 q82 0 135.5 57 q53.5 57 53.5 142 q0 85 -53.5 142.5 q-53.5 57.5 -135.5 57.5 q-85 0 -135.5 -57.5 Z" /><glyph glyph-name="Emacron" unicode="&#x112;" d="M154 343 l0 -292 l388 0 l0 -51 l-444 0 l0 708 l431 0 l0 -51 l-375 0 l0 -264 l351 0 l0 -50 l-351 0 ZM445 850 l0 -44 l-258 0 l0 44 l258 0 Z" /><glyph glyph-name="emacron" unicode="&#x113;" d="M115 265 l340 0 q-3 75 -47.5 121.5 q-44.5 46.5 -119.5 46.5 q-74 0 -122 -52.5 q-48 -52.5 -51 -115.5 ZM294 -13 q-102 0 -169 70 q-67 70 -67 177 q0 105 66.5 174.5 q66.5 69.5 164.5 69.5 q105 0 162.5 -65.5 q57.5 -65.5 57.5 -162.5 l0 -28 l-395 0 q2 -77 52 -132.5 q50 -55.5 130 -55.5 q93 0 160 79 l36 -29 q-75 -97 -198 -97 ZM422 650 l0 -44 l-258 0 l0 44 l258 0 Z" /><glyph glyph-name="Ebreve" unicode="&#x114;" d="M154 343 l0 -292 l388 0 l0 -51 l-444 0 l0 708 l431 0 l0 -51 l-375 0 l0 -264 l351 0 l0 -50 l-351 0 ZM420 905 l36 0 q-5 -61 -43.5 -95.5 q-38.5 -34.5 -97.5 -34.5 q-59 0 -97 34.5 q-38 34.5 -43 95.5 l37 0 q7 -41 35.5 -63.5 q28.5 -22.5 67.5 -22.5 q89 0 105 86 Z" /><glyph glyph-name="ebreve" unicode="&#x115;" d="M115 265 l340 0 q-3 75 -47.5 121.5 q-44.5 46.5 -119.5 46.5 q-74 0 -122 -52.5 q-48 -52.5 -51 -115.5 ZM294 -13 q-102 0 -169 70 q-67 70 -67 177 q0 105 66.5 174.5 q66.5 69.5 164.5 69.5 q105 0 162.5 -65.5 q57.5 -65.5 57.5 -162.5 l0 -28 l-395 0 q2 -77 52 -132.5 q50 -55.5 130 -55.5 q93 0 160 79 l36 -29 q-75 -97 -198 -97 ZM397 705 l36 0 q-5 -61 -43.5 -95.5 q-38.5 -34.5 -97.5 -34.5 q-59 0 -97 34.5 q-38 34.5 -43 95.5 l37 0 q7 -41 35.5 -63.5 q28.5 -22.5 67.5 -22.5 q89 0 105 86 Z" /><glyph glyph-name="Edotaccent" unicode="&#x116;" d="M154 343 l0 -292 l388 0 l0 -51 l-444 0 l0 708 l431 0 l0 -51 l-375 0 l0 -264 l351 0 l0 -50 l-351 0 ZM348.5 880 q12.5 -12 12.5 -29 q0 -17 -12.5 -29 q-12.5 -12 -28.5 -12 q-16 0 -28.5 12 q-12.5 12 -12.5 29 q0 17 12.5 29 q12.5 12 28.5 12 q16 0 28.5 -12 Z" /><glyph glyph-name="edotaccent" unicode="&#x117;" d="M115 265 l340 0 q-3 75 -47.5 121.5 q-44.5 46.5 -119.5 46.5 q-74 0 -122 -52.5 q-48 -52.5 -51 -115.5 ZM294 -13 q-102 0 -169 70 q-67 70 -67 177 q0 105 66.5 174.5 q66.5 69.5 164.5 69.5 q105 0 162.5 -65.5 q57.5 -65.5 57.5 -162.5 l0 -28 l-395 0 q2 -77 52 -132.5 q50 -55.5 130 -55.5 q93 0 160 79 l36 -29 q-75 -97 -198 -97 ZM320.5 680 q12.5 -12 12.5 -29 q0 -17 -12.5 -29 q-12.5 -12 -28.5 -12 q-16 0 -28.5 12 q-12.5 12 -12.5 29 q0 17 12.5 29 q12.5 12 28.5 12 q16 0 28.5 -12 Z" /><glyph glyph-name="Eogonek" unicode="&#x118;" d="M555 -156 l17 -32 q-37 -35 -88 -35 q-36 0 -62 23.5 q-26 23.5 -26 60.5 q0 62 90 139 l-388 0 l0 708 l431 0 l0 -51 l-375 0 l0 -264 l351 0 l0 -50 l-351 0 l0 -292 l388 0 l0 -51 l-16 0 q-44 -45 -62.5 -72 q-18.5 -27 -18.5 -55 q0 -24 15 -38.5 q15 -14.5 39 -14.5 q34 0 56 24 Z" /><glyph glyph-name="eogonek" unicode="&#x119;" d="M312 -223 q-36 0 -62 23.5 q-26 23.5 -26 60.5 q0 58 75 127 l-22 0 q-96 7 -157.5 75.5 q-61.5 68.5 -61.5 170.5 q0 105 66.5 174.5 q66.5 69.5 164.5 69.5 q105 0 162.5 -65.5 q57.5 -65.5 57.5 -162.5 l0 -28 l-395 0 q2 -77 52 -132.5 q50 -55.5 130 -55.5 q50 0 90.5 22.5 q40.5 22.5 65.5 59.5 l40 -32 q-58 -75 -146 -92 q-39 -40 -56 -66 q-17 -26 -17 -53 q0 -24 15.5 -38.5 q15.5 -14.5 38.5 -14.5 q35 0 57 24 l16 -32 q-37 -35 -88 -35 ZM115 265 l340 0 q-3 75 -47.5 121.5 q-44.5 46.5 -119.5 46.5 q-74 0 -122 -52.5 q-48 -52.5 -51 -115.5 Z" /><glyph glyph-name="Ecaron" unicode="&#x11a;" d="M154 343 l0 -292 l388 0 l0 -51 l-444 0 l0 708 l431 0 l0 -51 l-375 0 l0 -264 l351 0 l0 -50 l-351 0 ZM455 908 l-107 -144 l-64 0 l-107 144 l53 0 l86 -115 l86 115 l53 0 Z" /><glyph glyph-name="ecaron" unicode="&#x11b;" d="M115 265 l340 0 q-3 75 -47.5 121.5 q-44.5 46.5 -119.5 46.5 q-74 0 -122 -52.5 q-48 -52.5 -51 -115.5 ZM294 -13 q-102 0 -169 70 q-67 70 -67 177 q0 105 66.5 174.5 q66.5 69.5 164.5 69.5 q105 0 162.5 -65.5 q57.5 -65.5 57.5 -162.5 l0 -28 l-395 0 q2 -77 52 -132.5 q50 -55.5 130 -55.5 q93 0 160 79 l36 -29 q-75 -97 -198 -97 ZM430 708 l-107 -144 l-64 0 l-107 144 l53 0 l86 -115 l86 115 l53 0 Z" /><glyph glyph-name="Gcircumflex" unicode="&#x11c;" d="M677 635 l-36 -39 q-80 80 -211 80 q-139 0 -224 -93 q-85 -93 -85 -228 q0 -135 85 -229 q85 -94 226 -94 q122 0 203 48 l0 234 l-170 0 l0 50 l227 0 l0 -316 q-112 -67 -261 -67 q-162 0 -266 106 q-104 106 -104 268 q0 161 104.5 266.5 q104.5 105.5 264.5 105.5 q153 0 247 -92 ZM463 908 l107 -144 l-53 0 l-86 115 l-86 -115 l-53 0 l107 144 l64 0 Z" /><glyph glyph-name="gcircumflex" unicode="&#x11d;" d="M74 -151 l35 37 q76 -81 186 -81 q99 0 144 57.5 q45 57.5 45 148.5 l0 91 l-2 0 q-26 -50 -77.5 -78 q-51.5 -28 -108.5 -28 q-106 0 -172 67.5 q-66 67.5 -66 171.5 q0 103 66.5 173 q66.5 70 171.5 70 q57 0 107.5 -28 q50.5 -28 78.5 -79 l2 0 l0 95 l55 0 l0 -455 q0 -48 -11.5 -89.5 q-11.5 -41.5 -37.5 -80.5 q-26 -39 -76.5 -61.5 q-50.5 -22.5 -120.5 -22.5 q-133 0 -219 92 ZM165.5 376 q-50.5 -57 -50.5 -139 q0 -82 50.5 -138.5 q50.5 -56.5 135.5 -56.5 q82 0 135.5 55.5 q53.5 55.5 53.5 139.5 q0 80 -54 138 q-54 58 -135 58 q-85 0 -135.5 -57 ZM339 708 l107 -144 l-53 0 l-86 115 l-86 -115 l-53 0 l107 144 l64 0 Z" /><glyph glyph-name="Gbreve" unicode="&#x11e;" d="M677 635 l-36 -39 q-80 80 -211 80 q-139 0 -224 -93 q-85 -93 -85 -228 q0 -135 85 -229 q85 -94 226 -94 q122 0 203 48 l0 234 l-170 0 l0 50 l227 0 l0 -316 q-112 -67 -261 -67 q-162 0 -266 106 q-104 106 -104 268 q0 161 104.5 266.5 q104.5 105.5 264.5 105.5 q153 0 247 -92 ZM534 905 l36 0 q-5 -61 -43.5 -95.5 q-38.5 -34.5 -97.5 -34.5 q-59 0 -97 34.5 q-38 34.5 -43 95.5 l37 0 q7 -41 35.5 -63.5 q28.5 -22.5 67.5 -22.5 q89 0 105 86 Z" /><glyph glyph-name="gbreve" unicode="&#x11f;" d="M74 -151 l35 37 q76 -81 186 -81 q99 0 144 57.5 q45 57.5 45 148.5 l0 91 l-2 0 q-26 -50 -77.5 -78 q-51.5 -28 -108.5 -28 q-106 0 -172 67.5 q-66 67.5 -66 171.5 q0 103 66.5 173 q66.5 70 171.5 70 q57 0 107.5 -28 q50.5 -28 78.5 -79 l2 0 l0 95 l55 0 l0 -455 q0 -48 -11.5 -89.5 q-11.5 -41.5 -37.5 -80.5 q-26 -39 -76.5 -61.5 q-50.5 -22.5 -120.5 -22.5 q-133 0 -219 92 ZM165.5 376 q-50.5 -57 -50.5 -139 q0 -82 50.5 -138.5 q50.5 -56.5 135.5 -56.5 q82 0 135.5 55.5 q53.5 55.5 53.5 139.5 q0 80 -54 138 q-54 58 -135 58 q-85 0 -135.5 -57 ZM413 705 l36 0 q-5 -61 -43.5 -95.5 q-38.5 -34.5 -97.5 -34.5 q-59 0 -97 34.5 q-38 34.5 -43 95.5 l37 0 q7 -41 35.5 -63.5 q28.5 -22.5 67.5 -22.5 q89 0 105 86 Z" /><glyph glyph-name="Gdotaccent" unicode="&#x120;" d="M677 635 l-36 -39 q-80 80 -211 80 q-139 0 -224 -93 q-85 -93 -85 -228 q0 -135 85 -229 q85 -94 226 -94 q122 0 203 48 l0 234 l-170 0 l0 50 l227 0 l0 -316 q-112 -67 -261 -67 q-162 0 -266 106 q-104 106 -104 268 q0 161 104.5 266.5 q104.5 105.5 264.5 105.5 q153 0 247 -92 ZM456.5 880 q12.5 -12 12.5 -29 q0 -17 -12.5 -29 q-12.5 -12 -28.5 -12 q-16 0 -28.5 12 q-12.5 12 -12.5 29 q0 17 12.5 29 q12.5 12 28.5 12 q16 0 28.5 -12 Z" /><glyph glyph-name="gdotaccent" unicode="&#x121;" d="M74 -151 l35 37 q76 -81 186 -81 q99 0 144 57.5 q45 57.5 45 148.5 l0 91 l-2 0 q-26 -50 -77.5 -78 q-51.5 -28 -108.5 -28 q-106 0 -172 67.5 q-66 67.5 -66 171.5 q0 103 66.5 173 q66.5 70 171.5 70 q57 0 107.5 -28 q50.5 -28 78.5 -79 l2 0 l0 95 l55 0 l0 -455 q0 -48 -11.5 -89.5 q-11.5 -41.5 -37.5 -80.5 q-26 -39 -76.5 -61.5 q-50.5 -22.5 -120.5 -22.5 q-133 0 -219 92 ZM165.5 376 q-50.5 -57 -50.5 -139 q0 -82 50.5 -138.5 q50.5 -56.5 135.5 -56.5 q82 0 135.5 55.5 q53.5 55.5 53.5 139.5 q0 80 -54 138 q-54 58 -135 58 q-85 0 -135.5 -57 ZM335.5 680 q12.5 -12 12.5 -29 q0 -17 -12.5 -29 q-12.5 -12 -28.5 -12 q-16 0 -28.5 12 q-12.5 12 -12.5 29 q0 17 12.5 29 q12.5 12 28.5 12 q16 0 28.5 -12 Z" /><glyph glyph-name="Gcommaaccent" unicode="&#x122;" d="M677 635 l-36 -39 q-80 80 -211 80 q-139 0 -224 -93 q-85 -93 -85 -228 q0 -135 85 -229 q85 -94 226 -94 q122 0 203 48 l0 234 l-170 0 l0 50 l227 0 l0 -316 q-112 -67 -261 -67 q-162 0 -266 106 q-104 106 -104 268 q0 161 104.5 266.5 q104.5 105.5 264.5 105.5 q153 0 247 -92 ZM472 -45 l-71 -185 l-45 0 l59 185 l57 0 Z" /><glyph glyph-name="gcommaaccent" unicode="&#x123;" d="M74 -151 l35 37 q76 -81 186 -81 q99 0 144 57.5 q45 57.5 45 148.5 l0 91 l-2 0 q-26 -50 -77.5 -78 q-51.5 -28 -108.5 -28 q-106 0 -172 67.5 q-66 67.5 -66 171.5 q0 103 66.5 173 q66.5 70 171.5 70 q57 0 107.5 -28 q50.5 -28 78.5 -79 l2 0 l0 95 l55 0 l0 -455 q0 -48 -11.5 -89.5 q-11.5 -41.5 -37.5 -80.5 q-26 -39 -76.5 -61.5 q-50.5 -22.5 -120.5 -22.5 q-133 0 -219 92 ZM165.5 376 q-50.5 -57 -50.5 -139 q0 -82 50.5 -138.5 q50.5 -56.5 135.5 -56.5 q82 0 135.5 55.5 q53.5 55.5 53.5 139.5 q0 80 -54 138 q-54 58 -135 58 q-85 0 -135.5 -57 ZM280 564 l71 185 l45 0 l-59 -185 l-57 0 Z" /><glyph glyph-name="Hcircumflex" unicode="&#x124;" d="M98 0 l0 708 l57 0 l0 -314 l413 0 l0 314 l57 0 l0 -708 l-57 0 l0 341 l-413 0 l0 -341 l-57 0 ZM392 908 l107 -144 l-53 0 l-86 115 l-86 -115 l-53 0 l107 144 l64 0 Z" /><glyph glyph-name="hcircumflex" unicode="&#x125;" d="M149 375 l2 0 q23 50 67 76.5 q44 26.5 97 26.5 q88 0 131.5 -53.5 q43.5 -53.5 43.5 -140.5 l0 -284 l-54 0 l0 264 q0 168 -133 168 q-64 0 -109 -51 q-45 -51 -45 -144 l0 -237 l-54 0 l0 756 l54 0 l0 -381 ZM318 940 l107 -144 l-53 0 l-86 115 l-86 -115 l-53 0 l107 144 l64 0 Z" /><glyph glyph-name="Hbar" unicode="&#x126;" d="M98 0 l0 708 l57 0 l0 -168 l413 0 l0 168 l57 0 l0 -708 l-57 0 l0 341 l-413 0 l0 -341 l-57 0 ZM155 394 l413 0 l0 106 l-413 0 l0 -106 Z" /><glyph glyph-name="hbar" unicode="&#x127;" d="M36 610 l59 0 l0 146 l54 0 l0 -146 l174 0 l0 -40 l-174 0 l0 -195 l2 0 q19 47 65 75 q46 28 99 28 q88 0 131.5 -53.5 q43.5 -53.5 43.5 -140.5 l0 -284 l-54 0 l0 264 q0 169 -133 169 q-64 0 -109 -51.5 q-45 -51.5 -45 -144.5 l0 -237 l-54 0 l0 570 l-59 0 l0 40 Z" /><glyph glyph-name="Itilde" unicode="&#x128;" d="M155 708 l0 -708 l-57 0 l0 708 l57 0 ZM14 781 l-35 0 q15 94 82 94 q22 0 71 -23.5 q49 -23.5 64 -23.5 q35 0 46 49 l35 0 q-15 -93 -81 -93 q-23 0 -71 23.5 q-48 23.5 -64 23.5 q-36 0 -47 -50 Z" /><glyph glyph-name="itilde" unicode="&#x129;" d="M149 466 l0 -466 l-55 0 l0 466 l55 0 ZM10 581 l-35 0 q15 94 82 94 q22 0 71 -23.5 q49 -23.5 64 -23.5 q35 0 46 49 l35 0 q-15 -93 -81 -93 q-23 0 -71 23.5 q-48 23.5 -64 23.5 q-36 0 -47 -50 Z" /><glyph glyph-name="Imacron" unicode="&#x12a;" d="M155 708 l0 -708 l-57 0 l0 708 l57 0 ZM256 850 l0 -44 l-258 0 l0 44 l258 0 Z" /><glyph glyph-name="imacron" unicode="&#x12b;" d="M149 466 l0 -466 l-55 0 l0 466 l55 0 ZM251 650 l0 -44 l-258 0 l0 44 l258 0 Z" /><glyph glyph-name="Ibreve" unicode="&#x12c;" d="M155 708 l0 -708 l-57 0 l0 708 l57 0 ZM231 905 l36 0 q-5 -61 -43.5 -95.5 q-38.5 -34.5 -97.5 -34.5 q-59 0 -97 34.5 q-38 34.5 -43 95.5 l37 0 q7 -41 35.5 -63.5 q28.5 -22.5 67.5 -22.5 q89 0 105 86 Z" /><glyph glyph-name="ibreve" unicode="&#x12d;" d="M149 466 l0 -466 l-55 0 l0 466 l55 0 ZM226 705 l36 0 q-5 -61 -43.5 -95.5 q-38.5 -34.5 -97.5 -34.5 q-59 0 -97 34.5 q-38 34.5 -43 95.5 l37 0 q7 -41 35.5 -63.5 q28.5 -22.5 67.5 -22.5 q89 0 105 86 Z" /><glyph glyph-name="Iogonek" unicode="&#x12e;" d="M108 -223 q-36 0 -62 23.5 q-26 23.5 -26 60.5 q0 62 90 139 l-12 0 l0 708 l57 0 l0 -708 q-35 -35 -49 -50 q-14 -15 -25.5 -36 q-11.5 -21 -11.5 -41 q0 -24 15.5 -38.5 q15.5 -14.5 38.5 -14.5 q35 0 57 24 l16 -32 q-37 -35 -88 -35 Z" /><glyph glyph-name="iogonek" unicode="&#x12f;" d="M104 -223 q-36 0 -62 23.5 q-26 23.5 -26 60.5 q0 63 89 138 l-11 1 l0 466 l55 0 l0 -466 l-3 0 q-45 -45 -63.5 -71.5 q-18.5 -26.5 -18.5 -55.5 q0 -24 15.5 -38.5 q15.5 -14.5 39.5 -14.5 q34 0 56 24 l16 -32 q-35 -35 -87 -35 ZM149.5 622 q-12.5 -12 -28.5 -12 q-16 0 -28 12 q-12 12 -12 29 q0 17 12 29 q12 12 28 12 q16 0 28.5 -12 q12.5 -12 12.5 -29 q0 -17 -12.5 -29 Z" /><glyph glyph-name="Idotaccent" unicode="&#x130;" d="M155 708 l0 -708 l-57 0 l0 708 l57 0 ZM155.5 880 q12.5 -12 12.5 -29 q0 -17 -12.5 -29 q-12.5 -12 -28.5 -12 q-16 0 -28.5 12 q-12.5 12 -12.5 29 q0 17 12.5 29 q12.5 12 28.5 12 q16 0 28.5 -12 Z" /><glyph glyph-name="dotlessi" unicode="&#x131;" d="M149 466 l0 -466 l-55 0 l0 466 l55 0 Z" /><glyph glyph-name="IJ" unicode="&#x132;" d="M155 708 l0 -708 l-57 0 l0 708 l57 0 ZM264 116 l52 15 q13 -44 46 -71.5 q33 -27.5 80 -27.5 q135 0 135 173 l0 503 l57 0 l0 -507 q0 -42 -9.5 -78.5 q-9.5 -36.5 -29.5 -69.5 q-20 -33 -58 -52 q-38 -19 -90 -19 q-70 0 -119 37.5 q-49 37.5 -64 96.5 Z" /><glyph glyph-name="ij" unicode="&#x133;" d="M218 -234 l8 45 q20 -5 37 -5 q45 0 59.5 27.5 q14.5 27.5 14.5 79.5 l0 553 l54 0 l0 -560 q0 -68 -28 -107 q-28 -39 -99 -39 q-29 0 -46 6 ZM94 0 l0 466 l55 0 l0 -466 l-55 0 ZM149.5 622 q-12.5 -12 -28.5 -12 q-16 0 -28 12 q-12 12 -12 29 q0 17 12 29 q12 12 28 12 q16 0 28.5 -12 q12.5 -12 12.5 -29 q0 -17 -12.5 -29 ZM392 622 q-12 -12 -28 -12 q-16 0 -28.5 12 q-12.5 12 -12.5 29 q0 17 12.5 29 q12.5 12 28.5 12 q16 0 28 -12 q12 -12 12 -29 q0 -17 -12 -29 Z" /><glyph glyph-name="Jcircumflex" unicode="&#x134;" d="M26 116 l53 15 q12 -44 45 -71.5 q33 -27.5 80 -27.5 q135 0 135 173 l0 503 l57 0 l0 -507 q0 -42 -9 -78.5 q-9 -36.5 -29.5 -69.5 q-20.5 -33 -58 -52 q-37.5 -19 -89.5 -19 q-71 0 -120 37.5 q-49 37.5 -64 96.5 ZM398 908 l107 -144 l-53 0 l-86 115 l-86 -115 l-53 0 l107 144 l64 0 Z" /><glyph glyph-name="jcircumflex" unicode="&#x135;" d="M-24 -234 l8 45 q20 -5 38 -5 q44 0 58.5 27.5 q14.5 27.5 14.5 79.5 l0 553 l54 0 l0 -560 q0 -68 -28 -107 q-28 -39 -98 -39 q-30 0 -47 6 ZM153 708 l107 -144 l-53 0 l-86 115 l-86 -115 l-53 0 l107 144 l64 0 Z" /><glyph glyph-name="Kcommaaccent" unicode="&#x136;" d="M155 708 l0 -320 l343 320 l82 0 l-358 -322 l377 -386 l-83 0 l-361 378 l0 -378 l-57 0 l0 708 l57 0 ZM369 -45 l-71 -185 l-45 0 l59 185 l57 0 Z" /><glyph glyph-name="kcommaaccent" unicode="&#x137;" d="M149 756 l0 -502 l3 0 l222 212 l78 0 l-238 -214 l263 -252 l-80 0 l-245 245 l-3 0 l0 -245 l-54 0 l0 756 l54 0 ZM310 -44 l-71 -185 l-45 0 l59 185 l57 0 Z" /><glyph glyph-name="kgreenlandic" unicode="&#x138;" d="M149 466 l0 -212 l3 0 l222 212 l78 0 l-238 -214 l263 -252 l-80 0 l-245 245 l-3 0 l0 -245 l-54 0 l0 466 l54 0 Z" /><glyph glyph-name="Lacute" unicode="&#x139;" d="M155 708 l0 -657 l336 0 l0 -51 l-393 0 l0 708 l57 0 ZM275 908 l-126 -144 l-47 0 l101 144 l72 0 Z" /><glyph glyph-name="lacute" unicode="&#x13a;" d="M149 756 l0 -756 l-54 0 l0 756 l54 0 ZM269 936 l-126 -144 l-47 0 l101 144 l72 0 Z" /><glyph glyph-name="Lcommaaccent" unicode="&#x13b;" d="M155 708 l0 -657 l336 0 l0 -51 l-393 0 l0 708 l57 0 ZM335 -45 l-70 -185 l-45 0 l58 185 l57 0 Z" /><glyph glyph-name="lcommaaccent" unicode="&#x13c;" d="M149 756 l0 -756 l-54 0 l0 756 l54 0 ZM167 -44 l-71 -185 l-45 0 l59 185 l57 0 Z" /><glyph glyph-name="Lcaron" unicode="&#x13d;" d="M155 708 l0 -657 l336 0 l0 -51 l-393 0 l0 708 l57 0 ZM348 708 l-70 -185 l-45 0 l59 185 l56 0 Z" /><glyph glyph-name="lcaron" unicode="&#x13e;" d="M149 756 l0 -756 l-54 0 l0 756 l54 0 ZM321 708 l-70 -185 l-45 0 l58 185 l57 0 Z" /><glyph glyph-name="Ldot" unicode="&#x13f;" d="M155 708 l0 -657 l336 0 l0 -51 l-393 0 l0 708 l57 0 ZM343 460 q12 -12 12 -29 q0 -17 -12 -29 q-12 -12 -28 -12 q-16 0 -28.5 12 q-12.5 12 -12.5 29 q0 17 12.5 29 q12.5 12 28.5 12 q16 0 28 -12 Z" /><glyph glyph-name="ldot" unicode="&#x140;" d="M149 756 l0 -756 l-54 0 l0 756 l54 0 ZM276.5 490 q12.5 -12 12.5 -29 q0 -17 -12.5 -29 q-12.5 -12 -28.5 -12 q-16 0 -28.5 12 q-12.5 12 -12.5 29 q0 17 12.5 29 q12.5 12 28.5 12 q16 0 28.5 -12 Z" /><glyph glyph-name="Lslash" unicode="&#x141;" d="M155 708 l0 -364 l213 186 l0 -56 l-213 -187 l0 -236 l336 0 l0 -51 l-393 0 l0 247 l-77 -67 l0 57 l77 67 l0 404 l57 0 Z" /><glyph glyph-name="lslash" unicode="&#x142;" d="M149 756 l0 -314 l79 78 l0 -58 l-79 -78 l0 -384 l-53 0 l0 340 l-76 -76 l0 59 l76 76 l0 357 l53 0 Z" /><glyph glyph-name="Nacute" unicode="&#x143;" d="M170 708 l441 -626 l2 0 l0 626 l57 0 l0 -708 l-72 0 l-441 630 l-2 0 l0 -630 l-57 0 l0 708 l72 0 ZM524 908 l-126 -144 l-47 0 l101 144 l72 0 Z" /><glyph glyph-name="nacute" unicode="&#x144;" d="M90 466 l52 0 q4 -52 4 -93 l2 0 q20 47 67 76 q47 29 100 29 q87 0 130.5 -53 q43.5 -53 43.5 -141 l0 -284 l-54 0 l0 264 q0 168 -132 168 q-65 0 -109.5 -51 q-44.5 -51 -44.5 -144 l0 -237 l-55 0 l0 359 q0 66 -4 107 ZM426 708 l-126 -144 l-47 0 l101 144 l72 0 Z" /><glyph glyph-name="Ncommaaccent" unicode="&#x145;" d="M170 708 l441 -626 l2 0 l0 626 l57 0 l0 -708 l-72 0 l-441 630 l-2 0 l0 -630 l-57 0 l0 708 l72 0 ZM418 -45 l-70 -185 l-46 0 l59 185 l57 0 Z" /><glyph glyph-name="ncommaaccent" unicode="&#x146;" d="M90 466 l52 0 q4 -52 4 -93 l2 0 q20 47 67 76 q47 29 100 29 q87 0 130.5 -53 q43.5 -53 43.5 -141 l0 -284 l-54 0 l0 264 q0 168 -132 168 q-65 0 -109.5 -51 q-44.5 -51 -44.5 -144 l0 -237 l-55 0 l0 359 q0 66 -4 107 ZM334 -45 l-71 -185 l-45 0 l59 185 l57 0 Z" /><glyph glyph-name="Ncaron" unicode="&#x147;" d="M170 708 l441 -626 l2 0 l0 626 l57 0 l0 -708 l-72 0 l-441 630 l-2 0 l0 -630 l-57 0 l0 708 l72 0 ZM523 908 l-107 -144 l-64 0 l-107 144 l53 0 l86 -115 l86 115 l53 0 Z" /><glyph glyph-name="ncaron" unicode="&#x148;" d="M90 466 l52 0 q4 -52 4 -93 l2 0 q20 47 67 76 q47 29 100 29 q87 0 130.5 -53 q43.5 -53 43.5 -141 l0 -284 l-54 0 l0 264 q0 168 -132 168 q-65 0 -109.5 -51 q-44.5 -51 -44.5 -144 l0 -237 l-55 0 l0 359 q0 66 -4 107 ZM432 708 l-107 -144 l-64 0 l-107 144 l53 0 l86 -115 l86 115 l53 0 Z" /><glyph glyph-name="napostrophe" unicode="&#x149;" d="M90 466 l52 0 q4 -52 4 -93 l2 0 q20 47 67 76 q47 29 100 29 q87 0 130.5 -53 q43.5 -53 43.5 -141 l0 -284 l-54 0 l0 264 q0 168 -132 168 q-65 0 -109.5 -51 q-44.5 -51 -44.5 -144 l0 -237 l-55 0 l0 359 q0 66 -4 107 ZM113 742 l-70 -185 l-45 0 l58 185 l57 0 Z" /><glyph glyph-name="Eng" unicode="&#x14a;" d="M98 0 l0 708 l72 0 l441 -612 l2 0 l0 612 l57 0 l0 -802 q0 -68 -28 -107 q-28 -39 -98 -39 q-30 0 -47 6 l8 45 q20 -5 38 -5 q44 0 58.5 27.5 q14.5 27.5 14.5 79.5 l0 77 l-459 640 l-2 0 l0 -630 l-57 0 Z" /><glyph glyph-name="eng" unicode="&#x14b;" d="M316 -234 l8 45 q20 -5 38 -5 q44 0 58.5 27.5 q14.5 27.5 14.5 79.5 l0 351 q0 169 -132 169 q-65 0 -109.5 -51.5 q-44.5 -51.5 -44.5 -144.5 l0 -237 l-55 0 l0 359 q0 66 -4 107 l52 0 q4 -52 4 -93 l2 0 q20 47 67 76 q47 29 100 29 q87 0 130.5 -53 q43.5 -53 43.5 -141 l0 -378 q0 -68 -28 -107 q-28 -39 -98 -39 q-30 0 -47 6 Z" /><glyph glyph-name="Omacron" unicode="&#x14c;" d="M691.5 621.5 q104.5 -105.5 104.5 -267.5 q0 -162 -104.5 -267.5 q-104.5 -105.5 -263.5 -105.5 q-158 0 -262.5 105.5 q-104.5 105.5 -104.5 267.5 q0 162 104.5 267.5 q104.5 105.5 262.5 105.5 q159 0 263.5 -105.5 ZM651 125.5 q85 93.5 85 228.5 q0 135 -85.5 228.5 q-85.5 93.5 -222.5 93.5 q-137 0 -222 -93.5 q-85 -93.5 -85 -228.5 q0 -135 85 -228.5 q85 -93.5 222 -93.5 q138 0 223 93.5 ZM560 850 l0 -44 l-258 0 l0 44 l258 0 Z" /><glyph glyph-name="omacron" unicode="&#x14d;" d="M550 233 q0 -106 -69 -176 q-69 -70 -177 -70 q-107 0 -176 70 q-69 70 -69 176 q0 107 68.5 176 q68.5 69 176.5 69 q108 0 177 -69 q69 -69 69 -176 ZM442 92 q52 56 52 141 q0 85 -52 141.5 q-52 56.5 -138 56.5 q-85 0 -137 -56.5 q-52 -56.5 -52 -141.5 q0 -85 52 -141 q52 -56 137 -56 q86 0 138 56 ZM434 650 l0 -44 l-258 0 l0 44 l258 0 Z" /><glyph glyph-name="Obreve" unicode="&#x14e;" d="M691.5 621.5 q104.5 -105.5 104.5 -267.5 q0 -162 -104.5 -267.5 q-104.5 -105.5 -263.5 -105.5 q-158 0 -262.5 105.5 q-104.5 105.5 -104.5 267.5 q0 162 104.5 267.5 q104.5 105.5 262.5 105.5 q159 0 263.5 -105.5 ZM651 125.5 q85 93.5 85 228.5 q0 135 -85.5 228.5 q-85.5 93.5 -222.5 93.5 q-137 0 -222 -93.5 q-85 -93.5 -85 -228.5 q0 -135 85 -228.5 q85 -93.5 222 -93.5 q138 0 223 93.5 ZM535 905 l36 0 q-5 -61 -43.5 -95.5 q-38.5 -34.5 -97.5 -34.5 q-59 0 -97 34.5 q-38 34.5 -43 95.5 l37 0 q7 -41 35.5 -63.5 q28.5 -22.5 67.5 -22.5 q89 0 105 86 Z" /><glyph glyph-name="obreve" unicode="&#x14f;" d="M550 233 q0 -106 -69 -176 q-69 -70 -177 -70 q-107 0 -176 70 q-69 70 -69 176 q0 107 68.5 176 q68.5 69 176.5 69 q108 0 177 -69 q69 -69 69 -176 ZM442 92 q52 56 52 141 q0 85 -52 141.5 q-52 56.5 -138 56.5 q-85 0 -137 -56.5 q-52 -56.5 -52 -141.5 q0 -85 52 -141 q52 -56 137 -56 q86 0 138 56 ZM410 705 l36 0 q-5 -61 -43.5 -95.5 q-38.5 -34.5 -97.5 -34.5 q-59 0 -97 34.5 q-38 34.5 -43 95.5 l37 0 q7 -41 35.5 -63.5 q28.5 -22.5 67.5 -22.5 q89 0 105 86 Z" /><glyph glyph-name="Ohungarumlaut" unicode="&#x150;" d="M691.5 621.5 q104.5 -105.5 104.5 -267.5 q0 -162 -104.5 -267.5 q-104.5 -105.5 -263.5 -105.5 q-158 0 -262.5 105.5 q-104.5 105.5 -104.5 267.5 q0 162 104.5 267.5 q104.5 105.5 262.5 105.5 q159 0 263.5 -105.5 ZM651 125.5 q85 93.5 85 228.5 q0 135 -85.5 228.5 q-85.5 93.5 -222.5 93.5 q-137 0 -222 -93.5 q-85 -93.5 -85 -228.5 q0 -135 85 -228.5 q85 -93.5 222 -93.5 q138 0 223 93.5 ZM326 764 l101 144 l72 0 l-126 -144 l-47 0 ZM480 764 l101 144 l72 0 l-126 -144 l-47 0 Z" /><glyph glyph-name="ohungarumlaut" unicode="&#x151;" d="M550 233 q0 -106 -69 -176 q-69 -70 -177 -70 q-107 0 -176 70 q-69 70 -69 176 q0 107 68.5 176 q68.5 69 176.5 69 q108 0 177 -69 q69 -69 69 -176 ZM442 92 q52 56 52 141 q0 85 -52 141.5 q-52 56.5 -138 56.5 q-85 0 -137 -56.5 q-52 -56.5 -52 -141.5 q0 -85 52 -141 q52 -56 137 -56 q86 0 138 56 ZM206 564 l101 144 l72 0 l-126 -144 l-47 0 ZM360 564 l101 144 l72 0 l-126 -144 l-47 0 Z" /><glyph glyph-name="OE" unicode="&#x152;" d="M449 708 l476 0 l0 -51 l-339 0 l0 -264 l316 0 l0 -50 l-316 0 l0 -292 l352 0 l0 -51 l-489 0 q-73 0 -139.5 22 q-66.5 22 -120.5 64.5 q-54 42.5 -86 112 q-32 69.5 -32 155.5 q0 86 32 155.5 q32 69.5 86 112 q54 42.5 120.5 64.5 q66.5 22 139.5 22 ZM464 657 q-154 0 -243.5 -85 q-89.5 -85 -89.5 -218 q0 -133 89 -218 q89 -85 244 -85 l65 0 l0 606 l-65 0 Z" /><glyph glyph-name="oe" unicode="&#x153;" d="M303 -13 q-107 0 -176 70 q-69 70 -69 176 q0 107 69 176 q69 69 176 69 q74 0 130 -34 q56 -34 86 -93 q28 59 81 93 q53 34 120 34 q105 0 163.5 -65.5 q58.5 -65.5 58.5 -162.5 q0 -20 -1 -28 l-396 0 q2 -77 53 -132.5 q51 -55.5 130 -55.5 q50 0 90.5 22.5 q40.5 22.5 65.5 59.5 l40 -32 q-75 -97 -197 -97 q-70 0 -124.5 34.5 q-54.5 34.5 -82.5 94.5 q-30 -60 -86.5 -94.5 q-56.5 -34.5 -130.5 -34.5 ZM441.5 91 q52.5 57 52.5 142 q0 85 -52.5 142.5 q-52.5 57.5 -138.5 57.5 q-85 0 -137.5 -57.5 q-52.5 -57.5 -52.5 -142.5 q0 -85 52.5 -142 q52.5 -57 137.5 -57 q86 0 138.5 57 ZM548 265 l339 0 q-3 75 -47 121.5 q-44 46.5 -119 46.5 q-75 0 -122.5 -52 q-47.5 -52 -50.5 -116 Z" /><glyph glyph-name="Racute" unicode="&#x154;" d="M155 339 l0 -339 l-57 0 l0 708 l204 0 q236 0 236 -185 q0 -80 -54 -127 q-54 -47 -134 -53 l209 -343 l-69 0 l-202 339 l-133 0 ZM155 659 l0 -271 l139 0 q90 0 138.5 34.5 q48.5 34.5 48.5 100.5 q0 136 -188 136 l-138 0 ZM406 908 l-126 -144 l-47 0 l101 144 l72 0 Z" /><glyph glyph-name="racute" unicode="&#x155;" d="M94 359 q0 66 -4 107 l52 0 q4 -52 4 -93 l2 0 q19 49 60.5 77 q41.5 28 92.5 28 q25 0 37 -4 l-6 -50 q-14 4 -38 4 q-65 0 -105 -51 q-40 -51 -40 -138 l0 -239 l-55 0 l0 359 ZM292 708 l-126 -144 l-47 0 l101 144 l72 0 Z" /><glyph glyph-name="Rcommaaccent" unicode="&#x156;" d="M155 339 l0 -339 l-57 0 l0 708 l204 0 q236 0 236 -185 q0 -80 -54 -127 q-54 -47 -134 -53 l209 -343 l-69 0 l-202 339 l-133 0 ZM155 659 l0 -271 l139 0 q90 0 138.5 34.5 q48.5 34.5 48.5 100.5 q0 136 -188 136 l-138 0 ZM353 -45 l-71 -185 l-45 0 l59 185 l57 0 Z" /><glyph glyph-name="rcommaaccent" unicode="&#x157;" d="M94 359 q0 66 -4 107 l52 0 q4 -52 4 -93 l2 0 q19 49 60.5 77 q41.5 28 92.5 28 q25 0 37 -4 l-6 -50 q-14 4 -38 4 q-65 0 -105 -51 q-40 -51 -40 -138 l0 -239 l-55 0 l0 359 ZM166 -45 l-71 -185 l-45 0 l59 185 l57 0 Z" /><glyph glyph-name="Rcaron" unicode="&#x158;" d="M155 339 l0 -339 l-57 0 l0 708 l204 0 q236 0 236 -185 q0 -80 -54 -127 q-54 -47 -134 -53 l209 -343 l-69 0 l-202 339 l-133 0 ZM155 659 l0 -271 l139 0 q90 0 138.5 34.5 q48.5 34.5 48.5 100.5 q0 136 -188 136 l-138 0 ZM421 908 l-107 -144 l-64 0 l-107 144 l53 0 l86 -115 l86 115 l53 0 Z" /><glyph glyph-name="rcaron" unicode="&#x159;" d="M94 359 q0 66 -4 107 l52 0 q4 -52 4 -93 l2 0 q19 49 60.5 77 q41.5 28 92.5 28 q25 0 37 -4 l-6 -50 q-14 4 -38 4 q-65 0 -105 -51 q-40 -51 -40 -138 l0 -239 l-55 0 l0 359 ZM347 708 l-107 -144 l-64 0 l-107 144 l53 0 l86 -115 l86 115 l53 0 Z" /><glyph glyph-name="Sacute" unicode="&#x15a;" d="M491 643 l-41 -37 q-59 72 -156 72 q-64 0 -114 -37.5 q-50 -37.5 -50 -105.5 q0 -42 20.5 -71 q20.5 -29 53.5 -45 q33 -16 72.5 -29 q39.5 -13 79 -28 q39.5 -15 72.5 -35.5 q33 -20.5 53.5 -57.5 q20.5 -37 20.5 -88 q0 -96 -67 -148 q-67 -52 -159 -52 q-136 0 -214 102 l40 35 q74 -87 174 -87 q67 0 117.5 39.5 q50.5 39.5 50.5 107.5 q0 42 -20.5 71.5 q-20.5 29.5 -53 46.5 q-32.5 17 -72 30.5 q-39.5 13.5 -79.5 28.5 q-40 15 -72.5 35.5 q-32.5 20.5 -53 57 q-20.5 36.5 -20.5 87.5 q0 92 67 142 q67 50 157 50 q130 0 194 -84 ZM422 908 l-126 -144 l-47 0 l101 144 l72 0 Z" /><glyph glyph-name="sacute" unicode="&#x15b;" d="M379 399 l-42 -30 q-38 64 -117 64 q-42 0 -73.5 -20.5 q-31.5 -20.5 -31.5 -60.5 q0 -38 27 -56.5 q27 -18.5 90 -32.5 q78 -17 117 -48 q39 -31 39 -86 q0 -70 -49.5 -105.5 q-49.5 -35.5 -119.5 -35.5 q-118 0 -177 87 l43 31 q21 -32 56.5 -52 q35.5 -20 77.5 -20 q48 0 81.5 22.5 q33.5 22.5 33.5 68.5 q0 35 -28 55 q-28 20 -67.5 29.5 q-39.5 9.5 -79.5 21 q-40 11.5 -68 40.5 q-28 29 -28 77 q0 64 46.5 97 q46.5 33 112.5 33 q52 0 93.5 -20.5 q41.5 -20.5 63.5 -58.5 ZM359 708 l-126 -144 l-47 0 l101 144 l72 0 Z" /><glyph glyph-name="Scircumflex" unicode="&#x15c;" d="M491 643 l-41 -37 q-59 72 -156 72 q-64 0 -114 -37.5 q-50 -37.5 -50 -105.5 q0 -42 20.5 -71 q20.5 -29 53.5 -45 q33 -16 72.5 -29 q39.5 -13 79 -28 q39.5 -15 72.5 -35.5 q33 -20.5 53.5 -57.5 q20.5 -37 20.5 -88 q0 -96 -67 -148 q-67 -52 -159 -52 q-136 0 -214 102 l40 35 q74 -87 174 -87 q67 0 117.5 39.5 q50.5 39.5 50.5 107.5 q0 42 -20.5 71.5 q-20.5 29.5 -53 46.5 q-32.5 17 -72 30.5 q-39.5 13.5 -79.5 28.5 q-40 15 -72.5 35.5 q-32.5 20.5 -53 57 q-20.5 36.5 -20.5 87.5 q0 92 67 142 q67 50 157 50 q130 0 194 -84 ZM327 908 l107 -144 l-53 0 l-86 115 l-86 -115 l-53 0 l107 144 l64 0 Z" /><glyph glyph-name="scircumflex" unicode="&#x15d;" d="M379 399 l-42 -30 q-38 64 -117 64 q-42 0 -73.5 -20.5 q-31.5 -20.5 -31.5 -60.5 q0 -38 27 -56.5 q27 -18.5 90 -32.5 q78 -17 117 -48 q39 -31 39 -86 q0 -70 -49.5 -105.5 q-49.5 -35.5 -119.5 -35.5 q-118 0 -177 87 l43 31 q21 -32 56.5 -52 q35.5 -20 77.5 -20 q48 0 81.5 22.5 q33.5 22.5 33.5 68.5 q0 35 -28 55 q-28 20 -67.5 29.5 q-39.5 9.5 -79.5 21 q-40 11.5 -68 40.5 q-28 29 -28 77 q0 64 46.5 97 q46.5 33 112.5 33 q52 0 93.5 -20.5 q41.5 -20.5 63.5 -58.5 ZM257 708 l107 -144 l-53 0 l-86 115 l-86 -115 l-53 0 l107 144 l64 0 Z" /><glyph glyph-name="Scedilla" unicode="&#x15e;" d="M491 643 l-41 -37 q-59 72 -156 72 q-64 0 -114 -37.5 q-50 -37.5 -50 -105.5 q0 -42 20.5 -71 q20.5 -29 53.5 -45 q33 -16 72.5 -29 q39.5 -13 79 -28 q39.5 -15 72.5 -35.5 q33 -20.5 53.5 -57.5 q20.5 -37 20.5 -88 q0 -91 -60 -142 q-60 -51 -147 -57 l-38 -60 q15 5 40 5 q33 0 58.5 -18.5 q25.5 -18.5 25.5 -52.5 q0 -45 -35 -65 q-35 -20 -81 -20 q-50 0 -93 20 l13 31 q33 -16 76 -16 q26 0 49 12 q23 12 23 37 q0 43 -60 43 q-28 0 -51 -10 l-15 13 l52 81 q-124 6 -197 101 l40 35 q74 -87 174 -87 q67 0 117.5 39.5 q50.5 39.5 50.5 107.5 q0 42 -20.5 71.5 q-20.5 29.5 -53 46.5 q-32.5 17 -72 30.5 q-39.5 13.5 -79.5 28.5 q-40 15 -72.5 35.5 q-32.5 20.5 -53 57 q-20.5 36.5 -20.5 87.5 q0 92 67 142 q67 50 157 50 q130 0 194 -84 Z" /><glyph glyph-name="scedilla" unicode="&#x15f;" d="M379 399 l-42 -30 q-38 64 -117 64 q-42 0 -73.5 -20.5 q-31.5 -20.5 -31.5 -60.5 q0 -38 27 -56.5 q27 -18.5 90 -32.5 q78 -17 117 -48 q39 -31 39 -86 q0 -64 -42 -99 q-42 -35 -105 -41 l-43 -67 q15 5 40 5 q33 0 58.5 -18.5 q25.5 -18.5 25.5 -52.5 q0 -45 -35 -65 q-35 -20 -81 -20 q-50 0 -93 20 l13 31 q33 -16 76 -16 q26 0 49 12 q23 12 23 37 q0 43 -60 43 q-28 0 -51 -10 l-15 13 l56 88 q-108 5 -162 86 l43 31 q21 -32 56.5 -52 q35.5 -20 77.5 -20 q48 0 81.5 22.5 q33.5 22.5 33.5 68.5 q0 35 -28 55 q-28 20 -67.5 29.5 q-39.5 9.5 -79.5 21 q-40 11.5 -68 40.5 q-28 29 -28 77 q0 64 46.5 97 q46.5 33 112.5 33 q52 0 93.5 -20.5 q41.5 -20.5 63.5 -58.5 Z" /><glyph glyph-name="Scaron" unicode="&#x160;" d="M491 643 l-41 -37 q-59 72 -156 72 q-64 0 -114 -37.5 q-50 -37.5 -50 -105.5 q0 -42 20.5 -71 q20.5 -29 53.5 -45 q33 -16 72.5 -29 q39.5 -13 79 -28 q39.5 -15 72.5 -35.5 q33 -20.5 53.5 -57.5 q20.5 -37 20.5 -88 q0 -96 -67 -148 q-67 -52 -159 -52 q-136 0 -214 102 l40 35 q74 -87 174 -87 q67 0 117.5 39.5 q50.5 39.5 50.5 107.5 q0 42 -20.5 71.5 q-20.5 29.5 -53 46.5 q-32.5 17 -72 30.5 q-39.5 13.5 -79.5 28.5 q-40 15 -72.5 35.5 q-32.5 20.5 -53 57 q-20.5 36.5 -20.5 87.5 q0 92 67 142 q67 50 157 50 q130 0 194 -84 ZM428 908 l-107 -144 l-64 0 l-107 144 l53 0 l86 -115 l86 115 l53 0 Z" /><glyph glyph-name="scaron" unicode="&#x161;" d="M379 399 l-42 -30 q-38 64 -117 64 q-42 0 -73.5 -20.5 q-31.5 -20.5 -31.5 -60.5 q0 -38 27 -56.5 q27 -18.5 90 -32.5 q78 -17 117 -48 q39 -31 39 -86 q0 -70 -49.5 -105.5 q-49.5 -35.5 -119.5 -35.5 q-118 0 -177 87 l43 31 q21 -32 56.5 -52 q35.5 -20 77.5 -20 q48 0 81.5 22.5 q33.5 22.5 33.5 68.5 q0 35 -28 55 q-28 20 -67.5 29.5 q-39.5 9.5 -79.5 21 q-40 11.5 -68 40.5 q-28 29 -28 77 q0 64 46.5 97 q46.5 33 112.5 33 q52 0 93.5 -20.5 q41.5 -20.5 63.5 -58.5 ZM364 708 l-107 -144 l-64 0 l-107 144 l53 0 l86 -115 l86 115 l53 0 Z" /><glyph glyph-name="uni0162" unicode="&#x162;" d="M309 657 l0 -657 l-57 0 l0 657 l-238 0 l0 51 l533 0 l0 -51 l-238 0 ZM325 -45 l-70 -185 l-45 0 l58 185 l57 0 Z" /><glyph glyph-name="uni0163" unicode="&#x163;" d="M294 466 l0 -46 l-133 0 l0 -295 q0 -47 19 -66.5 q19 -19.5 55 -19.5 q29 0 57 13 l3 -47 q-36 -13 -74 -13 q-49 0 -81.5 28.5 q-32.5 28.5 -32.5 91.5 l0 308 l-98 0 l0 46 l97 0 l0 133 l55 0 l0 -133 l133 0 ZM239 -45 l-70 -185 l-45 0 l58 185 l57 0 Z" /><glyph glyph-name="Tcaron" unicode="&#x164;" d="M309 657 l0 -657 l-57 0 l0 657 l-238 0 l0 51 l533 0 l0 -51 l-238 0 ZM419 908 l-107 -144 l-64 0 l-107 144 l53 0 l86 -115 l86 115 l53 0 Z" /><glyph glyph-name="tcaron" unicode="&#x165;" d="M294 466 l0 -46 l-133 0 l0 -295 q0 -47 19 -66.5 q19 -19.5 55 -19.5 q29 0 57 13 l3 -47 q-36 -13 -74 -13 q-49 0 -81.5 28.5 q-32.5 28.5 -32.5 91.5 l0 308 l-98 0 l0 46 l97 0 l0 133 l55 0 l0 -133 l133 0 ZM341 731 l-70 -185 l-45 0 l58 185 l57 0 Z" /><glyph glyph-name="Tbar" unicode="&#x166;" d="M69 544 l183 0 l0 113 l-238 0 l0 51 l533 0 l0 -51 l-238 0 l0 -113 l176 0 l0 -41 l-176 0 l0 -503 l-57 0 l0 503 l-183 0 l0 41 Z" /><glyph glyph-name="tbar" unicode="&#x167;" d="M17 303 l90 0 l0 117 l-98 0 l0 46 l97 0 l0 133 l55 0 l0 -133 l133 0 l0 -46 l-133 0 l0 -117 l122 0 l0 -40 l-122 0 l0 -138 q0 -47 19 -66.5 q19 -19.5 55 -19.5 q29 0 57 13 l3 -47 q-36 -13 -74 -13 q-49 0 -81.5 28.5 q-32.5 28.5 -32.5 91.5 l0 151 l-90 0 l0 40 Z" /><glyph glyph-name="Utilde" unicode="&#x168;" d="M358 -19 q-74 0 -128.5 25.5 q-54.5 25.5 -83 68.5 q-28.5 43 -41.5 90 q-13 47 -13 100 l0 443 l57 0 l0 -436 q0 -36 5.5 -68.5 q5.5 -32.5 20.5 -64.5 q15 -32 38 -55 q23 -23 60 -37.5 q37 -14.5 85 -14.5 q59 0 101.5 21 q42.5 21 65.5 56.5 q23 35.5 33 76 q10 40.5 10 86.5 l0 436 l57 0 l0 -443 q0 -53 -13 -100 q-13 -47 -41.5 -90 q-28.5 -43 -83 -68.5 q-54.5 -25.5 -129.5 -25.5 ZM245 781 l-35 0 q15 94 82 94 q22 0 71 -23.5 q49 -23.5 64 -23.5 q35 0 46 49 l35 0 q-15 -93 -81 -93 q-23 0 -71 23.5 q-48 23.5 -64 23.5 q-36 0 -47 -50 Z" /><glyph glyph-name="utilde" unicode="&#x169;" d="M488 0 l-53 0 q-4 50 -4 92 l-2 0 q-19 -47 -66 -76 q-47 -29 -100 -29 q-88 0 -131.5 53.5 q-43.5 53.5 -43.5 140.5 l0 285 l55 0 l0 -264 q0 -169 132 -169 q64 0 109 51.5 q45 51.5 45 144.5 l0 237 l54 0 l0 -359 q0 -57 5 -107 ZM175 581 l-35 0 q15 94 82 94 q22 0 71 -23.5 q49 -23.5 64 -23.5 q35 0 46 49 l35 0 q-15 -93 -81 -93 q-23 0 -71 23.5 q-48 23.5 -64 23.5 q-36 0 -47 -50 Z" /><glyph glyph-name="Umacron" unicode="&#x16a;" d="M358 -19 q-74 0 -128.5 25.5 q-54.5 25.5 -83 68.5 q-28.5 43 -41.5 90 q-13 47 -13 100 l0 443 l57 0 l0 -436 q0 -36 5.5 -68.5 q5.5 -32.5 20.5 -64.5 q15 -32 38 -55 q23 -23 60 -37.5 q37 -14.5 85 -14.5 q59 0 101.5 21 q42.5 21 65.5 56.5 q23 35.5 33 76 q10 40.5 10 86.5 l0 436 l57 0 l0 -443 q0 -53 -13 -100 q-13 -47 -41.5 -90 q-28.5 -43 -83 -68.5 q-54.5 -25.5 -129.5 -25.5 ZM488 850 l0 -44 l-258 0 l0 44 l258 0 Z" /><glyph glyph-name="umacron" unicode="&#x16b;" d="M488 0 l-53 0 q-4 50 -4 92 l-2 0 q-19 -47 -66 -76 q-47 -29 -100 -29 q-88 0 -131.5 53.5 q-43.5 53.5 -43.5 140.5 l0 285 l55 0 l0 -264 q0 -169 132 -169 q64 0 109 51.5 q45 51.5 45 144.5 l0 237 l54 0 l0 -359 q0 -57 5 -107 ZM416 650 l0 -44 l-258 0 l0 44 l258 0 Z" /><glyph glyph-name="Ubreve" unicode="&#x16c;" d="M358 -19 q-74 0 -128.5 25.5 q-54.5 25.5 -83 68.5 q-28.5 43 -41.5 90 q-13 47 -13 100 l0 443 l57 0 l0 -436 q0 -36 5.5 -68.5 q5.5 -32.5 20.5 -64.5 q15 -32 38 -55 q23 -23 60 -37.5 q37 -14.5 85 -14.5 q59 0 101.5 21 q42.5 21 65.5 56.5 q23 35.5 33 76 q10 40.5 10 86.5 l0 436 l57 0 l0 -443 q0 -53 -13 -100 q-13 -47 -41.5 -90 q-28.5 -43 -83 -68.5 q-54.5 -25.5 -129.5 -25.5 ZM463 905 l36 0 q-5 -61 -43.5 -95.5 q-38.5 -34.5 -97.5 -34.5 q-59 0 -97 34.5 q-38 34.5 -43 95.5 l37 0 q7 -41 35.5 -63.5 q28.5 -22.5 67.5 -22.5 q89 0 105 86 Z" /><glyph glyph-name="ubreve" unicode="&#x16d;" d="M488 0 l-53 0 q-4 50 -4 92 l-2 0 q-19 -47 -66 -76 q-47 -29 -100 -29 q-88 0 -131.5 53.5 q-43.5 53.5 -43.5 140.5 l0 285 l55 0 l0 -264 q0 -169 132 -169 q64 0 109 51.5 q45 51.5 45 144.5 l0 237 l54 0 l0 -359 q0 -57 5 -107 ZM393 705 l36 0 q-5 -61 -43.5 -95.5 q-38.5 -34.5 -97.5 -34.5 q-59 0 -97 34.5 q-38 34.5 -43 95.5 l37 0 q7 -41 35.5 -63.5 q28.5 -22.5 67.5 -22.5 q89 0 105 86 Z" /><glyph glyph-name="Uring" unicode="&#x16e;" d="M358 -19 q-74 0 -128.5 25.5 q-54.5 25.5 -83 68.5 q-28.5 43 -41.5 90 q-13 47 -13 100 l0 443 l57 0 l0 -436 q0 -36 5.5 -68.5 q5.5 -32.5 20.5 -64.5 q15 -32 38 -55 q23 -23 60 -37.5 q37 -14.5 85 -14.5 q59 0 101.5 21 q42.5 21 65.5 56.5 q23 35.5 33 76 q10 40.5 10 86.5 l0 436 l57 0 l0 -443 q0 -53 -13 -100 q-13 -47 -41.5 -90 q-28.5 -43 -83 -68.5 q-54.5 -25.5 -129.5 -25.5 ZM427.5 917.5 q28.5 -27.5 28.5 -67.5 q0 -40 -28.5 -67.5 q-28.5 -27.5 -67.5 -27.5 q-39 0 -67.5 27.5 q-28.5 27.5 -28.5 67.5 q0 40 28.5 67.5 q28.5 27.5 67.5 27.5 q39 0 67.5 -27.5 ZM406 804 q19 19 19 46 q0 27 -19 46 q-19 19 -46 19 q-27 0 -46 -19 q-19 -19 -19 -46 q0 -27 19 -46 q19 -19 46 -19 q27 0 46 19 Z" /><glyph glyph-name="uring" unicode="&#x16f;" d="M488 0 l-53 0 q-4 50 -4 92 l-2 0 q-19 -47 -66 -76 q-47 -29 -100 -29 q-88 0 -131.5 53.5 q-43.5 53.5 -43.5 140.5 l0 285 l55 0 l0 -264 q0 -169 132 -169 q64 0 109 51.5 q45 51.5 45 144.5 l0 237 l54 0 l0 -359 q0 -57 5 -107 ZM354.5 717.5 q28.5 -27.5 28.5 -67.5 q0 -40 -28.5 -67.5 q-28.5 -27.5 -67.5 -27.5 q-39 0 -67.5 27.5 q-28.5 27.5 -28.5 67.5 q0 40 28.5 67.5 q28.5 27.5 67.5 27.5 q39 0 67.5 -27.5 ZM333 604 q19 19 19 46 q0 27 -19 46 q-19 19 -46 19 q-27 0 -46 -19 q-19 -19 -19 -46 q0 -27 19 -46 q19 -19 46 -19 q27 0 46 19 Z" /><glyph glyph-name="Uhungarumlaut" unicode="&#x170;" d="M358 -19 q-74 0 -128.5 25.5 q-54.5 25.5 -83 68.5 q-28.5 43 -41.5 90 q-13 47 -13 100 l0 443 l57 0 l0 -436 q0 -36 5.5 -68.5 q5.5 -32.5 20.5 -64.5 q15 -32 38 -55 q23 -23 60 -37.5 q37 -14.5 85 -14.5 q59 0 101.5 21 q42.5 21 65.5 56.5 q23 35.5 33 76 q10 40.5 10 86.5 l0 436 l57 0 l0 -443 q0 -53 -13 -100 q-13 -47 -41.5 -90 q-28.5 -43 -83 -68.5 q-54.5 -25.5 -129.5 -25.5 ZM251 764 l101 144 l72 0 l-126 -144 l-47 0 ZM405 764 l101 144 l72 0 l-126 -144 l-47 0 Z" /><glyph glyph-name="uhungarumlaut" unicode="&#x171;" d="M488 0 l-53 0 q-4 50 -4 92 l-2 0 q-19 -47 -66 -76 q-47 -29 -100 -29 q-88 0 -131.5 53.5 q-43.5 53.5 -43.5 140.5 l0 285 l55 0 l0 -264 q0 -169 132 -169 q64 0 109 51.5 q45 51.5 45 144.5 l0 237 l54 0 l0 -359 q0 -57 5 -107 ZM181 564 l101 144 l72 0 l-126 -144 l-47 0 ZM335 564 l101 144 l72 0 l-126 -144 l-47 0 Z" /><glyph glyph-name="Uogonek" unicode="&#x172;" d="M367 -18 l-12 0 q-60 0 -106.5 17.5 q-46.5 17.5 -75.5 45 q-29 27.5 -48 65.5 q-19 38 -26 76 q-7 38 -7 79 l0 443 l57 0 l0 -436 q0 -36 5.5 -68.5 q5.5 -32.5 20.5 -64.5 q15 -32 38 -55 q23 -23 60 -37.5 q37 -14.5 85 -14.5 q59 0 101.5 21 q42.5 21 65.5 56.5 q23 35.5 33 76 q10 40.5 10 86.5 l0 436 l57 0 l0 -443 q0 -47 -10.5 -90 q-10.5 -43 -33.5 -83.5 q-23 -40.5 -65.5 -68.5 q-42.5 -28 -100.5 -37 q-36 -37 -52 -61.5 q-16 -24.5 -16 -51.5 q0 -24 15.5 -38.5 q15.5 -14.5 38.5 -14.5 q35 0 57 24 l16 -32 q-35 -35 -88 -35 q-36 0 -62 23.5 q-26 23.5 -26 60.5 q0 56 69 121 Z" /><glyph glyph-name="uogonek" unicode="&#x173;" d="M434 -223 q-36 0 -62 23.5 q-26 23.5 -26 60.5 q0 62 90 139 l-1 0 q-4 50 -4 92 l-2 0 q-19 -47 -66 -76 q-47 -29 -100 -29 q-88 0 -131.5 53.5 q-43.5 53.5 -43.5 140.5 l0 285 l55 0 l0 -264 q0 -169 132 -169 q64 0 109 51.5 q45 51.5 45 144.5 l0 237 l54 0 l0 -359 q0 -57 5 -107 l-6 0 q-6 -1 -7 -1 q-43 -43 -61.5 -70 q-18.5 -27 -18.5 -56 q0 -24 15 -38.5 q15 -14.5 39 -14.5 q34 0 56 24 l17 -32 q-37 -35 -88 -35 Z" /><glyph glyph-name="Wcircumflex" unicode="&#x174;" d="M78 708 l184 -633 l2 0 l184 633 l71 0 l185 -633 l3 0 l182 633 l60 0 l-210 -708 l-69 0 l-186 632 l-2 0 l-185 -632 l-69 0 l-210 708 l60 0 ZM515 908 l107 -144 l-53 0 l-86 115 l-86 -115 l-53 0 l107 144 l64 0 Z" /><glyph glyph-name="wcircumflex" unicode="&#x175;" d="M28 466 l58 0 l117 -398 l2 0 l133 398 l55 0 l135 -398 l2 0 l116 398 l57 0 l-144 -466 l-61 0 l-132 396 l-2 0 l-131 -396 l-61 0 l-144 466 ZM396 708 l107 -144 l-53 0 l-86 115 l-86 -115 l-53 0 l107 144 l64 0 Z" /><glyph glyph-name="Ycircumflex" unicode="&#x176;" d="M320 306 l0 -306 l-57 0 l0 306 l-259 402 l71 0 l218 -353 l219 353 l66 0 l-258 -402 ZM325 908 l107 -144 l-53 0 l-86 115 l-86 -115 l-53 0 l107 144 l64 0 Z" /><glyph glyph-name="ycircumflex" unicode="&#x177;" d="M84 -241 q-25 0 -55 7 l7 49 q21 -8 46 -8 q34 0 54.5 21.5 q20.5 21.5 36.5 63.5 l40 105 l-195 469 l61 0 l162 -411 l2 2 l150 409 l59 0 l-232 -596 q-22 -55 -53 -83 q-31 -28 -83 -28 ZM273 708 l107 -144 l-53 0 l-86 115 l-86 -115 l-53 0 l107 144 l64 0 Z" /><glyph glyph-name="Ydieresis" unicode="&#x178;" d="M320 306 l0 -306 l-57 0 l0 306 l-259 402 l71 0 l218 -353 l219 353 l66 0 l-258 -402 ZM160 851 q0 17 12.5 30 q12.5 13 30.5 13 q18 0 30 -13 q12 -13 12 -30 q0 -18 -12 -31 q-12 -13 -30 -13 q-18 0 -30.5 13 q-12.5 13 -12.5 31 ZM341 851 q0 17 12 30 q12 13 30 13 q18 0 30.5 -13 q12.5 -13 12.5 -30 q0 -18 -12.5 -31 q-12.5 -13 -30.5 -13 q-18 0 -30 13 q-12 13 -12 31 Z" /><glyph glyph-name="Zacute" unicode="&#x179;" d="M536 708 l0 -51 l-428 -606 l436 0 l0 -51 l-506 0 l0 50 l429 607 l-418 0 l0 51 l487 0 ZM425 908 l-126 -144 l-47 0 l101 144 l72 0 Z" /><glyph glyph-name="zacute" unicode="&#x17a;" d="M393 466 l0 -41 l-286 -378 l297 0 l0 -47 l-368 0 l0 40 l287 380 l-272 0 l0 46 l342 0 ZM359 708 l-126 -144 l-47 0 l101 144 l72 0 Z" /><glyph glyph-name="Zdotaccent" unicode="&#x17b;" d="M536 708 l0 -51 l-428 -606 l436 0 l0 -51 l-506 0 l0 50 l429 607 l-418 0 l0 51 l487 0 ZM319.5 880 q12.5 -12 12.5 -29 q0 -17 -12.5 -29 q-12.5 -12 -28.5 -12 q-16 0 -28.5 12 q-12.5 12 -12.5 29 q0 17 12.5 29 q12.5 12 28.5 12 q16 0 28.5 -12 Z" /><glyph glyph-name="zdotaccent" unicode="&#x17c;" d="M393 466 l0 -41 l-286 -378 l297 0 l0 -47 l-368 0 l0 40 l287 380 l-272 0 l0 46 l342 0 ZM251.5 680 q12.5 -12 12.5 -29 q0 -17 -12.5 -29 q-12.5 -12 -28.5 -12 q-16 0 -28.5 12 q-12.5 12 -12.5 29 q0 17 12.5 29 q12.5 12 28.5 12 q16 0 28.5 -12 Z" /><glyph glyph-name="Zcaron" unicode="&#x17d;" d="M536 708 l0 -51 l-428 -606 l436 0 l0 -51 l-506 0 l0 50 l429 607 l-418 0 l0 51 l487 0 ZM430 908 l-107 -144 l-64 0 l-107 144 l53 0 l86 -115 l86 115 l53 0 Z" /><glyph glyph-name="zcaron" unicode="&#x17e;" d="M393 466 l0 -41 l-286 -378 l297 0 l0 -47 l-368 0 l0 40 l287 380 l-272 0 l0 46 l342 0 ZM363 708 l-107 -144 l-64 0 l-107 144 l53 0 l86 -115 l86 115 l53 0 Z" /><glyph glyph-name="florin" unicode="&#x192;" d="M429 416 l0 -44 l-120 0 l-69 -369 q-13 -65 -45 -104 q-32 -39 -99 -39 q-45 0 -72 16 l22 44 q22 -12 51 -12 q44 0 62.5 29 q18.5 29 28.5 83 l65 352 l-109 0 l0 44 l118 0 l28 152 q27 152 145 152 q51 0 86 -26 l-27 -39 q-25 17 -56 17 q-75 0 -95 -115 l-25 -141 l111 0 Z" /><glyph glyph-name="Scommaaccent" unicode="&#x218;" d="M491 643 l-41 -37 q-59 72 -156 72 q-64 0 -114 -37.5 q-50 -37.5 -50 -105.5 q0 -42 20.5 -71 q20.5 -29 53.5 -45 q33 -16 72.5 -29 q39.5 -13 79 -28 q39.5 -15 72.5 -35.5 q33 -20.5 53.5 -57.5 q20.5 -37 20.5 -88 q0 -96 -67 -148 q-67 -52 -159 -52 q-136 0 -214 102 l40 35 q74 -87 174 -87 q67 0 117.5 39.5 q50.5 39.5 50.5 107.5 q0 42 -20.5 71.5 q-20.5 29.5 -53 46.5 q-32.5 17 -72 30.5 q-39.5 13.5 -79.5 28.5 q-40 15 -72.5 35.5 q-32.5 20.5 -53 57 q-20.5 36.5 -20.5 87.5 q0 92 67 142 q67 50 157 50 q130 0 194 -84 ZM330 -46 l-71 -185 l-45 0 l59 185 l57 0 Z" /><glyph glyph-name="scommaaccent" unicode="&#x219;" d="M379 399 l-42 -30 q-38 64 -117 64 q-42 0 -73.5 -20.5 q-31.5 -20.5 -31.5 -60.5 q0 -38 27 -56.5 q27 -18.5 90 -32.5 q78 -17 117 -48 q39 -31 39 -86 q0 -70 -49.5 -105.5 q-49.5 -35.5 -119.5 -35.5 q-118 0 -177 87 l43 31 q21 -32 56.5 -52 q35.5 -20 77.5 -20 q48 0 81.5 22.5 q33.5 22.5 33.5 68.5 q0 35 -28 55 q-28 20 -67.5 29.5 q-39.5 9.5 -79.5 21 q-40 11.5 -68 40.5 q-28 29 -28 77 q0 64 46.5 97 q46.5 33 112.5 33 q52 0 93.5 -20.5 q41.5 -20.5 63.5 -58.5 ZM261 -46 l-71 -185 l-45 0 l59 185 l57 0 Z" /><glyph glyph-name="uni021A" unicode="&#x21a;" d="M309 657 l0 -657 l-57 0 l0 657 l-238 0 l0 51 l533 0 l0 -51 l-238 0 ZM325 -45 l-70 -185 l-45 0 l58 185 l57 0 Z" /><glyph glyph-name="uni021B" unicode="&#x21b;" d="M294 466 l0 -46 l-133 0 l0 -295 q0 -47 19 -66.5 q19 -19.5 55 -19.5 q29 0 57 13 l3 -47 q-36 -13 -74 -13 q-49 0 -81.5 28.5 q-32.5 28.5 -32.5 91.5 l0 308 l-98 0 l0 46 l97 0 l0 133 l55 0 l0 -133 l133 0 ZM239 -45 l-70 -185 l-45 0 l58 185 l57 0 Z" /><glyph glyph-name="dotlessj" unicode="&#x237;" d="M-24 -234 l8 45 q20 -5 38 -5 q44 0 58.5 27.5 q14.5 27.5 14.5 79.5 l0 553 l54 0 l0 -560 q0 -68 -28 -107 q-28 -39 -98 -39 q-30 0 -47 6 Z" /><glyph glyph-name="circumflex" unicode="&#x2c6;" d="M152 708 l107 -144 l-53 0 l-86 115 l-86 -115 l-53 0 l107 144 l64 0 Z" /><glyph glyph-name="caron" unicode="&#x2c7;" d="M259 708 l-107 -144 l-64 0 l-107 144 l53 0 l86 -115 l86 115 l53 0 Z" /><glyph glyph-name="uni02C9" unicode="&#x2c9;" d="M249 850 l0 -44 l-258 0 l0 44 l258 0 Z" /><glyph glyph-name="breve" unicode="&#x2d8;" d="M224 705 l36 0 q-5 -61 -43.5 -95.5 q-38.5 -34.5 -97.5 -34.5 q-59 0 -97 34.5 q-38 34.5 -43 95.5 l37 0 q7 -41 35.5 -63.5 q28.5 -22.5 67.5 -22.5 q89 0 105 86 Z" /><glyph glyph-name="dotaccent" unicode="&#x2d9;" d="M148.5 680 q12.5 -12 12.5 -29 q0 -17 -12.5 -29 q-12.5 -12 -28.5 -12 q-16 0 -28.5 12 q-12.5 12 -12.5 29 q0 17 12.5 29 q12.5 12 28.5 12 q16 0 28.5 -12 Z" /><glyph glyph-name="ring" unicode="&#x2da;" d="M187.5 717.5 q28.5 -27.5 28.5 -67.5 q0 -40 -28.5 -67.5 q-28.5 -27.5 -67.5 -27.5 q-39 0 -67.5 27.5 q-28.5 27.5 -28.5 67.5 q0 40 28.5 67.5 q28.5 27.5 67.5 27.5 q39 0 67.5 -27.5 ZM166 604 q19 19 19 46 q0 27 -19 46 q-19 19 -46 19 q-27 0 -46 -19 q-19 -19 -19 -46 q0 -27 19 -46 q19 -19 46 -19 q27 0 46 19 Z" /><glyph glyph-name="ogonek" unicode="&#x2db;" d="M192 -156 l17 -32 q-37 -35 -88 -35 q-36 0 -62 23.5 q-26 23.5 -26 60.5 q0 62 90 139 l40 0 q-44 -45 -62.5 -72 q-18.5 -27 -18.5 -55 q0 -24 15.5 -38.5 q15.5 -14.5 38.5 -14.5 q35 0 56 24 Z" /><glyph glyph-name="tilde" unicode="&#x2dc;" d="M6 581 l-35 0 q15 94 82 94 q22 0 71 -23.5 q49 -23.5 64 -23.5 q35 0 46 49 l35 0 q-15 -93 -81 -93 q-23 0 -71 23.5 q-48 23.5 -64 23.5 q-36 0 -47 -50 Z" /><glyph glyph-name="hungarumlaut" unicode="&#x2dd;" d="M-30 564 l101 144 l72 0 l-126 -144 l-47 0 ZM124 564 l101 144 l72 0 l-126 -144 l-47 0 Z" /><glyph glyph-name="uni0394" unicode="&#x394;" d="M646 0 l-624 0 l279 712 l61 0 l284 -712 ZM570 49 l-239 610 l-237 -610 l476 0 Z" /><glyph glyph-name="uni03A9" unicode="&#x3a9;" d="M678 0 l-238 0 l0 175 q89 16 137 82 q48 66 48 159 q0 110 -75 183 q-75 73 -185 73 q-109 0 -184 -73 q-75 -73 -75 -183 q0 -94 48 -160 q48 -66 137 -81 l0 -175 l-238 0 l0 47 l195 0 l0 94 q-91 26 -143 102 q-52 76 -52 174 q0 130 92 217 q92 87 221 87 q129 0 220.5 -86.5 q91.5 -86.5 91.5 -216.5 q0 -99 -51.5 -175 q-51.5 -76 -143.5 -102 l0 -94 l195 0 l0 -47 Z" /><glyph glyph-name="uni03BC" unicode="&#x3bc;" d="M79 -228 l0 694 l52 0 l0 -264 q0 -83 30 -125 q30 -42 103 -42 q67 0 110.5 52 q43.5 52 43.5 142 l0 237 l53 0 l0 -359 q0 -43 4 -107 l-57 0 l0 89 l-2 0 q-22 -44 -68 -73 q-46 -29 -96 -29 q-78 0 -121 46 l0 -261 l-52 0 Z" /><glyph glyph-name="pi" unicode="&#x3c0;" d="M523 9 q-33 -15 -60 -15 q-21 0 -35 6.5 q-14 6.5 -21 14.5 q-7 8 -11 25 q-4 17 -4.5 29.5 q-0.5 12.5 -0.5 36.5 l0 312 l-234 0 l0 -418 l-51 0 l0 418 l-71 0 l0 48 l483 0 l0 -48 l-76 0 l0 -320 q0 -30 8 -44.5 q8 -14.5 34 -14.5 q20 0 39 8 l0 -38 Z" /><glyph glyph-name="uni0400" unicode="&#x400;" d="M154 343 l0 -292 l388 0 l0 -51 l-444 0 l0 708 l431 0 l0 -51 l-375 0 l0 -264 l351 0 l0 -50 l-351 0 ZM317 764 l-126 144 l72 0 l101 -144 l-47 0 Z" /><glyph glyph-name="uni0401" unicode="&#x401;" d="M183 851 q0 17 12 30 q12 13 30 13 q18 0 30.5 -13 q12.5 -13 12.5 -30 q0 -18 -12.5 -31 q-12.5 -13 -30.5 -13 q-18 0 -30 13 q-12 13 -12 31 ZM363 851 q0 17 12.5 30 q12.5 13 30.5 13 q18 0 30.5 -13 q12.5 -13 12.5 -30 q0 -18 -12.5 -31 q-12.5 -13 -30.5 -13 q-18 0 -30.5 13 q-12.5 13 -12.5 31 ZM98 0 l0 708 l431 0 l0 -51 l-375 0 l0 -264 l351 0 l0 -50 l-351 0 l0 -292 l388 0 l0 -51 l-444 0 Z" /><glyph glyph-name="uni0402" unicode="&#x402;" d="M488 -9 q-42 0 -80 8 l9 50 q30 -7 66 -7 q95 0 147 40.5 q52 40.5 52 118.5 q0 80 -52.5 122 q-52.5 42 -152.5 42 q-101 0 -168 -25 l0 -340 l-57 0 l0 657 l-238 0 l0 51 l533 0 l0 -51 l-238 0 l0 -265 q77 22 171 22 q122 0 190.5 -54 q68.5 -54 68.5 -158 q0 -103 -67.5 -157 q-67.5 -54 -183.5 -54 Z" /><glyph glyph-name="uni0403" unicode="&#x403;" d="M421 908 l-126 -144 l-47 0 l101 144 l72 0 ZM98 0 l0 708 l391 0 l0 -51 l-334 0 l0 -657 l-57 0 Z" /><glyph glyph-name="uni0404" unicode="&#x404;" d="M427 -19 q-160 0 -263 105.5 q-103 105.5 -103 267.5 q0 162 104 267.5 q104 105.5 262 105.5 q76 0 142.5 -28.5 q66.5 -28.5 104.5 -77.5 l-46 -36 q-30 39 -84 65 q-54 26 -116 26 q-127 0 -209.5 -80.5 q-82.5 -80.5 -95.5 -202.5 l369 0 l0 -50 l-371 0 l0 -4 q5 -130 89.5 -218.5 q84.5 -88.5 217.5 -88.5 q143 0 217 104 l44 -30 q-40 -56 -108.5 -90.5 q-68.5 -34.5 -153.5 -34.5 Z" /><glyph glyph-name="uni0405" unicode="&#x405;" d="M491 643 l-41 -37 q-59 72 -156 72 q-64 0 -114 -37.5 q-50 -37.5 -50 -105.5 q0 -42 20.5 -71 q20.5 -29 53.5 -45 q33 -16 72.5 -29 q39.5 -13 79 -28 q39.5 -15 72.5 -35.5 q33 -20.5 53.5 -57.5 q20.5 -37 20.5 -88 q0 -96 -67 -148 q-67 -52 -159 -52 q-136 0 -214 102 l40 35 q74 -87 174 -87 q67 0 117.5 39.5 q50.5 39.5 50.5 107.5 q0 42 -20.5 71.5 q-20.5 29.5 -53 46.5 q-32.5 17 -72 30.5 q-39.5 13.5 -79.5 28.5 q-40 15 -72.5 35.5 q-32.5 20.5 -53 57 q-20.5 36.5 -20.5 87.5 q0 92 67 142 q67 50 157 50 q130 0 194 -84 Z" /><glyph glyph-name="uni0406" unicode="&#x406;" d="M98 0 l0 708 l57 0 l0 -708 l-57 0 Z" /><glyph glyph-name="uni0407" unicode="&#x407;" d="M-7 851 q0 17 12.5 30 q12.5 13 30.5 13 q18 0 30 -13 q12 -13 12 -30 q0 -18 -12 -31 q-12 -13 -30 -13 q-18 0 -30.5 13 q-12.5 13 -12.5 31 ZM174 851 q0 17 12 30 q12 13 30 13 q18 0 30.5 -13 q12.5 -13 12.5 -30 q0 -18 -12.5 -31 q-12.5 -13 -30.5 -13 q-18 0 -30 13 q-12 13 -12 31 ZM98 0 l0 708 l57 0 l0 -708 l-57 0 Z" /><glyph glyph-name="uni0408" unicode="&#x408;" d="M210 -18 q-71 0 -120 37.5 q-49 37.5 -64 96.5 l53 15 q12 -44 45 -71.5 q33 -27.5 80 -27.5 q135 0 135 173 l0 503 l57 0 l0 -507 q0 -42 -9 -78.5 q-9 -36.5 -29.5 -69.5 q-20.5 -33 -58 -52 q-37.5 -19 -89.5 -19 Z" /><glyph glyph-name="uni0409" unicode="&#x409;" d="M64 -7 q-35 0 -60 8 l10 51 q28 -7 42 -7 q95 0 133.5 117.5 q38.5 117.5 38.5 389.5 l0 156 l415 0 l0 -312 l143 0 q109 0 176.5 -51 q67.5 -51 67.5 -149 q0 -98 -68 -147 q-68 -49 -179 -49 l-197 0 l0 658 l-302 0 l0 -131 q0 -273 -49 -403.5 q-49 -130.5 -171 -130.5 ZM643 49 l134 0 q89 0 142 36 q53 36 53 110 q0 74 -51 112.5 q-51 38.5 -139 38.5 l-139 0 l0 -297 Z" /><glyph glyph-name="uni040A" unicode="&#x40a;" d="M98 0 l0 708 l57 0 l0 -312 l413 0 l0 312 l57 0 l0 -312 l142 0 q109 0 176.5 -51 q67.5 -51 67.5 -149 q0 -98 -68 -147 q-68 -49 -179 -49 l-196 0 l0 346 l-413 0 l0 -346 l-57 0 ZM625 49 l134 0 q89 0 141.5 35.5 q52.5 35.5 52.5 110.5 q0 74 -51 112.5 q-51 38.5 -139 38.5 l-138 0 l0 -297 Z" /><glyph glyph-name="uni040B" unicode="&#x40b;" d="M252 0 l0 657 l-238 0 l0 51 l533 0 l0 -51 l-238 0 l0 -265 q79 22 170 22 q223 0 223 -183 l0 -231 l-57 0 l0 226 q0 64 -39.5 101 q-39.5 37 -124.5 37 q-107 0 -172 -23 l0 -341 l-57 0 Z" /><glyph glyph-name="uni040C" unicode="&#x40c;" d="M454 908 l-126 -144 l-47 0 l101 144 l72 0 ZM98 0 l0 708 l57 0 l0 -320 l343 320 l82 0 l-358 -322 l377 -386 l-83 0 l-361 378 l0 -378 l-57 0 Z" /><glyph glyph-name="uni040D" unicode="&#x40d;" d="M362 764 l-126 144 l72 0 l101 -144 l-47 0 ZM98 0 l0 708 l57 0 l0 -621 l2 0 l416 621 l67 0 l0 -708 l-57 0 l0 625 l-3 0 l-416 -625 l-66 0 Z" /><glyph glyph-name="uni040E" unicode="&#x40e;" d="M124 -7 q-33 0 -57 6 l10 53 q21 -7 47 -7 q63 0 106 79 l53 98 l-276 486 l66 0 l242 -428 l234 428 l63 0 l-333 -604 q-31 -56 -66 -83.5 q-35 -27.5 -89 -27.5 ZM409.5 809.5 q-37.5 -34.5 -95.5 -34.5 q-58 0 -95.5 34.5 q-37.5 34.5 -44.5 90.5 l38 7 q7 -42 35 -65 q28 -23 67 -23 q39 0 67 23 q28 23 35 65 l38 -7 q-7 -56 -44.5 -90.5 Z" /><glyph glyph-name="uni040F" unicode="&#x40f;" d="M332 -178 l0 178 l-234 0 l0 708 l57 0 l0 -657 l410 0 l0 657 l57 0 l0 -708 l-235 0 l0 -178 l-55 0 Z" /><glyph glyph-name="uni0410" unicode="&#x410;" d="M12 0 l307 708 l57 0 l301 -708 l-63 0 l-80 191 l-379 0 l-80 -191 l-63 0 ZM176 243 l337 0 l-167 405 l-170 -405 Z" /><glyph glyph-name="uni0411" unicode="&#x411;" d="M98 0 l0 708 l410 0 l0 -51 l-353 0 l0 -261 l157 0 q109 0 176.5 -51 q67.5 -51 67.5 -149 q0 -98 -68 -147 q-68 -49 -179 -49 l-211 0 ZM155 49 l149 0 q89 0 141.5 35.5 q52.5 35.5 52.5 110.5 q0 74 -51 112.5 q-51 38.5 -139 38.5 l-153 0 l0 -297 Z" /><glyph glyph-name="uni0412" unicode="&#x412;" d="M98 0 l0 708 l205 0 q44 0 81.5 -8.5 q37.5 -8.5 71.5 -27.5 q34 -19 53.5 -55 q19.5 -36 19.5 -86 q0 -60 -36.5 -101.5 q-36.5 -41.5 -94.5 -54.5 l0 -2 q69 -7 117 -54 q48 -47 48 -125 q0 -93 -70.5 -143.5 q-70.5 -50.5 -182.5 -50.5 l-212 0 ZM155 49 l149 0 q89 0 145 36 q56 36 56 111 q0 75 -52 112.5 q-52 37.5 -137 37.5 l-161 0 l0 -297 ZM155 394 l152 0 q67 0 115.5 32.5 q48.5 32.5 48.5 100.5 q0 68 -50 100 q-50 32 -129 32 l-137 0 l0 -265 Z" /><glyph glyph-name="uni0413" unicode="&#x413;" d="M98 0 l0 708 l391 0 l0 -51 l-334 0 l0 -657 l-57 0 Z" /><glyph glyph-name="uni0414" unicode="&#x414;" d="M17 -178 l0 229 l56 0 q128 131 128 462 l0 195 l426 0 l0 -657 l81 0 l0 -229 l-55 0 l0 178 l-582 0 l0 -178 l-54 0 ZM145 51 l425 0 l0 606 l-313 0 l0 -144 q0 -325 -112 -462 Z" /><glyph glyph-name="uni0415" unicode="&#x415;" d="M98 0 l0 708 l431 0 l0 -51 l-375 0 l0 -264 l351 0 l0 -50 l-351 0 l0 -292 l388 0 l0 -51 l-444 0 Z" /><glyph glyph-name="uni0416" unicode="&#x416;" d="M10 0 l365 386 l-346 322 l82 0 l331 -320 l0 320 l57 0 l0 -320 l332 320 l82 0 l-346 -322 l365 -386 l-83 0 l-350 378 l0 -378 l-57 0 l0 378 l-349 -378 l-83 0 Z" /><glyph glyph-name="uni0417" unicode="&#x417;" d="M264 -19 q-141 0 -223 100 l39 34 q76 -84 185 -84 q75 0 129 45.5 q54 45.5 54 118.5 q0 75 -57.5 113 q-57.5 38 -142.5 38 l-46 0 l0 50 l43 0 q80 0 130.5 35.5 q50.5 35.5 50.5 108.5 q0 60 -47 99 q-47 39 -114 39 q-89 0 -160 -71 l-35 35 q80 85 193 85 q99 0 158 -50 q59 -50 59 -139 q0 -63 -37 -107 q-37 -44 -95 -57 l0 -2 q68 -12 113 -59.5 q45 -47.5 45 -117.5 q0 -97 -69.5 -155.5 q-69.5 -58.5 -172.5 -58.5 Z" /><glyph glyph-name="uni0418" unicode="&#x418;" d="M98 0 l0 708 l57 0 l0 -621 l2 0 l416 621 l67 0 l0 -708 l-57 0 l0 625 l-3 0 l-416 -625 l-66 0 Z" /><glyph glyph-name="uni0419" unicode="&#x419;" d="M98 0 l0 708 l57 0 l0 -621 l2 0 l416 621 l67 0 l0 -708 l-57 0 l0 625 l-3 0 l-416 -625 l-66 0 ZM463.5 809.5 q-37.5 -34.5 -95.5 -34.5 q-58 0 -95.5 34.5 q-37.5 34.5 -44.5 90.5 l38 7 q7 -42 35 -65 q28 -23 67 -23 q39 0 67 23 q28 23 35 65 l38 -7 q-7 -56 -44.5 -90.5 Z" /><glyph glyph-name="uni041A" unicode="&#x41a;" d="M98 0 l0 708 l57 0 l0 -320 l343 320 l82 0 l-358 -322 l377 -386 l-83 0 l-361 378 l0 -378 l-57 0 Z" /><glyph glyph-name="uni041B" unicode="&#x41b;" d="M64 -7 q-35 0 -60 8 l10 51 q28 -7 42 -7 q95 0 133.5 117.5 q38.5 117.5 38.5 389.5 l0 156 l415 0 l0 -708 l-57 0 l0 658 l-302 0 l0 -131 q0 -273 -49 -403.5 q-49 -130.5 -171 -130.5 Z" /><glyph glyph-name="uni041C" unicode="&#x41c;" d="M98 0 l0 708 l88 0 l261 -613 l259 613 l88 0 l0 -708 l-57 0 l0 635 l-2 0 l-273 -635 l-32 0 l-273 635 l-2 0 l0 -635 l-57 0 Z" /><glyph glyph-name="uni041D" unicode="&#x41d;" d="M98 0 l0 708 l57 0 l0 -314 l413 0 l0 314 l57 0 l0 -708 l-57 0 l0 341 l-413 0 l0 -341 l-57 0 Z" /><glyph glyph-name="uni041E" unicode="&#x41e;" d="M428 -19 q-158 0 -262.5 105.5 q-104.5 105.5 -104.5 267.5 q0 162 104.5 267.5 q104.5 105.5 262.5 105.5 q159 0 263.5 -105.5 q104.5 -105.5 104.5 -267.5 q0 -162 -104.5 -267.5 q-104.5 -105.5 -263.5 -105.5 ZM428 32 q138 0 223 93.5 q85 93.5 85 228.5 q0 135 -85.5 228.5 q-85.5 93.5 -222.5 93.5 q-137 0 -222 -93.5 q-85 -93.5 -85 -228.5 q0 -135 85 -228.5 q85 -93.5 222 -93.5 Z" /><glyph glyph-name="uni041F" unicode="&#x41f;" d="M98 0 l0 708 l524 0 l0 -708 l-57 0 l0 657 l-410 0 l0 -657 l-57 0 Z" /><glyph glyph-name="uni0420" unicode="&#x420;" d="M98 0 l0 708 l197 0 q105 0 169 -46 q64 -46 64 -139 q0 -91 -63 -140 q-63 -49 -167 -49 l-143 0 l0 -334 l-57 0 ZM155 383 l140 0 q81 0 128.5 35.5 q47.5 35.5 47.5 104.5 q0 69 -48 102.5 q-48 33.5 -129 33.5 l-139 0 l0 -276 Z" /><glyph glyph-name="uni0421" unicode="&#x421;" d="M645 136 l39 -31 q-95 -124 -258 -124 q-159 0 -262 105.5 q-103 105.5 -103 267.5 q0 162 104 267.5 q104 105.5 262 105.5 q78 0 142 -27 q64 -27 102 -76 l-41 -38 q-32 40 -85.5 65 q-53.5 25 -116.5 25 q-138 0 -222.5 -93.5 q-84.5 -93.5 -84.5 -228.5 q0 -135 84.5 -228.5 q84.5 -93.5 222.5 -93.5 q133 0 217 104 Z" /><glyph glyph-name="uni0422" unicode="&#x422;" d="M252 0 l0 657 l-238 0 l0 51 l533 0 l0 -51 l-238 0 l0 -657 l-57 0 Z" /><glyph glyph-name="uni0423" unicode="&#x423;" d="M124 -7 q-33 0 -57 6 l10 53 q21 -7 47 -7 q63 0 106 79 l53 98 l-276 486 l66 0 l242 -428 l234 428 l63 0 l-333 -604 q-31 -56 -66 -83.5 q-35 -27.5 -89 -27.5 Z" /><glyph glyph-name="uni0424" unicode="&#x424;" d="M383 -19 l0 85 q-147 2 -238 83.5 q-91 81.5 -91 215.5 q0 137 91 215.5 q91 78.5 238 82.5 l0 64 l57 0 l0 -64 q148 -4 238.5 -82.5 q90.5 -78.5 90.5 -215.5 q0 -134 -90.5 -215.5 q-90.5 -81.5 -238.5 -83.5 l0 -85 l-57 0 ZM383 116 l0 497 q-125 -4 -197 -71 q-72 -67 -72 -178 q0 -112 71.5 -177 q71.5 -65 197.5 -71 ZM440 116 q126 6 198 71 q72 65 72 177 q0 111 -72 178 q-72 67 -198 71 l0 -497 Z" /><glyph glyph-name="uni0425" unicode="&#x425;" d="M23 0 l257 372 l-234 336 l71 0 l200 -296 l199 296 l67 0 l-232 -337 l257 -371 l-71 0 l-222 329 l-221 -329 l-71 0 Z" /><glyph glyph-name="uni0426" unicode="&#x426;" d="M648 -178 l0 178 l-550 0 l0 708 l57 0 l0 -657 l410 0 l0 657 l57 0 l0 -657 l80 0 l0 -229 l-54 0 Z" /><glyph glyph-name="uni0427" unicode="&#x427;" d="M476 0 l0 302 q-79 -22 -173 -22 q-220 0 -220 183 l0 245 l57 0 l0 -240 q0 -64 39.5 -101 q39.5 -37 121.5 -37 q112 0 175 23 l0 355 l57 0 l0 -708 l-57 0 Z" /><glyph glyph-name="uni0428" unicode="&#x428;" d="M98 0 l0 708 l57 0 l0 -657 l346 0 l0 657 l57 0 l0 -657 l346 0 l0 657 l57 0 l0 -708 l-863 0 Z" /><glyph glyph-name="uni0429" unicode="&#x429;" d="M988 -178 l0 178 l-890 0 l0 708 l57 0 l0 -657 l346 0 l0 657 l57 0 l0 -657 l346 0 l0 657 l57 0 l0 -657 l81 0 l0 -229 l-54 0 Z" /><glyph glyph-name="uni042A" unicode="&#x42a;" d="M201 0 l0 657 l-187 0 l0 51 l245 0 l0 -312 l142 0 q109 0 176.5 -51 q67.5 -51 67.5 -149 q0 -98 -68 -147 q-68 -49 -179 -49 l-197 0 ZM259 49 l134 0 q89 0 141.5 35.5 q52.5 35.5 52.5 110.5 q0 74 -51 112.5 q-51 38.5 -139 38.5 l-138 0 l0 -297 Z" /><glyph glyph-name="uni042B" unicode="&#x42b;" d="M98 0 l0 708 l57 0 l0 -312 l142 0 q109 0 176.5 -51 q67.5 -51 67.5 -149 q0 -98 -68 -147 q-68 -49 -179 -49 l-196 0 ZM155 49 l134 0 q89 0 141.5 35.5 q52.5 35.5 52.5 110.5 q0 74 -51 112.5 q-51 38.5 -139 38.5 l-138 0 l0 -297 ZM652 0 l0 708 l57 0 l0 -708 l-57 0 Z" /><glyph glyph-name="uni042C" unicode="&#x42c;" d="M98 0 l0 708 l57 0 l0 -312 l142 0 q109 0 176.5 -51 q67.5 -51 67.5 -149 q0 -98 -68 -147 q-68 -49 -179 -49 l-196 0 ZM155 49 l134 0 q89 0 141.5 35.5 q52.5 35.5 52.5 110.5 q0 74 -51 112.5 q-51 38.5 -139 38.5 l-138 0 l0 -297 Z" /><glyph glyph-name="uni042D" unicode="&#x42d;" d="M294 -19 q-84 0 -153 34.5 q-69 34.5 -109 90.5 l44 30 q74 -104 217 -104 q134 0 220.5 90.5 q86.5 90.5 86.5 220.5 l-371 0 l0 50 l369 0 q-12 122 -95 202.5 q-83 80.5 -210 80.5 q-61 0 -115.5 -26 q-54.5 -26 -84.5 -65 l-46 36 q39 49 105.5 77.5 q66.5 28.5 141.5 28.5 q158 0 262 -105.5 q104 -105.5 104 -267.5 q0 -162 -103 -267.5 q-103 -105.5 -263 -105.5 Z" /><glyph glyph-name="uni042E" unicode="&#x42e;" d="M655 -18 q-148 0 -241.5 102.5 q-93.5 102.5 -98.5 258.5 l-160 0 l0 -343 l-57 0 l0 708 l57 0 l0 -315 l162 0 q12 144 104.5 238.5 q92.5 94.5 233.5 94.5 q150 0 245 -106.5 q95 -106.5 95 -263.5 q0 -161 -94.5 -267.5 q-94.5 -106.5 -245.5 -106.5 ZM450.5 128 q75.5 -95 204.5 -95 q129 0 204.5 95 q75.5 95 75.5 228 q0 83 -32 155 q-32 72 -97 118.5 q-65 46.5 -151 46.5 q-128 0 -204 -95 q-76 -95 -76 -225 q0 -133 75.5 -228 Z" /><glyph glyph-name="uni042F" unicode="&#x42f;" d="M46 0 l194 317 q-83 13 -132.5 62 q-49.5 49 -49.5 133 q0 98 67.5 147 q67.5 49 178.5 49 l197 0 l0 -708 l-57 0 l0 312 l-142 0 l-187 -312 l-69 0 ZM306 362 l138 0 l0 297 l-134 0 q-89 0 -142 -36 q-53 -36 -53 -110 q0 -74 51.5 -112.5 q51.5 -38.5 139.5 -38.5 Z" /><glyph glyph-name="uni0430" unicode="&#x430;" d="M218 -13 q-62 0 -111 35 q-49 35 -49 104 q0 40 17.5 69 q17.5 29 44.5 45.5 q27 16.5 67.5 26 q40.5 9.5 78.5 12.5 q38 3 87 3 l35 0 l0 21 q0 130 -132 130 q-82 0 -139 -55 l-30 36 q66 64 174 64 q81 0 130 -43 q49 -43 49 -126 l0 -204 q0 -63 8 -105 l-49 0 q-8 48 -8 86 l-2 0 q-55 -99 -171 -99 ZM231 32 q76 0 116.5 49.5 q40.5 49.5 40.5 119.5 l0 38 l-35 0 q-239 0 -239 -110 q0 -50 34.5 -73.5 q34.5 -23.5 82.5 -23.5 Z" /><glyph glyph-name="uni0431" unicode="&#x431;" d="M311 -13 q-122 0 -184 81 q-59 67 -59 216 q0 63 2.5 108.5 q2.5 45.5 9.5 94.5 q7 49 21.5 83 q14.5 34 36.5 63.5 q22 29.5 56.5 46.5 q34.5 17 80.5 23 l150 18 q71 9 83 46 l39 -12 q-17 -67 -106 -78 l-143 -18 q-102 -13 -142 -81 q-40 -68 -42 -224 l3 0 q62 123 209 123 q103 0 167 -70 q64 -70 64 -175 q0 -106 -69 -175.5 q-69 -69.5 -177 -69.5 ZM175.5 90 q51.5 -56 135.5 -56 q84 0 136.5 56 q52.5 56 52.5 141 q0 86 -51 143 q-51 57 -135 57 q-83 0 -136.5 -57.5 q-53.5 -57.5 -53.5 -142.5 q0 -85 51.5 -141 Z" /><glyph glyph-name="uni0432" unicode="&#x432;" d="M94 0 l0 466 l209 0 q62 0 105 -27 q43 -27 43 -90 q0 -39 -24 -66 q-24 -27 -61 -36 l0 -1 q46 -6 77 -36.5 q31 -30.5 31 -81.5 q0 -61 -46 -94.5 q-46 -33.5 -120 -33.5 l-214 0 ZM149 47 l151 0 q53 0 85.5 21 q32.5 21 32.5 64 q0 44 -31 66 q-31 22 -80 22 l-158 0 l0 -173 ZM149 265 l152 0 q39 0 68 19.5 q29 19.5 29 58.5 q0 40 -29.5 58.5 q-29.5 18.5 -76.5 18.5 l-143 0 l0 -155 Z" /><glyph glyph-name="uni0433" unicode="&#x433;" d="M94 0 l0 466 l303 0 l0 -46 l-248 0 l0 -420 l-55 0 Z" /><glyph glyph-name="uni0434" unicode="&#x434;" d="M25 -153 l0 200 l55 0 q34 43 56 119 q22 76 22 174 l0 126 l329 0 l0 -419 l76 0 l0 -200 l-51 0 l0 153 l-436 0 l0 -153 l-51 0 ZM142 47 l292 0 l0 373 l-223 0 l0 -94 q0 -165 -69 -279 Z" /><glyph glyph-name="uni0435" unicode="&#x435;" d="M115 265 l340 0 q-3 75 -47.5 121.5 q-44.5 46.5 -119.5 46.5 q-74 0 -122 -52.5 q-48 -52.5 -51 -115.5 ZM294 -13 q-102 0 -169 70 q-67 70 -67 177 q0 105 66.5 174.5 q66.5 69.5 164.5 69.5 q105 0 162.5 -65.5 q57.5 -65.5 57.5 -162.5 l0 -28 l-395 0 q2 -77 52 -132.5 q50 -55.5 130 -55.5 q93 0 160 79 l36 -29 q-75 -97 -198 -97 Z" /><glyph glyph-name="uni0436" unicode="&#x436;" d="M13 0 l257 244 l-232 222 l78 0 l219 -220 l2 0 l0 220 l55 0 l0 -220 l2 0 l219 220 l78 0 l-232 -222 l257 -244 l-80 0 l-242 237 l-2 0 l0 -237 l-55 0 l0 237 l-2 0 l-242 -237 l-80 0 Z" /><glyph glyph-name="uni0437" unicode="&#x437;" d="M225 -13 q-125 0 -186 86 l40 32 q51 -71 145 -71 q53 0 89 24 q36 24 36 73 q0 44 -39 67 q-39 23 -99 23 l-39 0 l0 44 l35 0 q56 0 92 23.5 q36 23.5 36 66.5 q0 39 -31.5 58.5 q-31.5 19.5 -83.5 19.5 q-37 0 -70.5 -17 q-33.5 -17 -52.5 -47 l-42 30 q23 38 67.5 58.5 q44.5 20.5 99.5 20.5 q75 0 121 -32 q46 -32 46 -91 q0 -41 -27.5 -70.5 q-27.5 -29.5 -71.5 -38.5 l0 -2 q51 -7 82 -38 q31 -31 31 -77 q0 -66 -49.5 -104 q-49.5 -38 -128.5 -38 Z" /><glyph glyph-name="uni0438" unicode="&#x438;" d="M94 0 l0 466 l55 0 l0 -390 l293 390 l59 0 l0 -466 l-53 0 l0 393 l-2 0 l-293 -393 l-59 0 Z" /><glyph glyph-name="uni0439" unicode="&#x439;" d="M392.5 609.5 q-37.5 -34.5 -95.5 -34.5 q-58 0 -95.5 34.5 q-37.5 34.5 -44.5 90.5 l38 7 q7 -42 35 -65 q28 -23 67 -23 q39 0 67 23 q28 23 35 65 l38 -7 q-7 -56 -44.5 -90.5 ZM94 0 l0 466 l55 0 l0 -390 l293 390 l59 0 l0 -466 l-53 0 l0 393 l-2 0 l-293 -393 l-59 0 Z" /><glyph glyph-name="uni043A" unicode="&#x43a;" d="M96 0 l0 466 l54 0 l0 -220 l3 0 l227 220 l78 0 l-243 -222 l268 -244 l-80 0 l-250 237 l-3 0 l0 -237 l-54 0 Z" /><glyph glyph-name="uni043B" unicode="&#x43b;" d="M58 -5 q-26 0 -46 6 l7 47 q13 -5 31 -5 q59 0 86.5 63.5 q27.5 63.5 27.5 197.5 l0 162 l323 0 l0 -466 l-54 0 l0 420 l-216 0 l0 -133 q0 -292 -159 -292 Z" /><glyph glyph-name="uni043C" unicode="&#x43c;" d="M94 0 l0 466 l81 0 l185 -386 l186 386 l79 0 l0 -466 l-54 0 l0 403 l-2 0 l-195 -403 l-29 0 l-196 403 l0 -403 l-55 0 Z" /><glyph glyph-name="uni043D" unicode="&#x43d;" d="M94 0 l0 466 l55 0 l0 -201 l286 0 l0 201 l54 0 l0 -466 l-54 0 l0 219 l-286 0 l0 -219 l-55 0 Z" /><glyph glyph-name="uni043E" unicode="&#x43e;" d="M304 -13 q-107 0 -176.5 70 q-69.5 70 -69.5 176 q0 107 69 176 q69 69 177 69 q108 0 177.5 -69 q69.5 -69 69.5 -176 q0 -106 -69.5 -176 q-69.5 -70 -177.5 -70 ZM304 34 q86 0 138 57 q52 57 52 142 q0 85 -52 142.5 q-52 57.5 -138 57.5 q-85 0 -137 -57.5 q-52 -57.5 -52 -142.5 q0 -85 52 -142 q52 -57 137 -57 Z" /><glyph glyph-name="uni043F" unicode="&#x43f;" d="M94 0 l0 466 l388 0 l0 -466 l-54 0 l0 420 l-279 0 l0 -420 l-55 0 Z" /><glyph glyph-name="uni0440" unicode="&#x440;" d="M148 90 l0 -330 l-54 0 l0 706 l54 0 l0 -93 l3 0 q29 52 78.5 78.5 q49.5 26.5 106.5 26.5 q106 0 172.5 -69.5 q66.5 -69.5 66.5 -175.5 q0 -106 -65.5 -176 q-65.5 -70 -171.5 -70 q-58 0 -109 26.5 q-51 26.5 -78 76.5 l-3 0 ZM466.5 91 q50.5 57 50.5 142 q0 85 -50.5 142.5 q-50.5 57.5 -135.5 57.5 q-81 0 -134.5 -57.5 q-53.5 -57.5 -53.5 -142.5 q0 -85 53.5 -142 q53.5 -57 134.5 -57 q85 0 135.5 57 Z" /><glyph glyph-name="uni0441" unicode="&#x441;" d="M466 405 l-36 -33 q-21 27 -56 43 q-35 16 -73 16 q-83 0 -134.5 -56.5 q-51.5 -56.5 -51.5 -141.5 q0 -85 51 -141 q51 -56 133 -56 q82 0 136 56 l34 -31 q-64 -74 -170 -74 q-108 0 -174 69 q-66 69 -66 177 q0 107 67.5 176 q67.5 69 173.5 69 q108 0 166 -73 Z" /><glyph glyph-name="uni0442" unicode="&#x442;" d="M193 0 l0 420 l-172 0 l0 46 l398 0 l0 -46 l-172 0 l0 -420 l-54 0 Z" /><glyph glyph-name="uni0443" unicode="&#x443;" d="M84 -241 q-25 0 -55 7 l7 49 q21 -8 46 -8 q34 0 54.5 21.5 q20.5 21.5 36.5 63.5 l40 105 l-195 469 l61 0 l162 -410 l152 410 l59 0 l-232 -596 q-22 -55 -53 -83 q-31 -28 -83 -28 Z" /><glyph glyph-name="uni0444" unicode="&#x444;" d="M323 -240 l0 227 q-126 2 -198 66.5 q-72 64.5 -72 178.5 q0 113 72 178.5 q72 65.5 198 66.5 l0 284 l55 0 l0 -284 q126 -1 198 -66.5 q72 -65.5 72 -178.5 q0 -114 -72 -178.5 q-72 -64.5 -198 -66.5 l0 -227 l-55 0 ZM323 34 l0 397 q-101 -2 -157 -53.5 q-56 -51.5 -56 -144.5 q0 -96 55.5 -147.5 q55.5 -51.5 157.5 -51.5 ZM378 34 q102 0 157.5 51.5 q55.5 51.5 55.5 147.5 q0 93 -55.5 145 q-55.5 52 -157.5 53 l0 -397 Z" /><glyph glyph-name="uni0445" unicode="&#x445;" d="M20 0 l183 242 l-169 224 l70 0 l133 -186 l133 186 l66 0 l-167 -222 l186 -244 l-71 0 l-148 205 l-151 -205 l-65 0 Z" /><glyph glyph-name="uni0446" unicode="&#x446;" d="M507 -153 l0 153 l-413 0 l0 466 l55 0 l0 -419 l279 0 l0 419 l54 0 l0 -419 l76 0 l0 -200 l-51 0 Z" /><glyph glyph-name="uni0447" unicode="&#x447;" d="M376 0 l0 197 q-71 -19 -143 -19 q-156 0 -156 145 l0 143 l55 0 l0 -137 q0 -61 27.5 -83 q27.5 -22 84.5 -22 q56 0 132 19 l0 223 l54 0 l0 -466 l-54 0 Z" /><glyph glyph-name="uni0448" unicode="&#x448;" d="M94 0 l0 466 l55 0 l0 -419 l246 0 l0 419 l54 0 l0 -419 l246 0 l0 419 l54 0 l0 -466 l-655 0 Z" /><glyph glyph-name="uni0449" unicode="&#x449;" d="M774 -153 l0 153 l-680 0 l0 466 l55 0 l0 -419 l246 0 l0 419 l54 0 l0 -419 l246 0 l0 419 l54 0 l0 -419 l76 0 l0 -200 l-51 0 Z" /><glyph glyph-name="uni044A" unicode="&#x44a;" d="M164 0 l0 420 l-143 0 l0 46 l198 0 l0 -183 l125 0 q86 0 131.5 -38 q45.5 -38 45.5 -106 q0 -67 -45 -103 q-45 -36 -132 -36 l-180 0 ZM219 47 l131 0 q115 0 115 92 q0 98 -115 98 l-131 0 l0 -190 Z" /><glyph glyph-name="uni044B" unicode="&#x44b;" d="M94 0 l0 466 l55 0 l0 -183 l125 0 q86 0 131.5 -38 q45.5 -38 45.5 -106 q0 -67 -45 -103 q-45 -36 -132 -36 l-180 0 ZM149 47 l131 0 q115 0 115 92 q0 98 -115 98 l-131 0 l0 -190 ZM543 0 l0 466 l54 0 l0 -466 l-54 0 Z" /><glyph glyph-name="uni044C" unicode="&#x44c;" d="M94 0 l0 466 l55 0 l0 -183 l125 0 q86 0 131.5 -38 q45.5 -38 45.5 -106 q0 -67 -45 -103 q-45 -36 -132 -36 l-180 0 ZM149 47 l131 0 q115 0 115 92 q0 98 -115 98 l-131 0 l0 -190 Z" /><glyph glyph-name="uni044D" unicode="&#x44d;" d="M370 55.5 q-68 -68.5 -177 -68.5 q-109 0 -172 73 l38 32 q51 -58 134 -58 q83 0 134 52.5 q51 52.5 55 132.5 l-230 0 l0 46 l228 0 q-10 74 -59.5 120 q-49.5 46 -126.5 46 q-79 0 -133 -58 l-34 34 q60 71 168 71 q109 0 176 -68 q67 -68 67 -177 q0 -109 -68 -177.5 Z" /><glyph glyph-name="uni044E" unicode="&#x44e;" d="M94 0 l0 466 l55 0 l0 -201 l113 0 q11 93 75.5 153 q64.5 60 160.5 60 q105 0 171 -70 q66 -70 66 -176 q0 -106 -66.5 -176 q-66.5 -70 -170.5 -70 q-101 0 -166.5 66 q-65.5 66 -70.5 166 l-112 1 l0 -219 l-55 0 ZM498 32 q81 0 130.5 57.5 q49.5 57.5 49.5 142.5 q0 85 -49.5 142.5 q-49.5 57.5 -130.5 57.5 q-82 0 -131 -57 q-49 -57 -49 -143 q0 -86 49 -143 q49 -57 131 -57 Z" /><glyph glyph-name="uni044F" unicode="&#x44f;" d="M63 0 l127 192 q-118 25 -118 135 q0 66 47 102.5 q47 36.5 128 36.5 l193 0 l0 -466 l-55 0 l0 188 l-136 0 l-120 -188 l-66 0 ZM247 234 l138 0 l0 186 l-135 0 q-59 0 -91 -24 q-32 -24 -32 -69 q0 -43 31.5 -68 q31.5 -25 88.5 -25 Z" /><glyph glyph-name="uni0450" unicode="&#x450;" d="M115 265 l340 0 q-3 75 -47.5 121.5 q-44.5 46.5 -119.5 46.5 q-74 0 -122 -52.5 q-48 -52.5 -51 -115.5 ZM294 -13 q-102 0 -169 70 q-67 70 -67 177 q0 105 66.5 174.5 q66.5 69.5 164.5 69.5 q105 0 162.5 -65.5 q57.5 -65.5 57.5 -162.5 l0 -28 l-395 0 q2 -77 52 -132.5 q50 -55.5 130 -55.5 q93 0 160 79 l36 -29 q-75 -97 -198 -97 ZM286 564 l-126 144 l72 0 l101 -144 l-47 0 Z" /><glyph glyph-name="uni0451" unicode="&#x451;" d="M161 651 q0 17 12.5 30 q12.5 13 30.5 13 q18 0 30.5 -13 q12.5 -13 12.5 -30 q0 -18 -12.5 -31 q-12.5 -13 -30.5 -13 q-18 0 -30.5 13 q-12.5 13 -12.5 31 ZM342 651 q0 17 12.5 30 q12.5 13 30.5 13 q18 0 30 -13 q12 -13 12 -30 q0 -18 -12 -31 q-12 -13 -30 -13 q-18 0 -30.5 13 q-12.5 13 -12.5 31 ZM115 265 l340 0 q-3 75 -47.5 121.5 q-44.5 46.5 -119.5 46.5 q-74 0 -122 -52.5 q-48 -52.5 -51 -115.5 ZM294 -13 q-102 0 -169 70 q-67 70 -67 177 q0 105 66.5 174.5 q66.5 69.5 164.5 69.5 q105 0 162.5 -65.5 q57.5 -65.5 57.5 -162.5 l0 -28 l-395 0 q2 -77 52 -132.5 q50 -55.5 130 -55.5 q93 0 160 79 l36 -29 q-75 -97 -198 -97 Z" /><glyph glyph-name="uni0452" unicode="&#x452;" d="M346 -241 q-34 0 -56 7 l9 47 q28 -6 46 -6 q91 0 91 121 l0 336 q0 169 -133 169 q-64 0 -109 -51.5 q-45 -51.5 -45 -144.5 l0 -237 l-54 0 l0 573 l-86 0 l0 41 l86 0 l0 142 l54 0 l0 -142 l162 0 l0 -41 l-162 0 l0 -198 l2 0 q19 47 65 75 q46 28 99 28 q88 0 131.5 -53.5 q43.5 -53.5 43.5 -140.5 l0 -361 q0 -80 -38.5 -122 q-38.5 -42 -105.5 -42 Z" /><glyph glyph-name="uni0453" unicode="&#x453;" d="M365 708 l-126 -144 l-47 0 l101 144 l72 0 ZM94 0 l0 466 l303 0 l0 -46 l-248 0 l0 -420 l-55 0 Z" /><glyph glyph-name="uni0454" unicode="&#x454;" d="M303 -13 q-109 0 -177 68.5 q-68 68.5 -68 177.5 q0 109 67 177 q67 68 177 68 q110 0 170 -71 l-37 -34 q-55 61 -133 61 q-76 0 -126 -47 q-50 -47 -60 -122 l243 0 l0 -46 l-245 0 q4 -80 55.5 -133.5 q51.5 -53.5 133.5 -53.5 q81 0 134 60 l39 -32 q-63 -73 -173 -73 Z" /><glyph glyph-name="uni0455" unicode="&#x455;" d="M379 399 l-42 -30 q-38 64 -117 64 q-42 0 -73.5 -20.5 q-31.5 -20.5 -31.5 -60.5 q0 -38 27 -56.5 q27 -18.5 90 -32.5 q78 -17 117 -48 q39 -31 39 -86 q0 -70 -49.5 -105.5 q-49.5 -35.5 -119.5 -35.5 q-118 0 -177 87 l43 31 q21 -32 56.5 -52 q35.5 -20 77.5 -20 q48 0 81.5 22.5 q33.5 22.5 33.5 68.5 q0 35 -28 55 q-28 20 -67.5 29.5 q-39.5 9.5 -79.5 21 q-40 11.5 -68 40.5 q-28 29 -28 77 q0 64 46.5 97 q46.5 33 112.5 33 q52 0 93.5 -20.5 q41.5 -20.5 63.5 -58.5 Z" /><glyph glyph-name="uni0456" unicode="&#x456;" d="M94 0 l0 466 l55 0 l0 -466 l-55 0 ZM149.5 622 q-12.5 -12 -28.5 -12 q-16 0 -28 12 q-12 12 -12 29 q0 17 12 29 q12 12 28 12 q16 0 28.5 -12 q12.5 -12 12.5 -29 q0 -17 -12.5 -29 Z" /><glyph glyph-name="uni0457" unicode="&#x457;" d="M-12 651 q0 17 12.5 30 q12.5 13 30.5 13 q18 0 30.5 -13 q12.5 -13 12.5 -30 q0 -18 -12.5 -31 q-12.5 -13 -30.5 -13 q-18 0 -30.5 13 q-12.5 13 -12.5 31 ZM169 651 q0 17 12.5 30 q12.5 13 30.5 13 q18 0 30 -13 q12 -13 12 -30 q0 -18 -12 -31 q-12 -13 -30 -13 q-18 0 -30.5 13 q-12.5 13 -12.5 31 ZM149 466 l0 -466 l-55 0 l0 466 l55 0 Z" /><glyph glyph-name="uni0458" unicode="&#x458;" d="M23 -240 q-30 0 -47 6 l8 45 q20 -5 38 -5 q44 0 58.5 27.5 q14.5 27.5 14.5 79.5 l0 553 l54 0 l0 -560 q0 -68 -28 -107 q-28 -39 -98 -39 ZM150.5 622 q-12.5 -12 -28.5 -12 q-16 0 -28 12 q-12 12 -12 29 q0 17 12 29 q12 12 28 12 q16 0 28.5 -12 q12.5 -12 12.5 -29 q0 -17 -12.5 -29 Z" /><glyph glyph-name="uni0459" unicode="&#x459;" d="M58 -5 q-26 0 -46 6 l7 47 q13 -5 31 -5 q59 0 86.5 63.5 q27.5 63.5 27.5 197.5 l0 162 l323 0 l0 -183 l125 0 q86 0 131.5 -38 q45.5 -38 45.5 -106 q0 -67 -44.5 -103 q-44.5 -36 -131.5 -36 l-180 0 l0 420 l-216 0 l0 -133 q0 -292 -159 -292 ZM487 47 l131 0 q115 0 115 92 q0 98 -115 98 l-131 0 l0 -190 Z" /><glyph glyph-name="uni045A" unicode="&#x45a;" d="M94 0 l0 466 l55 0 l0 -193 l286 0 l0 193 l54 0 l0 -193 l125 0 q87 0 132 -35.5 q45 -35.5 45 -103.5 q0 -134 -176 -134 l-180 0 l0 227 l-286 0 l0 -227 l-55 0 ZM489 47 l131 0 q115 0 115 87 q0 93 -115 93 l-131 0 l0 -180 Z" /><glyph glyph-name="uni045B" unicode="&#x45b;" d="M95 0 l0 573 l-86 0 l0 41 l86 0 l0 142 l54 0 l0 -142 l162 0 l0 -41 l-162 0 l0 -198 l2 0 q19 47 65 75 q46 28 99 28 q88 0 131.5 -53.5 q43.5 -53.5 43.5 -140.5 l0 -284 l-54 0 l0 264 q0 169 -133 169 q-64 0 -109 -51.5 q-45 -51.5 -45 -144.5 l0 -237 l-54 0 Z" /><glyph glyph-name="uni045C" unicode="&#x45c;" d="M400 708 l-126 -144 l-47 0 l101 144 l72 0 ZM96 0 l0 466 l54 0 l0 -220 l3 0 l227 220 l78 0 l-243 -222 l268 -244 l-80 0 l-250 237 l-3 0 l0 -237 l-54 0 Z" /><glyph glyph-name="uni045D" unicode="&#x45d;" d="M296 564 l-125 144 l71 0 l101 -144 l-47 0 ZM94 0 l0 466 l55 0 l0 -390 l293 390 l59 0 l0 -466 l-53 0 l0 393 l-2 0 l-293 -393 l-59 0 Z" /><glyph glyph-name="uni045E" unicode="&#x45e;" d="M337.5 609.5 q-37.5 -34.5 -95.5 -34.5 q-58 0 -95.5 34.5 q-37.5 34.5 -44.5 90.5 l38 7 q7 -42 35 -65 q28 -23 67 -23 q39 0 67 23 q28 23 35 65 l38 -7 q-7 -56 -44.5 -90.5 ZM84 -241 q-25 0 -55 7 l7 49 q21 -8 46 -8 q34 0 54.5 21.5 q20.5 21.5 36.5 63.5 l40 105 l-195 469 l61 0 l162 -410 l152 410 l59 0 l-232 -596 q-22 -55 -53 -83 q-31 -28 -83 -28 Z" /><glyph glyph-name="uni045F" unicode="&#x45f;" d="M263 -153 l0 153 l-169 0 l0 466 l55 0 l0 -419 l279 0 l0 419 l54 0 l0 -466 l-168 0 l0 -153 l-51 0 Z" /><glyph glyph-name="uni0490" unicode="&#x490;" d="M98 0 l0 708 l337 0 l0 146 l54 0 l0 -197 l-334 0 l0 -657 l-57 0 Z" /><glyph glyph-name="uni0491" unicode="&#x491;" d="M94 0 l0 466 l253 0 l0 124 l50 0 l0 -170 l-248 0 l0 -420 l-55 0 Z" /><glyph glyph-name="Wgrave" unicode="&#x1e80;" d="M78 708 l184 -633 l2 0 l184 633 l71 0 l185 -633 l3 0 l182 633 l60 0 l-210 -708 l-69 0 l-186 632 l-2 0 l-185 -632 l-69 0 l-210 708 l60 0 ZM465 764 l-126 144 l72 0 l101 -144 l-47 0 Z" /><glyph glyph-name="wgrave" unicode="&#x1e81;" d="M28 466 l58 0 l117 -398 l2 0 l133 398 l55 0 l135 -398 l2 0 l116 398 l57 0 l-144 -466 l-61 0 l-132 396 l-2 0 l-131 -396 l-61 0 l-144 466 ZM339 564 l-126 144 l72 0 l101 -144 l-47 0 Z" /><glyph glyph-name="Wacute" unicode="&#x1e82;" d="M78 708 l184 -633 l2 0 l184 633 l71 0 l185 -633 l3 0 l182 633 l60 0 l-210 -708 l-69 0 l-186 632 l-2 0 l-185 -632 l-69 0 l-210 708 l60 0 ZM629 908 l-126 -144 l-47 0 l101 144 l72 0 Z" /><glyph glyph-name="wacute" unicode="&#x1e83;" d="M28 466 l58 0 l117 -398 l2 0 l133 398 l55 0 l135 -398 l2 0 l116 398 l57 0 l-144 -466 l-61 0 l-132 396 l-2 0 l-131 -396 l-61 0 l-144 466 ZM519 708 l-126 -144 l-47 0 l101 144 l72 0 Z" /><glyph glyph-name="Wdieresis" unicode="&#x1e84;" d="M78 708 l184 -633 l2 0 l184 633 l71 0 l185 -633 l3 0 l182 633 l60 0 l-210 -708 l-69 0 l-186 632 l-2 0 l-185 -632 l-69 0 l-210 708 l60 0 ZM350 851 q0 17 12.5 30 q12.5 13 30.5 13 q18 0 30 -13 q12 -13 12 -30 q0 -18 -12 -31 q-12 -13 -30 -13 q-18 0 -30.5 13 q-12.5 13 -12.5 31 ZM531 851 q0 17 12 30 q12 13 30 13 q18 0 30.5 -13 q12.5 -13 12.5 -30 q0 -18 -12.5 -31 q-12.5 -13 -30.5 -13 q-18 0 -30 13 q-12 13 -12 31 Z" /><glyph glyph-name="wdieresis" unicode="&#x1e85;" d="M28 466 l58 0 l117 -398 l2 0 l133 398 l55 0 l135 -398 l2 0 l116 398 l57 0 l-144 -466 l-61 0 l-132 396 l-2 0 l-131 -396 l-61 0 l-144 466 ZM232 651 q0 17 12.5 30 q12.5 13 30.5 13 q18 0 30 -13 q12 -13 12 -30 q0 -18 -12 -31 q-12 -13 -30 -13 q-18 0 -30.5 13 q-12.5 13 -12.5 31 ZM413 651 q0 17 12 30 q12 13 30 13 q18 0 30.5 -13 q12.5 -13 12.5 -30 q0 -18 -12.5 -31 q-12.5 -13 -30.5 -13 q-18 0 -30 13 q-12 13 -12 31 Z" /><glyph glyph-name="Ygrave" unicode="&#x1ef2;" d="M320 306 l0 -306 l-57 0 l0 306 l-259 402 l71 0 l218 -353 l219 353 l66 0 l-258 -402 ZM281 764 l-126 144 l72 0 l101 -144 l-47 0 Z" /><glyph glyph-name="ygrave" unicode="&#x1ef3;" d="M84 -241 q-25 0 -55 7 l7 49 q21 -8 46 -8 q34 0 54.5 21.5 q20.5 21.5 36.5 63.5 l40 105 l-195 469 l61 0 l162 -411 l2 2 l150 409 l59 0 l-232 -596 q-22 -55 -53 -83 q-31 -28 -83 -28 ZM227 564 l-126 144 l72 0 l101 -144 l-47 0 Z" /><glyph glyph-name="uni2010" unicode="&#x2010;" d="M262 269 l0 -46 l-210 0 l0 46 l210 0 Z" /><glyph glyph-name="endash" unicode="&#x2013;" d="M370 269 l0 -46 l-340 0 l0 46 l340 0 Z" /><glyph glyph-name="emdash" unicode="&#x2014;" d="M570 269 l0 -46 l-540 0 l0 46 l540 0 Z" /><glyph glyph-name="quoteleft" unicode="&#x2018;" d="M50 475 l76 233 l45 0 l-64 -233 l-57 0 Z" /><glyph glyph-name="quoteright" unicode="&#x2019;" d="M171 708 l-76 -233 l-45 0 l64 233 l57 0 Z" /><glyph glyph-name="quotesinglbase" unicode="&#x201a;" d="M171 94 l-76 -233 l-45 0 l64 233 l57 0 Z" /><glyph glyph-name="quotedblleft" unicode="&#x201c;" d="M50 475 l77 233 l45 0 l-65 -233 l-57 0 ZM205 475 l76 233 l45 0 l-64 -233 l-57 0 Z" /><glyph glyph-name="quotedblright" unicode="&#x201d;" d="M204 475 l65 233 l57 0 l-77 -233 l-45 0 ZM50 475 l64 233 l57 0 l-76 -233 l-45 0 Z" /><glyph glyph-name="quotedblbase" unicode="&#x201e;" d="M204 -139 l65 233 l57 0 l-77 -233 l-45 0 ZM50 -139 l64 233 l57 0 l-76 -233 l-45 0 Z" /><glyph glyph-name="dagger" unicode="&#x2020;" d="M299 708 l0 -205 l201 0 l0 -48 l-201 0 l0 -581 l-53 0 l0 581 l-201 0 l0 48 l201 0 l0 205 l53 0 Z" /><glyph glyph-name="daggerdbl" unicode="&#x2021;" d="M299 708 l0 -196 l195 0 l0 -49 l-195 0 l0 -344 l195 0 l0 -49 l-195 0 l0 -196 l-53 0 l0 196 l-195 0 l0 49 l195 0 l0 344 l-195 0 l0 49 l195 0 l0 196 l53 0 Z" /><glyph glyph-name="bullet" unicode="&#x2022;" d="M124.5 228.5 q-51.5 51.5 -51.5 125.5 q0 74 51.5 125.5 q51.5 51.5 125.5 51.5 q74 0 125.5 -51.5 q51.5 -51.5 51.5 -125.5 q0 -74 -51.5 -125.5 q-51.5 -51.5 -125.5 -51.5 q-74 0 -125.5 51.5 Z" /><glyph glyph-name="ellipsis" unicode="&#x2026;" d="M211 40 q0 -19 -13 -32.5 q-13 -13.5 -32 -13.5 q-19 0 -31.5 13.5 q-12.5 13.5 -12.5 32.5 q0 18 12.5 31.5 q12.5 13.5 31.5 13.5 q19 0 32 -13.5 q13 -13.5 13 -31.5 ZM545 40 q0 -19 -13 -32.5 q-13 -13.5 -32 -13.5 q-19 0 -32 13.5 q-13 13.5 -13 32.5 q0 18 13 31.5 q13 13.5 32 13.5 q19 0 32 -13.5 q13 -13.5 13 -31.5 ZM878 40 q0 -19 -12.5 -32.5 q-12.5 -13.5 -31.5 -13.5 q-19 0 -32 13.5 q-13 13.5 -13 32.5 q0 18 13 31.5 q13 13.5 32 13.5 q19 0 31.5 -13.5 q12.5 -13.5 12.5 -31.5 Z" /><glyph glyph-name="perthousand" unicode="&#x2030;" d="M473 -10 q-62 0 -106 44.5 q-44 44.5 -44 107.5 q0 62 44 107 q44 45 106 45 q63 0 107 -44.5 q44 -44.5 44 -107.5 q0 -63 -44 -107.5 q-44 -44.5 -107 -44.5 ZM473 34 q45 0 76 31 q31 31 31 77 q0 45 -31 76.5 q-31 31.5 -76 31.5 q-44 0 -74.5 -31.5 q-30.5 -31.5 -30.5 -76.5 q0 -46 30.5 -77 q30.5 -31 74.5 -31 ZM821 -10 q-62 0 -106.5 44.5 q-44.5 44.5 -44.5 107.5 q0 62 44.5 107 q44.5 45 106.5 45 q63 0 107 -44.5 q44 -44.5 44 -107.5 q0 -63 -44 -107.5 q-44 -44.5 -107 -44.5 ZM821 34 q45 0 76 31 q31 31 31 77 q0 45 -31.5 76.5 q-31.5 31.5 -75.5 31.5 q-44 0 -75 -31.5 q-31 -31.5 -31 -76.5 q0 -46 31 -77 q31 -31 75 -31 ZM587 716 l-447 -746 l-41 22 l448 746 l40 -22 ZM181 416 q-62 0 -106.5 44.5 q-44.5 44.5 -44.5 107.5 q0 62 44.5 107 q44.5 45 106.5 45 q63 0 107 -44.5 q44 -44.5 44 -107.5 q0 -63 -44 -107.5 q-44 -44.5 -107 -44.5 ZM181 460 q45 0 76 31 q31 31 31 77 q0 45 -31.5 76.5 q-31.5 31.5 -75.5 31.5 q-44 0 -75 -31.5 q-31 -31.5 -31 -76.5 q0 -46 31 -77 q31 -31 75 -31 Z" /><glyph glyph-name="guilsinglleft" unicode="&#x2039;" d="M124 239 l115 -179 l-38 -26 l-135 205 l134 205 l38 -26 l-114 -179 Z" /><glyph glyph-name="guilsinglright" unicode="&#x203a;" d="M191 239 l-115 179 l38 27 l135 -206 l-134 -205 l-38 26 l114 179 Z" /><glyph glyph-name="interrobang" unicode="&#x203d;" d="M282 47 q0 -2 0.5 -4.5 q0.5 -2.5 0.5 -3.5 q0 -15 -11 -27 q-11 -12 -28 -12 q-16 0 -27 11.5 q-11 11.5 -11 27.5 q0 15 11 27 q11 12 29 12 q14 0 24 -9 q10 -9 12 -22 ZM212 194 l0 349 l52 0 l0 -183 l1 0 q3 5 58 64 q31 33 44.5 59 q13.5 26 13.5 62 q0 60 -39 94 q-39 34 -98 34 q-57 0 -95 -35 q-38 -35 -46 -91 l-54 10 q15 77 68 121 q53 44 129 44 q82 0 136 -46.5 q54 -46.5 54 -127.5 q0 -54 -22 -90 q-22 -36 -66 -75 q-46 -41 -63.5 -68 q-17.5 -27 -17.5 -68 l0 -53 l-55 0 Z" /><glyph glyph-name="fraction" unicode="&#x2044;" d="M287 716 l-447 -746 l-42 22 l448 746 l41 -22 Z" /><glyph glyph-name="zero.superior" unicode="&#x2070;" d="M321 663 q0 -43 -6.5 -79 q-6.5 -36 -21.5 -69 q-15 -33 -43.5 -52 q-28.5 -19 -67.5 -19 q-40 0 -68.5 19 q-28.5 19 -43.5 52 q-15 33 -21.5 69 q-6.5 36 -6.5 79 q0 58 11 104 q11 46 44 80.5 q33 34.5 85 34.5 q52 0 84.5 -34.5 q32.5 -34.5 43.5 -80 q11 -45.5 11 -104.5 ZM267 605 q4 28 4 58 q0 30 -4 58 q-4 28 -13 56 q-9 28 -27.5 45 q-18.5 17 -44.5 17 q-35 0 -56.5 -31 q-21.5 -31 -27.5 -67 q-6 -36 -6 -78 q0 -43 6 -79 q6 -36 27.5 -66.5 q21.5 -30.5 56.5 -30.5 q26 0 44.5 17 q18.5 17 27.5 45 q9 28 13 56 Z" /><glyph glyph-name="four.superior" unicode="&#x2074;" d="M267 452 l-44 0 l0 101 l-190 0 l0 43 l177 278 l57 0 l0 -278 l62 0 l0 -43 l-62 0 l0 -101 ZM223 596 l0 214 l-3 0 l-137 -214 l140 0 Z" /><glyph glyph-name="five.superior" unicode="&#x2075;" d="M313 586 q0 -65 -39.5 -103.5 q-39.5 -38.5 -100.5 -38.5 q-92 0 -129 79 l44 18 q29 -54 85 -54 q39 0 65 25.5 q26 25.5 26 70.5 q0 43 -26.5 69.5 q-26.5 26.5 -70.5 26.5 q-40 0 -91 -28 l4 223 l216 0 l0 -44 l-169 0 l-3 -119 q21 9 54 9 q61 0 98 -37.5 q37 -37.5 37 -96.5 Z" /><glyph glyph-name="six.superior" unicode="&#x2076;" d="M320 579 q0 -59 -39 -97 q-39 -38 -99 -38 q-59 0 -98 38 q-39 38 -39 97 q0 50 38 112 l112 183 l57 0 l-110 -173 l1 -1 q21 12 46 12 q56 0 93.5 -37.5 q37.5 -37.5 37.5 -95.5 ZM271 579 q0 39 -24 65 q-24 26 -63 26 q-39 0 -65 -26 q-26 -26 -26 -65 q0 -40 25 -66 q25 -26 65 -26 q38 0 63 26 q25 26 25 66 Z" /><glyph glyph-name="seven.superior" unicode="&#x2077;" d="M143 452 l-54 0 l169 378 l-196 0 l0 44 l249 0 l0 -39 l-168 -383 Z" /><glyph glyph-name="eight.superior" unicode="&#x2078;" d="M317 568 q0 -55 -39.5 -89.5 q-39.5 -34.5 -95.5 -34.5 q-56 0 -96 34.5 q-40 34.5 -40 89.5 q0 77 71 108 l0 1 q-55 29 -55 93 q0 49 34.5 80.5 q34.5 31.5 85.5 31.5 q51 0 85.5 -31.5 q34.5 -31.5 34.5 -80.5 q0 -63 -56 -93 l0 -1 q33 -13 52 -42.5 q19 -29.5 19 -65.5 ZM233.5 819 q-20.5 20 -51.5 20 q-31 0 -51.5 -20 q-20.5 -20 -20.5 -51 q0 -30 20.5 -50.5 q20.5 -20.5 51.5 -20.5 q31 0 51.5 20.5 q20.5 20.5 20.5 50.5 q0 31 -20.5 51 ZM244.5 630 q-24.5 24 -62.5 24 q-38 0 -63 -24 q-25 -24 -25 -60 q0 -36 24.5 -59.5 q24.5 -23.5 63.5 -23.5 q39 0 63 23.5 q24 23.5 24 59.5 q0 36 -24.5 60 Z" /><glyph glyph-name="nine.superior" unicode="&#x2079;" d="M319 748 q-1 -55 -38 -114 l-112 -182 l-57 0 l111 174 l-1 1 q-19 -12 -47 -12 q-56 0 -93.5 38 q-37.5 38 -37.5 95 q0 58 39.5 96 q39.5 38 98.5 38 q59 0 98 -38 q39 -38 39 -96 ZM271 748 q0 38 -25.5 64.5 q-25.5 26.5 -63.5 26.5 q-39 0 -64 -26 q-25 -26 -25 -65 q0 -40 24.5 -65.5 q24.5 -25.5 63.5 -25.5 q39 0 64.5 26 q25.5 26 25.5 65 Z" /><glyph glyph-name="zero.inferior" unicode="&#x2080;" d="M321 73 q0 -43 -6.5 -79 q-6.5 -36 -21.5 -69 q-15 -33 -43.5 -52 q-28.5 -19 -67.5 -19 q-40 0 -68.5 19 q-28.5 19 -43.5 52 q-15 33 -21.5 69 q-6.5 36 -6.5 79 q0 58 11 104 q11 46 44 80.5 q33 34.5 85 34.5 q52 0 84.5 -34.5 q32.5 -34.5 43.5 -80 q11 -45.5 11 -104.5 ZM267 15 q4 28 4 58 q0 30 -4 58 q-4 28 -13 56 q-9 28 -27.5 45 q-18.5 17 -44.5 17 q-35 0 -56.5 -31 q-21.5 -31 -27.5 -67 q-6 -36 -6 -78 q0 -43 6 -79 q6 -36 27.5 -66.5 q21.5 -30.5 56.5 -30.5 q26 0 44.5 17 q18.5 17 27.5 45 q9 28 13 56 Z" /><glyph glyph-name="one.inferior" unicode="&#x2081;" d="M172 -138 l0 362 l-73 -59 l-31 33 l112 86 l41 0 l0 -422 l-49 0 Z" /><glyph glyph-name="two.inferior" unicode="&#x2082;" d="M313 -138 l-268 0 l0 46 l163 169 q51 52 52 100 q0 33 -21 52 q-21 19 -54 19 q-30 0 -52.5 -19 q-22.5 -19 -30.5 -53 l-47 9 q10 49 46 78 q36 29 84 29 q55 0 90.5 -30.5 q35.5 -30.5 35.5 -83.5 q0 -38 -18 -67 q-18 -29 -57 -69 l-132 -136 l209 0 l0 -44 Z" /><glyph glyph-name="three.inferior" unicode="&#x2083;" d="M174 -146 q-97 0 -135 88 l45 16 q12 -29 36.5 -45 q24.5 -16 53.5 -16 q38 0 62.5 21.5 q24.5 21.5 24.5 60.5 q0 41 -30 61.5 q-30 20.5 -73 20.5 l-24 0 l0 41 l24 0 q42 0 66.5 20.5 q24.5 20.5 24.5 57.5 q0 31 -22 50.5 q-22 19.5 -54 19.5 q-51 0 -78 -48 l-39 21 q41 69 119 69 q53 0 87.5 -30 q34.5 -30 34.5 -82 q0 -34 -18.5 -59 q-18.5 -25 -49.5 -37 q37 -11 59 -38.5 q22 -27.5 22 -66.5 q0 -59 -39 -92 q-39 -33 -97 -33 Z" /><glyph glyph-name="four.inferior" unicode="&#x2084;" d="M267 -138 l-44 0 l0 101 l-190 0 l0 43 l177 278 l57 0 l0 -278 l62 0 l0 -43 l-62 0 l0 -101 ZM223 6 l0 214 l-3 0 l-137 -214 l140 0 Z" /><glyph glyph-name="five.inferior" unicode="&#x2085;" d="M313 -4 q0 -65 -39.5 -103.5 q-39.5 -38.5 -100.5 -38.5 q-92 0 -129 79 l44 18 q29 -54 85 -54 q39 0 65 25.5 q26 25.5 26 70.5 q0 43 -26.5 69.5 q-26.5 26.5 -70.5 26.5 q-40 0 -91 -28 l4 223 l216 0 l0 -44 l-169 0 l-3 -119 q21 9 54 9 q61 0 98 -37.5 q37 -37.5 37 -96.5 Z" /><glyph glyph-name="six.inferior" unicode="&#x2086;" d="M320 -11 q0 -59 -39 -97 q-39 -38 -99 -38 q-59 0 -98 38 q-39 38 -39 97 q0 50 38 112 l112 183 l57 0 l-110 -173 l1 -1 q21 12 46 12 q56 0 93.5 -37.5 q37.5 -37.5 37.5 -95.5 ZM271 -11 q0 39 -24 65 q-24 26 -63 26 q-39 0 -65 -26 q-26 -26 -26 -65 q0 -40 25 -66 q25 -26 65 -26 q38 0 63 26 q25 26 25 66 Z" /><glyph glyph-name="seven.inferior" unicode="&#x2087;" d="M143 -138 l-54 0 l169 378 l-196 0 l0 44 l249 0 l0 -39 l-168 -383 Z" /><glyph glyph-name="eight.inferior" unicode="&#x2088;" d="M317 -22 q0 -55 -39.5 -89.5 q-39.5 -34.5 -95.5 -34.5 q-56 0 -96 34.5 q-40 34.5 -40 89.5 q0 77 71 108 l0 1 q-55 29 -55 93 q0 49 34.5 80.5 q34.5 31.5 85.5 31.5 q51 0 85.5 -31.5 q34.5 -31.5 34.5 -80.5 q0 -63 -56 -93 l0 -1 q33 -13 52 -42.5 q19 -29.5 19 -65.5 ZM233.5 229 q-20.5 20 -51.5 20 q-31 0 -51.5 -20 q-20.5 -20 -20.5 -51 q0 -30 20.5 -50.5 q20.5 -20.5 51.5 -20.5 q31 0 51.5 20.5 q20.5 20.5 20.5 50.5 q0 31 -20.5 51 ZM244.5 40 q-24.5 24 -62.5 24 q-38 0 -63 -24 q-25 -24 -25 -60 q0 -36 24.5 -59.5 q24.5 -23.5 63.5 -23.5 q39 0 63 23.5 q24 23.5 24 59.5 q0 36 -24.5 60 Z" /><glyph glyph-name="nine.inferior" unicode="&#x2089;" d="M319 158 q-1 -55 -38 -114 l-112 -182 l-57 0 l111 174 l-1 1 q-20 -12 -47 -12 q-56 0 -93.5 38 q-37.5 38 -37.5 95 q0 58 39.5 96 q39.5 38 98.5 38 q59 0 98 -38 q39 -38 39 -96 ZM271 158 q0 38 -25.5 64.5 q-25.5 26.5 -63.5 26.5 q-39 0 -64 -26 q-25 -26 -25 -65 q0 -40 24.5 -65.5 q24.5 -25.5 63.5 -25.5 q39 0 64.5 26 q25.5 26 25.5 65 Z" /><glyph glyph-name="Euro" unicode="&#x20ac;" d="M510 646 q-53 30 -130 30 q-88 0 -148.5 -56.5 q-60.5 -56.5 -82.5 -157.5 l311 0 l-15 -45 l-303 0 q-5 -33 -5 -68 q0 -27 4 -59 l266 0 l-15 -45 l-246 0 q16 -97 80.5 -155 q64.5 -58 152.5 -58 q83 0 140 41 l24 -45 q-65 -47 -172 -47 q-114 0 -190 76.5 q-76 76.5 -94 187.5 l-72 0 l16 45 l51 0 q-3 42 -3 58 q0 35 4 69 l-67 0 l16 45 l57 0 q27 126 106 195.5 q79 69.5 188 69.5 q86 0 147 -33 l-20 -48 Z" /><glyph glyph-name="afii61248" unicode="&#x2105;" d="M213 380 q-76 0 -123.5 48 q-47.5 48 -47.5 122 q0 74 47.5 122 q47.5 48 123.5 48 q79 0 122 -56 l-39 -30 q-31 42 -83 42 q-53 0 -85.5 -36 q-32.5 -36 -32.5 -90 q0 -54 32.5 -90 q32.5 -36 85.5 -36 q52 0 88 41 l37 -29 q-48 -56 -125 -56 ZM211 -30 l-41 22 l447 746 l41 -22 l-447 -746 ZM740 280 q48 -48 48 -122 q0 -74 -48 -122 q-48 -48 -123 -48 q-75 0 -123 48 q-48 48 -48 122 q0 74 48 122 q48 48 123 48 q75 0 123 -48 ZM702.5 68 q32.5 36 32.5 90 q0 54 -32.5 90 q-32.5 36 -85.5 36 q-53 0 -85 -36 q-32 -36 -32 -90 q0 -54 32 -90 q32 -36 85 -36 q53 0 85.5 36 Z" /><glyph glyph-name="afii61289" unicode="&#x2113;" d="M407 38 q-55 -52 -122 -52 q-53 0 -86 31 q-33 31 -33 93 l0 129 l-59 -65 l-2 0 l-21 29 l82 84 l0 263 q0 80 33.5 125.5 q33.5 45.5 85.5 45.5 q45 0 73 -33.5 q28 -33.5 28 -90.5 q0 -141 -167 -320 l0 -158 q0 -50 23 -70.5 q23 -20.5 55 -20.5 q47 0 88 38 l2 0 l20 -28 ZM341 593 q0 40 -16 64.5 q-16 24.5 -40 24.5 q-27 0 -46.5 -31.5 q-19.5 -31.5 -19.5 -92.5 l0 -233 q122 144 122 268 Z" /><glyph glyph-name="uni2116" unicode="&#x2116;" d="M98 0 l0 708 l77 0 l369 -628 l0 628 l57 0 l0 -708 l-77 0 l-369 632 l0 -632 l-57 0 ZM716 311 l0 46 l278 0 l0 -46 l-278 0 ZM962 461 q-42 -42 -107 -42 q-65 0 -107 42 q-42 42 -42 107 q0 65 42 106.5 q42 41.5 107 41.5 q65 0 107 -41.5 q42 -41.5 42 -106.5 q0 -65 -42 -107 ZM780.5 489 q27.5 -32 74.5 -32 q47 0 74.5 32 q27.5 32 27.5 79 q0 46 -27 78 q-27 32 -75 32 q-48 0 -75 -32 q-27 -32 -27 -78 q0 -47 27.5 -79 Z" /><glyph glyph-name="published" unicode="&#x2117;" d="M20 353 q0 157 111.5 267 q111.5 110 269.5 110 q157 0 268 -110 q111 -110 111 -267 q0 -156 -111 -265.5 q-111 -109.5 -268 -109.5 q-158 0 -269.5 109.5 q-111.5 109.5 -111.5 265.5 ZM69 353 q0 -136 97.5 -232.5 q97.5 -96.5 234.5 -96.5 q137 0 233.5 96.5 q96.5 96.5 96.5 232.5 q0 137 -96.5 234 q-96.5 97 -233.5 97 q-137 0 -234.5 -97 q-97.5 -97 -97.5 -234 ZM283 128 l0 439 l154 0 q72 0 114.5 -35.5 q42.5 -35.5 42.5 -101.5 q0 -63 -42.5 -100.5 q-42.5 -37.5 -113.5 -37.5 l-102 0 l0 -164 l-53 0 ZM336 339 l100 0 q50 0 77 24 q27 24 27 67 q0 43 -28 66.5 q-28 23.5 -77 23.5 l-99 0 l0 -181 Z" /><glyph glyph-name="trademark" unicode="&#x2122;" d="M397 708 l0 -44 l-133 0 l0 -368 l-49 0 l0 368 l-135 0 l0 44 l317 0 ZM917 708 l0 -412 l-49 0 l0 359 l-2 0 l-148 -359 l-31 0 l-147 359 l-2 0 l0 -359 l-49 0 l0 412 l77 0 l138 -334 l138 334 l75 0 Z" /><glyph glyph-name="Omega" unicode="&#x2126;" d="M678 0 l-238 0 l0 175 q89 16 137 82 q48 66 48 159 q0 110 -75 183 q-75 73 -185 73 q-109 0 -184 -73 q-75 -73 -75 -183 q0 -94 48 -160 q48 -66 137 -81 l0 -175 l-238 0 l0 47 l195 0 l0 94 q-91 26 -143 102 q-52 76 -52 174 q0 130 92 217 q92 87 221 87 q129 0 220.5 -86.5 q91.5 -86.5 91.5 -216.5 q0 -99 -51.5 -175 q-51.5 -76 -143.5 -102 l0 -94 l195 0 l0 -47 Z" /><glyph glyph-name="estimated" unicode="&#x212e;" d="M561 259 l-404 0 l0 -181 q59 -59 145 -59 q122 0 193 120 l35 -21 q-46 -72 -98 -103.5 q-52 -31.5 -130 -31.5 q-115 0 -186.5 79 q-71.5 79 -71.5 197 q0 119 71 197.5 q71 78.5 187 78.5 q115 0 186.5 -77 q71.5 -77 72.5 -199 ZM157 295 l291 0 l0 145 q-63 60 -147 60 q-84 0 -144 -60 l0 -145 Z" /><glyph glyph-name="partialdiff" unicode="&#x2202;" d="M226 -13 q-86 0 -139 65 q-53 65 -53 157 q0 93 51.5 152.5 q51.5 59.5 136.5 59.5 q51 0 96 -25 q45 -25 76 -68 q0 11 0.5 31 q0.5 20 0.5 30 q0 75 -18 138 q-18 63 -61 107 q-43 44 -106 44 q-54 0 -111 -45 l-29 35 q62 54 137 54 q53 0 94.5 -21 q41.5 -21 68 -55.5 q26.5 -34.5 44 -82 q17.5 -47.5 24.5 -96.5 q7 -49 7 -103 q0 -77 -11 -141.5 q-11 -64.5 -35.5 -119 q-24.5 -54.5 -68.5 -85.5 q-44 -31 -104 -31 ZM227 30 q43 0 75.5 24.5 q32.5 24.5 50 65 q17.5 40.5 26 79 q8.5 38.5 10.5 78.5 q-68 99 -162 99 q-67 0 -104.5 -49.5 q-37.5 -49.5 -37.5 -118.5 q0 -68 38 -123 q38 -55 104 -55 Z" /><glyph glyph-name="Delta" unicode="&#x2206;" d="M646 0 l-624 0 l279 712 l61 0 l284 -712 ZM570 49 l-239 610 l-237 -610 l476 0 Z" /><glyph glyph-name="product" unicode="&#x220f;" d="M632 -214 l-53 0 l0 951 l-449 0 l0 -951 l-53 0 l0 1000 l555 0 l0 -1000 Z" /><glyph glyph-name="summation" unicode="&#x2211;" d="M569 -214 l-538 0 l0 45 l332 458 l-318 451 l0 46 l512 0 l0 -49 l-445 0 l316 -448 l-333 -454 l474 0 l0 -49 Z" /><glyph glyph-name="minus" unicode="&#x2212;" d="M581 328 l0 -48 l-496 0 l0 48 l496 0 Z" /><glyph glyph-name="fraction" unicode="&#x2215;" d="M287 716 l-447 -746 l-42 22 l448 746 l41 -22 Z" /><glyph glyph-name="periodcentered" unicode="&#x2219;" d="M159 328 q13 -14 13 -32 q0 -18 -13 -31.5 q-13 -13.5 -32 -13.5 q-19 0 -32 13.5 q-13 13.5 -13 31.5 q0 18 13 32 q13 14 32 14 q19 0 32 -14 Z" /><glyph glyph-name="radical" unicode="&#x221a;" d="M492 786 l-209 -1000 l-56 0 l-165 348 l-51 -24 l-19 41 l94 44 l162 -344 l194 935 l50 0 Z" /><glyph glyph-name="infinity" unicode="&#x221e;" d="M184 107 q-59 0 -96 40 q-37 40 -37 102 q0 61 36.5 102 q36.5 41 95.5 41 q34 0 71.5 -20 q37.5 -20 59.5 -39.5 q22 -19.5 57 -54.5 q3 3 9 9 q34 34 53.5 51.5 q19.5 17.5 54.5 36 q35 18.5 67 18.5 q60 0 97.5 -40 q37.5 -40 37.5 -102 q0 -62 -37 -103 q-37 -41 -97 -41 q-48 0 -91.5 30 q-43.5 30 -93.5 81 q-4 -3 -23 -21 q-19 -18 -25.5 -23.5 q-6.5 -5.5 -24 -19.5 q-17.5 -14 -27.5 -19.5 q-10 -5.5 -26 -13.5 q-16 -8 -30.5 -11 q-14.5 -3 -30.5 -3 ZM185 153 q62 0 155 95 q-48 47 -85 73 q-37 26 -73 26 q-39 0 -62 -28.5 q-23 -28.5 -23 -69.5 q0 -42 23.5 -69 q23.5 -27 64.5 -27 ZM559 153 q39 0 62 27 q23 27 23 68 q0 42 -23.5 71 q-23.5 29 -64.5 29 q-25 0 -54 -16.5 q-29 -16.5 -48.5 -34 q-19.5 -17.5 -52.5 -50.5 q48 -46 84 -70 q36 -24 74 -24 Z" /><glyph glyph-name="integral" unicode="&#x222b;" d="M162 -210 q-23 0 -39.5 10.5 q-16.5 10.5 -16.5 31.5 q0 12 8.5 20 q8.5 8 20.5 8 q16 0 28.5 -18 q12.5 -18 19.5 -18 q39 0 39 164 l1 167 q0 391 1 399 q0 5 0.5 26 q0.5 21 1 30 q0.5 9 2 29.5 q1.5 20.5 4 31 q2.5 10.5 6.5 28 q4 17.5 9.5 27.5 q5.5 10 14 22 q8.5 12 18.5 18.5 q10 6.5 24 11 q14 4.5 31 4.5 q24 0 43 -11 q19 -11 19 -33 q0 -29 -32 -29 q-16 0 -28.5 18.5 q-12.5 18.5 -20.5 18.5 q-41 0 -40 -176 q0 -6 0 -9 l0 -507 q0 -41 -1 -68.5 q-1 -27.5 -4.5 -61 q-3.5 -33.5 -11 -55 q-7.5 -21.5 -20 -41 q-12.5 -19.5 -32 -29 q-19.5 -9.5 -45.5 -9.5 Z" /><glyph glyph-name="approxequal" unicode="&#x2248;" d="M62 267 q7 56 36.5 93 q29.5 37 85.5 37 q46 0 144.5 -36 q98.5 -36 134.5 -36 q69 0 86 81 l35 0 q-5 -54 -35.5 -91 q-30.5 -37 -86.5 -37 q-44 0 -143 35.5 q-99 35.5 -133 35.5 q-38 0 -60 -23.5 q-22 -23.5 -27 -58.5 l-37 0 ZM62 91 q18 131 121 131 q45 0 144 -36 q99 -36 136 -36 q68 0 85 81 l36 0 q-6 -55 -36.5 -92.5 q-30.5 -37.5 -86.5 -37.5 q-44 0 -142 36 q-98 36 -133 36 q-38 0 -60 -23.5 q-22 -23.5 -27 -58.5 l-37 0 Z" /><glyph glyph-name="notequal" unicode="&#x2260;" d="M579 147 l-284 0 l-79 -153 l-42 22 l68 131 l-155 0 l0 47 l180 0 l70 137 l-250 0 l0 48 l276 0 l76 147 l42 -22 l-65 -125 l163 0 l0 -48 l-188 0 l-71 -137 l259 0 l0 -47 Z" /><glyph glyph-name="lessequal" unicode="&#x2264;" d="M579 96 l-492 199 l0 52 l492 200 l0 -52 l-430 -174 l430 -174 l0 -51 ZM579 4 l-492 0 l0 48 l492 0 l0 -48 Z" /><glyph glyph-name="greaterequal" unicode="&#x2265;" d="M579 295 l-492 -199 l0 51 l431 174 l-431 174 l0 52 l492 -200 l0 -52 ZM579 4 l-492 0 l0 48 l492 0 l0 -48 Z" /><glyph glyph-name="lozenge" unicode="&#x25ca;" d="M490 356 l-169 -391 l-51 0 l-167 391 l167 391 l51 0 l169 -391 ZM437 356 l-141 341 l-141 -341 l141 -341 l141 341 Z" /><glyph glyph-name="fi" unicode="&#xf001;" d="M282 466 l0 -46 l-114 0 l0 -420 l-55 0 l0 420 l-97 0 l0 46 l97 0 l0 139 q0 80 39 121.5 q39 41.5 108 41.5 q32 0 53 -7 l-9 -47 q-24 7 -45 7 q-91 0 -91 -122 l0 -133 l114 0 ZM435 466 l0 -466 l-54 0 l0 466 l54 0 ZM436 680 q12 -12 12 -29 q0 -17 -12 -29 q-12 -12 -28 -12 q-16 0 -28.5 12 q-12.5 12 -12.5 29 q0 17 12.5 29 q12.5 12 28.5 12 q16 0 28 -12 Z" /><glyph glyph-name="fl" unicode="&#xf002;" d="M282 466 l0 -46 l-114 0 l0 -420 l-55 0 l0 420 l-97 0 l0 46 l97 0 l0 139 q0 80 39 121.5 q39 41.5 108 41.5 q32 0 53 -7 l-9 -47 q-24 7 -45 7 q-91 0 -91 -122 l0 -133 l114 0 ZM434 756 l0 -756 l-54 0 l0 756 l54 0 Z" /><glyph glyph-name="uniF8FF" unicode="&#xf8ff;" d="M278 117 l-56 0 l0 67 l56 0 l0 -67 ZM271 234 l-46 0 l-2 17 q0 54 11.5 79.5 q11.5 25.5 47.5 60.5 q31 31 40.5 47 q9.5 16 9.5 36 q0 36 -22.5 60.5 q-22.5 24.5 -53.5 24.5 q-71 0 -82 -95 l-50 8 q7 69 43 103 q36 34 92 34 q54 0 89 -36 q35 -36 35 -95 q0 -33 -13 -60 q-13 -27 -50 -60 q-37 -33 -43 -50 q-6 -17 -6 -74 ZM50 50 l412 0 l0 617 l-412 0 l0 -617 ZM0 718 l512 0 l0 -718 l-512 0 l0 718 Z" /><glyph glyph-name="f_f" unicode="&#xfb00;" d="M550 466 l0 -46 l-115 0 l0 -420 l-54 0 l0 420 l-213 0 l0 -420 l-55 0 l0 420 l-97 0 l0 46 l97 0 l0 139 q0 80 39 121.5 q39 41.5 108 41.5 q32 0 53 -7 l-9 -47 q-24 7 -45 7 q-91 0 -91 -122 l0 -133 l213 0 l0 139 q0 80 39 121.5 q39 41.5 108 41.5 q31 0 53 -7 l-10 -47 q-23 7 -45 7 q-91 0 -91 -122 l0 -133 l115 0 Z" /><glyph glyph-name="fi" unicode="&#xfb01;" d="M434 466 l0 -466 l-54 0 l0 466 l54 0 ZM436 680 q12 -12 12 -29 q0 -17 -12 -29 q-12 -12 -28 -12 q-16 0 -28.5 12 q-12.5 12 -12.5 29 q0 17 12.5 29 q12.5 12 28.5 12 q16 0 28 -12 ZM282 466 l0 -46 l-114 0 l0 -420 l-55 0 l0 420 l-97 0 l0 46 l97 0 l0 139 q0 80 39 121.5 q39 41.5 108 41.5 q32 0 53 -7 l-9 -47 q-24 7 -45 7 q-91 0 -91 -122 l0 -133 l114 0 Z" /><glyph glyph-name="fl" unicode="&#xfb02;" d="M434 756 l0 -756 l-54 0 l0 756 l54 0 ZM282 466 l0 -46 l-114 0 l0 -420 l-55 0 l0 420 l-97 0 l0 46 l97 0 l0 139 q0 80 39 121.5 q39 41.5 108 41.5 q32 0 53 -7 l-9 -47 q-24 7 -45 7 q-91 0 -91 -122 l0 -133 l114 0 Z" /><glyph glyph-name="f_f_i" unicode="&#xfb03;" d="M550 466 l0 -46 l-115 0 l0 -420 l-54 0 l0 420 l-213 0 l0 -420 l-55 0 l0 420 l-97 0 l0 46 l97 0 l0 139 q0 80 39 121.5 q39 41.5 108 41.5 q32 0 53 -7 l-9 -47 q-24 7 -45 7 q-91 0 -91 -122 l0 -133 l213 0 l0 139 q0 80 39 121.5 q39 41.5 108 41.5 q31 0 53 -7 l-10 -47 q-23 7 -45 7 q-91 0 -91 -122 l0 -133 l115 0 ZM702 466 l0 -466 l-54 0 l0 466 l54 0 ZM703.5 680 q12.5 -12 12.5 -29 q0 -17 -12.5 -29 q-12.5 -12 -28.5 -12 q-16 0 -28 12 q-12 12 -12 29 q0 17 12 29 q12 12 28 12 q16 0 28.5 -12 Z" /><glyph glyph-name="f_f_l" unicode="&#xfb04;" d="M702 756 l0 -756 l-54 0 l0 756 l54 0 ZM550 466 l0 -46 l-115 0 l0 -420 l-54 0 l0 420 l-213 0 l0 -420 l-55 0 l0 420 l-97 0 l0 46 l97 0 l0 139 q0 80 39 121.5 q39 41.5 108 41.5 q32 0 53 -7 l-9 -47 q-24 7 -45 7 q-91 0 -91 -122 l0 -133 l213 0 l0 139 q0 80 39 121.5 q39 41.5 108 41.5 q31 0 53 -7 l-10 -47 q-23 7 -45 7 q-91 0 -91 -122 l0 -133 l115 0 Z" /></font>
</defs>
</svg>
