<?xml version="1.0" encoding="iso-8859-1"?><svg width="1024" height="536" viewBox="0 0 1024 536" xmlns="http://www.w3.org/2000/svg" xmlns:xlink="http://www.w3.org/1999/xlink"><svg viewBox="0 0 512.001 512.001" width="512" height="512" id="svg_sprite_close" xmlns="http://www.w3.org/2000/svg"><path d="M284.286 256.002L506.143 34.144c7.811-7.811 7.811-20.475 0-28.285-7.811-7.81-20.475-7.811-28.285 0L256 227.717 34.143 5.859c-7.811-7.811-20.475-7.811-28.285 0-7.81 7.811-7.811 20.475 0 28.285l221.857 221.857L5.858 477.859c-7.811 7.811-7.811 20.475 0 28.285a19.938 19.938 0 0014.143 5.857 19.94 19.94 0 0014.143-5.857L256 284.287l221.857 221.857c3.905 3.905 9.024 5.857 14.143 5.857s10.237-1.952 14.143-5.857c7.811-7.811 7.811-20.475 0-28.285L284.286 256.002z"/></svg><svg height="512" viewBox="0 -53 384 384" width="512" id="svg_sprite_hamburger" x="512" xmlns="http://www.w3.org/2000/svg"><path d="M368 154.668H16c-8.832 0-16-7.168-16-16s7.168-16 16-16h352c8.832 0 16 7.168 16 16s-7.168 16-16 16zm0 0M368 32H16C7.168 32 0 24.832 0 16S7.168 0 16 0h352c8.832 0 16 7.168 16 16s-7.168 16-16 16zm0 0M368 277.332H16c-8.832 0-16-7.168-16-16s7.168-16 16-16h352c8.832 0 16 7.168 16 16s-7.168 16-16 16zm0 0"/></svg><svg viewBox="0 0 24 24" width="24" height="24" id="svg_sprite_phone_1" y="512" xmlns="http://www.w3.org/2000/svg"><path d="M20.023 15.488c-.63-.015-1.423-.052-1.924-.14a14.67 14.67 0 01-1.653-.425 1.017 1.017 0 00-1.019.253L13.21 17.38a15.376 15.376 0 01-3.798-2.792A15.376 15.376 0 016.62 10.79l2.204-2.218c.266-.267.365-.659.253-1.019-.142-.458-.329-1.11-.424-1.652-.089-.501-.125-1.294-.141-1.924A1 1 0 007.51 3H4c-.438 0-1 .328-1 1 0 4.539 1.84 8.874 4.966 12.034C11.126 19.16 15.461 21 20 21c.672 0 1-.562 1-1v-3.51a1 1 0 00-.977-1.002z"/></svg><svg width="13.37" height="15.438" viewBox="0 0 13.37 15.438" id="svg_sprite_play" x="24" y="512" xmlns="http://www.w3.org/2000/svg"><defs><style>.dcls-1{fill-rule:evenodd}</style></defs><path id="dМногоугольник_1" data-name="Многоугольник 1" class="dcls-1" d="M1318.5 452.226l-13.36 7.717V444.51z" transform="translate(-1305.13 -444.5)"/></svg></svg>