<?xml version="1.0" encoding="utf-8"?><svg width="1024" height="562" viewBox="0 0 1024 562" xmlns="http://www.w3.org/2000/svg" xmlns:xlink="http://www.w3.org/1999/xlink"><svg viewBox="0 0 50 50" width="50" height="50" id="svg_sprite_calendar_2" y="512" xmlns="http://www.w3.org/2000/svg"><path d="M12 0c-1.094 0-2 .906-2 2v2H4c-1.16 0-2 .84-2 2v7h46V6c0-1.16-.84-2-2-2h-6V2c0-1.094-.906-2-2-2h-2c-1.094 0-2 .906-2 2v2H16V2c0-1.094-.906-2-2-2zm0 2h2v6h-2zm24 0h2v6h-2zM2 15v31c0 1.16.84 2 2 2h42c1.16 0 2-.84 2-2V15zm10 6h5v5h-5zm7 0h5v5h-5zm7 0h5v5h-5zm7 0h5v5h-5zm-21 7h5v5h-5zm7 0h5v5h-5zm7 0h5v5h-5zm7 0h5v5h-5zm-21 7h5v5h-5zm7 0h5v5h-5zm7 0h5v5h-5zm7 0h5v5h-5z"/></svg><svg viewBox="0 0 50 50" width="50" height="50" id="svg_sprite_cardboard_box" x="50" y="512" xmlns="http://www.w3.org/2000/svg"><path d="M16.469 6c-.219 0-.45.086-.625.219L5.656 14h14.969l9.094-8zM32.75 6l-9.094 8h11.938l8.031-8zM45 7.469l-8 7.937v27.938l7.781-9.719c.14-.18.219-.398.219-.625zM5 16v27a1 1 0 001 1h29V16zm11 4h10a1 1 0 110 2H16c-.55 0-1-.45-1-1s.45-1 1-1z"/></svg><svg viewBox="0 0 50 50" width="50" height="50" id="svg_sprite_clock" x="100" y="512" xmlns="http://www.w3.org/2000/svg"><path d="M25 2C12.317 2 2 12.317 2 25s10.317 23 23 23 23-10.317 23-23S37.683 2 25 2zm0 26c-.462 0-.895-.113-1.286-.3l-6.007 6.007a.997.997 0 01-1.414 0 .999.999 0 010-1.414l6.007-6.007A2.969 2.969 0 0122 25a2.99 2.99 0 012-2.816V8a1 1 0 112 0v14.184A2.99 2.99 0 0128 25a3 3 0 01-3 3z"/></svg><svg viewBox="0 0 512.001 512.001" width="512" height="512" id="svg_sprite_close" xmlns="http://www.w3.org/2000/svg"><path d="M284.286 256.002L506.143 34.144c7.811-7.811 7.811-20.475 0-28.285-7.811-7.81-20.475-7.811-28.285 0L256 227.717 34.143 5.859c-7.811-7.811-20.475-7.811-28.285 0-7.81 7.811-7.811 20.475 0 28.285l221.857 221.857L5.858 477.859c-7.811 7.811-7.811 20.475 0 28.285a19.938 19.938 0 0014.143 5.857 19.94 19.94 0 0014.143-5.857L256 284.287l221.857 221.857c3.905 3.905 9.024 5.857 14.143 5.857s10.237-1.952 14.143-5.857c7.811-7.811 7.811-20.475 0-28.285L284.286 256.002z"/></svg><svg viewBox="0 0 50 50" width="50" height="50" id="svg_sprite_denied" x="150" y="512" xmlns="http://www.w3.org/2000/svg"><path d="M19.875.406c-3.68.067-6.367 1.196-8 3.344-1.934 2.547-2.285 6.395-1.063 11.469-.226.277-.44.64-.562 1.062-.121.422-.16.883-.094 1.438.133 1.101.414 1.89.75 2.437.09.145.188.262.281.375.27.328.543.52.813.657.344 1.73 1.297 3.675 2.219 4.593v.469c.008 1.016.004 1.895-.094 3.031-.613 1.407-2.648 2.23-5 3.157-.488.19-.992.382-1.5.593-.508.211-1.027.442-1.531.688C3.07 35.19.274 37.402 0 41.937L-.063 43h27.157c1.902 4.121 6.078 7 10.906 7 6.617 0 12-5.383 12-12s-5.383-12-12-12c-4.11 0-7.742 2.059-9.906 5.219-.676-.344-1.239-.696-1.657-1.125-.027-.028-.035-.067-.062-.094-.074-.082-.152-.156-.219-.25-.011-.02-.02-.043-.031-.063a2.486 2.486 0 01-.219-.375c-.05-.582-.054-1.093-.062-1.593-.008-.48-.004-.946 0-1.438v-.5c.894-.914 1.816-2.863 2.156-4.593.453-.227.965-.668 1.344-1.5.074-.168.125-.333.187-.532.13-.398.246-.886.313-1.437.031-.274.02-.508 0-.75s-.035-.48-.094-.688c-.059-.207-.16-.39-.25-.562-.09-.172-.172-.332-.281-.469.582-1.98 1.77-7.105-.282-10.406-.859-1.383-2.16-2.254-3.875-2.594-.945-1.191-2.757-1.844-5.187-1.844zM38 28c5.516 0 10 4.484 10 10s-4.484 10-10 10-10-4.484-10-10 4.484-10 10-10zm-11.563 6.844c-.066.238-.136.476-.187.718.05-.246.121-.48.188-.718zm-.375 2.031zM32 37v2h12v-2z"/></svg><svg viewBox="0 0 50 50" width="50" height="50" id="svg_sprite_discount" x="200" y="512" xmlns="http://www.w3.org/2000/svg"><path d="M19.828 2.064A2.404 2.404 0 0018.1 3l-2.6 3.5-4.5.2c-1.1 0-2.1.9-2.2 2L8.1 13l-3.8 2.2c-1 .6-1.4 1.7-1.1 2.8l1.4 4.2L2.3 26c-.6.9-.4 2.2.4 3l3.1 3-.4 4.4c-.1 1.1.6 2.2 1.7 2.5l4.2 1.2 1.7 4.1c.4 1 1.6 1.6 2.7 1.4l4.3-.9 3.4 2.8c.4.3 1 .5 1.5.5s1.1-.2 1.5-.5l3.4-2.8 4.3.9c1.1.2 2.2-.4 2.7-1.4l1.7-4.1 4.2-1.2c1.1-.3 1.8-1.3 1.7-2.5l-.2-4.4 3.2-3.1c.8-.8 1-2 .4-2.9l-2.4-3.7 1.4-4.2c.4-1.1-.1-2.2-1.1-2.8L41.9 13l-.7-4.4c-.2-1.1-1.1-1.9-2.2-2l-4.4-.2L31.9 3c-.7-.9-1.9-1.2-2.9-.7l-4 1.9-4-1.9a2.265 2.265 0 00-1.172-.236zM19.5 14c1.6 0 2.8.9 3.3 2.4.2.6.2.9.2 3.1s-.1 2.6-.2 3.1c-.5 1.4-1.7 2.4-3.3 2.4-1.6 0-2.8-.9-3.3-2.4-.2-.6-.2-.9-.2-3.1s.1-2.6.2-3.1c.5-1.4 1.7-2.4 3.3-2.4zm11 0h1.4c.2 0 .2.2.2.3l-12 21.4c-.1.2-.2.3-.4.3h-1.4c-.2 0-.3-.2-.2-.3L30 14.3c.1-.2.2-.3.5-.3zm-11 2.1c-.7 0-1.2.4-1.4 1-.1.3-.1.6-.1 2.5s.1 2.1.1 2.4c.2.7.7 1 1.4 1s1.2-.4 1.4-1c.1-.3.1-.6.1-2.4 0-1.9-.1-2.2-.1-2.5-.2-.7-.7-1-1.4-1zm11 8.9c1.6 0 2.8.9 3.3 2.4.2.6.2.9.2 3.1s-.1 2.6-.2 3.1c-.5 1.4-1.7 2.4-3.3 2.4-1.6 0-2.8-.9-3.3-2.4-.2-.6-.2-.9-.2-3.1s.1-2.6.2-3.1c.5-1.4 1.7-2.4 3.3-2.4zm0 2c-.7 0-1.2.4-1.4 1-.1.3-.1.6-.1 2.5s.1 2.1.1 2.4c.2.7.7 1 1.4 1s1.2-.4 1.4-1c.1-.3.1-.6.1-2.4 0-1.9-.1-2.2-.1-2.5-.2-.6-.7-1-1.4-1z"/></svg><svg viewBox="0 0 32 32" width="32" height="32" id="svg_sprite_facebook" x="400" y="512" xmlns="http://www.w3.org/2000/svg"><path d="M16 4C9.384 4 4 9.384 4 16s5.384 12 12 12 12-5.384 12-12S22.616 4 16 4zm0 2c5.535 0 10 4.465 10 10a9.977 9.977 0 01-8.512 9.879v-6.963h2.848l.447-2.893h-3.295v-1.58c0-1.2.395-2.267 1.518-2.267h1.805V9.652c-.317-.043-.988-.136-2.256-.136-2.648 0-4.2 1.398-4.2 4.584v1.923h-2.722v2.893h2.722v6.938A9.975 9.975 0 016 16c0-5.535 4.465-10 10-10z" fill="#575969"/></svg><svg height="512" viewBox="0 -53 384 384" width="512" id="svg_sprite_hamburger" x="512" xmlns="http://www.w3.org/2000/svg"><path d="M368 154.668H16c-8.832 0-16-7.168-16-16s7.168-16 16-16h352c8.832 0 16 7.168 16 16s-7.168 16-16 16zm0 0M368 32H16C7.168 32 0 24.832 0 16S7.168 0 16 0h352c8.832 0 16 7.168 16 16s-7.168 16-16 16zm0 0M368 277.332H16c-8.832 0-16-7.168-16-16s7.168-16 16-16h352c8.832 0 16 7.168 16 16s-7.168 16-16 16zm0 0"/></svg><svg viewBox="0 0 16 16" width="16" height="16" id="svg_sprite_mail" x="571.97" y="512" xmlns="http://www.w3.org/2000/svg"><path d="M2.5 2C1.676 2 1 2.676 1 3.5v8c0 .824.676 1.5 1.5 1.5h11c.824 0 1.5-.676 1.5-1.5v-8c0-.824-.676-1.5-1.5-1.5zm0 1h11c.035 0 .063.012.094.02L8 6.89 2.406 3.02c.031-.008.059-.02.094-.02zm-.5.953L8 8.11l6-4.156v7.082l-3.14-2.629L10 9l3.574 2.984c-.023.004-.047.016-.074.016h-11c-.027 0-.05-.012-.074-.016L6 9l-.86-.594L2 11.036z"/></svg><svg width="19.97" height="19.56" viewBox="0 0 19.97 19.56" id="svg_sprite_open_close" x="552" y="512" xmlns="http://www.w3.org/2000/svg"><defs><style>.jcls-1{fill-rule:evenodd}</style></defs><path id="j_" data-name="+" class="jcls-1" d="M1438.01 8340.55h-7.67v-7.53h-4.68v7.53h-7.63v4.53h7.67v7.53h4.68v-7.53h7.63v-4.53z" transform="translate(-1418.03 -8333.03)"/></svg><svg viewBox="0 0 24 24" width="24" height="24" id="svg_sprite_phone_1" x="528" y="512" xmlns="http://www.w3.org/2000/svg"><path d="M20.023 15.488c-.63-.015-1.423-.052-1.924-.14a14.67 14.67 0 01-1.653-.425 1.017 1.017 0 00-1.019.253L13.21 17.38a15.376 15.376 0 01-3.798-2.792A15.376 15.376 0 016.62 10.79l2.204-2.218c.266-.267.365-.659.253-1.019-.142-.458-.329-1.11-.424-1.652-.089-.501-.125-1.294-.141-1.924A1 1 0 007.51 3H4c-.438 0-1 .328-1 1 0 4.539 1.84 8.874 4.966 12.034C11.126 19.16 15.461 21 20 21c.672 0 1-.562 1-1v-3.51a1 1 0 00-.977-1.002z"/></svg><svg viewBox="0 0 32 32" width="32" height="32" id="svg_sprite_phone_2" x="432" y="512" xmlns="http://www.w3.org/2000/svg"><path d="M8.656 3c-.523 0-1.039.188-1.469.531l-.062.031-.031.032-3.125 3.219.031.03a3.134 3.134 0 00-.844 3.376c.004.008-.004.023 0 .031.848 2.426 3.016 7.11 7.25 11.344 4.25 4.25 8.996 6.332 11.344 7.25h.031a3.59 3.59 0 003.469-.688L28.406 25c.828-.828.828-2.266 0-3.094l-4.062-4.062-.032-.063c-.828-.828-2.296-.828-3.125 0l-2 2a16.176 16.176 0 01-4.093-2.812c-1.637-1.563-2.473-3.36-2.781-4.063l2-2c.84-.84.855-2.238-.032-3.062l.031-.032-.093-.093-4-4.125-.031-.031-.063-.032A2.356 2.356 0 008.656 3zm0 2a.35.35 0 01.219.094l4 4.093.094.094c-.008-.008.058.098-.063.219l-2.5 2.5-.469.438.22.624s1.148 3.075 3.562 5.376l.219.187C16.261 20.746 19 21.906 19 21.906l.625.282 2.969-2.97c.172-.171.14-.171.312 0L27 23.314c.172.171.172.109 0 .28l-3.063 3.063c-.46.395-.949.477-1.53.282-2.266-.891-6.669-2.825-10.595-6.75-3.957-3.958-6.023-8.446-6.78-10.625-.153-.407-.044-1.008.312-1.313l.062-.063 3.032-3.093A.35.35 0 018.655 5z"/></svg><svg width="13.37" height="15.438" viewBox="0 0 13.37 15.438" id="svg_sprite_play" x="587.97" y="512" xmlns="http://www.w3.org/2000/svg"><defs><style>.mcls-1{fill-rule:evenodd}</style></defs><path id="mМногоугольник_1" data-name="Многоугольник 1" class="mcls-1" d="M1318.5 452.226l-13.36 7.717V444.51z" transform="translate(-1305.13 -444.5)"/></svg><svg width="6.42" height="10.007" viewBox="0 0 6.42 10.007" id="svg_sprite_prev" x="601.34" y="512" xmlns="http://www.w3.org/2000/svg"><path data-name="Фигура 2 копия" class="ncls-1" d="M5 0l1.42 1.42-5 5L0 5z" fill-rule="evenodd"/><path data-name="Фигура 2 копия" class="ncls-1" d="M6.415 8.59l-1.422 1.417L0 5l1.422-1.418z" fill-rule="evenodd"/></svg><svg viewBox="0 0 50 50" width="50" height="50" id="svg_sprite_sales_performance" x="250" y="512" xmlns="http://www.w3.org/2000/svg"><path d="M42 3c-4.418 0-8 1.344-8 3s3.582 3 8 3 8-1.344 8-3-3.582-3-8-3zm-8 4.906V11c0 1.7 3.602 3 8 3s8-1.3 8-3V7.906C48.398 9.305 45.2 10 42 10s-6.398-.695-8-2.094zm0 5V16c0 1.7 3.602 3 8 3s8-1.3 8-3v-3.094C48.398 14.305 45.2 15 42 15s-6.398-.695-8-2.094zm0 5V21c0 1.7 3.602 3 8 3s8-1.3 8-3v-3.094C48.398 19.305 45.2 20 42 20s-6.398-.695-8-2.094zM8 18c-4.418 0-8 1.344-8 3s3.582 3 8 3 8-1.344 8-3-3.582-3-8-3zm-8 4.906V26c0 1.7 3.602 3 8 3s8-1.3 8-3v-3.094C14.398 24.305 11.2 25 8 25s-6.398-.695-8-2.094zm34 0V26c0 1.7 3.602 3 8 3s8-1.3 8-3v-3.094C48.398 24.305 45.2 25 42 25s-6.398-.695-8-2.094zm-34 5V31c0 1.7 3.602 3 8 3s8-1.3 8-3v-3.094C14.398 29.305 11.2 30 8 30s-6.398-.695-8-2.094zm34 0V31c0 1.7 3.602 3 8 3s8-1.3 8-3v-3.094C48.398 29.305 45.2 30 42 30s-6.398-.695-8-2.094zM25 28c-4.418 0-8 1.344-8 3s3.582 3 8 3 8-1.344 8-3-3.582-3-8-3zM0 32.906V36c0 1.7 3.602 3 8 3s8-1.3 8-3v-3.094C14.398 34.305 11.2 35 8 35s-6.398-.695-8-2.094zm17 0V36c0 1.7 3.602 3 8 3s8-1.3 8-3v-3.094C31.398 34.305 28.2 35 25 35s-6.398-.695-8-2.094zm17 0V36c0 1.7 3.602 3 8 3s8-1.3 8-3v-3.094C48.398 34.305 45.2 35 42 35s-6.398-.695-8-2.094zm-34 5V41c0 1.7 3.602 3 8 3s8-1.3 8-3v-3.094C14.398 39.305 11.2 40 8 40s-6.398-.695-8-2.094zm17 0V41c0 1.7 3.602 3 8 3s8-1.3 8-3v-3.094C31.398 39.305 28.2 40 25 40s-6.398-.695-8-2.094zm17 0V41c0 1.7 3.602 3 8 3s8-1.3 8-3v-3.094C48.398 39.305 45.2 40 42 40s-6.398-.695-8-2.094zm-34 5V46c0 1.7 3.602 3 8 3s8-1.3 8-3v-3.094C14.398 44.305 11.2 45 8 45s-6.398-.695-8-2.094zm17 0V46c0 1.7 3.602 3 8 3s8-1.3 8-3v-3.094C31.398 44.305 28.2 45 25 45s-6.398-.695-8-2.094zm17 0V46c0 1.7 3.602 3 8 3s8-1.3 8-3v-3.094C48.398 44.305 45.2 45 42 45s-6.398-.695-8-2.094z"/></svg><svg viewBox="0 0 50 50" width="50" height="50" id="svg_sprite_services" x="300" y="512" xmlns="http://www.w3.org/2000/svg"><path d="M32.219 2.063L27.844 3.78l.781 3.781c-.305.305-.629.657-.969 1.032l-3.75-.844-1.843 4.313 3.187 2.124a12.055 12.055 0 000 1.594l-3.281 2 1.718 4.375 3.688-.75a8.51 8.51 0 001.094 1.094l-.844 3.688 4.344 1.843 2.125-3.187c.531.035 1.031.035 1.562 0l2.032 3.281 4.374-1.719-.843-4a8.517 8.517 0 001.062-1.093l3.813.968 1.875-4.375-3.313-2.031c.032-.52.032-1.012 0-1.531l3.282-2.031-1.72-4.376-3.812.844a8.51 8.51 0 00-1.093-1.094L42.156 4l-4.343-1.844-2.032 3.188c-.523-.051-1.05-.078-1.562-.032zM35 11c2.21 0 4 1.79 4 4s-1.79 4-4 4-4-1.79-4-4 1.79-4 4-4zm-21.469 9l-.625 4a9.98 9.98 0 00-1.656.719L7.906 22.28l-3.5 3.5 2.313 3.375a12.796 12.796 0 00-.688 1.657L2 31.563v4.875l4 .718c.176.555.422 1.137.719 1.688l-2.438 3.25 3.5 3.5 3.375-2.313c.543.278 1.102.496 1.656.688L13.438 48h4.906l.718-4a9.815 9.815 0 001.688-.719l3.344 2.438 3.5-3.5-2.407-3.375c.274-.543.465-1.102.657-1.657l4.156-.75v-4.906l-4.094-.625a9.842 9.842 0 00-.718-1.656l2.406-3.344-3.469-3.625-3.406 2.438a12.727 12.727 0 00-1.625-.688L18.469 20zM16 30c2.2 0 4 1.8 4 4s-1.8 4-4 4-4-1.8-4-4 1.8-4 4-4z"/></svg><svg viewBox="0 0 50 50" width="50" height="50" id="svg_sprite_shortlist" x="350" y="512" xmlns="http://www.w3.org/2000/svg"><path d="M25 0a4.006 4.006 0 00-3.873 3H19v4h12V3h-2.127A4.006 4.006 0 0025 0zM9 3C7.346 3 6 4.346 6 6v39c0 1.654 1.346 3 3 3h32c1.654 0 3-1.346 3-3V6c0-1.654-1.346-3-3-3h-8v5a1 1 0 01-1 1H18a1 1 0 01-1-1V3H9zm6.137 9.332h.181v8.543h-1.691v-6.527l-2.022.627v-1.377l3.532-1.266zM20 16h18v2H20v-2zm-5.998 7.227c.879 0 1.56.21 2.047.632.486.422.728 1.018.728 1.787 0 .422-.109.853-.328 1.29-.219.437-.594.947-1.125 1.529l-1.937 2.045h3.668v1.365h-5.85v-1.16l2.76-2.942c.379-.414.66-.775.842-1.084.182-.309.271-.601.271-.878 0-.38-.096-.676-.287-.893-.191-.217-.465-.326-.82-.326-.383 0-.685.132-.905.396-.22.264-.332.61-.332 1.04h-1.699c0-.52.125-.994.373-1.424.248-.43.6-.766 1.053-1.01a3.2 3.2 0 011.541-.367zM20 27h18v2H20v-2zm-6.1 7.229c.902 0 1.61.215 2.121.646.512.431.768 1.025.768 1.783 0 .391-.117.75-.355 1.078-.238.328-.553.58-.94.756.48.172.84.43 1.076.774.236.343.354.75.354 1.218 0 .757-.276 1.366-.828 1.823-.553.457-1.286.685-2.196.685-.852 0-1.546-.225-2.088-.674-.54-.449-.812-1.043-.812-1.78h1.693c0 .32.12.581.36.784.24.203.536.305.888.305.402 0 .718-.105.946-.318.228-.213.343-.496.343-.848 0-.852-.469-1.277-1.406-1.277h-.896v-1.325h.902c.43 0 .748-.107.955-.322.207-.215.31-.498.31-.853 0-.344-.103-.611-.308-.803-.205-.192-.486-.287-.846-.287-.324 0-.596.087-.814.265a.857.857 0 00-.328.696h-1.694c0-.445.122-.847.362-1.2s.576-.629 1.008-.828a3.362 3.362 0 011.425-.298zM20 38h18v2H20v-2z"/></svg><svg viewBox="0 0 32 32" width="32" height="32" id="svg_sprite_telegram" x="464" y="512" xmlns="http://www.w3.org/2000/svg"><path d="M26.07 3.996a2.974 2.974 0 00-.933.223h-.004c-.285.113-1.64.683-3.7 1.547l-7.382 3.109c-5.297 2.23-10.504 4.426-10.504 4.426l.062-.024s-.359.118-.734.375a2.03 2.03 0 00-.586.567c-.184.27-.332.683-.277 1.11.09.722.558 1.155.894 1.394.34.242.664.355.664.355h.008l4.883 1.645c.219.703 1.488 4.875 1.793 5.836.18.574.355.933.574 1.207.106.14.23.257.379.351a1.119 1.119 0 00.246.106l-.05-.012c.015.004.027.016.038.02.04.011.067.015.118.023.773.234 1.394-.246 1.394-.246l.035-.028 2.883-2.625 4.832 3.707.11.047c1.007.442 2.027.196 2.566-.238.543-.437.754-.996.754-.996l.035-.09 3.734-19.129c.106-.472.133-.914.016-1.343a1.807 1.807 0 00-.781-1.047 1.872 1.872 0 00-1.067-.27zm-.101 2.05c-.004.063.008.056-.02.177v.011l-3.699 18.93c-.016.027-.043.086-.117.145-.078.062-.14.101-.465-.028l-5.91-4.531-3.57 3.254.75-4.79 9.656-9c.398-.37.265-.448.265-.448.028-.454-.601-.133-.601-.133l-12.176 7.543-.004-.02-5.836-1.965v-.004l-.015-.003a.27.27 0 00.03-.012l.032-.016.031-.011s5.211-2.196 10.508-4.426c2.652-1.117 5.324-2.242 7.379-3.11 2.055-.863 3.574-1.496 3.66-1.53.082-.032.043-.032.102-.032z" fill="#575969"/></svg><svg viewBox="0 0 32 32" width="32" height="32" id="svg_sprite_youtube" x="496" y="512" xmlns="http://www.w3.org/2000/svg"><path d="M16 6c-3.766 0-7.094.39-9.125.688-1.68.246-3.035 1.511-3.344 3.187C3.27 11.301 3 13.387 3 16s.27 4.7.531 6.125c.309 1.676 1.664 2.945 3.344 3.188 2.04.296 5.379.687 9.125.687 3.746 0 7.086-.39 9.125-.688 1.68-.242 3.035-1.511 3.344-3.187.261-1.43.531-3.52.531-6.125s-.266-4.695-.531-6.125c-.309-1.676-1.664-2.941-3.344-3.188C23.094 6.391 19.765 6 16 6zm0 2c3.633 0 6.879.371 8.844.656A1.966 1.966 0 0126.5 10.25c.242 1.32.5 3.277.5 5.75 0 2.469-.258 4.43-.5 5.75a1.957 1.957 0 01-1.656 1.594C22.87 23.629 19.609 24 16 24c-3.61 0-6.875-.371-8.844-.656A1.962 1.962 0 015.5 21.75C5.258 20.43 5 18.477 5 16c0-2.48.258-4.43.5-5.75a1.962 1.962 0 011.656-1.594C9.117 8.371 12.367 8 16 8zm-3 2.281V21.72l1.5-.844 7-4L23 16l-1.5-.875-7-4zm2 3.438L18.969 16 15 18.281z"/></svg></svg>