<?xml version="1.0" encoding="utf-8"?><svg width="1024" height="562" viewBox="0 0 1024 562" xmlns="http://www.w3.org/2000/svg" xmlns:xlink="http://www.w3.org/1999/xlink"><svg viewBox="0 0 50 50" width="50" height="50" id="svg_sprite_calendar_2" y="512" xmlns="http://www.w3.org/2000/svg"><path d="M12 0c-1.094 0-2 .906-2 2v2H4c-1.16 0-2 .84-2 2v7h46V6c0-1.16-.84-2-2-2h-6V2c0-1.094-.906-2-2-2h-2c-1.094 0-2 .906-2 2v2H16V2c0-1.094-.906-2-2-2zm0 2h2v6h-2zm24 0h2v6h-2zM2 15v31c0 1.16.84 2 2 2h42c1.16 0 2-.84 2-2V15zm10 6h5v5h-5zm7 0h5v5h-5zm7 0h5v5h-5zm7 0h5v5h-5zm-21 7h5v5h-5zm7 0h5v5h-5zm7 0h5v5h-5zm7 0h5v5h-5zm-21 7h5v5h-5zm7 0h5v5h-5zm7 0h5v5h-5zm7 0h5v5h-5z"/></svg><svg viewBox="0 0 50 50" width="50" height="50" id="svg_sprite_cardboard_box" x="50" y="512" xmlns="http://www.w3.org/2000/svg"><path d="M16.469 6c-.219 0-.45.086-.625.219L5.656 14h14.969l9.094-8zM32.75 6l-9.094 8h11.938l8.031-8zM45 7.469l-8 7.937v27.938l7.781-9.719c.14-.18.219-.398.219-.625zM5 16v27a1 1 0 001 1h29V16zm11 4h10a1 1 0 110 2H16c-.55 0-1-.45-1-1s.45-1 1-1z"/></svg><svg viewBox="0 0 50 50" width="50" height="50" id="svg_sprite_clock" x="100" y="512" xmlns="http://www.w3.org/2000/svg"><path d="M25 2C12.317 2 2 12.317 2 25s10.317 23 23 23 23-10.317 23-23S37.683 2 25 2zm0 26c-.462 0-.895-.113-1.286-.3l-6.007 6.007a.997.997 0 01-1.414 0 .999.999 0 010-1.414l6.007-6.007A2.969 2.969 0 0122 25a2.99 2.99 0 012-2.816V8a1 1 0 112 0v14.184A2.99 2.99 0 0128 25a3 3 0 01-3 3z"/></svg><svg viewBox="0 0 512.001 512.001" width="512" height="512" id="svg_sprite_close" xmlns="http://www.w3.org/2000/svg"><path d="M284.286 256.002L506.143 34.144c7.811-7.811 7.811-20.475 0-28.285-7.811-7.81-20.475-7.811-28.285 0L256 227.717 34.143 5.859c-7.811-7.811-20.475-7.811-28.285 0-7.81 7.811-7.811 20.475 0 28.285l221.857 221.857L5.858 477.859c-7.811 7.811-7.811 20.475 0 28.285a19.938 19.938 0 0014.143 5.857 19.94 19.94 0 0014.143-5.857L256 284.287l221.857 221.857c3.905 3.905 9.024 5.857 14.143 5.857s10.237-1.952 14.143-5.857c7.811-7.811 7.811-20.475 0-28.285L284.286 256.002z"/></svg><svg viewBox="0 0 50 50" width="50" height="50" id="svg_sprite_denied" x="150" y="512" xmlns="http://www.w3.org/2000/svg"><path d="M19.875.406c-3.68.067-6.367 1.196-8 3.344-1.934 2.547-2.285 6.395-1.063 11.469-.226.277-.44.64-.562 1.062-.121.422-.16.883-.094 1.438.133 1.101.414 1.89.75 2.437.09.145.188.262.281.375.27.328.543.52.813.657.344 1.73 1.297 3.675 2.219 4.593v.469c.008 1.016.004 1.895-.094 3.031-.613 1.407-2.648 2.23-5 3.157-.488.19-.992.382-1.5.593-.508.211-1.027.442-1.531.688C3.07 35.19.274 37.402 0 41.937L-.063 43h27.157c1.902 4.121 6.078 7 10.906 7 6.617 0 12-5.383 12-12s-5.383-12-12-12c-4.11 0-7.742 2.059-9.906 5.219-.676-.344-1.239-.696-1.657-1.125-.027-.028-.035-.067-.062-.094-.074-.082-.152-.156-.219-.25-.011-.02-.02-.043-.031-.063a2.486 2.486 0 01-.219-.375c-.05-.582-.054-1.093-.062-1.593-.008-.48-.004-.946 0-1.438v-.5c.894-.914 1.816-2.863 2.156-4.593.453-.227.965-.668 1.344-1.5.074-.168.125-.333.187-.532.13-.398.246-.886.313-1.437.031-.274.02-.508 0-.75s-.035-.48-.094-.688c-.059-.207-.16-.39-.25-.562-.09-.172-.172-.332-.281-.469.582-1.98 1.77-7.105-.282-10.406-.859-1.383-2.16-2.254-3.875-2.594-.945-1.191-2.757-1.844-5.187-1.844zM38 28c5.516 0 10 4.484 10 10s-4.484 10-10 10-10-4.484-10-10 4.484-10 10-10zm-11.563 6.844c-.066.238-.136.476-.187.718.05-.246.121-.48.188-.718zm-.375 2.031zM32 37v2h12v-2z"/></svg><svg viewBox="0 0 50 50" width="50" height="50" id="svg_sprite_discount" x="200" y="512" xmlns="http://www.w3.org/2000/svg"><path d="M19.828 2.064A2.404 2.404 0 0018.1 3l-2.6 3.5-4.5.2c-1.1 0-2.1.9-2.2 2L8.1 13l-3.8 2.2c-1 .6-1.4 1.7-1.1 2.8l1.4 4.2L2.3 26c-.6.9-.4 2.2.4 3l3.1 3-.4 4.4c-.1 1.1.6 2.2 1.7 2.5l4.2 1.2 1.7 4.1c.4 1 1.6 1.6 2.7 1.4l4.3-.9 3.4 2.8c.4.3 1 .5 1.5.5s1.1-.2 1.5-.5l3.4-2.8 4.3.9c1.1.2 2.2-.4 2.7-1.4l1.7-4.1 4.2-1.2c1.1-.3 1.8-1.3 1.7-2.5l-.2-4.4 3.2-3.1c.8-.8 1-2 .4-2.9l-2.4-3.7 1.4-4.2c.4-1.1-.1-2.2-1.1-2.8L41.9 13l-.7-4.4c-.2-1.1-1.1-1.9-2.2-2l-4.4-.2L31.9 3c-.7-.9-1.9-1.2-2.9-.7l-4 1.9-4-1.9a2.265 2.265 0 00-1.172-.236zM19.5 14c1.6 0 2.8.9 3.3 2.4.2.6.2.9.2 3.1s-.1 2.6-.2 3.1c-.5 1.4-1.7 2.4-3.3 2.4-1.6 0-2.8-.9-3.3-2.4-.2-.6-.2-.9-.2-3.1s.1-2.6.2-3.1c.5-1.4 1.7-2.4 3.3-2.4zm11 0h1.4c.2 0 .2.2.2.3l-12 21.4c-.1.2-.2.3-.4.3h-1.4c-.2 0-.3-.2-.2-.3L30 14.3c.1-.2.2-.3.5-.3zm-11 2.1c-.7 0-1.2.4-1.4 1-.1.3-.1.6-.1 2.5s.1 2.1.1 2.4c.2.7.7 1 1.4 1s1.2-.4 1.4-1c.1-.3.1-.6.1-2.4 0-1.9-.1-2.2-.1-2.5-.2-.7-.7-1-1.4-1zm11 8.9c1.6 0 2.8.9 3.3 2.4.2.6.2.9.2 3.1s-.1 2.6-.2 3.1c-.5 1.4-1.7 2.4-3.3 2.4-1.6 0-2.8-.9-3.3-2.4-.2-.6-.2-.9-.2-3.1s.1-2.6.2-3.1c.5-1.4 1.7-2.4 3.3-2.4zm0 2c-.7 0-1.2.4-1.4 1-.1.3-.1.6-.1 2.5s.1 2.1.1 2.4c.2.7.7 1 1.4 1s1.2-.4 1.4-1c.1-.3.1-.6.1-2.4 0-1.9-.1-2.2-.1-2.5-.2-.6-.7-1-1.4-1z"/></svg><svg height="512" viewBox="0 -53 384 384" width="512" id="svg_sprite_hamburger" x="512" xmlns="http://www.w3.org/2000/svg"><path d="M368 154.668H16c-8.832 0-16-7.168-16-16s7.168-16 16-16h352c8.832 0 16 7.168 16 16s-7.168 16-16 16zm0 0M368 32H16C7.168 32 0 24.832 0 16S7.168 0 16 0h352c8.832 0 16 7.168 16 16s-7.168 16-16 16zm0 0M368 277.332H16c-8.832 0-16-7.168-16-16s7.168-16 16-16h352c8.832 0 16 7.168 16 16s-7.168 16-16 16zm0 0"/></svg><svg viewBox="0 0 24 24" width="24" height="24" id="svg_sprite_phone_1" x="300" y="512" xmlns="http://www.w3.org/2000/svg"><path d="M20.023 15.488c-.63-.015-1.423-.052-1.924-.14a14.67 14.67 0 01-1.653-.425 1.017 1.017 0 00-1.019.253L13.21 17.38a15.376 15.376 0 01-3.798-2.792A15.376 15.376 0 016.62 10.79l2.204-2.218c.266-.267.365-.659.253-1.019-.142-.458-.329-1.11-.424-1.652-.089-.501-.125-1.294-.141-1.924A1 1 0 007.51 3H4c-.438 0-1 .328-1 1 0 4.539 1.84 8.874 4.966 12.034C11.126 19.16 15.461 21 20 21c.672 0 1-.562 1-1v-3.51a1 1 0 00-.977-1.002z"/></svg><svg width="13.37" height="15.438" viewBox="0 0 13.37 15.438" id="svg_sprite_play" x="324" y="512" xmlns="http://www.w3.org/2000/svg"><defs><style>.icls-1{fill-rule:evenodd}</style></defs><path id="iМногоугольник_1" data-name="Многоугольник 1" class="icls-1" d="M1318.5 452.226l-13.36 7.717V444.51z" transform="translate(-1305.13 -444.5)"/></svg><svg viewBox="0 0 50 50" width="50" height="50" id="svg_sprite_shortlist" x="250" y="512" xmlns="http://www.w3.org/2000/svg"><path d="M25 0a4.006 4.006 0 00-3.873 3H19v4h12V3h-2.127A4.006 4.006 0 0025 0zM9 3C7.346 3 6 4.346 6 6v39c0 1.654 1.346 3 3 3h32c1.654 0 3-1.346 3-3V6c0-1.654-1.346-3-3-3h-8v5a1 1 0 01-1 1H18a1 1 0 01-1-1V3H9zm6.137 9.332h.181v8.543h-1.691v-6.527l-2.022.627v-1.377l3.532-1.266zM20 16h18v2H20v-2zm-5.998 7.227c.879 0 1.56.21 2.047.632.486.422.728 1.018.728 1.787 0 .422-.109.853-.328 1.29-.219.437-.594.947-1.125 1.529l-1.937 2.045h3.668v1.365h-5.85v-1.16l2.76-2.942c.379-.414.66-.775.842-1.084.182-.309.271-.601.271-.878 0-.38-.096-.676-.287-.893-.191-.217-.465-.326-.82-.326-.383 0-.685.132-.905.396-.22.264-.332.61-.332 1.04h-1.699c0-.52.125-.994.373-1.424.248-.43.6-.766 1.053-1.01a3.2 3.2 0 011.541-.367zM20 27h18v2H20v-2zm-6.1 7.229c.902 0 1.61.215 2.121.646.512.431.768 1.025.768 1.783 0 .391-.117.75-.355 1.078-.238.328-.553.58-.94.756.48.172.84.43 1.076.774.236.343.354.75.354 1.218 0 .757-.276 1.366-.828 1.823-.553.457-1.286.685-2.196.685-.852 0-1.546-.225-2.088-.674-.54-.449-.812-1.043-.812-1.78h1.693c0 .32.12.581.36.784.24.203.536.305.888.305.402 0 .718-.105.946-.318.228-.213.343-.496.343-.848 0-.852-.469-1.277-1.406-1.277h-.896v-1.325h.902c.43 0 .748-.107.955-.322.207-.215.31-.498.31-.853 0-.344-.103-.611-.308-.803-.205-.192-.486-.287-.846-.287-.324 0-.596.087-.814.265a.857.857 0 00-.328.696h-1.694c0-.445.122-.847.362-1.2s.576-.629 1.008-.828a3.362 3.362 0 011.425-.298zM20 38h18v2H20v-2z"/></svg></svg>