<?xml version="1.0" encoding="utf-8"?><svg width="1024" height="562" viewBox="0 0 1024 562" xmlns="http://www.w3.org/2000/svg" xmlns:xlink="http://www.w3.org/1999/xlink"><svg viewBox="0 0 50 50" width="50" height="50" id="svg_sprite_cardboard_box" y="512" xmlns="http://www.w3.org/2000/svg"><path d="M16.469 6c-.219 0-.45.086-.625.219L5.656 14h14.969l9.094-8zM32.75 6l-9.094 8h11.938l8.031-8zM45 7.469l-8 7.937v27.938l7.781-9.719c.14-.18.219-.398.219-.625zM5 16v27a1 1 0 001 1h29V16zm11 4h10a1 1 0 110 2H16c-.55 0-1-.45-1-1s.45-1 1-1z"/></svg><svg viewBox="0 0 50 50" width="50" height="50" id="svg_sprite_clock" x="50" y="512" xmlns="http://www.w3.org/2000/svg"><path d="M25 2C12.317 2 2 12.317 2 25s10.317 23 23 23 23-10.317 23-23S37.683 2 25 2zm0 26c-.462 0-.895-.113-1.286-.3l-6.007 6.007a.997.997 0 01-1.414 0 .999.999 0 010-1.414l6.007-6.007A2.969 2.969 0 0122 25a2.99 2.99 0 012-2.816V8a1 1 0 112 0v14.184A2.99 2.99 0 0128 25a3 3 0 01-3 3z"/></svg><svg viewBox="0 0 512.001 512.001" width="512" height="512" id="svg_sprite_close" xmlns="http://www.w3.org/2000/svg"><path d="M284.286 256.002L506.143 34.144c7.811-7.811 7.811-20.475 0-28.285-7.811-7.81-20.475-7.811-28.285 0L256 227.717 34.143 5.859c-7.811-7.811-20.475-7.811-28.285 0-7.81 7.811-7.811 20.475 0 28.285l221.857 221.857L5.858 477.859c-7.811 7.811-7.811 20.475 0 28.285a19.938 19.938 0 0014.143 5.857 19.94 19.94 0 0014.143-5.857L256 284.287l221.857 221.857c3.905 3.905 9.024 5.857 14.143 5.857s10.237-1.952 14.143-5.857c7.811-7.811 7.811-20.475 0-28.285L284.286 256.002z"/></svg><svg viewBox="0 0 50 50" width="50" height="50" id="svg_sprite_denied" x="100" y="512" xmlns="http://www.w3.org/2000/svg"><path d="M19.875.406c-3.68.067-6.367 1.196-8 3.344-1.934 2.547-2.285 6.395-1.063 11.469-.226.277-.44.64-.562 1.062-.121.422-.16.883-.094 1.438.133 1.101.414 1.89.75 2.437.09.145.188.262.281.375.27.328.543.52.813.657.344 1.73 1.297 3.675 2.219 4.593v.469c.008 1.016.004 1.895-.094 3.031-.613 1.407-2.648 2.23-5 3.157-.488.19-.992.382-1.5.593-.508.211-1.027.442-1.531.688C3.07 35.19.274 37.402 0 41.937L-.063 43h27.157c1.902 4.121 6.078 7 10.906 7 6.617 0 12-5.383 12-12s-5.383-12-12-12c-4.11 0-7.742 2.059-9.906 5.219-.676-.344-1.239-.696-1.657-1.125-.027-.028-.035-.067-.062-.094-.074-.082-.152-.156-.219-.25-.011-.02-.02-.043-.031-.063a2.486 2.486 0 01-.219-.375c-.05-.582-.054-1.093-.062-1.593-.008-.48-.004-.946 0-1.438v-.5c.894-.914 1.816-2.863 2.156-4.593.453-.227.965-.668 1.344-1.5.074-.168.125-.333.187-.532.13-.398.246-.886.313-1.437.031-.274.02-.508 0-.75s-.035-.48-.094-.688c-.059-.207-.16-.39-.25-.562-.09-.172-.172-.332-.281-.469.582-1.98 1.77-7.105-.282-10.406-.859-1.383-2.16-2.254-3.875-2.594-.945-1.191-2.757-1.844-5.187-1.844zM38 28c5.516 0 10 4.484 10 10s-4.484 10-10 10-10-4.484-10-10 4.484-10 10-10zm-11.563 6.844c-.066.238-.136.476-.187.718.05-.246.121-.48.188-.718zm-.375 2.031zM32 37v2h12v-2z" fill="#575969"/></svg><svg height="512" viewBox="0 -53 384 384" width="512" id="svg_sprite_hamburger" x="512" xmlns="http://www.w3.org/2000/svg"><path d="M368 154.668H16c-8.832 0-16-7.168-16-16s7.168-16 16-16h352c8.832 0 16 7.168 16 16s-7.168 16-16 16zm0 0M368 32H16C7.168 32 0 24.832 0 16S7.168 0 16 0h352c8.832 0 16 7.168 16 16s-7.168 16-16 16zm0 0M368 277.332H16c-8.832 0-16-7.168-16-16s7.168-16 16-16h352c8.832 0 16 7.168 16 16s-7.168 16-16 16zm0 0"/></svg><svg viewBox="0 0 24 24" width="24" height="24" id="svg_sprite_phone_1" x="150" y="512" xmlns="http://www.w3.org/2000/svg"><path d="M20.023 15.488c-.63-.015-1.423-.052-1.924-.14a14.67 14.67 0 01-1.653-.425 1.017 1.017 0 00-1.019.253L13.21 17.38a15.376 15.376 0 01-3.798-2.792A15.376 15.376 0 016.62 10.79l2.204-2.218c.266-.267.365-.659.253-1.019-.142-.458-.329-1.11-.424-1.652-.089-.501-.125-1.294-.141-1.924A1 1 0 007.51 3H4c-.438 0-1 .328-1 1 0 4.539 1.84 8.874 4.966 12.034C11.126 19.16 15.461 21 20 21c.672 0 1-.562 1-1v-3.51a1 1 0 00-.977-1.002z"/></svg><svg width="13.37" height="15.438" viewBox="0 0 13.37 15.438" id="svg_sprite_play" x="174" y="512" xmlns="http://www.w3.org/2000/svg"><defs><style>.gcls-1{fill-rule:evenodd}</style></defs><path id="gМногоугольник_1" data-name="Многоугольник 1" class="gcls-1" d="M1318.5 452.226l-13.36 7.717V444.51z" transform="translate(-1305.13 -444.5)"/></svg></svg>