<svg xmlns="http://www.w3.org/2000/svg" viewBox="0 0 50 50">
  <path d="M16.46875 6C16.25 6 16.019531 6.085938 15.84375 6.21875L5.65625 14L20.625 14L29.71875 6 Z M 32.75 6L23.65625 14L35.59375 14L43.625 6 Z M 45 7.46875L37 15.40625L37 43.34375L44.78125 33.625C44.921875 33.445313 45 33.226563 45 33 Z M 5 16L5 43C5 43.554688 5.449219 44 6 44L35 44L35 16 Z M 16 20L26 20C26.554688 20 27 20.449219 27 21C27 21.550781 26.554688 22 26 22L16 22C15.449219 22 15 21.550781 15 21C15 20.449219 15.449219 20 16 20Z" />
</svg>