<?xml version="1.0" encoding="UTF-8" standalone="no"?>
<svg
   xmlns:dc="http://purl.org/dc/elements/1.1/"
   xmlns:cc="http://creativecommons.org/ns#"
   xmlns:rdf="http://www.w3.org/1999/02/22-rdf-syntax-ns#"
   xmlns:svg="http://www.w3.org/2000/svg"
   xmlns="http://www.w3.org/2000/svg"
   xmlns:sodipodi="http://sodipodi.sourceforge.net/DTD/sodipodi-0.dtd"
   xmlns:inkscape="http://www.inkscape.org/namespaces/inkscape"
   width="6.4200001"
   height="10.007329"
   viewBox="0 0 6.42 10.007329"
   version="1.1"
   id="svg831"
   sodipodi:docname="svg_sprite_prev.svg"
   inkscape:version="0.92.4 (5da689c313, 2019-01-14)">

  <path
     id="Фигура_2_копия"
     data-name="Фигура 2 копия"
     class="cls-1"
     d="m 5,0 1.42,1.42 -5,5 L 0,5 Z"
     inkscape:connector-curvature="0"
     style="fill-rule:evenodd"
     sodipodi:nodetypes="ccccc" />
  <path
     style="opacity:0;fill:#00f05b;fill-opacity:1;fill-rule:evenodd;stroke:none;stroke-width:0.01562008;stroke-miterlimit:10;stroke-dasharray:none;stroke-opacity:1"
     d="M 0.81488782,5.8113231 0.21335702,5.2097541 0.81685997,4.6062512 1.4203629,4.0027483 2.0238659,4.6062512 2.6273689,5.2097541 2.025838,5.8113231 C 1.694996,6.1421859 1.4225323,6.4128919 1.4203629,6.4128919 c -0.00217,0 -0.2746331,-0.270706 -0.60547508,-0.6015688 z"
     id="path873"
     inkscape:connector-curvature="0" />
  <path
     style="opacity:0;fill:#00f05b;fill-opacity:1;fill-rule:evenodd;stroke:none;stroke-width:0.01562008;stroke-miterlimit:10;stroke-dasharray:none;stroke-opacity:1"
     d="M 0.81488782,5.8113231 0.21335702,5.2097541 0.81685997,4.6062512 1.4203629,4.0027483 2.0238659,4.6062512 2.6273689,5.2097541 2.025838,5.8113231 C 1.694996,6.1421859 1.4225323,6.4128919 1.4203629,6.4128919 c -0.00217,0 -0.2746331,-0.270706 -0.60547508,-0.6015688 z"
     id="path875"
     inkscape:connector-curvature="0" />
  <path
     style="opacity:0;fill:#00f05b;fill-opacity:1;fill-rule:evenodd;stroke:none;stroke-width:0.01562008;stroke-miterlimit:10;stroke-dasharray:none;stroke-opacity:1"
     d="M 0.10584904,5.1022884 0.00640436,5.0026225 2.5044096,2.5046264 5.002415,0.00663027 5.7094267,0.71367442 6.4164385,1.4207185 4.5238779,3.3132791 2.6313173,5.2058397 2.0258401,4.6004003 1.4203629,3.9949609 0.81682855,4.5984577 C 0.4848846,4.9303809 0.21149403,5.2019544 0.20929392,5.2019544 c -0.0022,0 -0.0487503,-0.04485 -0.10344488,-0.099666 z"
     id="path877"
     inkscape:connector-curvature="0" />
  <path
     id="Фигура_2_копия-9"
     data-name="Фигура 2 копия"
     class="cls-1"
     d="M 6.4147418,8.5894134 4.9926604,10.007329 0,5 1.4220815,3.5820842 Z"
     inkscape:connector-curvature="0"
     style="fill-rule:evenodd"
     sodipodi:nodetypes="ccccc" />
</svg>
