<svg xmlns="http://www.w3.org/2000/svg" viewBox="0 0 50 50">
  <path d="M32.21875 2.0625L27.84375 3.78125L28.625 7.5625C28.320313 7.867188 27.996094 8.21875 27.65625 8.59375L23.90625 7.75L22.0625 12.0625L25.25 14.1875C25.214844 14.714844 25.214844 15.253906 25.25 15.78125L21.96875 17.78125L23.6875 22.15625L27.375 21.40625C27.707031 21.804688 28.070313 22.167969 28.46875 22.5L27.625 26.1875L31.96875 28.03125L34.09375 24.84375C34.625 24.878906 35.125 24.878906 35.65625 24.84375L37.6875 28.125L42.0625 26.40625L41.21875 22.40625C41.613281 22.078125 41.953125 21.703125 42.28125 21.3125L46.09375 22.28125L47.96875 17.90625L44.65625 15.875C44.6875 15.355469 44.6875 14.863281 44.65625 14.34375L47.9375 12.3125L46.21875 7.9375L42.40625 8.78125C42.078125 8.386719 41.707031 8.015625 41.3125 7.6875L42.15625 4L37.8125 2.15625L35.78125 5.34375C35.257813 5.292969 34.730469 5.265625 34.21875 5.3125 Z M 35 11C37.210938 11 39 12.789063 39 15C39 17.210938 37.210938 19 35 19C32.789063 19 31 17.210938 31 15C31 12.789063 32.789063 11 35 11 Z M 13.53125 20L12.90625 24C12.355469 24.175781 11.796875 24.425781 11.25 24.71875L7.90625 22.28125L4.40625 25.78125L6.71875 29.15625C6.441406 29.703125 6.222656 30.253906 6.03125 30.8125L2 31.5625L2 36.4375L6 37.15625C6.175781 37.710938 6.421875 38.292969 6.71875 38.84375L4.28125 42.09375L7.78125 45.59375L11.15625 43.28125C11.699219 43.558594 12.257813 43.777344 12.8125 43.96875L13.4375 48L18.34375 48L19.0625 44C19.621094 43.824219 20.199219 43.578125 20.75 43.28125L24.09375 45.71875L27.59375 42.21875L25.1875 38.84375C25.460938 38.300781 25.652344 37.742188 25.84375 37.1875L30 36.4375L30 31.53125L25.90625 30.90625C25.730469 30.355469 25.480469 29.792969 25.1875 29.25L27.59375 25.90625L24.125 22.28125L20.71875 24.71875C20.183594 24.445313 19.644531 24.222656 19.09375 24.03125L18.46875 20 Z M 16 30C18.199219 30 20 31.800781 20 34C20 36.199219 18.199219 38 16 38C13.800781 38 12 36.199219 12 34C12 31.800781 13.800781 30 16 30Z" />
</svg>