<svg xmlns="http://www.w3.org/2000/svg" viewBox="0 0 50 50">
  <path d="M19.828125 2.0644531C19.170898 2.109375 18.537109 2.4375 18.099609 3L15.5 6.5L11 6.6992188C9.9 6.6992188 8.9007812 7.5992188 8.8007812 8.6992188L8.0996094 13L4.3007812 15.199219C3.3007812 15.799219 2.8992187 16.9 3.1992188 18L4.5996094 22.199219L2.3007812 26C1.7007812 26.9 1.8992187 28.2 2.6992188 29L5.8007812 32L5.4003906 36.400391C5.3003906 37.500391 5.9996094 38.600391 7.0996094 38.900391L11.300781 40.099609L13 44.199219C13.4 45.199219 14.599219 45.799609 15.699219 45.599609L20 44.699219L23.400391 47.5C23.800391 47.8 24.400391 48 24.900391 48C25.400391 48 26.000391 47.8 26.400391 47.5L29.800781 44.699219L34.099609 45.599609C35.199609 45.799609 36.300781 45.199219 36.800781 44.199219L38.5 40.099609L42.699219 38.900391C43.799219 38.600391 44.500391 37.600391 44.400391 36.400391L44.199219 32L47.400391 28.900391C48.200391 28.100391 48.400781 26.9 47.800781 26L45.400391 22.300781L46.800781 18.099609C47.200781 16.999609 46.699219 15.900781 45.699219 15.300781L41.900391 13L41.199219 8.5996094C40.999219 7.4996094 40.1 6.6996094 39 6.5996094L34.599609 6.4003906L31.900391 3C31.200391 2.1 30 1.8007812 29 2.3007812L25 4.1992188L21 2.3007812C20.625 2.1132812 20.222461 2.0375 19.828125 2.0644531 z M 19.5 14C21.1 14 22.300781 14.900391 22.800781 16.400391C23.000781 17.000391 23 17.3 23 19.5C23 21.7 22.900781 22.099609 22.800781 22.599609C22.300781 23.999609 21.1 25 19.5 25C17.9 25 16.699219 24.099609 16.199219 22.599609C15.999219 21.999609 16 21.7 16 19.5C16 17.3 16.099219 16.900391 16.199219 16.400391C16.699219 15.000391 17.9 14 19.5 14 z M 30.5 14L31.900391 14C32.100391 14 32.099609 14.200781 32.099609 14.300781L20.099609 35.699219C19.999609 35.899219 19.899219 36 19.699219 36L18.300781 36C18.100781 36 17.999609 35.799219 18.099609 35.699219L30 14.300781C30.1 14.100781 30.2 14 30.5 14 z M 19.5 16.099609C18.8 16.099609 18.299609 16.499609 18.099609 17.099609C17.999609 17.399609 18 17.699609 18 19.599609C18 21.499609 18.099609 21.7 18.099609 22C18.299609 22.7 18.8 23 19.5 23C20.2 23 20.700391 22.6 20.900391 22C21.000391 21.7 21 21.399609 21 19.599609C21 17.699609 20.900391 17.399609 20.900391 17.099609C20.700391 16.399609 20.2 16.099609 19.5 16.099609 z M 30.5 25C32.1 25 33.300781 25.900391 33.800781 27.400391C34.000781 28.000391 34 28.3 34 30.5C34 32.7 33.900781 33.099609 33.800781 33.599609C33.300781 34.999609 32.1 36 30.5 36C28.9 36 27.699219 35.099609 27.199219 33.599609C26.999219 32.999609 27 32.7 27 30.5C27 28.3 27.099219 27.900391 27.199219 27.400391C27.699219 26.000391 28.9 25 30.5 25 z M 30.5 27C29.8 27 29.299609 27.4 29.099609 28C28.999609 28.3 29 28.6 29 30.5C29 32.4 29.099609 32.600391 29.099609 32.900391C29.299609 33.600391 29.8 33.900391 30.5 33.900391C31.2 33.900391 31.700391 33.500391 31.900391 32.900391C32.000391 32.600391 32 32.3 32 30.5C32 28.6 31.900391 28.3 31.900391 28C31.700391 27.4 31.2 27 30.5 27 z" />
</svg>