<svg xmlns="http://www.w3.org/2000/svg" viewBox="0 0 50 50">
  <path d="M42 3C37.582031 3 34 4.34375 34 6C34 7.65625 37.582031 9 42 9C46.417969 9 50 7.65625 50 6C50 4.34375 46.417969 3 42 3 Z M 34 7.90625L34 11C34 12.699219 37.601563 14 42 14C46.398438 14 50 12.699219 50 11L50 7.90625C48.398438 9.304688 45.199219 10 42 10C38.800781 10 35.601563 9.304688 34 7.90625 Z M 34 12.90625L34 16C34 17.699219 37.601563 19 42 19C46.398438 19 50 17.699219 50 16L50 12.90625C48.398438 14.304688 45.199219 15 42 15C38.800781 15 35.601563 14.304688 34 12.90625 Z M 34 17.90625L34 21C34 22.699219 37.601563 24 42 24C46.398438 24 50 22.699219 50 21L50 17.90625C48.398438 19.304688 45.199219 20 42 20C38.800781 20 35.601563 19.304688 34 17.90625 Z M 8 18C3.582031 18 0 19.34375 0 21C0 22.65625 3.582031 24 8 24C12.417969 24 16 22.65625 16 21C16 19.34375 12.417969 18 8 18 Z M 0 22.90625L0 26C0 27.699219 3.601563 29 8 29C12.398438 29 16 27.699219 16 26L16 22.90625C14.398438 24.304688 11.199219 25 8 25C4.800781 25 1.601563 24.304688 0 22.90625 Z M 34 22.90625L34 26C34 27.699219 37.601563 29 42 29C46.398438 29 50 27.699219 50 26L50 22.90625C48.398438 24.304688 45.199219 25 42 25C38.800781 25 35.601563 24.304688 34 22.90625 Z M 0 27.90625L0 31C0 32.699219 3.601563 34 8 34C12.398438 34 16 32.699219 16 31L16 27.90625C14.398438 29.304688 11.199219 30 8 30C4.800781 30 1.601563 29.304688 0 27.90625 Z M 34 27.90625L34 31C34 32.699219 37.601563 34 42 34C46.398438 34 50 32.699219 50 31L50 27.90625C48.398438 29.304688 45.199219 30 42 30C38.800781 30 35.601563 29.304688 34 27.90625 Z M 25 28C20.582031 28 17 29.34375 17 31C17 32.65625 20.582031 34 25 34C29.417969 34 33 32.65625 33 31C33 29.34375 29.417969 28 25 28 Z M 0 32.90625L0 36C0 37.699219 3.601563 39 8 39C12.398438 39 16 37.699219 16 36L16 32.90625C14.398438 34.304688 11.199219 35 8 35C4.800781 35 1.601563 34.304688 0 32.90625 Z M 17 32.90625L17 36C17 37.699219 20.601563 39 25 39C29.398438 39 33 37.699219 33 36L33 32.90625C31.398438 34.304688 28.199219 35 25 35C21.800781 35 18.601563 34.304688 17 32.90625 Z M 34 32.90625L34 36C34 37.699219 37.601563 39 42 39C46.398438 39 50 37.699219 50 36L50 32.90625C48.398438 34.304688 45.199219 35 42 35C38.800781 35 35.601563 34.304688 34 32.90625 Z M 0 37.90625L0 41C0 42.699219 3.601563 44 8 44C12.398438 44 16 42.699219 16 41L16 37.90625C14.398438 39.304688 11.199219 40 8 40C4.800781 40 1.601563 39.304688 0 37.90625 Z M 17 37.90625L17 41C17 42.699219 20.601563 44 25 44C29.398438 44 33 42.699219 33 41L33 37.90625C31.398438 39.304688 28.199219 40 25 40C21.800781 40 18.601563 39.304688 17 37.90625 Z M 34 37.90625L34 41C34 42.699219 37.601563 44 42 44C46.398438 44 50 42.699219 50 41L50 37.90625C48.398438 39.304688 45.199219 40 42 40C38.800781 40 35.601563 39.304688 34 37.90625 Z M 0 42.90625L0 46C0 47.699219 3.601563 49 8 49C12.398438 49 16 47.699219 16 46L16 42.90625C14.398438 44.304688 11.199219 45 8 45C4.800781 45 1.601563 44.304688 0 42.90625 Z M 17 42.90625L17 46C17 47.699219 20.601563 49 25 49C29.398438 49 33 47.699219 33 46L33 42.90625C31.398438 44.304688 28.199219 45 25 45C21.800781 45 18.601563 44.304688 17 42.90625 Z M 34 42.90625L34 46C34 47.699219 37.601563 49 42 49C46.398438 49 50 47.699219 50 46L50 42.90625C48.398438 44.304688 45.199219 45 42 45C38.800781 45 35.601563 44.304688 34 42.90625Z" />
</svg>