<svg xmlns="http://www.w3.org/2000/svg" viewBox="0 0 50 50">
  <path d="M19.875 0.40625C16.195313 0.472656 13.507813 1.601563 11.875 3.75C9.941406 6.296875 9.589844 10.144531 10.8125 15.21875C10.585938 15.496094 10.371094 15.859375 10.25 16.28125C10.128906 16.703125 10.089844 17.164063 10.15625 17.71875C10.289063 18.820313 10.570313 19.609375 10.90625 20.15625C10.996094 20.300781 11.09375 20.417969 11.1875 20.53125C11.457031 20.859375 11.730469 21.050781 12 21.1875C12.34375 22.917969 13.296875 24.863281 14.21875 25.78125L14.21875 26.25C14.226563 27.265625 14.222656 28.144531 14.125 29.28125C13.511719 30.6875 11.476563 31.511719 9.125 32.4375C8.636719 32.628906 8.132813 32.820313 7.625 33.03125C7.117188 33.242188 6.597656 33.472656 6.09375 33.71875C3.070313 35.191406 0.273438 37.402344 0 41.9375L-0.0625 43L27.09375 43C28.996094 47.121094 33.171875 50 38 50C44.617188 50 50 44.617188 50 38C50 31.382813 44.617188 26 38 26C33.890625 26 30.257813 28.058594 28.09375 31.21875C27.417969 30.875 26.855469 30.523438 26.4375 30.09375C26.410156 30.066406 26.402344 30.027344 26.375 30C26.300781 29.917969 26.222656 29.84375 26.15625 29.75C26.144531 29.730469 26.136719 29.707031 26.125 29.6875C26.050781 29.578125 25.964844 29.445313 25.90625 29.3125C25.855469 28.730469 25.851563 28.21875 25.84375 27.71875C25.835938 27.238281 25.839844 26.773438 25.84375 26.28125L25.84375 25.78125C26.738281 24.867188 27.660156 22.917969 28 21.1875C28.453125 20.960938 28.964844 20.519531 29.34375 19.6875C29.417969 19.519531 29.46875 19.355469 29.53125 19.15625C29.660156 18.757813 29.777344 18.269531 29.84375 17.71875C29.875 17.445313 29.863281 17.210938 29.84375 16.96875C29.824219 16.726563 29.808594 16.488281 29.75 16.28125C29.691406 16.074219 29.589844 15.890625 29.5 15.71875C29.410156 15.546875 29.328125 15.386719 29.21875 15.25C29.800781 13.269531 30.988281 8.144531 28.9375 4.84375C28.078125 3.460938 26.777344 2.589844 25.0625 2.25C24.117188 1.058594 22.304688 0.40625 19.875 0.40625 Z M 38 28C43.515625 28 48 32.484375 48 38C48 43.515625 43.515625 48 38 48C32.484375 48 28 43.515625 28 38C28 32.484375 32.484375 28 38 28 Z M 26.4375 34.84375C26.371094 35.082031 26.300781 35.320313 26.25 35.5625C26.300781 35.316406 26.371094 35.082031 26.4375 34.84375 Z M 26.0625 36.875C26.027344 37.246094 26 37.617188 26 38C26 37.621094 26.027344 37.246094 26.0625 36.875 Z M 32 37L32 39L44 39L44 37Z" />
</svg>